<?xml version="1.0" standalone="no"?>
<!DOCTYPE svg PUBLIC "-//W3C//DTD SVG 1.1//EN" "http://www.w3.org/Graphics/SVG/1.1/DTD/svg11.dtd" >
<svg xmlns="http://www.w3.org/2000/svg" xmlns:xlink="http://www.w3.org/1999/xlink" version="1.1">
<metadata></metadata>
<defs>
<font id="fs_albert_prothin" horiz-adv-x="1085" >
<font-face units-per-em="2048" ascent="1577" descent="-471" />
<missing-glyph horiz-adv-x="450" />
<glyph unicode="&#xfb01;" horiz-adv-x="925" d="M57 946v25q0 10 4 13t15 3h123v88q0 64 3 104.5t19 95t47 93.5q79 100 236 100q105 0 207 -38q16 -5 10 -23l-6 -18q-4 -13 -21 -9q-97 33 -182 33q-124 0 -182 -70q-58 -69 -58 -217v-139h482q14 0 14 -18v-951q0 -18 -18 -18h-37q-19 0 -19 18v914h-422v-914 q0 -18 -18 -18h-37q-18 0 -18 18v914h-125q-11 0 -14 2.5t-3 11.5z" />
<glyph unicode="&#xfb02;" horiz-adv-x="970" d="M57 946v25q0 10 4 13t15 3h123v66q0 74 2 112.5t18 99t49 103.5q79 100 236 100q106 0 231 -32l56 12q20 6 20 -14v-1416q0 -18 -14 -18h-45q-15 0 -15 18v1362q-35 10 -104.5 21.5t-120.5 11.5q-124 0 -182 -70q-60 -72 -60 -217v-139h248q10 0 13.5 -3.5t3.5 -12.5v-25 q0 -14 -15 -14h-250v-914q0 -7 -4.5 -12.5t-9.5 -5.5h-41q-16 0 -16 18v914h-125q-11 0 -14 2.5t-3 11.5z" />
<glyph unicode="&#xfb03;" horiz-adv-x="1464" d="M57 946v25q0 10 4 13t15 3h123v21q0 97 4 163q12 133 81.5 205t190.5 72q86 0 141 -25q12 -4 9 -16l-7 -23q-5 -14 -20 -10q-66 19 -115 19q-63 0 -105 -21t-65 -64t-32 -97.5t-9 -133.5v-90h465v88q0 63 3 104t19.5 95.5t47.5 93.5q79 100 235 100q105 0 207 -38 q17 -6 11 -23l-7 -18q-4 -13 -20 -9q-97 33 -182 33q-125 0 -183 -70q-57 -68 -57 -217v-139h481q15 0 15 -18v-951q0 -18 -19 -18h-37q-18 0 -18 18v914h-422v-914q0 -18 -16 -18h-41q-17 0 -17 18v914h-465v-914q0 -18 -18 -18h-37q-18 0 -18 18v914h-125q-11 0 -14 2.5 t-3 11.5z" />
<glyph unicode="&#xfb04;" horiz-adv-x="1509" d="M57 946v25q0 10 4 13t15 3h123v21q0 97 4 163q12 133 81.5 205t190.5 72q86 0 141 -25q12 -4 9 -16l-7 -23q-5 -14 -20 -10q-66 19 -115 19q-63 0 -105 -21t-65 -64t-32 -97.5t-9 -133.5v-90h465v66q0 54 1.5 84t7 76.5t21 84t40.5 70.5q79 100 235 100q107 0 232 -32 l55 12q21 6 21 -14v-1416q0 -18 -15 -18h-45q-14 0 -14 18v1362q-35 10 -104.5 21.5t-120.5 11.5q-125 0 -183 -70q-59 -71 -59 -217v-139h248q10 0 13 -3.5t3 -12.5v-25q0 -9 -3 -11.5t-11 -2.5h-250v-914q0 -7 -4.5 -12.5t-9.5 -5.5h-41q-17 0 -17 18v914h-465v-914 q0 -18 -18 -18h-37q-18 0 -18 18v914h-125q-11 0 -14 2.5t-3 11.5z" />
<glyph horiz-adv-x="0" />
<glyph horiz-adv-x="0" />
<glyph horiz-adv-x="682" />
<glyph unicode="&#xd;" horiz-adv-x="450" />
<glyph unicode=" "  horiz-adv-x="450" />
<glyph unicode="&#x09;" horiz-adv-x="450" />
<glyph unicode="&#xa0;" horiz-adv-x="450" />
<glyph unicode="!" horiz-adv-x="466" d="M164 51q0 32 20 50t52 18q29 0 48 -18.5t19 -49.5q0 -33 -18.5 -52t-51.5 -19q-69 0 -69 71zM195 1393q0 14 14 14h57q17 0 17 -14l-17 -1080q0 -16 -16 -16h-25q-16 0 -16 16z" />
<glyph unicode="&#x22;" horiz-adv-x="575" d="M123 1411q0 19 18 19h45q19 0 19 -19l-6 -324q0 -18 -17 -18h-37q-16 0 -16 18zM371 1411q0 19 18 19h45q19 0 19 -19l-7 -324q0 -18 -16 -18h-37q-16 0 -16 18z" />
<glyph unicode="#" d="M37 451l6 26q3 15 18 15h205l60 387h-209q-9 0 -13.5 3t-3.5 11l4 27q3 14 19 14h211l69 459q3 14 17 14h45q15 0 12 -14l-71 -459h337l70 459q3 14 16 14h43q6 0 10 -3.5t3 -10.5l-70 -459h217q9 0 13.5 -3t3.5 -11l-5 -27q-3 -14 -18 -14h-217l-59 -387h221 q9 0 13 -3.5t3 -11.5l-6 -26q-3 -15 -18 -15h-220l-61 -416q-2 -20 -23 -20h-32q-20 0 -17 20l62 416h-342l-64 -416q-2 -20 -22 -20h-33q-19 0 -16 20l63 416h-205q-9 0 -13 3.5t-3 11.5zM338 492h340l59 387h-340z" />
<glyph unicode="$" d="M203 1100q0 141 94.5 227t245.5 100v179q0 18 16 18h21q16 0 16 -18v-176q137 0 260 -54q16 -8 10 -24l-10 -33q-4 -13 -25 -6q-118 46 -235 49v-592l82 -49q64 -39 107 -72.5t81 -78t56 -99t18 -121.5q0 -158 -95 -251t-249 -111v-176q0 -19 -16 -19h-21q-16 0 -16 19 v170h-25q-150 0 -287 47q-26 11 -18 32l12 33q8 19 29 10q130 -51 268 -51h21v654l-142 84q-94 57 -146 135.5t-52 173.5zM289 1120q0 -97 47 -158.5t133 -113.5l74 -45v557q-110 -13 -182 -75t-72 -165zM596 57q113 19 187.5 90t74.5 195q0 103 -55.5 173t-153.5 128 l-53 31v-617z" />
<glyph unicode="%" horiz-adv-x="1300" d="M66 1057q0 60 11 118t36 115.5t73.5 93t114.5 35.5q53 0 95.5 -24t67.5 -61t42 -86.5t23 -95.5t6 -93t-6.5 -94t-24 -97t-43.5 -87.5t-68.5 -62t-95.5 -24.5t-95 24t-67 61.5t-41 87.5t-22 96t-6 94zM139 1057q0 -45 6.5 -91t22.5 -96.5t49.5 -82t81.5 -31.5q47 0 81 32 t50 82.5t22.5 96t6.5 90.5q0 46 -6.5 92t-22.5 96.5t-49.5 82.5t-81.5 32t-81.5 -32t-49.5 -82.5t-22.5 -96.5t-6.5 -92zM213 2l809 1411q10 17 27 17h36q23 0 11 -21l-811 -1411q-10 -16 -27 -16h-35q-21 0 -10 20zM766 352q0 60 11 118t36 116t73.5 93.5t114.5 35.5 t114.5 -35.5t73 -92.5t35.5 -115t11 -118t-11.5 -119t-37 -116.5t-74.5 -93t-115 -35.5q-53 0 -95 24t-67 61t-41 87t-22 96t-6 94zM840 352q0 -46 6.5 -91.5t22 -96t49 -82t81.5 -31.5q47 0 81 32t50 82.5t22.5 96t6.5 90.5q0 46 -6.5 92t-22.5 96.5t-49.5 82.5t-81.5 32 t-81.5 -31.5t-49 -83t-22 -97t-6.5 -91.5z" />
<glyph unicode="&#x26;" horiz-adv-x="1331" d="M111 356q0 45 11.5 88t27 77t45.5 71.5t53.5 62.5t64.5 59.5t65 52t68 50.5l-75 103q-56 77 -82.5 132t-26.5 122q0 103 75.5 179.5t190.5 76.5q119 0 193 -71.5t74 -182.5q0 -56 -21 -108.5t-61.5 -99.5t-77.5 -80.5t-92 -74.5l409 -522q160 223 187 522q2 21 22 21h25 q18 0 18 -19q-32 -340 -207 -575q131 -145 273 -195q18 -4 12 -22l-12 -31q-8 -18 -27 -10q-171 51 -293 202q-189 -202 -454 -202q-164 0 -274.5 105.5t-110.5 268.5zM188 360q0 -141 95 -227t223 -86q233 0 399 184l-422 537q-56 -37 -104 -78.5t-93.5 -93.5t-71.5 -113.5 t-26 -122.5zM338 1176q0 -97 104 -234l64 -82q102 77 161.5 151t59.5 160q0 90 -53.5 146.5t-141.5 56.5q-84 0 -139 -55t-55 -143z" />
<glyph unicode="'" horiz-adv-x="327" d="M123 1411q0 19 18 19h45q19 0 19 -19l-6 -324q0 -18 -17 -18h-37q-16 0 -16 18z" />
<glyph unicode="(" horiz-adv-x="634" d="M150 600q0 434 272 840q11 17 24 12l23 -12q13 -8 2 -23q-246 -382 -246 -821q0 -420 252 -811q11 -16 -4 -25l-24 -14q-14 -7 -23 8q-144 223 -210 418.5t-66 427.5z" />
<glyph unicode=")" horiz-adv-x="634" d="M158 -213q252 391 252 811q0 439 -246 821q-11 15 2 23l22 12q13 5 25 -12q272 -406 272 -840q0 -232 -66 -427.5t-210 -418.5q-9 -15 -23 -8l-24 14q-15 9 -4 25z" />
<glyph unicode="*" horiz-adv-x="610" d="M53 1233l13 37q7 21 28 12l203 -92l-29 235q-4 21 21 21h43q24 0 20 -21l-30 -235l202 96q21 9 27 -10l14 -41q9 -21 -14 -27l-221 -41l159 -178q15 -18 -6 -31l-28 -18q-9 -7 -19.5 -5t-15.5 11l-111 213l-106 -219q-13 -20 -33 -4l-31 20q-20 14 -6 31l150 178l-215 37 q-23 6 -15 31z" />
<glyph unicode="+" d="M158 518v33q0 10 3.5 13t14.5 3h330v371q0 18 18 18h37q19 0 19 -18v-371h327q11 0 15 -3t4 -13v-33q0 -10 -4 -13t-15 -3h-327v-369q0 -18 -19 -18h-37q-18 0 -18 18v369h-330q-11 0 -14.5 3t-3.5 13z" />
<glyph unicode="," horiz-adv-x="385" d="M133 -215q-9 9 2 20q70 70 70 144q0 39 -33 82t-33 65q0 29 19 46.5t49 17.5q33 0 58.5 -29.5t25.5 -73.5q0 -160 -129 -280q-12 -11 -21 -2z" />
<glyph unicode="-" horiz-adv-x="542" d="M119 518v33q0 16 20 16h262q25 0 25 -24v-19q0 -26 -23 -26h-262q-22 0 -22 20z" />
<glyph unicode="." horiz-adv-x="389" d="M135 51q0 32 20 50t52 18q29 0 48 -18.5t19 -49.5q0 -33 -18 -52t-51 -19q-34 0 -52 19t-18 52z" />
<glyph unicode="/" horiz-adv-x="638" d="M106 0l390 1413q3 17 16 17h41q14 0 10 -19l-385 -1409q-4 -13 -9 -16.5t-17 -3.5h-35q-15 0 -11 18z" />
<glyph unicode="0" d="M115 705q0 98 12 192.5t43 193t78 172t123.5 120.5t173.5 47q81 0 147.5 -31.5t112 -88t78.5 -126.5t51 -153t26.5 -162t8.5 -160q0 -80 -9 -159.5t-27.5 -163.5t-52.5 -155t-80 -127.5t-113 -89t-148 -32.5t-147.5 32t-112 88.5t-78.5 126.5t-51 153.5t-26.5 162.5 t-8.5 160zM199 707q0 -62 6.5 -127.5t20 -142t40 -143.5t63 -122.5t92 -88t122.5 -32.5q80 0 142.5 47.5t99 118.5t60 163.5t32 172t8.5 154.5t-8.5 154.5t-32 171.5t-60 163t-99 118.5t-142.5 47.5t-143 -47t-100 -118t-60.5 -163t-32 -171.5t-8.5 -155.5z" />
<glyph unicode="1" d="M238 1145q-10 16 6 26l315 224q17 12 49 12h31q16 0 16 -23v-1361q0 -23 -18 -23h-37q-11 0 -14.5 4t-3.5 16v1307l-301 -211q-18 -13 -27 2z" />
<glyph unicode="2" d="M160 18v35q0 19 10 31q33 36 125.5 133.5t171.5 185.5t143 170q224 289 224 490q0 135 -83 216t-214 81q-138 0 -279 -80q-19 -11 -25 4l-16 33q-5 13 10 22q71 45 154.5 68t157.5 23q171 0 275 -96t104 -261q0 -142 -77 -291.5t-272 -369.5q-162 -184 -315 -342h649 q23 0 23 -19v-33q0 -18 -23 -18h-727q-16 0 -16 18z" />
<glyph unicode="3" d="M197 63l16 39q5 15 25 7q131 -56 251 -56q152 0 246 89t94 247q0 164 -100.5 251t-261.5 87h-49q-17 0 -17 14v37q0 15 15 15h35q151 0 242 71.5t91 220.5q0 134 -84.5 205.5t-212.5 71.5q-127 0 -237 -55q-21 -11 -27 6l-12 30q-6 15 12 25q120 62 271 62 q164 0 268 -91.5t104 -251.5q0 -71 -23 -135t-78 -116.5t-134 -71.5v-2q129 -26 206.5 -129.5t77.5 -241.5q0 -182 -117 -295.5t-294 -113.5q-178 0 -295 57q-17 9 -12 24z" />
<glyph unicode="4" d="M137 373v30q0 28 15 64l387 924q7 16 24 16h47q19 0 11 -21l-406 -964h621v360q0 19 16 19h41q16 0 16 -19v-768q0 -14 -14 -14h-45q-14 0 -14 14v340h-680q-19 0 -19 19z" />
<glyph unicode="5" d="M193 76l16 35q7 15 22 6q123 -64 265 -64q69 0 130.5 21t111 62.5t79 109.5t29.5 155q0 90 -26 157.5t-68.5 107.5t-104.5 65t-124.5 34t-139.5 9h-100q-16 0 -21.5 5t-5.5 18v594q0 16 16 16h568q10 0 13 -3t3 -11v-41q0 -13 -16 -13h-510v-497h106q104 0 192 -25.5 t156.5 -77t107 -136.5t38.5 -195q0 -197 -125 -311.5t-324 -114.5q-69 0 -146 19t-134 52q-14 8 -8 23z" />
<glyph unicode="6" d="M160 596q0 80 6.5 156.5t23 161.5t42.5 157.5t68.5 140t97 115t132 75.5t170.5 28q56 0 119 -13q24 -3 19 -24l-7 -31q-3 -15 -20 -12q-56 12 -113 12q-98 0 -175.5 -42t-126 -108t-82 -158t-48.5 -180.5t-20 -187.5q67 81 163.5 121.5t182.5 40.5q152 0 251 -109.5 t99 -296.5q0 -201 -104 -330.5t-275 -129.5q-108 0 -187.5 46t-126 131t-68 193.5t-21.5 243.5zM242 610q0 -55 2.5 -101.5t10.5 -107t21.5 -108t38 -96t57.5 -81t82.5 -53t110.5 -20.5q64 0 116.5 26t85.5 67t55.5 93.5t32 102t9.5 96.5q0 51 -9.5 100t-30.5 95.5t-52 81.5 t-78 56t-104 21q-195 0 -348 -172z" />
<glyph unicode="7" d="M215 1354v39q0 9 3 11.5t11 2.5h695q18 0 18 -16v-23q0 -32 -14 -68l-547 -1284q-8 -16 -21 -16h-55q-18 0 -10 20l567 1319h-629q-18 0 -18 15z" />
<glyph unicode="8" d="M135 348q0 239 334 404q-149 69 -219 165t-70 207q0 136 101.5 221t257.5 85q152 0 247 -88t95 -228q0 -67 -23 -123t-65 -97.5t-86 -70t-101 -55.5q342 -156 342 -416q0 -173 -118.5 -271.5t-299.5 -98.5q-175 0 -285 97.5t-110 268.5zM219 352q0 -76 28.5 -136.5 t75.5 -96t102 -54t112 -18.5q61 0 116.5 17t104 51t77.5 94t29 139q0 59 -19.5 110.5t-48 87.5t-75 70.5t-87.5 56t-99 48.5q-55 -31 -89.5 -52t-82.5 -58.5t-75.5 -72t-48 -84t-20.5 -102.5zM264 1126q0 -198 275 -327q46 23 77.5 42t68.5 48.5t59 59.5t37.5 73t15.5 92 q0 113 -72 181.5t-193 68.5q-118 0 -193 -62t-75 -176z" />
<glyph unicode="9" d="M143 969q0 201 104 331t275 130q108 0 187.5 -45.5t126 -129.5t68.5 -191.5t22 -242.5q0 -80 -6.5 -157t-23 -162t-42.5 -158.5t-69 -141t-97.5 -115.5t-132 -76.5t-170.5 -28.5q-62 0 -121 12q-13 3 -15.5 7.5t-0.5 16.5l6 31q3 15 18 12q55 -12 115 -12q71 0 131.5 22 t104.5 59t80 90t59.5 111.5t40 127.5t25 133t12.5 133q-67 -81 -163.5 -121.5t-182.5 -40.5q-152 0 -251.5 109.5t-99.5 296.5zM221 983q0 -64 16 -125t47.5 -113t86 -84t125.5 -32q195 0 348 172q0 55 -2.5 102t-10.5 107t-21.5 107.5t-38 96t-58 81t-83 53t-110.5 20.5 q-64 0 -116.5 -26t-85.5 -67t-55.5 -93.5t-32 -102t-9.5 -96.5z" />
<glyph unicode=":" horiz-adv-x="395" d="M135 59q0 32 20 50t52 18q29 0 48 -18.5t19 -49.5q0 -33 -18 -52t-51 -19q-34 0 -52 19t-18 52zM135 934q0 31 20 49t52 18q29 0 48 -18t19 -49q0 -33 -18 -52.5t-51 -19.5q-34 0 -52 19.5t-18 52.5z" />
<glyph unicode=";" horiz-adv-x="407" d="M137 -215q-9 9 2 20q70 70 70 144q0 39 -33 82t-33 65q0 29 19 46.5t49 17.5q33 0 58.5 -29.5t25.5 -73.5q0 -160 -129 -280q-12 -11 -21 -2zM145 928q0 33 21 53t51 20q29 0 49.5 -20t20.5 -53q0 -30 -21 -49t-49 -19q-29 0 -50.5 19t-21.5 49z" />
<glyph unicode="&#x3c;" d="M199 526v19q0 13 10 20l553 406q16 10 26 -2l19 -27q12 -17 -4 -33l-512 -374l514 -371q16 -11 6 -27l-20 -31q-14 -17 -31 -4l-551 404q-10 8 -10 20z" />
<glyph unicode="=" d="M158 309v33q0 10 3.5 13t14.5 3h731q11 0 15 -3t4 -13v-33q0 -10 -4 -13t-15 -3h-731q-11 0 -14.5 3t-3.5 13zM158 727v33q0 10 3.5 13t14.5 3h731q11 0 15 -3t4 -13v-33q0 -10 -4 -13t-15 -3h-731q-11 0 -14.5 3t-3.5 13z" />
<glyph unicode="&#x3e;" d="M274 936l21 31q14 17 31 4l551 -404q10 -7 10 -20v-19q0 -13 -10 -20l-553 -406q-17 -10 -27 2l-18 27q-12 17 4 33l512 375l-514 370q-17 11 -7 27z" />
<glyph unicode="?" horiz-adv-x="804" d="M152 1335q-8 14 10 23q119 72 260 72q130 0 218.5 -80t88.5 -217q0 -59 -14.5 -111t-44.5 -97t-57 -76t-70 -73q-37 -36 -50 -49.5t-43.5 -47t-43 -55.5t-30 -56t-24 -70t-6.5 -76v-23q0 -9 -3 -11.5t-11 -2.5h-33q-14 0 -14 14v29q0 64 15 118t48 102t58 76t73 75 l55.5 55.5t47.5 55t43 66t25.5 71.5t11.5 88q0 111 -73.5 172t-176.5 61q-116 0 -224 -65q-15 -9 -22 4zM242 51q0 32 20 50t51 18q29 0 48.5 -18.5t19.5 -49.5q0 -33 -18.5 -52t-51.5 -19q-69 0 -69 71z" />
<glyph unicode="@" horiz-adv-x="1611" d="M133 647q0 161 58.5 306t158 249.5t237 166t290.5 61.5q179 0 320 -74.5t222.5 -216.5t81.5 -330q0 -118 -44.5 -233.5t-130 -195t-187.5 -79.5q-67 0 -112.5 40.5t-45.5 121.5q0 17 4 49q-44 -91 -111 -135.5t-141 -44.5q-82 0 -137 65t-55 205q0 106 39.5 205.5 t117 167t174.5 67.5q31 0 64.5 -11.5t66.5 -47t41 -88.5l19 96q3 19 18 19h27q19 0 14 -19l-75 -364q-17 -90 -17 -133q0 -74 25 -109t84 -35q63 0 115 32.5t85 83t56.5 113t33 120t9.5 106.5q0 257 -153.5 411t-401.5 154q-193 0 -346 -100t-234.5 -262.5t-81.5 -352.5 q0 -284 167.5 -452t438.5 -168q73 0 159.5 23t158.5 61q15 10 20 -4l9 -21q4 -13 -9 -20q-159 -92 -350 -92q-199 0 -354 83t-241.5 234.5t-86.5 347.5zM612 610q0 -109 38.5 -165t103.5 -56q69 0 130 59.5t93 141.5l49 239q-7 76 -44 117t-99 41q-55 0 -102 -27.5 t-77 -69.5t-51.5 -93.5t-31 -99t-9.5 -87.5z" />
<glyph unicode="A" horiz-adv-x="1138" d="M43 27l492 1362q6 18 20 18h43q14 0 20 -16l482 -1368q7 -23 -17 -23h-53q-20 0 -26 16l-152 457h-567l-162 -461q-5 -12 -19 -12h-49q-21 0 -12 27zM307 539h524l-258 747z" />
<glyph unicode="B" horiz-adv-x="1077" d="M178 27v1351q0 29 29 29h242q419 0 419 -326q0 -118 -64 -213t-186 -120v-3q158 -3 256.5 -103.5t98.5 -254.5q0 -88 -23.5 -155.5t-65 -111t-102.5 -71t-130.5 -38.5t-155.5 -11h-289q-29 0 -29 27zM260 70h217q71 0 127.5 7.5t110.5 28t89.5 55t57 91.5t21.5 133 q0 322 -406 322h-217v-637zM260 774h182q49 0 89.5 5t89.5 23t82 49.5t56 89t23 136.5q0 69 -21.5 118.5t-54 76.5t-83 43t-95 20t-104.5 4h-164v-565z" />
<glyph unicode="C" horiz-adv-x="1124" d="M104 705q0 114 24.5 220.5t74 198.5t119 160t165.5 107t207 39q198 0 342 -89q13 -8 6 -24l-14 -29q-8 -16 -24 -8q-138 80 -299 80q-103 0 -188.5 -37.5t-143.5 -101t-98.5 -147t-59 -174.5t-18.5 -185q0 -101 16.5 -194.5t55 -180t95.5 -150t144 -101.5t194 -38 q158 0 314 78q15 6 22 -8l15 -33q6 -14 -13 -25q-158 -81 -352 -81q-145 0 -258 57t-183.5 157.5t-106.5 229.5t-36 279z" />
<glyph unicode="D" horiz-adv-x="1280" d="M178 31v1345q0 13 8.5 22t24.5 9h219q198 0 302.5 -20.5t189.5 -79.5q119 -81 186.5 -241.5t67.5 -371.5q0 -174 -49 -315.5t-142 -233.5q-145 -145 -469 -145h-305q-16 0 -24.5 9t-8.5 22zM260 70h195q158 0 251.5 16t165.5 70q113 85 162 229.5t49 310.5 q0 168 -48.5 310.5t-141.5 224.5q-75 66 -175 87t-235 21h-223v-1269z" />
<glyph unicode="E" horiz-adv-x="962" d="M178 25v1353q0 17 6 23t25 6h631q14 0 14 -12l-4 -41q-2 -15 -21 -15h-569v-565h494q18 0 18 -16v-35q0 -16 -18 -16h-494v-637h582q18 0 18 -17v-37q0 -16 -18 -16h-637q-27 0 -27 25z" />
<glyph unicode="F" horiz-adv-x="915" d="M178 25v1353q0 17 6 23t25 6h631q17 0 14 -14l-4 -39q-3 -15 -21 -15h-569v-565h492q20 0 20 -16v-35q0 -16 -18 -16h-494v-678q0 -17 -5 -23t-17 -6h-33q-27 0 -27 25z" />
<glyph unicode="G" horiz-adv-x="1251" d="M104 705q0 143 40.5 273t114 231t188 161t253.5 60q206 0 344 -89q14 -8 7 -22l-19 -33q-6 -15 -20 -6q-130 80 -301 80q-103 0 -189 -37.5t-145 -101t-100.5 -147t-60.5 -174.5t-19 -185q0 -101 16.5 -194.5t55 -180t95 -150t143.5 -101.5t195 -38q179 0 304 76v580 h-248q-17 0 -17 14v37q0 16 15 16h311q20 0 20 -20v-625q0 -25 -8 -36t-39 -30q-137 -81 -352 -81q-145 0 -258 57t-183.5 157.5t-106.5 229.5t-36 279z" />
<glyph unicode="H" horiz-adv-x="1271" d="M178 18v1371q0 18 17 18h49q16 0 16 -21v-612h752v617q0 16 16 16h49q17 0 17 -18v-1371q0 -18 -15 -18h-49q-11 0 -14.5 3.5t-3.5 16.5v687h-752v-689q0 -18 -16 -18h-51q-15 0 -15 18z" />
<glyph unicode="I" horiz-adv-x="688" d="M143 1362v35q0 10 13 10h366q15 0 15 -12v-33q0 -12 -15 -12h-143v-1291h145q13 0 13 -12v-35q0 -12 -13 -12h-362q-12 0 -12 12v35q0 12 12 12h135v1291h-139q-15 0 -15 12z" />
<glyph unicode="J" horiz-adv-x="704" d="M104 10l7 29q3 15 18 12q39 -8 82 -8q62 0 114.5 22.5t77.5 69.5q41 76 41 281v934h-239q-17 0 -17 14v33q0 10 13 10h309q16 0 16 -16v-924q0 -164 -18 -261t-76 -151q-76 -73 -231 -73q-49 0 -82 8q-18 5 -15 20z" />
<glyph unicode="K" horiz-adv-x="958" d="M178 20v1366q0 21 19 21h47q16 0 16 -23v-643h2l555 654q9 12 27 12h51q9 0 11 -6t-3 -12l-561 -662l598 -707q6 -6 3.5 -13t-11.5 -7h-60q-22 0 -38 16l-572 686h-2v-679q0 -23 -18 -23h-45q-10 0 -14.5 3.5t-4.5 16.5z" />
<glyph unicode="L" horiz-adv-x="839" d="M178 20v1369q0 18 15 18h53q14 0 14 -18v-1319h518q17 0 17 -15v-41q0 -14 -17 -14h-579q-21 0 -21 20z" />
<glyph unicode="M" horiz-adv-x="1634" d="M188 14l43 1368q0 25 21 25h31q18 0 26 -21l512 -1247h4l496 1254q5 14 20 14h43q15 0 15 -14l47 -1375q0 -18 -19 -18h-45q-6 0 -9 0.5t-6 5.5t-3 14l-45 1164h-4l-457 -1168q-6 -16 -22 -16h-25q-19 0 -25 16l-483 1168h-4l-31 -1168q0 -16 -14 -16h-51q-15 0 -15 14z " />
<glyph unicode="N" horiz-adv-x="1323" d="M178 18v1373q0 16 17 16h34q19 0 27 -14l809 -1229h2v1227q0 16 14 16h52q12 0 12 -16v-1375q0 -16 -17 -16h-34q-17 0 -27 16l-811 1241h-2v-1237q0 -13 -4 -16.5t-14 -3.5h-39q-19 0 -19 18z" />
<glyph unicode="O" horiz-adv-x="1271" d="M104 698q0 335 151.5 533.5t389.5 198.5q247 0 384.5 -192.5t137.5 -524.5q0 -174 -42 -314t-116 -230.5t-172 -138.5t-212 -48q-245 0 -383 187t-138 529zM197 705q0 -300 113 -477t321 -177q132 0 233.5 83.5t156 232.5t54.5 340q0 198 -48 342.5t-146.5 226.5 t-239.5 82q-134 0 -236 -86.5t-155 -234t-53 -332.5z" />
<glyph unicode="P" horiz-adv-x="978" d="M178 18v1368q0 21 21 21h225q104 0 187 -22t148 -68.5t100.5 -127t35.5 -190.5q0 -105 -36 -188t-99 -135t-146.5 -79.5t-181.5 -27.5h-172v-549q0 -20 -16 -20h-49q-17 0 -17 18zM260 637h164q175 0 279 88t104 274q0 82 -22 143.5t-57.5 98.5t-89 59.5t-109.5 30.5 t-126 8h-143v-702z" />
<glyph unicode="Q" horiz-adv-x="1292" d="M104 700q0 111 20 215t63 198t105 164t153 111.5t200 41.5q110 0 199.5 -40t148.5 -107.5t99 -160t57.5 -194t17.5 -213.5q0 -101 -17.5 -198t-56 -193t-109 -174t-165.5 -121q55 -17 109.5 -47.5t91.5 -58.5t90.5 -57.5t108.5 -45.5q18 -4 12 -23l-10 -26 q-6 -18 -27 -13q-96 24 -215 109q-109 79 -173 101t-179 22q-112 0 -201.5 39t-148.5 105t-98.5 158t-57 193t-17.5 215zM197 707q0 -88 11.5 -172t42.5 -173.5t78.5 -155.5t126 -108.5t179.5 -42.5q97 0 175 42.5t126.5 109t80.5 155t45 174.5t13 173q0 89 -11 173t-41 173 t-76.5 154.5t-125.5 108t-180 42.5q-96 0 -174 -43t-127 -111t-82.5 -156.5t-47 -174t-13.5 -168.5z" />
<glyph unicode="R" horiz-adv-x="1011" d="M178 16v1373q0 18 19 18h264q220 0 333 -94.5t113 -294.5q0 -151 -87.5 -255.5t-227.5 -131.5l338 -608q5 -9 1 -16t-16 -7h-47q-19 0 -28 16l-328 607h-252v-605q0 -18 -16 -18h-51q-15 0 -15 16zM260 690h217q154 0 247 83t93 247q0 175 -98.5 247t-284.5 72h-174v-649 z" />
<glyph unicode="S" horiz-adv-x="937" d="M115 1100q0 153 111 241.5t280 88.5q143 0 262 -56q16 -8 10 -24l-12 -29q-7 -15 -27 -8q-122 49 -235 49q-126 0 -214.5 -63t-88.5 -179q0 -97 47 -158.5t133 -113.5l209 -127q64 -39 107 -72.5t81 -78t56 -99t18 -121.5q0 -120 -58 -204.5t-151.5 -124t-212.5 -39.5 q-157 0 -291 49q-13 4 -15.5 11t1.5 17l12 35q6 20 29 10q130 -51 268 -51q63 0 120.5 16.5t107 49.5t79 90.5t29.5 132.5q0 103 -55.5 173t-153.5 128l-248 148q-94 57 -146 135.5t-52 173.5z" />
<glyph unicode="T" horiz-adv-x="1052" d="M55 1354v41q0 12 15 12h905q21 0 18 -16l-4 -35q-2 -17 -22 -17h-410v-1323q0 -16 -16 -16h-47q-19 0 -19 16v1323h-405q-15 0 -15 15z" />
<glyph unicode="U" horiz-adv-x="1351" d="M178 625v759q0 23 21 23h41q20 0 20 -23v-743q0 -73 3 -128.5t13 -120t27.5 -111t49 -92t74.5 -73.5t106 -45.5t143 -17.5q70 0 127 12.5t98.5 38t73.5 57.5t53 76t35 88t21 101t9.5 106t2.5 111v746q0 18 16 18h49q17 0 17 -18v-785q0 -107 -14.5 -196t-50.5 -169.5 t-92 -136t-143.5 -88t-199.5 -32.5q-91 0 -164 16.5t-125 45t-90 74t-61 96.5t-36.5 120t-18.5 136.5t-5 154.5z" />
<glyph unicode="V" horiz-adv-x="1146" d="M80 1380q-10 27 16 27h51q22 0 31 -23l410 -1269h2l401 1271q4 13 10 17t19 4h43q25 0 18 -25l-442 -1366q-5 -16 -25 -16h-59q-20 0 -27 20z" />
<glyph unicode="W" horiz-adv-x="1699" d="M84 1384q-8 23 16 23h41q19 0 25 -18l332 -1295h2l321 1295q5 18 27 18h31q19 0 24 -16l322 -1297h2l338 1292q6 21 24 21h31q24 0 18 -23l-366 -1366q-5 -18 -25 -18h-61q-18 0 -23 18l-301 1256h-4l-311 -1256q-3 -18 -25 -18h-59q-18 0 -23 18z" />
<glyph unicode="X" horiz-adv-x="1048" d="M81 7q-3 7 3 18l401 710l-360 647q-13 25 16 25h41q23 0 31 -16l319 -574l320 574q8 16 31 16h41q10 0 13.5 -7t-1.5 -16l-363 -641l406 -718q6 -13 0.5 -19t-18.5 -6h-46q-23 0 -34 20l-355 642l-358 -644q-9 -18 -31 -18h-41q-12 0 -15 7z" />
<glyph unicode="Y" horiz-adv-x="1024" d="M75.5 1399.5q4.5 7.5 18.5 7.5h41q20 0 29 -18l364 -766h2l347 766q8 18 28 18h33q27 0 16 -25l-387 -837v-522q0 -23 -24 -23h-33q-14 0 -19.5 5t-5.5 18v518l-409 843q-5 8 -0.5 15.5z" />
<glyph unicode="Z" horiz-adv-x="1017" d="M68 16v25q0 20 12 41l762 1257h-682q-19 0 -19 17v37q0 14 17 14h762q18 0 18 -18v-19q0 -18 -14 -43l-764 -1257h758q20 0 20 -21v-31q0 -18 -18 -18h-832q-12 0 -16 3.5t-4 12.5z" />
<glyph unicode="[" horiz-adv-x="563" d="M193 -270v1677q0 14 4.5 18.5t15.5 4.5h285q10 0 13 -3.5t3 -11.5v-24q0 -10 -3.5 -13.5t-12.5 -3.5h-232v-1614h232q10 0 13 -3t3 -11v-25q0 -16 -16 -16h-285q-12 0 -16 5t-4 20z" />
<glyph unicode="\" horiz-adv-x="684" d="M125 1415q-7 25 14 25h23q19 0 24 -19l383 -1429q6 -19 -14 -19h-27q-15 0 -18 17z" />
<glyph unicode="]" horiz-adv-x="565" d="M49 -256q0 16 17 16h233v1614h-233q-17 0 -17 15v24q0 17 17 17h286q12 0 16.5 -5t4.5 -20v-1679q0 -21 -21 -21h-286q-17 0 -17 14v25z" />
<glyph unicode="^" d="M182 846l328 520q11 16 27 16h22q17 0 27 -16l315 -539q10 -16 -4 -24l-29 -19q-17 -10 -26 9l-297 512l-303 -498q-10 -16 -25 -6l-31 20q-13 10 -4 25z" />
<glyph unicode="_" horiz-adv-x="997" d="M20 -186q0 16 21 16h911q25 0 25 -20v-27q0 -23 -23 -23h-911q-23 0 -23 21v33z" />
<glyph unicode="`" horiz-adv-x="606" d="M137 1374l31 45q12 18 33 2l262 -209q13 -10 6 -22l-10 -16q-9 -13 -19 -5l-297 177q-19 9 -6 28z" />
<glyph unicode="a" horiz-adv-x="1030" d="M98 477q0 125 32 227.5t87 168t126.5 100.5t152.5 35q91 0 174 -42t127 -128v131q0 18 20 18h33q20 0 20 -18v-819q0 -52 14 -76.5t48 -24.5h10q16 0 16 -14v-21q0 -14 -16 -14h-37q-108 0 -108 141v49q-15 -37 -40 -71t-63.5 -66t-95.5 -51.5t-125 -19.5 q-120 0 -206.5 68t-127.5 178t-41 249zM178 485q0 -208 83.5 -327t215.5 -119q239 0 320 272v430q-45 102 -122.5 154.5t-172.5 52.5q-147 0 -235.5 -125t-88.5 -338z" />
<glyph unicode="b" horiz-adv-x="1036" d="M156 18v1401q0 22 18 25l35 6q20 3 20 -16v-584q62 75 147 116.5t179 41.5q95 0 169.5 -40t120.5 -110t69.5 -160.5t23.5 -197.5t-25 -199.5t-74 -164.5t-128 -113t-179 -41q-185 0 -303 168v-132q0 -18 -16 -18h-41q-16 0 -16 18zM229 236q54 -86 132 -141.5t167 -55.5 q70 0 126.5 24.5t94 66t62.5 99.5t36 122t11 136q0 137 -30.5 237.5t-102.5 162t-182 61.5q-89 0 -176 -50.5t-138 -125.5v-536z" />
<glyph unicode="c" horiz-adv-x="829" d="M98 498q0 225 119.5 367.5t323.5 142.5q56 0 119 -16.5t108 -41.5q18 -10 12 -22l-14 -31q-5 -13 -23 -4q-111 53 -202 53q-166 0 -264.5 -119.5t-98.5 -324.5q0 -73 11 -137.5t37.5 -124.5t66.5 -103t101 -68.5t138 -25.5q130 0 222 47q13 5 18 -8l12 -25q5 -12 -12 -20 q-110 -55 -240 -55q-216 0 -325 138.5t-109 377.5z" />
<glyph unicode="d" horiz-adv-x="1042" d="M98 494q0 230 116.5 372t295.5 142q88 0 173 -41.5t128 -116.5v569q0 22 16 25l37 6q21 4 21 -16v-1416q0 -18 -17 -18h-41q-16 0 -16 18v123q-58 -75 -142.5 -117t-181.5 -42q-98 0 -174 41t-122 112.5t-69.5 162.5t-23.5 196zM178 496q0 -205 83.5 -331t234.5 -126 q93 0 181 52.5t134 135.5v527q-40 88 -118.5 141t-170.5 53q-158 0 -251 -121.5t-93 -330.5z" />
<glyph unicode="e" horiz-adv-x="958" d="M98 496q0 221 116.5 366.5t309.5 145.5q160 0 252 -116.5t92 -301.5v-62q0 -14 -6.5 -20t-23.5 -6h-660q0 -73 11 -137.5t38 -125t67.5 -103.5t103.5 -69t143 -26q125 0 233 43q23 8 27 -8l8 -27q3 -12 -12 -20q-54 -23 -130.5 -35t-136.5 -12q-210 0 -321 138t-111 376z M180 557h617v41q0 55 -9.5 105t-30.5 95t-52.5 78t-79 52.5t-105.5 19.5q-81 0 -145 -32t-104 -88t-62.5 -124t-28.5 -147z" />
<glyph unicode="f" horiz-adv-x="630" d="M57 946v25q0 10 4 13t15 3h123v41q0 98 4 164q12 132 83.5 204t192.5 72q91 0 146 -22q15 -5 12 -19l-6 -22q-5 -14 -21 -10q-59 18 -123 18q-122 0 -168.5 -78t-46.5 -237v-111h267q10 0 13 -3.5t3 -12.5v-25q0 -9 -3 -11.5t-11 -2.5h-269v-914q0 -18 -18 -18h-37 q-18 0 -18 18v914h-125q-11 0 -14 2.5t-3 11.5z" />
<glyph unicode="g" horiz-adv-x="1040" d="M98 496q0 139 47 254t142 186.5t223 71.5q103 0 179 -43t122 -113v117q0 18 16 18h41q17 0 17 -18v-932q0 -488 -400 -488q-140 0 -268 64q-16 8 -10 22l12 27q6 15 23 8q125 -61 250 -61q89 0 152.5 30t99 87t51.5 129t16 165v144q-38 -66 -128 -115t-194 -49 q-97 0 -173 39.5t-123 108.5t-71 157.5t-24 190.5zM178 506q0 -63 9 -122.5t32.5 -119.5t58.5 -104.5t92 -72.5t128 -28q92 0 176 49.5t137 133.5v510q-40 89 -119 142.5t-172 53.5q-162 0 -252 -123t-90 -319z" />
<glyph unicode="h" horiz-adv-x="1042" d="M158 18v1401q0 22 16 25l37 6q20 3 20 -16v-572q56 62 147.5 104t192.5 42q314 0 314 -363v-627q0 -18 -17 -18h-41q-16 0 -16 18v609q0 71 -10 123.5t-36 98.5t-76.5 70.5t-125.5 24.5q-186 0 -332 -156v-770q0 -18 -16 -18h-41q-16 0 -16 18z" />
<glyph unicode="i" horiz-adv-x="430" d="M160 1243q0 23 15 38t40 15q24 0 39.5 -15.5t15.5 -37.5t-15.5 -37.5t-39.5 -15.5q-25 0 -40 15t-15 38zM178 18v951q0 18 17 18h41q16 0 16 -18v-951q0 -18 -16 -18h-41q-17 0 -17 18z" />
<glyph unicode="j" horiz-adv-x="481" d="M-98 -422l4 21q3 17 22 14q38 -6 70 -6q47 0 84 14t61.5 35t41.5 56.5t26 67t13.5 78.5t5.5 78.5t1 79.5v953q0 18 17 18h41q16 0 16 -18v-944q0 -60 -2 -103.5t-9.5 -96t-20 -90t-36 -75t-56 -60t-80.5 -37t-109 -14.5q-38 0 -76 9q-17 6 -14 20zM217 1243 q0 24 14.5 38.5t38.5 14.5q25 0 40.5 -15t15.5 -38t-15.5 -38t-40.5 -15q-24 0 -38.5 14.5t-14.5 38.5z" />
<glyph unicode="k" horiz-adv-x="796" d="M158 18v1401q0 22 16 25l37 6q20 3 20 -16v-904l387 443q14 14 33 14h39q10 0 12 -7t-4 -13l-325 -373l379 -574q5 -6 3.5 -13t-10.5 -7h-49q-21 0 -32 16l-342 523l-91 -101v-420q0 -18 -16 -18h-41q-16 0 -16 18z" />
<glyph unicode="l" horiz-adv-x="393" d="M160 18v1401q0 22 16 25l37 6q20 3 20 -16v-1416q0 -18 -16 -18h-41q-16 0 -16 18z" />
<glyph unicode="m" horiz-adv-x="1624" d="M158 18v951q0 18 14 18h45q14 0 14 -18v-113q142 152 334 152q176 0 258 -142q78 73 167 107.5t171 34.5q305 0 305 -361v-629q0 -18 -16 -18h-41q-16 0 -16 18v609q0 75 -10.5 129.5t-37.5 100t-78.5 68.5t-127.5 23q-70 0 -149.5 -39t-145.5 -98q18 -73 18 -164v-629 q0 -18 -16 -18h-41q-17 0 -17 18v609q0 57 -5.5 101t-21.5 87t-42.5 71t-71 45t-104.5 17q-153 0 -312 -166v-764q0 -18 -16 -18h-41q-16 0 -16 18z" />
<glyph unicode="n" horiz-adv-x="1042" d="M158 18v951q0 18 12 18h47q14 0 14 -18v-111q157 150 353 150q142 0 215 -76q86 -89 86 -285v-629q0 -18 -17 -18h-41q-16 0 -16 18v609q0 183 -66 254q-59 65 -180 65q-84 0 -174 -45t-160 -117v-766q0 -18 -16 -18h-41q-16 0 -16 18z" />
<glyph unicode="o" horiz-adv-x="1028" d="M98 498q0 100 25.5 189.5t75 162.5t132 115.5t187.5 42.5q110 0 192 -42t129 -115.5t69 -162.5t22 -194q0 -101 -25.5 -191t-76 -163t-133.5 -115.5t-189 -42.5q-88 0 -158 28.5t-116 77t-77 115t-44 140t-13 155.5zM178 500q0 -87 16.5 -164t52 -146t102.5 -110t159 -41 q73 0 131.5 26t97 69.5t64.5 102.5t37.5 122.5t11.5 132.5q0 68 -10 130.5t-35 122.5t-62 104.5t-95 71.5t-130 27q-73 0 -131.5 -26t-96.5 -68.5t-64 -101t-37 -121.5t-11 -131z" />
<glyph unicode="p" horiz-adv-x="1042" d="M158 -403v1374q0 16 16 16h41q16 0 16 -16v-123q58 75 142.5 117.5t181.5 42.5q98 0 174 -41t122 -112.5t69.5 -162.5t23.5 -196q0 -230 -117 -372t-297 -142q-92 0 -173.5 40.5t-125.5 116.5v-542q0 -19 -16 -19h-41q-16 0 -16 19zM231 242q40 -89 119 -145t170 -56 q158 0 251 122t93 331q0 205 -83 329.5t-234 124.5q-93 0 -182 -51.5t-134 -134.5v-520z" />
<glyph unicode="q" horiz-adv-x="1040" d="M98 489q0 107 25.5 200t74.5 164.5t128.5 113t179.5 41.5q187 0 303 -164v125q0 18 20 18h33q21 0 21 -18v-1372q0 -19 -17 -19h-41q-16 0 -16 19v542q-61 -75 -146.5 -116t-179.5 -41q-126 0 -215 69.5t-129.5 181.5t-40.5 256zM178 502q0 -101 18.5 -183.5t56 -145.5 t100 -97.5t145.5 -34.5q88 0 174 50t137 126v541q-53 85 -130.5 137.5t-166.5 52.5q-87 0 -153 -36.5t-104.5 -100t-57.5 -141t-19 -168.5z" />
<glyph unicode="r" horiz-adv-x="561" d="M158 18v951q0 18 16 18h39q18 0 18 -18v-121q42 81 110 120.5t142 39.5q21 0 33 -2q15 -3 12 -17l-4 -31q-2 -12 -18 -12q-2 0 -13 1t-26 1q-142 0 -236 -182v-748q0 -18 -16 -18h-41q-16 0 -16 18z" />
<glyph unicode="s" horiz-adv-x="743" d="M92 59l12 29q5 13 19 6q113 -55 215 -55q112 0 184 56t72 155q0 45 -14.5 80.5t-44.5 62t-59 43.5t-73 37l-120 53q-189 82 -189 238q0 112 82 178t211 66q115 0 213 -45q17 -7 10 -25l-8 -23q-6 -17 -24 -8q-97 43 -189 43q-98 0 -160.5 -47t-62.5 -125q0 -77 41.5 -121 t122.5 -79l125 -56q209 -92 209 -262q0 -124 -88.5 -201t-241.5 -77q-63 0 -129 17t-105 40q-14 8 -8 20z" />
<glyph unicode="t" horiz-adv-x="636" d="M55 946v29q0 12 15 12h127v254q0 22 16 25l37 6q20 3 20 -17v-268h250q15 0 15 -12v-27q0 -16 -15 -16h-250v-643q0 -55 1.5 -83t11.5 -64.5t30 -57.5q44 -47 140 -47q51 0 114 18q16 6 19 -8l6 -22q3 -13 -10 -19q-60 -24 -146 -24q-127 0 -184 67q-31 37 -43 91 t-12 147v645h-125q-17 0 -17 14z" />
<glyph unicode="u" horiz-adv-x="1024" d="M158 342v629q0 16 16 16h41q16 0 16 -16v-609q0 -182 66 -253q60 -66 180 -66q84 0 167.5 43.5t148.5 116.5v768q0 16 16 16h41q16 0 16 -16v-953q0 -18 -16 -18h-39q-18 0 -18 20v109q-150 -147 -334 -147q-141 0 -213 75q-88 91 -88 285z" />
<glyph unicode="v" horiz-adv-x="839" d="M59 969q-7 18 15 18h41q17 0 22 -14l285 -867l274 865q5 16 23 16h41q18 0 12 -18l-317 -955q-6 -14 -19 -14h-37q-15 0 -18 12z" />
<glyph unicode="w" horiz-adv-x="1327" d="M59 967q-6 20 19 20h31q18 0 22 -18l244 -881l250 885q3 14 20 14h31q10 0 13.5 -3t6.5 -13l252 -881l246 879q6 18 27 18h30q19 0 11 -24l-277 -949q-3 -14 -18 -14h-43q-16 0 -19 14l-248 869l-247 -871q-3 -12 -17 -12h-43q-15 0 -18 12z" />
<glyph unicode="x" horiz-adv-x="868" d="M78 7q-2 7 4 16l315 493l-274 453q-4 6 -1 12t11 6h39q20 0 33 -20l233 -387l246 391q11 16 27 16h34q10 0 13 -7t-2 -13l-283 -445l307 -499q14 -23 -10 -23h-43q-18 0 -29 16l-266 443l-276 -443q-10 -16 -31 -16h-37q-8 0 -10 7z" />
<glyph unicode="y" horiz-adv-x="888" d="M29 -420l6 25q3 17 20 14l25 -3q25 -3 41 -3q88 0 145 44t94 140l66 172l-350 998q-7 20 14 20h39q20 0 25 -16l309 -901h2l299 899q7 18 24 18h35q24 0 15 -24l-375 -1084q-64 -186 -139.5 -258t-214.5 -72q-36 0 -66 9q-17 6 -14 22z" />
<glyph unicode="z" horiz-adv-x="757" d="M78 14v25q0 18 14 41l514 852h-471q-16 0 -16 16v27q0 12 16 12h539q12 0 12 -10v-21q0 -20 -12 -38l-522 -863h526q14 0 14 -14v-29q0 -12 -16 -12h-582q-16 0 -16 14z" />
<glyph unicode="{" horiz-adv-x="610" d="M59 573v15q0 14 15 16q107 20 110 234l6 333q3 135 69 197t177 62h94q13 0 13 -11l-4 -35q0 -10 -15 -10h-102q-46 0 -79.5 -20t-50 -53t-24 -65t-8.5 -67l-4 -282q-3 -293 -133 -303v-2q73 -6 102 -81t31 -233l4 -270q1 -31 8 -62t23.5 -65.5t50 -56t80.5 -21.5h96 q17 0 19 -12l4 -29q1 -7 -3 -10.5t-12 -3.5h-90q-116 0 -179.5 64t-66.5 194l-6 319q-2 120 -24 178t-82 68q-19 2 -19 12z" />
<glyph unicode="|" horiz-adv-x="366" d="M152 -20v1452q0 18 12 18h41q12 0 12 -18v-1452q0 -19 -16 -19h-33q-16 0 -16 19z" />
<glyph unicode="}" horiz-adv-x="610" d="M68 1419q0 11 12 11h94q110 0 176.5 -63t69.5 -198l6 -333q3 -214 111 -234q14 -2 14 -16v-15q0 -10 -19 -12q-60 -10 -82 -68t-24 -178l-6 -319q-6 -256 -246 -256h-90q-17 0 -14 14l4 29q2 8 5 10t13 2h96q47 0 80.5 21t50 55t23.5 65t8 62l4 270q2 158 31 233t102 81 v2q-130 10 -133 303l-4 282q-1 35 -8.5 67t-24 65.5t-50 54t-79.5 20.5h-102q-14 0 -14 10z" />
<glyph unicode="~" d="M168 555q28 63 82 94t119 31q68 0 145 -39l70 -35q94 -47 147 -47q44 0 77 17t62 59q8 12 21 8l20 -8q15 -6 9 -19q-28 -63 -81.5 -93.5t-119.5 -30.5q-71 0 -146 38l-69 35q-94 47 -148 47q-44 0 -77 -16.5t-62 -58.5q-9 -13 -20 -9l-21 9q-14 6 -8 18z" />
<glyph unicode="&#xa1;" horiz-adv-x="466" d="M164 936q0 33 18 52.5t51 19.5q34 0 52 -19.5t18 -52.5q0 -32 -20 -50t-52 -18q-29 0 -48 18.5t-19 49.5zM184 -406l17 1080q0 16 16 16h25q16 0 16 -16l14 -1080q0 -14 -14 -14h-57q-17 0 -17 14z" />
<glyph unicode="&#xa2;" d="M201 498q0 211 105 350.5t288 157.5v178q0 18 16 18h21q16 0 16 -18v-176q54 -1 116 -17.5t107 -40.5q17 -9 13 -20l-13 -33q-5 -12 -22 -4q-106 51 -201 53v-903q120 3 209 47q13 5 18 -6l13 -27q5 -11 -13 -20q-110 -52 -227 -55v-164q0 -19 -16 -19h-21q-16 0 -16 19 v166q-195 12 -294 149t-99 365zM281 502q0 -87 16.5 -162t52 -140t98 -106t146.5 -49v897q-145 -17 -229 -134.5t-84 -305.5z" />
<glyph unicode="&#xa3;" d="M168 16v21q0 15 20 26q158 92 158 340v293h-123q-16 0 -16 15v32q0 15 16 15h123v241q0 204 84.5 317.5t257.5 113.5q132 0 219 -48q15 -9 11 -22l-15 -29q-5 -13 -24 -6q-89 41 -191 41q-258 0 -258 -356v-252h344q17 0 17 -15v-32q0 -15 -17 -15h-346v-243 q0 -42 -1.5 -74t-5.5 -72.5t-13.5 -72.5t-23.5 -64.5t-36.5 -58t-52.5 -43.5v-2h633q22 0 22 -17v-33q0 -16 -22 -16h-744q-16 0 -16 16z" />
<glyph unicode="&#xa4;" d="M175 412.5q-1 9.5 11 21.5l101 101q-21 28 -33 78.5t-12 93.5q0 42 12.5 93t32.5 77l-101 102q-12 12 -11 21.5t13 21.5l11 10q21 22 43 0l94 -96q40 41 96 62.5t111 21.5t110 -21.5t95 -62.5l96 96q22 22 43 0l10 -10q23 -22 2 -43l-102 -102q22 -26 34.5 -76.5 t12.5 -93.5q0 -44 -12.5 -94.5t-34.5 -77.5l102 -101q21 -20 -2 -43l-10 -10q-12 -12 -21.5 -12t-21.5 12l-96 94q-40 -40 -95 -61t-110 -21t-111 21t-96 61l-94 -94q-12 -12 -21.5 -12t-21.5 12l-11 10q-12 12 -13 21.5zM317 707q0 -109 59.5 -177.5t166.5 -68.5t166 68.5 t59 177.5t-59 177t-166 68t-166.5 -68t-59.5 -177z" />
<glyph unicode="&#xa5;" d="M100 1382q-5 8 0.5 16.5t16.5 8.5h35q19 0 24 -3t10 -15l365 -766h2l344 759q6 16 11.5 20.5t19.5 4.5h35q11 0 15 -8t-1 -17l-367 -790h209q17 0 17 -14v-29q0 -14 -17 -14h-229v-132h229q17 0 17 -14v-29q0 -14 -17 -14h-229v-321q0 -25 -21 -25h-37q-14 0 -19 5t-5 18 v323h-229q-17 0 -17 14v29q0 14 17 14h229v132h-229q-17 0 -17 14v29q0 14 17 14h204z" />
<glyph unicode="&#xa6;" horiz-adv-x="366" d="M152 -20v473q0 18 14 18h37q14 0 14 -18v-473q0 -19 -16 -19h-33q-16 0 -16 19zM152 958v474q0 18 12 18h41q12 0 12 -18v-474q0 -18 -14 -18h-37q-14 0 -14 18z" />
<glyph unicode="&#xa7;" horiz-adv-x="917" d="M186 53l15 31q5 12 18 6q109 -53 213 -53q112 0 184 57t72 156q0 80 -49.5 132t-140.5 91l-121 53q-189 82 -189 238q0 72 37.5 126t100.5 83q-140 77 -140 213q0 112 82 178t211 66q109 0 217 -48q12 -5 9 -18l-11 -29q-6 -14 -20 -8q-95 45 -193 45t-160.5 -47.5 t-62.5 -126.5q0 -73 40 -115.5t118 -78.5l131 -60q92 -41 150.5 -107t58.5 -155q0 -140 -113 -215q115 -85 115 -207q0 -124 -88.5 -201t-241.5 -77q-63 0 -128 15t-105 36q-16 5 -9 20zM262 778q0 -77 41 -121t121 -79l125 -56q32 -14 43 -20q94 58 94 170q0 82 -51 133.5 t-139 89.5l-111 47q-54 -20 -88.5 -62.5t-34.5 -101.5z" />
<glyph unicode="&#xa8;" horiz-adv-x="608" d="M92 1337q0 26 16.5 43t38.5 17q25 0 42.5 -17t17.5 -43q0 -23 -17.5 -39t-42.5 -16q-22 0 -38.5 16t-16.5 39zM406 1337q0 26 16.5 43t38.5 17q25 0 42 -17t17 -43q0 -23 -17 -39t-42 -16q-22 0 -38.5 16t-16.5 39z" />
<glyph unicode="&#xa9;" horiz-adv-x="1638" d="M102 705q0 147 57 281t153 231.5t229 155t278 57.5t278 -57.5t229 -155t153 -231.5t57 -281q0 -146 -57 -280t-153 -231t-229 -154.5t-278 -57.5t-278 57.5t-229 154.5t-153 231t-57 280zM162 705q0 -134 52 -257t140 -212t210 -142t255 -53t255 53t210 142t140.5 212 t52.5 257q0 180 -88.5 333.5t-240 242.5t-329.5 89q-133 0 -255 -52.5t-210 -142t-140 -212.5t-52 -258zM502 702q0 86 23.5 164t67 139.5t112 97.5t151.5 36q118 0 207 -52q10 -5 6 -16l-10 -22q-4 -12 -17 -5q-82 46 -180 46q-62 0 -112.5 -22t-84.5 -59t-57 -86.5 t-33 -103t-10 -110.5q0 -61 9.5 -116t31.5 -106t55.5 -88.5t85 -59.5t115.5 -22q101 0 189 45q11 4 14 -4l10 -24q3 -9 -8 -15q-96 -51 -213 -51q-115 0 -196 60t-118.5 156.5t-37.5 217.5z" />
<glyph unicode="&#xaa;" horiz-adv-x="563" d="M68 846q0 51 29.5 89t80.5 59t108.5 30.5t123.5 9.5v41q0 146 -125 146q-75 0 -154 -37q-20 -8 -27 4l-8 16q-7 17 8 23q87 43 179 43q98 0 143 -50.5t45 -152.5v-342q0 -9 -3.5 -14t-6.5 -5.5t-10 -0.5h-19q-8 0 -11.5 0.5t-7 5.5t-3.5 14v39q-59 -70 -170 -70 q-80 0 -126 42t-46 110zM135 850q0 -50 33.5 -76t85.5 -26t86.5 17t67.5 50v172q-49 0 -93 -6t-86.5 -20t-68 -42.5t-25.5 -68.5z" />
<glyph unicode="&#xab;" horiz-adv-x="911" d="M182 465q0 9 6 18l209 308q11 17 25 10l12 -6q14 -7 4 -23l-170 -303l168 -324q9 -15 -4 -22l-10 -6q-14 -7 -25 10l-209 317q-6 9 -6 21zM502 465q0 9 6 18l209 308q11 16 24 10l13 -6q14 -7 4 -23l-170 -303l168 -324q9 -15 -4 -22l-11 -6q-13 -7 -24 10l-209 317 q-6 9 -6 21z" />
<glyph unicode="&#xac;" d="M145 641v33q0 10 4 13t15 3h731q18 0 18 -16v-359q0 -16 -16 -16h-41q-14 0 -14 16v310h-678q-11 0 -15 3t-4 13z" />
<glyph unicode="&#xad;" horiz-adv-x="542" d="M119 518v33q0 16 20 16h262q25 0 25 -24v-19q0 -26 -23 -26h-262q-22 0 -22 20z" />
<glyph unicode="&#xae;" horiz-adv-x="1638" d="M102 705q0 147 57 281t153 231.5t229 155t278 57.5t278 -57.5t229 -155t153 -231.5t57 -281q0 -146 -57 -280t-153 -231t-229 -154.5t-278 -57.5t-278 57.5t-229 154.5t-153 231t-57 280zM162 705q0 -134 52 -257t140 -212t210 -142t255 -53t255 53t210 142t140.5 212 t52.5 257q0 180 -88.5 333.5t-240 242.5t-329.5 89q-133 0 -255 -52.5t-210 -142t-140 -212.5t-52 -258zM627 293v821q0 12 12 12h166q268 0 268 -233q0 -86 -50.5 -147.5t-135.5 -86.5l198 -364q3 -5 1 -9.5t-9 -4.5h-35q-14 0 -20 12l-191 360h-147v-360q0 -12 -12 -12 h-33q-12 0 -12 12zM684 694h121q93 0 153 51.5t60 147.5q0 105 -59 148.5t-171 43.5h-104v-391z" />
<glyph unicode="&#xaf;" horiz-adv-x="608" d="M76 1391v16q0 14 5 18.5t19 4.5h414q10 0 14 -4.5t4 -18.5v-16q0 -16 -4.5 -20.5t-17.5 -4.5h-410q-11 0 -15 1t-6.5 6.5t-2.5 17.5z" />
<glyph unicode="&#xb0;" horiz-adv-x="565" d="M86 1235q0 91 56.5 143t140.5 52t140 -51.5t56 -143.5q0 -91 -56 -142t-140 -51t-140.5 51t-56.5 142zM147 1235q0 -66 38 -102.5t98 -36.5t97.5 36.5t37.5 102.5t-37.5 103.5t-97.5 37.5t-98 -37.5t-38 -103.5z" />
<glyph unicode="&#xb1;" d="M178 16v33q0 10 4 13.5t15 3.5h690q11 0 14.5 -3.5t3.5 -13.5v-33q0 -10 -3.5 -13t-14.5 -3h-690q-11 0 -15 3t-4 13zM178 604v33q0 10 4 13t15 3h309v330q0 18 18 18h37q19 0 19 -18v-330h307q11 0 14.5 -3t3.5 -13v-33q0 -10 -3.5 -13t-14.5 -3h-307v-328 q0 -18 -19 -18h-37q-18 0 -18 18v328h-309q-11 0 -15 3t-4 13z" />
<glyph unicode="&#xb2;" horiz-adv-x="552" d="M61 946v23q0 12 9 24q25 28 76.5 81.5t76.5 80.5q88 96 130 165.5t42 133.5q0 59 -37 94t-98 35q-65 0 -143 -43q-15 -7 -21 8l-10 23q-6 13 6 22q79 52 180 52q84 0 139.5 -48t55.5 -135q0 -76 -37.5 -144.5t-142.5 -184.5q-70 -80 -137 -144h307q18 0 18 -16v-27 q0 -8 -3.5 -12t-14.5 -4h-379q-10 0 -13.5 3.5t-3.5 12.5z" />
<glyph unicode="&#xb3;" horiz-adv-x="552" d="M76 973l12 26q6 15 21 7q67 -27 133 -27q72 0 115.5 40t43.5 111q0 72 -47.5 111t-124.5 39h-34q-15 0 -15 14v29q0 14 15 14h26q71 0 112.5 32.5t41.5 100.5q0 57 -36.5 85t-98.5 28q-64 0 -119 -31q-13 -9 -19 2l-12 29q-5 13 6 21q68 41 158 41q86 0 142.5 -46.5 t56.5 -125.5q0 -53 -33.5 -98t-85.5 -62q64 -13 103.5 -63.5t39.5 -116.5q0 -95 -63.5 -154t-163.5 -59q-104 0 -164 32q-16 6 -10 21z" />
<glyph unicode="&#xb4;" horiz-adv-x="608" d="M156 1190q-7 12 6 22l262 209q21 15 33 -2l30 -45q13 -19 -6 -28l-297 -177q-10 -7 -18 5z" />
<glyph unicode="&#xb5;" horiz-adv-x="1054" d="M158 -303v1274q0 16 14 16h45q14 0 14 -16v-715q0 -93 59 -153t183 -60q84 0 169.5 44t150.5 116v768q0 16 14 16h45q14 0 14 -16v-791q0 -127 64 -127q24 0 47 13q19 9 27 -7l10 -20q8 -14 -6 -23q-31 -24 -86 -24q-60 0 -88.5 34.5t-36.5 108.5q-146 -153 -338 -153 q-159 0 -228 92v-377q0 -16 -14 -16h-45q-14 0 -14 16z" />
<glyph unicode="&#xb6;" horiz-adv-x="1009" d="M125 1108q0 131 83 215t226 84h350q29 0 29 -25v-1652q0 -19 -18 -19h-37q-19 0 -19 19v1622h-217v-1622q0 -19 -18 -19h-37q-18 0 -18 19v1077q-145 1 -234.5 87t-89.5 214z" />
<glyph unicode="&#xb7;" horiz-adv-x="399" d="M127 547q0 34 22.5 52.5t57.5 18.5q32 0 53 -18.5t21 -52.5q0 -36 -20 -58t-56 -22q-37 0 -57.5 22t-20.5 58z" />
<glyph unicode="&#xb8;" horiz-adv-x="608" d="M203 -365l8 25q3 14 18 8q35 -12 82 -12q115 0 115 100q0 29 -11.5 48t-35 27t-44.5 10.5t-54 2.5h-29q-17 0 -23.5 5.5t-3.5 23.5l17 143h57l-6 -125h31q46 0 82 -10t63 -40.5t27 -78.5q0 -70 -44 -114.5t-141 -44.5q-53 0 -96 14q-15 4 -12 18z" />
<glyph unicode="&#xb9;" horiz-adv-x="552" d="M112 1506q3 7 9 10l164 108q10 8 32 8h23q18 0 18 -20v-664q0 -18 -18 -18h-31q-18 0 -18 18v611l-139 -93q-16 -10 -25 4l-14 23q-4 6 -1 13z" />
<glyph unicode="&#xba;" horiz-adv-x="585" d="M47 983q0 124 66 205.5t182 81.5q121 0 182.5 -78t61.5 -209q0 -125 -66.5 -207t-183.5 -82q-120 0 -181 80t-61 209zM115 985q0 -46 8.5 -86.5t27.5 -77t55 -57.5t85 -21q92 0 136 69.5t44 168.5q0 46 -9 86t-28.5 75.5t-55 56t-83.5 20.5q-49 0 -85.5 -21t-56.5 -56 t-29 -74t-9 -83z" />
<glyph unicode="&#xbb;" horiz-adv-x="911" d="M156 150l170 309l-170 311q-10 16 4 23l12 6q15 6 25 -11l206 -307q7 -11 7 -20q0 -5 -7 -19l-208 -311q-11 -17 -25 -10l-10 6q-14 7 -4 23zM477 150l170 309l-170 311q-10 16 4 23l13 6q14 6 24 -11l207 -307q6 -9 6 -20q0 -7 -6 -19l-209 -311q-11 -17 -24 -10l-11 6 q-14 7 -4 23z" />
<glyph unicode="&#xbc;" horiz-adv-x="1484" d="M125.5 1280.5q2.5 6.5 9.5 9.5l164 109q10 8 33 8h22q19 0 19 -21v-663q0 -18 -19 -18h-30q-19 0 -19 18v610l-139 -92q-16 -10 -25 4l-14 23q-4 6 -1.5 12.5zM229 2l809 1411q10 17 27 17h37q22 0 10 -21l-811 -1411q-10 -16 -27 -16h-34q-22 0 -11 20zM852 188v17 q0 22 8 41l197 440q8 16 22 16h39q20 0 10 -20l-198 -453h278v166q0 17 17 17h35q16 0 16 -15v-381q0 -16 -14 -16h-39q-15 0 -15 16v154h-338q-18 0 -18 18z" />
<glyph unicode="&#xbd;" horiz-adv-x="1484" d="M125.5 1280.5q2.5 6.5 9.5 9.5l164 109q10 8 33 8h22q19 0 19 -21v-663q0 -18 -19 -18h-30q-19 0 -19 18v610l-139 -92q-16 -10 -25 4l-14 23q-4 6 -1.5 12.5zM229 2l809 1411q10 17 27 17h37q22 0 10 -21l-811 -1411q-10 -16 -27 -16h-34q-22 0 -11 20zM909 16v23 q0 12 9 24q25 27 77 80.5t76 81.5q88 96 130 165.5t42 133.5q0 59 -37 94t-98 35q-65 0 -143 -43q-15 -7 -21 8l-10 23q-7 13 6 23q77 51 180 51q84 0 139.5 -48t55.5 -135q0 -76 -37.5 -144.5t-142.5 -184.5q-65 -73 -138 -144h308q18 0 18 -16v-27q0 -8 -3.5 -12t-14.5 -4 h-379q-10 0 -13.5 3.5t-3.5 12.5z" />
<glyph unicode="&#xbe;" horiz-adv-x="1484" d="M152 748l12 26q5 13 20 6q65 -26 133 -26q72 0 116 40t44 111q0 72 -47.5 111t-124.5 39h-35q-14 0 -14 14v29q0 14 14 14h27q71 0 112.5 32.5t41.5 100.5q0 57 -37 85t-99 28q-63 0 -118 -31q-14 -9 -19 2l-12 29q-5 13 6 20q68 41 158 41q86 0 142 -46t56 -126 q0 -54 -33.5 -98.5t-84.5 -61.5q64 -13 103.5 -63.5t39.5 -116.5q0 -95 -63.5 -154t-163.5 -59q-102 0 -164 33q-16 6 -10 21zM336 2l809 1411q10 17 26 17h37q23 0 11 -21l-811 -1411q-10 -16 -27 -16h-35q-21 0 -10 20zM901 188v17q0 22 8 41l197 440q8 16 22 16h39 q21 0 11 -20l-199 -453h278v166q0 17 17 17h35q16 0 16 -15v-381q0 -16 -14 -16h-39q-15 0 -15 16v154h-337q-19 0 -19 18z" />
<glyph unicode="&#xbf;" horiz-adv-x="804" d="M76 -143q0 59 14.5 110.5t44.5 97t56.5 75.5t70.5 73q37 36 50 49.5t43.5 47t43 55.5t30 56t24 70t6.5 76v23q0 9 3 11.5t11 2.5h33q14 0 14 -14v-29q0 -64 -15 -118t-48 -102t-58 -76t-73 -75q-38 -37 -55.5 -55t-47.5 -55t-43.5 -66t-25 -71t-11.5 -88 q0 -111 73.5 -172.5t176.5 -61.5q113 0 223 66q16 10 23 -4l14 -29q8 -14 -10 -23q-118 -71 -260 -71q-130 0 -218.5 80t-88.5 217zM424 938q0 33 18.5 52.5t51.5 19.5q34 0 51.5 -19.5t17.5 -52.5q0 -32 -20 -50t-51 -18q-29 0 -48.5 18.5t-19.5 49.5z" />
<glyph unicode="&#xc0;" horiz-adv-x="1138" d="M43 27l492 1362q6 18 20 18h43q14 0 20 -16l482 -1368q7 -23 -17 -23h-53q-20 0 -26 16l-152 457h-567l-162 -461q-5 -12 -19 -12h-49q-21 0 -12 27zM307 539h524l-258 747zM381 1702l31 45q11 17 32 2l263 -209q13 -10 6 -22l-11 -17q-8 -12 -18 -4l-297 176 q-19 9 -6 29z" />
<glyph unicode="&#xc1;" horiz-adv-x="1138" d="M43 27l492 1362q6 18 20 18h43q14 0 20 -16l482 -1368q7 -23 -17 -23h-53q-20 0 -26 16l-152 457h-567l-162 -461q-5 -12 -19 -12h-49q-21 0 -12 27zM307 539h524l-258 747zM438 1516q-7 12 6 22l263 209q21 15 32 -2l31 -45q13 -20 -6 -29l-297 -176q-10 -8 -18 4z" />
<glyph unicode="&#xc2;" horiz-adv-x="1138" d="M43 27l492 1362q6 18 20 18h43q14 0 20 -16l482 -1368q7 -23 -17 -23h-53q-20 0 -26 16l-152 457h-567l-162 -461q-5 -12 -19 -12h-49q-21 0 -12 27zM307 539h524l-258 747zM360 1503q-10 9 0 19l193 221q12 12 22 12h11q15 0 24 -12l183 -215q11 -11 4 -21l-11 -12 q-8 -10 -18 0l-186 164l-195 -170q-7 -7 -14 0z" />
<glyph unicode="&#xc3;" horiz-adv-x="1138" d="M43 27l492 1362q6 18 20 18h43q14 0 20 -16l482 -1368q7 -23 -17 -23h-53q-20 0 -26 16l-152 457h-567l-162 -461q-5 -12 -19 -12h-49q-21 0 -12 27zM279 1571q19 58 64.5 86.5t102.5 28.5q67 0 123 -41l43 -31q26 -19 45.5 -27t49.5 -8q42 0 65.5 17t50.5 59q9 14 19 10 l22 -10q10 -3 6 -15q-18 -58 -63 -89t-98 -31q-72 0 -129 41l-41 30q-52 37 -95 37q-44 0 -71 -18t-49 -56q-7 -14 -19 -10l-20 10q-10 5 -6 17zM307 539h524l-258 747z" />
<glyph unicode="&#xc4;" horiz-adv-x="1138" d="M43 27l492 1362q6 18 20 18h43q14 0 20 -16l482 -1368q7 -23 -17 -23h-53q-20 0 -26 16l-152 457h-567l-162 -461q-5 -12 -19 -12h-49q-21 0 -12 27zM307 539h524l-258 747zM360 1593q0 26 17 43t39 17q25 0 42 -17t17 -43q0 -23 -17 -39t-42 -16q-22 0 -39 16t-17 39z M674 1593q0 26 16.5 43t38.5 17q25 0 42 -17t17 -43q0 -23 -17 -39t-42 -16q-22 0 -38.5 16t-16.5 39z" />
<glyph unicode="&#xc5;" horiz-adv-x="1138" d="M43 27l492 1362q6 18 20 18h43q14 0 20 -16l482 -1368q7 -23 -17 -23h-53q-20 0 -26 16l-152 457h-567l-162 -461q-5 -12 -19 -12h-49q-21 0 -12 27zM307 539h524l-258 747zM403 1690q0 70 52 121t123 51q72 0 122 -50.5t50 -121.5t-50 -121.5t-122 -50.5q-71 0 -123 51 t-52 121zM467 1694q0 -47 34 -80t81 -33q44 0 75 33t31 80q0 43 -31 74.5t-75 31.5q-47 0 -81 -31.5t-34 -74.5z" />
<glyph unicode="&#xc6;" horiz-adv-x="1693" d="M33 25l825 1335q16 26 31.5 36.5t42.5 10.5h631q16 0 16 -10v-4l-2 -33q0 -17 -25 -17h-567v-563h496q18 0 18 -12v-35q0 -14 -18 -14h-496v-658h582q18 0 18 -16v-27q0 -8 -5.5 -13t-12.5 -5h-639q-25 0 -25 23v446h-504l-272 -446q-15 -23 -33 -23h-55q-23 0 -6 25z M436 532h467v766z" />
<glyph unicode="&#xc7;" horiz-adv-x="1124" d="M104 705q0 114 24.5 220.5t74 198.5t119 160t165.5 107t207 39q198 0 342 -89q13 -8 6 -24l-16 -33q-5 -12 -22 -4q-138 80 -299 80q-103 0 -188.5 -37.5t-143.5 -101t-98.5 -147t-59 -174.5t-18.5 -185q0 -101 16.5 -194.5t55 -180t95.5 -150t144 -101.5t194 -38 q156 0 316 80q18 7 22 -6l13 -37q6 -14 -13 -25q-141 -75 -329 -81l-4 -91h30q46 0 82 -10t63 -40.5t27 -78.5q0 -70 -43.5 -114.5t-140.5 -44.5q-53 0 -96 14q-16 5 -13 18l9 25q3 14 18 8q35 -12 82 -12q115 0 115 100q0 24 -8.5 40.5t-21.5 26t-34 14.5t-38.5 6t-43.5 1 h-28q-17 0 -23.5 5.5t-3.5 23.5l12 111q-136 7 -242 66.5t-172 158.5t-99.5 224.5t-33.5 271.5z" />
<glyph unicode="&#xc8;" horiz-adv-x="962" d="M178 25v1353q0 17 6 23t25 6h631q14 0 14 -12l-4 -41q-2 -15 -21 -15h-569v-565h494q18 0 18 -16v-35q0 -16 -18 -16h-494v-637h582q18 0 18 -17v-37q0 -16 -18 -16h-637q-27 0 -27 25zM362 1702l31 45q12 17 33 2l262 -209q13 -10 6 -22l-10 -17q-8 -12 -18 -4l-297 176 q-20 10 -7 29z" />
<glyph unicode="&#xc9;" horiz-adv-x="962" d="M178 25v1353q0 17 6 23t25 6h631q14 0 14 -12l-4 -41q-2 -15 -21 -15h-569v-565h494q18 0 18 -16v-35q0 -16 -18 -16h-494v-637h582q18 0 18 -17v-37q0 -16 -18 -16h-637q-27 0 -27 25zM391 1516q-7 12 6 22l262 209q21 15 33 -2l31 -45q13 -20 -6 -29l-297 -176 q-11 -8 -19 4z" />
<glyph unicode="&#xca;" horiz-adv-x="962" d="M178 25v1353q0 17 6 23t25 6h631q14 0 14 -12l-4 -41q-2 -15 -21 -15h-569v-565h494q18 0 18 -16v-35q0 -16 -18 -16h-494v-637h582q18 0 18 -17v-37q0 -16 -18 -16h-637q-27 0 -27 25zM315 1503q-9 9 0 19l193 221q12 12 22 12h11q15 0 24 -12l183 -215q11 -11 4 -21 l-11 -12q-8 -10 -18 0l-186 164l-195 -170q-7 -7 -14 0z" />
<glyph unicode="&#xcb;" horiz-adv-x="962" d="M178 25v1353q0 17 6 23t25 6h631q14 0 14 -12l-4 -41q-2 -15 -21 -15h-569v-565h494q18 0 18 -16v-35q0 -16 -18 -16h-494v-637h582q18 0 18 -17v-37q0 -16 -18 -16h-637q-27 0 -27 25zM317 1593q0 26 17 43t39 17q25 0 42 -17t17 -43q0 -23 -17 -39t-42 -16 q-22 0 -39 16t-17 39zM631 1593q0 26 16.5 43t38.5 17q25 0 42 -17t17 -43q0 -23 -17 -39t-42 -16q-22 0 -38.5 16t-16.5 39z" />
<glyph unicode="&#xcc;" horiz-adv-x="688" d="M143 1362v35q0 10 13 10h366q15 0 15 -12v-33q0 -12 -15 -12h-143v-1291h145q13 0 13 -12v-35q0 -12 -13 -12h-362q-12 0 -12 12v35q0 12 12 12h135v1291h-139q-15 0 -15 12zM162 1702l31 45q11 17 32 2l262 -209q14 -10 7 -22l-11 -17q-8 -12 -18 -4l-297 176 q-19 9 -6 29z" />
<glyph unicode="&#xcd;" horiz-adv-x="688" d="M143 1362v35q0 10 13 10h366q15 0 15 -12v-33q0 -12 -15 -12h-143v-1291h145q13 0 13 -12v-35q0 -12 -13 -12h-362q-12 0 -12 12v35q0 12 12 12h135v1291h-139q-15 0 -15 12zM182 1516q-7 12 6 22l263 209q21 15 32 -2l31 -45q13 -20 -6 -29l-297 -176q-10 -8 -18 4z" />
<glyph unicode="&#xce;" horiz-adv-x="688" d="M125 1503q-9 9 0 19l192 221q12 12 23 12h10q16 0 25 -12l182 -215q11 -11 4 -21l-10 -12q-8 -11 -19 0l-186 164l-194 -170q-8 -7 -15 0zM143 1362v35q0 10 13 10h366q15 0 15 -12v-33q0 -12 -15 -12h-143v-1291h145q13 0 13 -12v-35q0 -12 -13 -12h-362q-12 0 -12 12 v35q0 12 12 12h135v1291h-139q-15 0 -15 12z" />
<glyph unicode="&#xcf;" horiz-adv-x="688" d="M129 1593q0 26 16.5 43t38.5 17q25 0 42.5 -17t17.5 -43q0 -23 -17.5 -39t-42.5 -16q-22 0 -38.5 16t-16.5 39zM143 1362v35q0 10 13 10h366q15 0 15 -12v-33q0 -12 -15 -12h-143v-1291h145q13 0 13 -12v-35q0 -12 -13 -12h-362q-12 0 -12 12v35q0 12 12 12h135v1291 h-139q-15 0 -15 12zM442 1593q0 26 17 43t39 17q25 0 42 -17t17 -43q0 -23 -17 -39t-42 -16q-22 0 -39 16t-17 39z" />
<glyph unicode="&#xd0;" horiz-adv-x="1280" d="M20 727v37q0 16 21 16h137v598q0 19 4.5 24t24.5 5h223q198 0 302.5 -20.5t189.5 -79.5q119 -81 186.5 -241.5t67.5 -371.5q0 -174 -49 -315.5t-142 -233.5q-145 -145 -469 -145h-305q-16 0 -24.5 9t-8.5 22v676h-135q-23 0 -23 20zM260 70h195q158 0 251.5 16t165.5 70 q113 85 162 229.5t49 310.5q0 168 -48.5 310.5t-141.5 224.5q-75 66 -175 87t-235 21h-223v-559h242q24 0 24 -24v-23q0 -26 -22 -26h-244v-637z" />
<glyph unicode="&#xd1;" horiz-adv-x="1327" d="M180 18v1373q0 16 17 16h34q19 0 27 -14l809 -1229h2v1227q0 16 14 16h52q12 0 12 -16v-1375q0 -16 -17 -16h-34q-17 0 -27 16l-811 1241h-2v-1237q0 -13 -4 -16.5t-14 -3.5h-39q-19 0 -19 18zM381 1571q19 58 65 86.5t103 28.5q67 0 123 -41l43 -31q26 -19 45 -27t49 -8 q42 0 66 17t51 59q8 14 18 10l23 -10q10 -3 6 -15q-18 -58 -63.5 -89t-98.5 -31q-72 0 -129 41l-41 30q-52 37 -94 37q-44 0 -72 -18.5t-49 -55.5q-7 -14 -18 -10l-21 10q-10 5 -6 17z" />
<glyph unicode="&#xd2;" horiz-adv-x="1271" d="M104 698q0 335 151.5 533.5t389.5 198.5q247 0 384.5 -192.5t137.5 -524.5q0 -174 -42 -314t-116 -230.5t-172 -138.5t-212 -48q-245 0 -383 187t-138 529zM197 705q0 -300 113 -477t321 -177q132 0 233.5 83.5t156 232.5t54.5 340q0 198 -48 342.5t-146.5 226.5 t-239.5 82q-134 0 -236 -86.5t-155 -234t-53 -332.5zM483 1702l31 45q12 17 33 2l262 -209q13 -10 6 -22l-10 -17q-8 -12 -19 -4l-297 176q-19 9 -6 29z" />
<glyph unicode="&#xd3;" horiz-adv-x="1271" d="M104 698q0 335 151.5 533.5t389.5 198.5q247 0 384.5 -192.5t137.5 -524.5q0 -174 -42 -314t-116 -230.5t-172 -138.5t-212 -48q-245 0 -383 187t-138 529zM197 705q0 -300 113 -477t321 -177q132 0 233.5 83.5t156 232.5t54.5 340q0 198 -48 342.5t-146.5 226.5 t-239.5 82q-134 0 -236 -86.5t-155 -234t-53 -332.5zM485 1516q-7 12 7 22l262 209q21 15 32 -2l31 -45q13 -20 -6 -29l-297 -176q-10 -8 -18 4z" />
<glyph unicode="&#xd4;" horiz-adv-x="1271" d="M104 698q0 335 151.5 533.5t389.5 198.5q247 0 384.5 -192.5t137.5 -524.5q0 -174 -42 -314t-116 -230.5t-172 -138.5t-212 -48q-245 0 -383 187t-138 529zM197 705q0 -300 113 -477t321 -177q132 0 233.5 83.5t156 232.5t54.5 340q0 198 -48 342.5t-146.5 226.5 t-239.5 82q-134 0 -236 -86.5t-155 -234t-53 -332.5zM422 1503q-10 9 0 19l192 221q12 12 23 12h10q16 0 25 -12l182 -215q11 -11 4 -21l-10 -12q-8 -11 -19 0l-186 164l-194 -170q-7 -7 -15 0z" />
<glyph unicode="&#xd5;" horiz-adv-x="1271" d="M104 698q0 335 151.5 533.5t389.5 198.5q247 0 384.5 -192.5t137.5 -524.5q0 -174 -42 -314t-116 -230.5t-172 -138.5t-212 -48q-245 0 -383 187t-138 529zM197 705q0 -300 113 -477t321 -177q132 0 233.5 83.5t156 232.5t54.5 340q0 198 -48 342.5t-146.5 226.5 t-239.5 82q-134 0 -236 -86.5t-155 -234t-53 -332.5zM344 1571q19 58 65 86.5t103 28.5q67 0 123 -41l43 -31q26 -19 45 -27t49 -8q42 0 66 17t51 59q8 14 18 10l23 -10q10 -3 6 -15q-18 -58 -63.5 -89t-98.5 -31q-72 0 -129 41l-41 30q-52 37 -94 37q-44 0 -72 -18.5 t-49 -55.5q-7 -14 -18 -10l-21 10q-10 5 -6 17z" />
<glyph unicode="&#xd6;" horiz-adv-x="1271" d="M104 698q0 335 151.5 533.5t389.5 198.5q247 0 384.5 -192.5t137.5 -524.5q0 -174 -42 -314t-116 -230.5t-172 -138.5t-212 -48q-245 0 -383 187t-138 529zM197 705q0 -300 113 -477t321 -177q132 0 233.5 83.5t156 232.5t54.5 340q0 198 -48 342.5t-146.5 226.5 t-239.5 82q-134 0 -236 -86.5t-155 -234t-53 -332.5zM426 1593q0 26 16.5 43t38.5 17q25 0 42.5 -17t17.5 -43q0 -23 -17.5 -39t-42.5 -16q-22 0 -38.5 16t-16.5 39zM739 1593q0 26 17 43t39 17q25 0 42 -17t17 -43q0 -23 -17 -39t-42 -16q-22 0 -39 16t-17 39z" />
<glyph unicode="&#xd7;" d="M186.5 221q0.5 4 8.5 12l299 299l-287 287q-12 12 0 27l24 26q13 14 27 0l287 -286l280 284q13 14 25 2l24 -24q12 -12 -2 -25l-280 -284l301 -301q13 -14 0 -27l-27 -27q-12 -12 -24 0l-303 303l-299 -299q-14 -14 -25 -2l-22 23q-7 8 -6.5 12z" />
<glyph unicode="&#xd8;" horiz-adv-x="1323" d="M139 698q0 335 151.5 533.5t389.5 198.5q199 0 332 -130l92 154q12 16 24 10l25 -14q13 -8 4 -25l-104 -172q149 -190 149 -540q0 -174 -42.5 -314t-116.5 -230.5t-172 -138.5t-212 -48q-186 0 -309 108l-88 -145q-10 -17 -29 -8l-20 12q-14 8 -4 24l96 160 q-166 184 -166 565zM231 705q0 -315 123 -492l613 1014q-112 131 -291 131q-134 0 -236 -86.5t-155.5 -234t-53.5 -332.5zM395 164q110 -113 271 -113q132 0 233.5 83.5t156 232.5t54.5 340q0 296 -106 467z" />
<glyph unicode="&#xd9;" horiz-adv-x="1351" d="M178 625v759q0 23 21 23h41q20 0 20 -23v-743q0 -73 3 -128.5t13 -120t27.5 -111t49 -92t74.5 -73.5t106 -45.5t143 -17.5q70 0 127 12.5t98.5 38t73.5 57.5t53 76t35 88t21 101t9.5 106t2.5 111v746q0 18 16 18h49q17 0 17 -18v-785q0 -107 -14.5 -196t-50.5 -169.5 t-92 -136t-143.5 -88t-199.5 -32.5q-91 0 -164 16.5t-125 45t-90 74t-61 96.5t-36.5 120t-18.5 136.5t-5 154.5zM506 1702l31 45q11 17 32 2l262 -209q14 -10 7 -22l-11 -17q-8 -12 -18 -4l-297 176q-19 9 -6 29z" />
<glyph unicode="&#xda;" horiz-adv-x="1351" d="M178 625v759q0 23 21 23h41q20 0 20 -23v-743q0 -73 3 -128.5t13 -120t27.5 -111t49 -92t74.5 -73.5t106 -45.5t143 -17.5q70 0 127 12.5t98.5 38t73.5 57.5t53 76t35 88t21 101t9.5 106t2.5 111v746q0 18 16 18h49q17 0 17 -18v-785q0 -107 -14.5 -196t-50.5 -169.5 t-92 -136t-143.5 -88t-199.5 -32.5q-91 0 -164 16.5t-125 45t-90 74t-61 96.5t-36.5 120t-18.5 136.5t-5 154.5zM551 1516q-7 12 6 22l262 209q21 15 33 -2l31 -45q13 -20 -6 -29l-297 -176q-11 -8 -19 4z" />
<glyph unicode="&#xdb;" horiz-adv-x="1351" d="M178 625v759q0 23 21 23h41q20 0 20 -23v-743q0 -73 3 -128.5t13 -120t27.5 -111t49 -92t74.5 -73.5t106 -45.5t143 -17.5q70 0 127 12.5t98.5 38t73.5 57.5t53 76t35 88t21 101t9.5 106t2.5 111v746q0 18 16 18h49q17 0 17 -18v-785q0 -107 -14.5 -196t-50.5 -169.5 t-92 -136t-143.5 -88t-199.5 -32.5q-91 0 -164 16.5t-125 45t-90 74t-61 96.5t-36.5 120t-18.5 136.5t-5 154.5zM463 1503q-9 9 0 19l192 221q12 12 23 12h10q16 0 25 -12l182 -215q11 -11 4 -21l-10 -12q-8 -11 -19 0l-186 164l-195 -170q-7 -7 -14 0z" />
<glyph unicode="&#xdc;" horiz-adv-x="1351" d="M178 625v759q0 23 21 23h41q20 0 20 -23v-743q0 -73 3 -128.5t13 -120t27.5 -111t49 -92t74.5 -73.5t106 -45.5t143 -17.5q70 0 127 12.5t98.5 38t73.5 57.5t53 76t35 88t21 101t9.5 106t2.5 111v746q0 18 16 18h49q17 0 17 -18v-785q0 -107 -14.5 -196t-50.5 -169.5 t-92 -136t-143.5 -88t-199.5 -32.5q-91 0 -164 16.5t-125 45t-90 74t-61 96.5t-36.5 120t-18.5 136.5t-5 154.5zM469 1593q0 26 16.5 43t38.5 17q25 0 42.5 -17t17.5 -43q0 -23 -17.5 -39t-42.5 -16q-22 0 -38.5 16t-16.5 39zM782 1593q0 26 17 43t39 17q25 0 42 -17t17 -43 q0 -23 -17 -39t-42 -16q-22 0 -39 16t-17 39z" />
<glyph unicode="&#xdd;" horiz-adv-x="1024" d="M75.5 1399.5q4.5 7.5 18.5 7.5h41q20 0 29 -18l364 -766h2l347 766q8 18 28 18h33q27 0 16 -25l-387 -837v-522q0 -23 -24 -23h-33q-14 0 -19.5 5t-5.5 18v518l-409 843q-5 8 -0.5 15.5zM391 1516q-7 12 6 22l262 209q21 15 33 -2l31 -45q13 -20 -6 -29l-297 -176 q-11 -8 -19 4z" />
<glyph unicode="&#xde;" horiz-adv-x="968" d="M178 18v1371q0 18 17 18h49q16 0 16 -21v-219h154q104 0 187 -22t148 -68.5t100.5 -126.5t35.5 -190q0 -105 -36 -188t-99 -135t-146.5 -79.5t-181.5 -27.5h-162v-312q0 -18 -16 -18h-51q-15 0 -15 18zM260 397h154q175 0 279 88.5t104 274.5q0 82 -22 143.5t-57.5 98.5 t-89 59.5t-109.5 30.5t-126 8h-133v-703z" />
<glyph unicode="&#xdf;" horiz-adv-x="1069" d="M158 -174v1227q0 203 96 309t264 106q160 0 261.5 -90t101.5 -252q0 -107 -63 -204.5t-171 -128.5q144 -21 234 -130.5t90 -256.5q0 -205 -117 -314.5t-305 -109.5q-58 0 -82 6q-18 5 -18 18v25q0 14 18 14q1 0 27.5 -3t44.5 -3q88 0 157 30.5t111 83t64 117.5t22 138 q0 87 -33.5 156t-88 109t-116 60.5t-123.5 20.5h-65q-18 0 -18 14v23q0 14 16 14h27q52 0 105 20t100 58t76.5 100.5t29.5 138.5q0 149 -77 218t-206 69q-131 0 -210 -88.5t-79 -249.5v-1245q0 -21 -14 -21h-43q-16 0 -16 21z" />
<glyph unicode="&#xe0;" horiz-adv-x="1030" d="M98 477q0 125 32 227.5t87 168t126.5 100.5t152.5 35q91 0 174 -42t127 -128v131q0 18 20 18h33q20 0 20 -18v-819q0 -52 14 -76.5t48 -24.5h10q16 0 16 -14v-21q0 -14 -16 -14h-37q-108 0 -108 141v49q-15 -37 -40 -71t-63.5 -66t-95.5 -51.5t-125 -19.5 q-120 0 -206.5 68t-127.5 178t-41 249zM178 485q0 -208 83.5 -327t215.5 -119q239 0 320 272v430q-45 102 -122.5 154.5t-172.5 52.5q-147 0 -235.5 -125t-88.5 -338zM330 1374l30 45q12 18 33 2l262 -209q14 -10 7 -22l-11 -16q-8 -12 -18 -5l-297 177q-18 9 -6 28z" />
<glyph unicode="&#xe1;" horiz-adv-x="1030" d="M98 477q0 125 32 227.5t87 168t126.5 100.5t152.5 35q91 0 174 -42t127 -128v131q0 18 20 18h33q20 0 20 -18v-819q0 -52 14 -76.5t48 -24.5h10q16 0 16 -14v-21q0 -14 -16 -14h-37q-108 0 -108 141v49q-15 -37 -40 -71t-63.5 -66t-95.5 -51.5t-125 -19.5 q-120 0 -206.5 68t-127.5 178t-41 249zM178 485q0 -208 83.5 -327t215.5 -119q239 0 320 272v430q-45 102 -122.5 154.5t-172.5 52.5q-147 0 -235.5 -125t-88.5 -338zM352 1190q-7 12 6 22l263 209q21 15 32 -2l31 -45q12 -19 -6 -28l-297 -177q-10 -8 -19 5z" />
<glyph unicode="&#xe2;" horiz-adv-x="1030" d="M98 477q0 125 32 227.5t87 168t126.5 100.5t152.5 35q91 0 174 -42t127 -128v131q0 18 20 18h33q20 0 20 -18v-819q0 -52 14 -76.5t48 -24.5h10q16 0 16 -14v-21q0 -14 -16 -14h-37q-108 0 -108 141v49q-15 -37 -40 -71t-63.5 -66t-95.5 -51.5t-125 -19.5 q-120 0 -206.5 68t-127.5 178t-41 249zM178 485q0 -208 83.5 -327t215.5 -119q239 0 320 272v430q-45 102 -122.5 154.5t-172.5 52.5q-147 0 -235.5 -125t-88.5 -338zM289 1178q-9 9 0 18l192 221q13 13 23 13h10q15 0 25 -13l182 -215q11 -11 4 -20l-10 -13q-8 -11 -19 0 l-186 164l-195 -170q-7 -7 -14 0z" />
<glyph unicode="&#xe3;" horiz-adv-x="1030" d="M98 477q0 125 32 227.5t87 168t126.5 100.5t152.5 35q91 0 174 -42t127 -128v131q0 18 20 18h33q20 0 20 -18v-819q0 -52 14 -76.5t48 -24.5h10q16 0 16 -14v-21q0 -14 -16 -14h-37q-108 0 -108 141v49q-15 -37 -40 -71t-63.5 -66t-95.5 -51.5t-125 -19.5 q-120 0 -206.5 68t-127.5 178t-41 249zM178 485q0 -208 83.5 -327t215.5 -119q239 0 320 272v430q-45 102 -122.5 154.5t-172.5 52.5q-147 0 -235.5 -125t-88.5 -338zM209 1221q19 58 65 86t103 28q67 0 123 -41l43 -30q26 -19 45 -27t49 -8q42 0 66 17t51 59q8 14 18 10 l23 -10q10 -3 6 -15q-18 -58 -63.5 -89.5t-98.5 -31.5q-72 0 -129 41l-41 31q-52 37 -94 37q-44 0 -72 -18.5t-49 -55.5q-7 -14 -18 -10l-21 10q-10 5 -6 17z" />
<glyph unicode="&#xe4;" horiz-adv-x="1030" d="M98 477q0 125 32 227.5t87 168t126.5 100.5t152.5 35q91 0 174 -42t127 -128v131q0 18 20 18h33q20 0 20 -18v-819q0 -52 14 -76.5t48 -24.5h10q16 0 16 -14v-21q0 -14 -16 -14h-37q-108 0 -108 141v49q-15 -37 -40 -71t-63.5 -66t-95.5 -51.5t-125 -19.5 q-120 0 -206.5 68t-127.5 178t-41 249zM178 485q0 -208 83.5 -327t215.5 -119q239 0 320 272v430q-45 102 -122.5 154.5t-172.5 52.5q-147 0 -235.5 -125t-88.5 -338zM291 1208q0 26 16.5 43t38.5 17q25 0 42.5 -17t17.5 -43q0 -23 -17.5 -39t-42.5 -16q-22 0 -38.5 16 t-16.5 39zM604 1208q0 26 16.5 43t38.5 17q25 0 42.5 -17t17.5 -43q0 -23 -17.5 -39t-42.5 -16q-22 0 -38.5 16t-16.5 39z" />
<glyph unicode="&#xe5;" horiz-adv-x="1030" d="M98 477q0 125 32 227.5t87 168t126.5 100.5t152.5 35q91 0 174 -42t127 -128v131q0 18 20 18h33q20 0 20 -18v-819q0 -52 14 -76.5t48 -24.5h10q16 0 16 -14v-21q0 -14 -16 -14h-37q-108 0 -108 141v49q-15 -37 -40 -71t-63.5 -66t-95.5 -51.5t-125 -19.5 q-120 0 -206.5 68t-127.5 178t-41 249zM178 485q0 -208 83.5 -327t215.5 -119q239 0 320 272v430q-45 102 -122.5 154.5t-172.5 52.5q-147 0 -235.5 -125t-88.5 -338zM342 1272q0 70 51.5 121t122.5 51q72 0 122 -50.5t50 -121.5t-50 -121.5t-122 -50.5q-71 0 -122.5 51 t-51.5 121zM406 1276q0 -47 33.5 -80t80.5 -33q44 0 75.5 33t31.5 80q0 43 -31.5 74.5t-75.5 31.5q-47 0 -80.5 -31.5t-33.5 -74.5z" />
<glyph unicode="&#xe6;" horiz-adv-x="1521" d="M90 250q0 307 496 307h78v123q0 141 -44 205.5t-167 64.5q-144 0 -267 -63q-18 -9 -22 2l-10 24q-8 15 8 23q70 37 155.5 54.5t153.5 17.5q241 0 262 -213q55 101 146 157t208 56q160 0 252.5 -116.5t92.5 -301.5v-62q0 -26 -31 -26h-660q0 -73 11 -137.5t38 -125 t67.5 -103.5t103.5 -69t143 -26q125 0 233 43q23 8 27 -8l8 -27q3 -12 -12 -20q-54 -23 -130 -35t-136 -12q-237 0 -351 176q-157 -178 -378 -178q-72 0 -133 29t-101.5 92t-40.5 149zM168 258q0 -74 34.5 -125t81.5 -71.5t101 -20.5q94 0 181 51t151 121q-53 124 -53 289 h-68q-220 0 -324 -61t-104 -183zM743 557h617v41q0 55 -9.5 105t-30.5 95t-52.5 78t-79 52.5t-105.5 19.5q-81 0 -145 -32t-104 -88t-62.5 -124t-28.5 -147z" />
<glyph unicode="&#xe7;" horiz-adv-x="829" d="M98 498q0 225 119.5 367.5t323.5 142.5q56 0 119 -16.5t108 -41.5q18 -10 12 -22l-14 -31q-5 -13 -23 -4q-111 53 -202 53q-166 0 -264.5 -119.5t-98.5 -324.5q0 -73 11 -137.5t37.5 -124.5t66.5 -103t101 -68.5t138 -25.5q130 0 222 47q13 5 18 -8l12 -25q5 -12 -12 -20 q-103 -52 -227 -55l-4 -91h30q46 0 82 -10t63 -40.5t27 -78.5q0 -70 -43.5 -114.5t-140.5 -44.5q-53 0 -96 14q-15 4 -12 18l8 25q3 14 18 8q35 -12 82 -12q115 0 115 100q0 24 -8.5 40.5t-21.5 26t-34 14.5t-38.5 6t-43.5 1h-28q-17 0 -23.5 5.5t-3.5 23.5l12 111 q-192 15 -289.5 151.5t-97.5 362.5z" />
<glyph unicode="&#xe8;" horiz-adv-x="958" d="M98 496q0 221 116.5 366.5t309.5 145.5q160 0 252 -116.5t92 -301.5v-62q0 -14 -6.5 -20t-23.5 -6h-660q0 -73 11 -137.5t38 -125t67.5 -103.5t103.5 -69t143 -26q125 0 233 43q23 8 27 -8l8 -27q3 -12 -12 -20q-54 -23 -130.5 -35t-136.5 -12q-210 0 -321 138t-111 376z M180 557h617v41q0 55 -9.5 105t-30.5 95t-52.5 78t-79 52.5t-105.5 19.5q-81 0 -145 -32t-104 -88t-62.5 -124t-28.5 -147zM313 1374l31 45q12 18 33 2l262 -209q13 -10 6 -22l-10 -16q-9 -13 -19 -5l-297 177q-19 9 -6 28z" />
<glyph unicode="&#xe9;" horiz-adv-x="958" d="M98 496q0 221 116.5 366.5t309.5 145.5q160 0 252 -116.5t92 -301.5v-62q0 -14 -6.5 -20t-23.5 -6h-660q0 -73 11 -137.5t38 -125t67.5 -103.5t103.5 -69t143 -26q125 0 233 43q23 8 27 -8l8 -27q3 -12 -12 -20q-54 -23 -130.5 -35t-136.5 -12q-210 0 -321 138t-111 376z M180 557h617v41q0 55 -9.5 105t-30.5 95t-52.5 78t-79 52.5t-105.5 19.5q-81 0 -145 -32t-104 -88t-62.5 -124t-28.5 -147zM395 1190q-7 12 6 22l263 209q21 15 32 -2l31 -45q13 -19 -6 -28l-297 -177q-10 -7 -18 5z" />
<glyph unicode="&#xea;" horiz-adv-x="958" d="M98 496q0 221 116.5 366.5t309.5 145.5q160 0 252 -116.5t92 -301.5v-62q0 -14 -6.5 -20t-23.5 -6h-660q0 -73 11 -137.5t38 -125t67.5 -103.5t103.5 -69t143 -26q125 0 233 43q23 8 27 -8l8 -27q3 -12 -12 -20q-54 -23 -130.5 -35t-136.5 -12q-210 0 -321 138t-111 376z M180 557h617v41q0 55 -9.5 105t-30.5 95t-52.5 78t-79 52.5t-105.5 19.5q-81 0 -145 -32t-104 -88t-62.5 -124t-28.5 -147zM281 1178q-9 9 0 18l192 221q13 13 23 13h10q14 0 24 -13l183 -215q11 -11 4 -20l-10 -13q-8 -11 -19 0l-186 164l-195 -170q-7 -7 -14 0z" />
<glyph unicode="&#xeb;" horiz-adv-x="958" d="M98 496q0 221 116.5 366.5t309.5 145.5q160 0 252 -116.5t92 -301.5v-62q0 -14 -6.5 -20t-23.5 -6h-660q0 -73 11 -137.5t38 -125t67.5 -103.5t103.5 -69t143 -26q125 0 233 43q23 8 27 -8l8 -27q3 -12 -12 -20q-54 -23 -130.5 -35t-136.5 -12q-210 0 -321 138t-111 376z M180 557h617v41q0 55 -9.5 105t-30.5 95t-52.5 78t-79 52.5t-105.5 19.5q-81 0 -145 -32t-104 -88t-62.5 -124t-28.5 -147zM285 1270q0 26 16.5 42.5t38.5 16.5q25 0 42 -16.5t17 -42.5q0 -23 -17 -39.5t-42 -16.5q-22 0 -38.5 16.5t-16.5 39.5zM598 1270q0 26 16.5 42.5 t38.5 16.5q25 0 42.5 -16.5t17.5 -42.5q0 -23 -17.5 -39.5t-42.5 -16.5q-22 0 -38.5 16.5t-16.5 39.5z" />
<glyph unicode="&#xec;" horiz-adv-x="430" d="M23 1374l30 45q12 18 33 2l262 -209q13 -10 6 -22l-10 -16q-8 -12 -18 -5l-297 177q-19 9 -6 28zM178 18v951q0 18 17 18h41q16 0 16 -18v-951q0 -18 -16 -18h-41q-17 0 -17 18z" />
<glyph unicode="&#xed;" horiz-adv-x="430" d="M70 1190q-7 12 6 22l262 209q21 15 33 -2l30 -45q13 -19 -6 -28l-297 -177q-10 -7 -18 5zM178 18v951q0 18 17 18h41q16 0 16 -18v-951q0 -18 -16 -18h-41q-17 0 -17 18z" />
<glyph unicode="&#xee;" horiz-adv-x="430" d="M-2 1178q-9 9 0 18l192 221q13 13 23 13h10q15 0 25 -13l182 -215q11 -11 4 -20l-10 -13q-8 -10 -18 0l-187 164l-194 -170q-7 -7 -15 0zM178 18v951q0 18 17 18h41q16 0 16 -18v-951q0 -18 -16 -18h-41q-17 0 -17 18z" />
<glyph unicode="&#xef;" horiz-adv-x="430" d="M2 1264q0 26 16.5 42.5t38.5 16.5q25 0 42.5 -16.5t17.5 -42.5q0 -23 -17.5 -39.5t-42.5 -16.5q-22 0 -38.5 16.5t-16.5 39.5zM178 18v951q0 18 17 18h41q16 0 16 -18v-951q0 -18 -16 -18h-41q-17 0 -17 18zM315 1264q0 26 16.5 42.5t39.5 16.5q25 0 42 -16.5t17 -42.5 q0 -23 -17 -39.5t-42 -16.5q-22 0 -39 16.5t-17 39.5z" />
<glyph unicode="&#xf0;" horiz-adv-x="1034" d="M104 498q0 80 15 153t48.5 138.5t81.5 114t118 76.5t155 28q78 0 147 -27.5t111 -77.5q-80 236 -262 418l-164 -127q-12 -7 -14 -6.5t-10 8.5l-13 14q-12 12 5 25l159 121q-70 65 -162 121q-14 8 -8 20l11 19q6 11 22 4q99 -48 188 -125l132 100q14 11 22 0l14 -18 q8 -11 -6 -21l-125 -96q166 -160 264.5 -393.5t98.5 -468.5q0 -76 -14 -147.5t-47 -139t-80.5 -118t-120 -81t-160.5 -30.5t-157.5 28.5t-115.5 77t-76.5 115.5t-43.5 140t-13 155zM180 500q0 -68 9.5 -131t34 -124.5t61 -106.5t95 -73t132.5 -28q90 0 158.5 39.5t108 106 t58.5 144.5t19 165q0 86 -17.5 163.5t-55 145.5t-104.5 108.5t-157 40.5q-73 0 -131.5 -26t-97 -69t-64.5 -102t-37.5 -122t-11.5 -131z" />
<glyph unicode="&#xf1;" horiz-adv-x="1042" d="M158 18v951q0 18 12 18h47q14 0 14 -18v-111q157 150 353 150q142 0 215 -76q86 -89 86 -285v-629q0 -18 -17 -18h-41q-16 0 -16 18v609q0 183 -66 254q-59 65 -180 65q-84 0 -174 -45t-160 -117v-766q0 -18 -16 -18h-41q-16 0 -16 18zM240 1247q19 58 65 86.5t103 28.5 q66 0 122 -41l43 -31q26 -19 45.5 -27t49.5 -8q42 0 65.5 17t50.5 59q9 14 19 10l22 -10q10 -3 6 -14q-18 -58 -63 -89.5t-98 -31.5q-72 0 -129 41l-41 31q-52 37 -94 37q-44 0 -72 -18.5t-49 -55.5q-7 -14 -19 -10l-20 10q-10 5 -6 16z" />
<glyph unicode="&#xf2;" horiz-adv-x="1028" d="M98 498q0 100 25.5 189.5t75 162.5t132 115.5t187.5 42.5q110 0 192 -42t129 -115.5t69 -162.5t22 -194q0 -101 -25.5 -191t-76 -163t-133.5 -115.5t-189 -42.5q-88 0 -158 28.5t-116 77t-77 115t-44 140t-13 155.5zM178 500q0 -87 16.5 -164t52 -146t102.5 -110t159 -41 q73 0 131.5 26t97 69.5t64.5 102.5t37.5 122.5t11.5 132.5q0 68 -10 130.5t-35 122.5t-62 104.5t-95 71.5t-130 27q-73 0 -131.5 -26t-96.5 -68.5t-64 -101t-37 -121.5t-11 -131zM348 1374l31 45q12 18 33 2l262 -209q13 -10 6 -22l-10 -16q-9 -13 -19 -5l-297 177 q-18 9 -6 28z" />
<glyph unicode="&#xf3;" horiz-adv-x="1028" d="M98 498q0 100 25.5 189.5t75 162.5t132 115.5t187.5 42.5q110 0 192 -42t129 -115.5t69 -162.5t22 -194q0 -101 -25.5 -191t-76 -163t-133.5 -115.5t-189 -42.5q-88 0 -158 28.5t-116 77t-77 115t-44 140t-13 155.5zM178 500q0 -87 16.5 -164t52 -146t102.5 -110t159 -41 q73 0 131.5 26t97 69.5t64.5 102.5t37.5 122.5t11.5 132.5q0 68 -10 130.5t-35 122.5t-62 104.5t-95 71.5t-130 27q-73 0 -131.5 -26t-96.5 -68.5t-64 -101t-37 -121.5t-11 -131zM346 1190q-7 12 6 22l262 209q21 15 33 -2l31 -45q12 -19 -6 -28l-297 -177q-10 -8 -19 5z " />
<glyph unicode="&#xf4;" horiz-adv-x="1028" d="M98 498q0 100 25.5 189.5t75 162.5t132 115.5t187.5 42.5q110 0 192 -42t129 -115.5t69 -162.5t22 -194q0 -101 -25.5 -191t-76 -163t-133.5 -115.5t-189 -42.5q-88 0 -158 28.5t-116 77t-77 115t-44 140t-13 155.5zM178 500q0 -87 16.5 -164t52 -146t102.5 -110t159 -41 q73 0 131.5 26t97 69.5t64.5 102.5t37.5 122.5t11.5 132.5q0 68 -10 130.5t-35 122.5t-62 104.5t-95 71.5t-130 27q-73 0 -131.5 -26t-96.5 -68.5t-64 -101t-37 -121.5t-11 -131zM295 1178q-9 9 0 18l192 221q13 13 23 13h10q15 0 25 -13l182 -215q11 -11 4 -20l-10 -13 q-8 -11 -19 0l-186 164l-194 -170q-8 -7 -15 0z" />
<glyph unicode="&#xf5;" horiz-adv-x="1028" d="M98 498q0 100 25.5 189.5t75 162.5t132 115.5t187.5 42.5q110 0 192 -42t129 -115.5t69 -162.5t22 -194q0 -101 -25.5 -191t-76 -163t-133.5 -115.5t-189 -42.5q-88 0 -158 28.5t-116 77t-77 115t-44 140t-13 155.5zM178 500q0 -87 16.5 -164t52 -146t102.5 -110t159 -41 q73 0 131.5 26t97 69.5t64.5 102.5t37.5 122.5t11.5 132.5q0 68 -10 130.5t-35 122.5t-62 104.5t-95 71.5t-130 27q-73 0 -131.5 -26t-96.5 -68.5t-64 -101t-37 -121.5t-11 -131zM223 1247q19 58 65 86.5t103 28.5q67 0 123 -41l43 -31q26 -19 45 -27t49 -8q42 0 66 17 t51 59q8 14 18 10l23 -10q10 -3 6 -14q-18 -58 -63.5 -89.5t-98.5 -31.5q-72 0 -129 41l-41 31q-52 37 -94 37q-44 0 -72 -18.5t-49 -55.5q-7 -14 -18 -10l-21 10q-10 5 -6 16z" />
<glyph unicode="&#xf6;" horiz-adv-x="1028" d="M98 498q0 100 25.5 189.5t75 162.5t132 115.5t187.5 42.5q110 0 192 -42t129 -115.5t69 -162.5t22 -194q0 -101 -25.5 -191t-76 -163t-133.5 -115.5t-189 -42.5q-88 0 -158 28.5t-116 77t-77 115t-44 140t-13 155.5zM178 500q0 -87 16.5 -164t52 -146t102.5 -110t159 -41 q73 0 131.5 26t97 69.5t64.5 102.5t37.5 122.5t11.5 132.5q0 68 -10 130.5t-35 122.5t-62 104.5t-95 71.5t-130 27q-73 0 -131.5 -26t-96.5 -68.5t-64 -101t-37 -121.5t-11 -131zM303 1268q0 26 16.5 42.5t38.5 16.5q25 0 42.5 -16.5t17.5 -42.5q0 -23 -17.5 -39.5 t-42.5 -16.5q-22 0 -38.5 16.5t-16.5 39.5zM616 1268q0 26 17 42.5t39 16.5q25 0 42 -16.5t17 -42.5q0 -23 -17 -39.5t-42 -16.5q-22 0 -39 16.5t-17 39.5z" />
<glyph unicode="&#xf7;" d="M160 516v33q0 10 3.5 13t14.5 3h731q11 0 15 -3t4 -13v-33q0 -10 -4 -13t-15 -3h-731q-11 0 -14.5 3t-3.5 13zM451 164q0 34 22 53t57 19q32 0 53 -19t21 -53q0 -36 -20 -58t-56 -22q-37 0 -57 22t-20 58zM451 924q0 34 22 52.5t57 18.5q32 0 53 -18.5t21 -52.5 q0 -36 -20 -58t-56 -22q-37 0 -57 22t-20 58z" />
<glyph unicode="&#xf8;" horiz-adv-x="1021" d="M98 498q0 80 15 153t48.5 138.5t81.5 114t118 76.5t155 28q140 0 244 -80l65 108q10 20 27 11l20 -13q18 -9 9 -24l-78 -125q121 -135 121 -391q0 -80 -15.5 -154t-48.5 -139.5t-81.5 -114t-119 -76.5t-155.5 -28q-122 0 -213 59l-60 -94q-13 -20 -30 -10l-17 10 q-18 11 -6 28l66 103q-73 69 -109.5 180t-36.5 240zM174 500q0 -239 105 -363l444 733q-83 80 -207 80q-73 0 -131.5 -26t-97 -69t-64.5 -102t-37.5 -122t-11.5 -131zM324 94q72 -57 182 -57q90 0 158.5 39.5t108 106t58.5 144.5t19 165q0 202 -86 329z" />
<glyph unicode="&#xf9;" horiz-adv-x="1024" d="M158 342v629q0 16 16 16h41q16 0 16 -16v-609q0 -182 66 -253q60 -66 180 -66q84 0 167.5 43.5t148.5 116.5v768q0 16 16 16h41q16 0 16 -16v-953q0 -18 -16 -18h-39q-18 0 -18 20v109q-150 -147 -334 -147q-141 0 -213 75q-88 91 -88 285zM324 1374l30 45q12 18 33 2 l262 -209q13 -10 6 -22l-10 -16q-8 -12 -18 -5l-297 177q-18 9 -6 28z" />
<glyph unicode="&#xfa;" horiz-adv-x="1024" d="M158 342v629q0 16 16 16h41q16 0 16 -16v-609q0 -182 66 -253q60 -66 180 -66q84 0 167.5 43.5t148.5 116.5v768q0 16 16 16h41q16 0 16 -16v-953q0 -18 -16 -18h-39q-18 0 -18 20v109q-150 -147 -334 -147q-141 0 -213 75q-88 91 -88 285zM381 1190q-7 12 6 22l262 209 q21 15 33 -2l31 -45q13 -19 -6 -28l-297 -177q-10 -8 -19 5z" />
<glyph unicode="&#xfb;" horiz-adv-x="1024" d="M158 342v629q0 16 16 16h41q16 0 16 -16v-609q0 -182 66 -253q60 -66 180 -66q84 0 167.5 43.5t148.5 116.5v768q0 16 16 16h41q16 0 16 -16v-953q0 -18 -16 -18h-39q-18 0 -18 20v109q-150 -147 -334 -147q-141 0 -213 75q-88 91 -88 285zM301 1178q-9 9 0 18l193 221 q13 13 22 13h10q15 0 25 -13l182 -215q11 -11 4 -20l-10 -13q-8 -10 -18 0l-187 164l-194 -170q-8 -7 -15 0z" />
<glyph unicode="&#xfc;" horiz-adv-x="1024" d="M158 342v629q0 16 16 16h41q16 0 16 -16v-609q0 -182 66 -253q60 -66 180 -66q84 0 167.5 43.5t148.5 116.5v768q0 16 16 16h41q16 0 16 -16v-953q0 -18 -16 -18h-39q-18 0 -18 20v109q-150 -147 -334 -147q-141 0 -213 75q-88 91 -88 285zM303 1268q0 26 16.5 42.5 t38.5 16.5q25 0 42.5 -16.5t17.5 -42.5q0 -23 -17.5 -39.5t-42.5 -16.5q-22 0 -38.5 16.5t-16.5 39.5zM616 1268q0 26 17 42.5t39 16.5q25 0 42 -16.5t17 -42.5q0 -23 -17 -39.5t-42 -16.5q-22 0 -39 16.5t-17 39.5z" />
<glyph unicode="&#xfd;" horiz-adv-x="888" d="M29 -420l6 25q3 17 20 14l25 -3q25 -3 41 -3q88 0 145 44t94 140l66 172l-350 998q-7 20 14 20h39q20 0 25 -16l309 -901h2l299 899q7 18 24 18h35q24 0 15 -24l-375 -1084q-64 -186 -139.5 -258t-214.5 -72q-36 0 -66 9q-17 6 -14 22zM299 1190q-7 12 6 22l262 209 q21 15 33 -2l31 -45q13 -19 -6 -28l-297 -177q-10 -8 -19 5z" />
<glyph unicode="&#xfe;" horiz-adv-x="1042" d="M158 -403v1822q0 22 18 25l35 6q20 3 20 -16v-586q58 75 142.5 117.5t181.5 42.5q98 0 174 -41t122 -112.5t69.5 -162.5t23.5 -196q0 -230 -117 -372t-297 -142q-92 0 -173.5 40.5t-125.5 116.5v-542q0 -19 -16 -19h-41q-16 0 -16 19zM231 242q40 -89 119 -145t170 -56 q158 0 251 122t93 331q0 205 -83 329.5t-234 124.5q-93 0 -182 -51.5t-134 -134.5v-520z" />
<glyph unicode="&#xff;" horiz-adv-x="888" d="M29 -420l6 25q3 17 20 14l25 -3q25 -3 41 -3q88 0 145 44t94 140l66 172l-350 998q-7 20 14 20h39q20 0 25 -16l309 -901h2l299 899q7 18 24 18h35q24 0 15 -24l-375 -1084q-64 -186 -139.5 -258t-214.5 -72q-36 0 -66 9q-17 6 -14 22zM248 1266q0 26 16.5 42.5 t38.5 16.5q25 0 42 -16.5t17 -42.5q0 -23 -17 -39.5t-42 -16.5q-22 0 -38.5 16.5t-16.5 39.5zM561 1266q0 26 16.5 42.5t38.5 16.5q25 0 42.5 -16.5t17.5 -42.5q0 -23 -17.5 -39.5t-42.5 -16.5q-22 0 -38.5 16.5t-16.5 39.5z" />
<glyph unicode="&#x152;" horiz-adv-x="1787" d="M104 698q0 337 152 534.5t391 197.5q232 0 357 -170v126q0 12 4.5 16.5t17.5 4.5h637q16 0 16 -14v-4l-2 -31q0 -17 -26 -17h-566v-563h498q16 0 16 -14v-37q0 -16 -18 -16h-496v-641h584q17 0 17 -13v-43q0 -14 -17 -14h-643q-22 0 -22 23v124q-78 -84 -183.5 -124.5 t-208.5 -40.5q-243 0 -375.5 184.5t-132.5 531.5zM199 705q0 -295 111 -473.5t317 -178.5q106 0 207 48t170 137v921q-51 87 -142.5 143t-218.5 56q-134 0 -236 -85.5t-155 -233t-53 -334.5z" />
<glyph unicode="&#x153;" horiz-adv-x="1708" d="M98 498q0 80 15 153t48.5 138.5t81.5 114t118 76.5t155 28q284 0 375 -275q51 130 148.5 202.5t234.5 72.5q160 0 252 -116.5t92 -301.5v-62q0 -26 -31 -26h-659q0 -92 18.5 -171t59 -146t113 -105.5t171.5 -38.5q126 0 234 43q22 7 26 -8l9 -27q3 -12 -13 -20 q-54 -23 -130 -35t-136 -12q-152 0 -251.5 71t-143.5 203q-102 -274 -381 -274q-88 0 -157.5 28.5t-115.5 77t-76.5 115.5t-43.5 140t-13 155zM174 500q0 -68 9.5 -131t34 -124.5t61 -106.5t95 -73t132.5 -28q90 0 158.5 39.5t108 106t58.5 144.5t19 165q0 86 -17.5 163.5 t-55 145.5t-104.5 108.5t-157 40.5q-73 0 -131.5 -26t-97 -69t-64.5 -102t-37.5 -122t-11.5 -131zM930 557h616v41q0 70 -15.5 130.5t-47 111t-86 79.5t-127.5 29q-81 0 -145 -32t-104 -88t-62.5 -124t-28.5 -147z" />
<glyph unicode="&#x178;" horiz-adv-x="1024" d="M75.5 1399.5q4.5 7.5 18.5 7.5h41q20 0 29 -18l364 -766h2l347 766q8 18 28 18h33q27 0 16 -25l-387 -837v-522q0 -23 -24 -23h-33q-14 0 -19.5 5t-5.5 18v518l-409 843q-5 8 -0.5 15.5zM315 1593q0 26 17 43t39 17q25 0 42 -17t17 -43q0 -23 -17 -39t-42 -16 q-22 0 -39 16t-17 39zM629 1593q0 26 16.5 43t38.5 17q25 0 42 -17t17 -43q0 -23 -17 -39t-42 -16q-22 0 -38.5 16t-16.5 39z" />
<glyph unicode="&#x2c6;" horiz-adv-x="608" d="M86 1178q-9 9 0 18l193 221q13 13 22 13h10q15 0 25 -13l182 -215q11 -11 4 -20l-10 -13q-8 -10 -18 0l-187 164l-194 -170q-7 -7 -15 0z" />
<glyph unicode="&#x2dc;" horiz-adv-x="608" d="M12 1305q19 58 65 86t103 28q67 0 123 -41l43 -30q26 -19 45 -27t49 -8q42 0 66 17t51 59q8 14 18 10l23 -10q10 -3 6 -15q-18 -58 -63.5 -89.5t-98.5 -31.5q-72 0 -129 41l-41 31q-52 37 -94 37q-44 0 -72 -18.5t-49 -55.5q-7 -14 -18 -10l-21 10q-10 5 -6 17z" />
<glyph unicode="&#x2000;" horiz-adv-x="931" />
<glyph unicode="&#x2001;" horiz-adv-x="1862" />
<glyph unicode="&#x2002;" horiz-adv-x="931" />
<glyph unicode="&#x2003;" horiz-adv-x="1862" />
<glyph unicode="&#x2004;" horiz-adv-x="620" />
<glyph unicode="&#x2005;" horiz-adv-x="465" />
<glyph unicode="&#x2006;" horiz-adv-x="310" />
<glyph unicode="&#x2007;" horiz-adv-x="310" />
<glyph unicode="&#x2008;" horiz-adv-x="232" />
<glyph unicode="&#x2009;" horiz-adv-x="372" />
<glyph unicode="&#x200a;" horiz-adv-x="103" />
<glyph unicode="&#x2010;" horiz-adv-x="542" d="M119 518v33q0 16 20 16h262q25 0 25 -24v-19q0 -26 -23 -26h-262q-22 0 -22 20z" />
<glyph unicode="&#x2011;" horiz-adv-x="542" d="M119 518v33q0 16 20 16h262q25 0 25 -24v-19q0 -26 -23 -26h-262q-22 0 -22 20z" />
<glyph unicode="&#x2012;" horiz-adv-x="542" d="M119 518v33q0 16 20 16h262q25 0 25 -24v-19q0 -26 -23 -26h-262q-22 0 -22 20z" />
<glyph unicode="&#x2013;" horiz-adv-x="1024" d="M0 518v37q0 14 14 14h994q16 0 16 -14v-37q0 -14 -16 -14h-994q-14 0 -14 14z" />
<glyph unicode="&#x2014;" horiz-adv-x="2048" d="M0 518v37q0 14 14 14h2018q16 0 16 -14v-37q0 -14 -16 -14h-2018q-14 0 -14 14z" />
<glyph unicode="&#x2018;" horiz-adv-x="321" d="M74 1147q0 160 129 280q11 11 20 3l8 -11q9 -9 -2 -20q-69 -69 -69 -144q0 -39 32.5 -82t32.5 -65q0 -29 -18.5 -46.5t-48.5 -17.5q-33 0 -58.5 29.5t-25.5 73.5z" />
<glyph unicode="&#x2019;" horiz-adv-x="321" d="M90 1055q-9 9 2 20q70 70 70 144q0 39 -33 82t-33 65q0 29 19 46.5t49 17.5q33 0 58.5 -29.5t25.5 -73.5q0 -160 -129 -280q-12 -12 -21 -3z" />
<glyph unicode="&#x201a;" horiz-adv-x="321" d="M90 -215q-9 9 2 20q70 70 70 144q0 39 -33 82t-33 65q0 29 19 46.5t49 17.5q33 0 58.5 -29.5t25.5 -73.5q0 -160 -129 -280q-11 -11 -21 -2z" />
<glyph unicode="&#x201c;" horiz-adv-x="608" d="M74 1147q0 160 129 280q11 11 20 3l8 -11q9 -9 -2 -20q-69 -69 -69 -144q0 -39 32.5 -82t32.5 -65q0 -29 -18.5 -46.5t-48.5 -17.5q-33 0 -58.5 29.5t-25.5 73.5zM360 1147q0 160 129 280q12 12 21 3l8 -11q9 -9 -2 -20q-70 -70 -70 -144q0 -39 33 -82t33 -65 q0 -29 -19 -46.5t-49 -17.5q-33 0 -58.5 29.5t-25.5 73.5z" />
<glyph unicode="&#x201d;" horiz-adv-x="608" d="M90 1055q-9 9 2 20q70 70 70 144q0 39 -33 82t-33 65q0 29 19 46.5t49 17.5q33 0 58.5 -29.5t25.5 -73.5q0 -160 -129 -280q-12 -12 -21 -3zM377 1055q-9 9 2 20q70 70 70 144q0 39 -33 82t-33 65q0 29 19 46.5t49 17.5q33 0 58.5 -29.5t25.5 -73.5q0 -160 -129 -280 q-12 -12 -21 -3z" />
<glyph unicode="&#x201e;" horiz-adv-x="608" d="M90 -215q-9 9 2 20q70 70 70 144q0 39 -33 82t-33 65q0 29 19 46.5t49 17.5q33 0 58.5 -29.5t25.5 -73.5q0 -160 -129 -280q-11 -11 -21 -2zM377 -215q-9 9 2 20q70 70 70 144q0 39 -33 82t-33 65q0 29 19 46.5t49 17.5q33 0 58.5 -29.5t25.5 -73.5q0 -160 -129 -280 q-12 -11 -21 -2z" />
<glyph unicode="&#x2022;" horiz-adv-x="919" d="M152 545q0 132 90 224.5t219 92.5t218 -92.5t89 -224.5q0 -133 -89.5 -227.5t-217.5 -94.5t-218.5 94.5t-90.5 227.5z" />
<glyph unicode="&#x2026;" horiz-adv-x="1167" d="M135 51q0 32 20 50t52 18q29 0 48 -18.5t19 -49.5q0 -33 -18 -52t-51 -19q-34 0 -52 19t-18 52zM524 51q0 32 20 50t52 18q29 0 48.5 -18.5t19.5 -49.5q0 -33 -18.5 -52t-51.5 -19q-34 0 -52 19t-18 52zM913 51q0 32 20 50t52 18q29 0 48.5 -18.5t19.5 -49.5 q0 -33 -18.5 -52t-51.5 -19q-34 0 -52 19t-18 52z" />
<glyph unicode="&#x202f;" horiz-adv-x="372" />
<glyph unicode="&#x2039;" horiz-adv-x="591" d="M182 465q0 9 6 18l209 308q11 17 25 10l12 -6q14 -7 4 -23l-170 -303l168 -324q9 -15 -4 -22l-10 -6q-14 -7 -25 10l-209 317q-6 9 -6 21z" />
<glyph unicode="&#x203a;" horiz-adv-x="591" d="M156 150l170 309l-170 311q-10 16 4 23l12 6q15 6 25 -11l206 -307q7 -11 7 -20q0 -5 -7 -19l-208 -311q-11 -17 -25 -10l-10 6q-14 7 -4 23z" />
<glyph unicode="&#x205f;" horiz-adv-x="465" />
<glyph unicode="&#x20ac;" d="M-4 555v29q0 14 14 14h174q-4 35 -4 107v24h-143q-14 0 -14 14v29q0 14 14 14h145q10 131 51.5 246t109 204.5t168.5 141.5t222 52q186 0 322 -89q13 -8 6 -24l-17 -33q-5 -12 -22 -4q-129 80 -279 80q-88 0 -163 -32.5t-127.5 -87.5t-91.5 -129t-60 -155.5t-27 -169.5 h557q8 0 13 -3t4 -11l-6 -29q-3 -14 -17 -14h-553v-14q0 -49 7 -117h505q8 0 13 -3t4 -11l-6 -29q-3 -14 -17 -14h-493q16 -103 49.5 -188t88 -154.5t136 -108.5t184.5 -39q146 0 293 78q16 10 23 -8l12 -31q6 -18 -10 -27q-148 -81 -332 -81q-118 0 -213.5 42.5t-161 118.5 t-107 176.5t-57.5 221.5h-180q-14 0 -14 14z" />
<glyph unicode="&#x2122;" horiz-adv-x="1298" d="M29 1370v29q0 8 10 8h514q10 0 10 -10l-2 -27q0 -10 -12 -10h-227v-617q0 -12 -13 -12h-30q-15 0 -15 12v617h-225q-10 0 -10 10zM594 743l24 650q0 14 15 14h20q15 0 21 -14l248 -590l233 594q3 10 16 10h27q12 0 12 -12l27 -652q0 -12 -12 -12h-27q-14 0 -14 12 l-23 549l-215 -549q-4 -12 -20 -12h-13q-16 0 -22 12l-227 549l-19 -549q0 -12 -12 -12h-25q-14 0 -14 12z" />
<glyph unicode="&#x25fc;" horiz-adv-x="983" d="M0 0v983h983v-983h-983z" />
</font>
</defs>
</svg>
