<?xml version="1.0" standalone="no"?>
<!DOCTYPE svg PUBLIC "-//W3C//DTD SVG 1.1//EN" "http://www.w3.org/Graphics/SVG/1.1/DTD/svg11.dtd" >
<svg xmlns="http://www.w3.org/2000/svg">
<metadata>Generated by IcoMoon</metadata>
<defs>
<font id="icomoon" horiz-adv-x="1024">
<font-face units-per-em="1024" ascent="960" descent="-64" />
<missing-glyph horiz-adv-x="1024" />
<glyph unicode="&#x20;" horiz-adv-x="512" d="" />
<glyph unicode="&#xe900;" horiz-adv-x="994" d="M918.581 899.029l-75.294 60.235-75.294-60.235-75.294 60.235-75.294-60.235-75.294 60.235-75.294-60.235-75.294 60.235-75.294-60.235-75.294 60.235v-963.765c0-33.25 26.985-60.235 60.235-60.235h632.471c33.25 0 60.235 26.985 60.235 60.235v963.765l-75.294-60.235z" />
<glyph unicode="&#xe901;" horiz-adv-x="994" d="M993.875 959.265l-75.294-60.235-75.294 60.235-75.294-60.235-75.294 60.235-75.294-60.235-75.294 60.235-75.294-60.235-75.294 60.235-75.294-60.235-75.294 60.235v-963.765c0-33.25 26.985-60.235 60.235-60.235h632.471c33.25 0 60.235 26.985 60.235 60.235v963.765zM843.287 920.684l75.294-60.235 45.176 36.141v-901.090c0-16.595-13.523-30.118-30.118-30.118h-632.471c-16.595 0-30.118 13.523-30.118 30.118v901.090l45.176-36.141 75.294 60.235 75.294-60.235 75.294 60.235 75.294-60.235 75.294 60.235 75.294-60.235 75.294 60.235z" />
<glyph unicode="&#xe902;" horiz-adv-x="994" d="M793.066 429.869c-35.027 120.26-89.69 198.174-150.98 198.174-102.822 0-190.344-256.060-190.344-572.235h85.323c0 293.918 45.929 532.149 107.219 532.149 61.259 0 102.822-223.714 102.822-493.116h91.889c-2.168 269.402 43.791 493.116 102.852 493.116 7.499 0 14.818-3.885 21.896-11.204v47.435c-7.198 2.47-14.487 3.855-21.896 3.855-59.061 0-113.784-77.914-148.781-198.174z" />
<glyph unicode="&#xe903;" horiz-adv-x="994" d="M321.759 868.912h107.085c29.609 0 53.542-23.987 53.542-53.542v-374.797c0-29.555-23.933-53.542-53.542-53.542h-374.797c-29.609 0-53.542 23.987-53.542 53.542v374.797c0 29.555 23.933 53.542 53.542 53.542h267.712z" />
<glyph unicode="&#xe904;" glyph-name="chevron-down-small" d="M513.011 371.954l199.121 199.121c9.997 9.997 26.206 9.997 36.204 0s9.997-26.206 0-36.204l-235.325-235.325-235.325 235.325c-9.997 9.997-9.997 26.206 0 36.204s26.206 9.997 36.204 0l199.121-199.121z" />
<glyph unicode="&#xe905;" glyph-name="chevron-down" d="M512.392 327.717l-263.509 263.509c-18.177 18.177-47.648 18.177-65.825 0s-18.177-47.648 0-65.825l329.126-329.126 0.208 0.208 0.208-0.208 329.126 329.126c18.177 18.177 18.177 47.648 0 65.825s-47.648 18.177-65.825 0l-263.509-263.509z" />
<glyph unicode="&#xe906;" glyph-name="chevron-left-small" d="M379.608 448l199.121-199.121c9.997-9.997 9.997-26.206 0-36.204s-26.206-9.997-36.204 0l-235.325 235.325 235.325 235.325c9.997 9.997 26.206 9.997 36.204 0s9.997-26.206 0-36.204l-199.121-199.121z" />
<glyph unicode="&#xe907;" glyph-name="chevron-left" d="M392.997 447.112l263.509-263.509c18.177-18.177 18.177-47.648 0-65.825s-47.648-18.177-65.825 0l-329.126 329.126 0.208 0.208-0.208 0.208 329.126 329.126c18.177 18.177 47.648 18.177 65.825 0s18.177-47.648 0-65.825l-263.509-263.509z" />
<glyph unicode="&#xe908;" glyph-name="chevron-right-small" d="M639.246 448l-199.121 199.121c-9.997 9.997-9.997 26.206 0 36.204s26.206 9.997 36.204 0l235.325-235.325-235.325-235.325c-9.997-9.997-26.206-9.997-36.204 0s-9.997 26.206 0 36.204l199.121 199.121z" />
<glyph unicode="&#xe909;" glyph-name="chevron-right" d="M631.787 447.112l-263.509-263.509c-18.177-18.177-18.177-47.648 0-65.825s47.648-18.177 65.825 0l329.126 329.126-0.208 0.208 0.208 0.208-329.126 329.126c-18.177 18.177-47.648 18.177-65.825 0s-18.177-47.648 0-65.825l263.509-263.509z" />
<glyph unicode="&#xe90a;" glyph-name="chevron-up-small" d="M512.155 529.192l199.121-199.121c9.997-9.997 26.206-9.997 36.204 0s9.997 26.206 0 36.204l-235.325 235.325-235.325-235.325c-9.997-9.997-9.997-26.206 0-36.204s26.206-9.997 36.204 0l199.121 199.121z" />
<glyph unicode="&#xe90b;" glyph-name="chevron-up" d="M512.392 519.961l-263.509-263.509c-18.177-18.177-47.648-18.177-65.825 0s-18.177 47.648 0 65.825l329.126 329.126 0.208-0.208 0.208 0.208 329.126-329.126c18.177-18.177 18.177-47.648 0-65.825s-47.648-18.177-65.825 0l-263.509 263.509z" />
<glyph unicode="&#xe90c;" glyph-name="search" d="M925.867 72.534l-157.867 157.867c51.2 64 85.333 149.333 85.333 238.933 0 213.333-170.667 384-384 384s-384-170.667-384-384c0-213.333 170.667-384 384-384 89.6 0 174.933 29.867 238.933 85.333l157.867-157.867c8.533-8.533 21.333-12.8 29.867-12.8s21.333 4.267 29.867 12.8c17.067 17.067 17.067 42.667 0 59.733zM170.667 469.334c0 166.4 132.267 298.667 298.667 298.667s298.667-132.267 298.667-298.667c0-81.067-34.133-157.867-85.333-209.067 0 0 0 0 0 0s0 0 0 0c-55.467-55.467-128-85.333-209.067-85.333-170.667-4.267-302.933 128-302.933 294.4z" />
<glyph unicode="&#xe90d;" glyph-name="x-circle" d="M512 896c-260.267 0-469.333-209.067-469.333-469.333s209.067-469.333 469.333-469.333 469.333 209.067 469.333 469.333-209.067 469.333-469.333 469.333zM512 42.667c-213.333 0-384 170.667-384 384s170.667 384 384 384c213.333 0 384-170.667 384-384s-170.667-384-384-384zM669.867 584.534c-17.067 17.067-42.667 17.067-59.733 0l-98.133-98.133-98.133 98.133c-17.067 17.067-42.667 17.067-59.733 0s-17.067-42.667 0-59.733l98.133-98.133-98.133-98.133c-17.067-17.067-17.067-42.667 0-59.733 8.533-8.533 17.067-12.8 29.867-12.8s21.333 4.267 29.867 12.8l98.133 98.133 98.133-98.133c8.533-8.533 21.333-12.8 29.867-12.8s21.333 4.267 29.867 12.8c17.067 17.067 17.067 42.667 0 59.733l-98.133 98.133 98.133 98.133c17.067 17.067 17.067 42.667 0 59.733z" />
<glyph unicode="&#xe90e;" horiz-adv-x="3180" d="M646.656 450.991c-0.701 77.069 63.111 114.58 66.021 116.332-36.109 52.709-92.16 59.904-111.832 60.47-47.050 4.931-92.672-28.16-116.655-28.16-24.441 0-61.359 27.675-101.133 26.867-51.173-0.808-99.059-30.424-125.332-76.45-54.191-93.831-13.77-231.747 38.131-307.577 25.977-37.133 56.347-78.632 96.067-77.15 38.858 1.59 53.383 24.792 100.298 24.792 46.484 0 60.12-24.792 100.648-23.848 41.688 0.647 67.988 37.295 93.049 74.779 29.992 42.577 42.065 84.507 42.523 86.663-0.943 0.323-81.004 30.855-81.785 123.284z" />
<glyph unicode="&#xe90f;" horiz-adv-x="3180" d="M570.099 677.672c20.911 26.166 35.193 61.709 31.232 97.819-30.262-1.32-68.096-20.911-89.896-46.511-19.267-22.528-36.487-59.473-32.040-94.181 33.981-2.533 68.904 17.139 90.705 42.873z" />
<glyph unicode="&#xe910;" horiz-adv-x="3180" d="M998.643 297.337h101.107l-49.853 146.782h-1.401l-49.853-146.782zM1112.98 255.596h-127.569l-30.612-90.435h-54.029l120.805 334.632h56.131l120.832-334.632h-54.973l-30.585 90.435z" />
<glyph unicode="&#xe911;" horiz-adv-x="3180" d="M1407.973 287.124c0 49.395-25.519 81.866-64.485 81.866-38.238 0-63.973-33.145-63.973-81.866 0-49.152 25.735-82.082 63.973-82.082 38.966 0 64.485 32.256 64.485 82.082zM1459.443 287.124c0-75.803-40.583-124.524-101.807-124.524-34.762 0-62.383 15.549-76.773 42.685h-1.159v-120.832h-50.068v324.689h48.478v-40.583h0.916c13.905 26.166 43.601 43.116 77.689 43.116 61.925 0 102.723-48.936 102.723-124.551z" />
<glyph unicode="&#xe912;" horiz-adv-x="3180" d="M1676.504 287.124c0 49.395-25.519 81.866-64.485 81.866-38.265 0-64-33.145-64-81.866 0-49.152 25.735-82.082 64-82.082 38.966 0 64.485 32.256 64.485 82.082zM1727.973 287.124c0-75.803-40.583-124.524-101.807-124.524-34.762 0-62.383 15.549-76.773 42.685h-1.159v-120.832h-50.068v324.689h48.478v-40.583h0.916c13.905 26.166 43.601 43.116 77.689 43.116 61.898 0 102.723-48.936 102.723-124.551z" />
<glyph unicode="&#xe913;" horiz-adv-x="3180" d="M1905.448 258.398c3.692-33.199 35.948-54.973 79.98-54.973 42.227 0 72.596 21.773 72.596 51.712 0 25.977-18.324 41.526-61.709 52.17l-43.358 10.456c-61.44 14.848-89.977 43.574-89.977 90.22 0 57.721 50.338 97.388 121.748 97.388 70.737 0 119.215-39.667 120.832-97.388h-50.553c-3.018 33.388-30.612 53.544-70.952 53.544-40.367 0-67.961-20.399-67.961-50.068 0-23.66 17.624-37.592 60.766-48.263l36.864-9.027c68.662-16.249 97.172-43.816 97.172-92.78 0-62.599-49.853-101.807-129.159-101.807-74.213 0-124.335 38.292-127.569 98.816h51.281z" />
<glyph unicode="&#xe914;" d="M958.058 449.6c0 243.943-197.752 441.694-441.65 441.694-243.943 0-441.694-197.752-441.694-441.694 0-130.859 57.229-248.109 147.704-328.966 51.555 110.113 163.796 186.448 293.99 186.448s242.435-76.335 293.99-186.448c90.431 80.856 147.66 198.106 147.66 328.966z" />
<glyph unicode="&#xe915;" d="M516.413 307.091c-130.239 0-242.435-76.379-293.99-186.448 78.108-69.863 180.907-112.729 293.99-112.729 113.039 0 215.838 42.866 293.99 112.729-51.555 110.113-163.796 186.448-293.99 186.448z" />
<glyph unicode="&#xe916;" d="M516.413 330.364c136.415 0 258.46-78.948 315.067-199.852 4.357-9.307 2.095-20.37-5.567-27.219-84.91-75.904-193.921-118.651-309.5-118.651-115.625 0-224.641 42.749-309.505 118.655-7.659 6.85-9.919 17.913-5.56 27.218 56.625 120.895 178.646 199.849 315.065 199.849zM516.413 283.819c-112.209 0-213.12-61.607-265.010-157.38 74.321-61.131 166.996-95.251 265.010-95.251 97.975 0 190.648 34.121 265.010 95.257-51.876 95.773-152.806 157.374-265.010 157.374z" />
<glyph unicode="&#xe917;" d="M51.455 449.6c0 256.788 208.164 464.967 464.923 464.967 256.796 0 464.967-208.171 464.967-464.967s-208.171-464.967-464.967-464.967c-256.759 0-464.923 208.178-464.923 464.967zM98 449.6c0-231.083 187.326-418.421 418.377-418.421 231.089 0 418.421 187.332 418.421 418.421s-187.332 418.421-418.421 418.421c-231.052 0-418.377-187.339-418.377-418.421z" />
<glyph unicode="&#xe918;" d="M273.818 468.085c0-133.918 108.606-242.568 242.568-242.568s242.568 108.65 242.568 242.568c0 133.962-108.606 242.613-242.568 242.613s-242.568-108.65-242.568-242.613z" />
<glyph unicode="&#xe919;" d="M250.545 468.085c0 146.823 119.033 265.885 265.841 265.885s265.841-119.063 265.841-265.885c0-146.786-119.040-265.841-265.841-265.841s-265.841 119.055-265.841 265.841zM297.091 468.085c0-121.081 98.202-219.296 219.296-219.296s219.296 98.215 219.296 219.296c0 121.119-98.196 219.34-219.296 219.34s-219.296-98.221-219.296-219.34z" />
<glyph unicode="&#xe91a;" d="M398.343 389.432c-5.521 11.607-0.587 25.492 11.020 31.013s25.492 0.587 31.013-11.020c15.402-32.381 44.423-52.464 75.975-52.464 31.616 0 60.663 20.101 76.055 52.534 5.511 11.612 19.391 16.558 31.003 11.047s16.558-19.391 11.047-31.003c-22.799-48.041-67.715-79.123-118.106-79.123-50.322 0-95.195 31.053-118.008 79.016z" />
<glyph unicode="&#xe91b;" horiz-adv-x="3180" d="M2219.008 466.863v-57.721h46.403v-39.667h-46.403v-134.494c0-20.911 9.297-30.639 29.696-30.639 5.093 0 13.231 0.701 16.465 1.159v-39.424c-5.551-1.401-16.68-2.317-27.81-2.317-49.395 0-68.662 18.567-68.662 65.859v139.857h-35.463v39.667h35.463v57.721h50.311z" />
<glyph unicode="&#xe91c;" horiz-adv-x="3180" d="M2472.664 287.124c0 52.655-24.118 83.752-64.701 83.752s-64.701-31.313-64.701-83.752c0-52.871 24.118-83.699 64.701-83.699s64.701 30.828 64.701 83.699zM2292.251 287.124c0 76.773 45.218 125.009 115.712 125.009 70.737 0 115.739-48.236 115.739-125.009 0-76.962-44.76-124.982-115.739-124.982-70.952 0-115.712 48.020-115.712 124.982z" />
<glyph unicode="&#xe91d;" horiz-adv-x="3180" d="M2564.985 409.142h47.751v-41.526h1.186c7.653 27.594 29.912 44.059 58.664 44.059 7.195 0 13.204-0.943 17.165-1.859v-46.835c-3.961 1.617-12.773 3.018-22.501 3.018-32.229 0-52.17-21.827-52.17-56.131v-144.707h-50.095v243.981z" />
<glyph unicode="&#xe91e;" horiz-adv-x="3180" d="M2751.353 309.625h121.964c-1.159 37.349-25.034 61.925-59.823 61.925-34.547 0-59.581-25.061-62.141-61.925zM2920.637 236.813c-6.737-44.301-49.853-74.671-105.041-74.671-70.979 0-115.038 47.535-115.038 123.823 0 76.531 44.301 126.168 112.936 126.168 67.503 0 109.945-46.376 109.945-120.347v-17.165h-172.328v-3.018c0-41.741 26.22-69.093 65.644-69.093 27.81 0 49.637 13.204 56.347 34.304h47.535z" />
<glyph unicode="&#xe91f;" horiz-adv-x="3180" d="M959.272 613.619h30.316c33.63 0 53.005 20.938 53.005 57.829 0 36.325-19.699 57.506-53.005 57.506h-30.316v-115.335zM992.364 751.67c47.697 0 75.668-29.292 75.668-79.899 0-51.362-27.756-80.896-75.668-80.896h-58.072v160.795h58.072z" />
<glyph unicode="&#xe920;" horiz-adv-x="3180" d="M1186.061 651.614c0 26.301-11.83 41.661-32.552 41.661-20.83 0-32.525-15.36-32.525-41.661 0-26.516 11.695-41.795 32.525-41.795 20.723 0 32.552 15.387 32.552 41.795zM1096.246 651.614c0 39.101 21.827 62.949 57.263 62.949 35.328 0 57.182-23.848 57.182-62.949 0-39.343-21.747-63.084-57.182-63.084-35.544 0-57.263 23.741-57.263 63.084z" />
<glyph unicode="&#xe921;" horiz-adv-x="3180" d="M1362.809 590.875h-24.845l-25.061 89.384h-1.913l-24.953-89.384h-24.603l-33.469 121.344h24.307l21.72-92.591h1.805l24.953 92.591h22.959l24.953-92.591h1.886l21.639 92.591h23.956l-33.334-121.344z" />
<glyph unicode="&#xe922;" glyph-name="checkbox-deactivated" d="M51.2 858.071v-820.143c0-27.813 22.861-50.729 50.729-50.729h820.143c27.813 0 50.729 22.861 50.729 50.729v820.143c0 27.813-22.861 50.729-50.729 50.729h-820.143c-27.813 0-50.729-22.861-50.729-50.729zM0 858.071c0 56.294 45.988 101.929 101.929 101.929h820.143c56.294 0 101.929-45.988 101.929-101.929v-820.143c0-56.294-45.988-101.929-101.929-101.929h-820.143c-56.294 0-101.929 45.988-101.929 101.929v820.143z" />
<glyph unicode="&#xe923;" glyph-name="checkbox-deselected" d="M51.2 858.071v-820.143c0-27.813 22.861-50.729 50.729-50.729h820.143c27.813 0 50.729 22.861 50.729 50.729v820.143c0 27.813-22.861 50.729-50.729 50.729h-820.143c-27.813 0-50.729-22.861-50.729-50.729zM0 858.071c0 56.294 45.988 101.929 101.929 101.929h820.143c56.294 0 101.929-45.988 101.929-101.929v-820.143c0-56.294-45.988-101.929-101.929-101.929h-820.143c-56.294 0-101.929 45.988-101.929 101.929v820.143z" />
<glyph unicode="&#xe924;" d="M51.2 858.071v-820.143c0-27.813 22.861-50.729 50.729-50.729h820.143c27.813 0 50.729 22.861 50.729 50.729v820.143c0 27.813-22.861 50.729-50.729 50.729h-820.143c-27.813 0-50.729-22.861-50.729-50.729zM0 858.071c0 56.294 45.988 101.929 101.929 101.929h820.143c56.294 0 101.929-45.988 101.929-101.929v-820.143c0-56.294-45.988-101.929-101.929-101.929h-820.143c-56.294 0-101.929 45.988-101.929 101.929v820.143z" />
<glyph unicode="&#xe925;" d="M409.6 260.769l401.725 401.725c17.067 17.067 44.737 17.067 61.804 0s17.067-44.737 0-61.804l-432.627-432.627c-17.067-17.067-44.737-17.067-61.804 0l-185.412 185.412c-17.067 17.067-17.067 44.737 0 61.804s44.737 17.067 61.804 0l154.51-154.51z" />
<glyph unicode="&#xe926;" glyph-name="radio-selected-check" d="M512 896c-247.424 0-448-200.576-448-448s200.576-448 448-448c247.424 0 448 200.576 448 448s-200.576 448-448 448zM512 960c282.77 0 512-229.23 512-512s-229.23-512-512-512c-282.77 0-512 229.23-512 512s229.23 512 512 512zM409.519 260.769l365.521 365.521c17.067 17.067 44.737 17.067 61.804 0s17.067-44.737 0-61.804l-396.423-396.423c-17.067-17.067-44.737-17.067-61.804 0l-185.412 185.412c-17.067 17.067-17.067 44.737 0 61.804s44.737 17.067 61.804 0l154.51-154.51z" />
<glyph unicode="&#xe927;" glyph-name="radio-deactivated" d="M512 908.8c-254.493 0-460.8-206.307-460.8-460.8s206.307-460.8 460.8-460.8c254.493 0 460.8 206.307 460.8 460.8s-206.307 460.8-460.8 460.8zM512 960c282.77 0 512-229.23 512-512s-229.23-512-512-512c-282.77 0-512 229.23-512 512s229.23 512 512 512z" />
<glyph unicode="&#xe928;" glyph-name="radio-deselected" d="M512 908.8c-254.493 0-460.8-206.307-460.8-460.8s206.307-460.8 460.8-460.8c254.493 0 460.8 206.307 460.8 460.8s-206.307 460.8-460.8 460.8zM512 960c282.77 0 512-229.23 512-512s-229.23-512-512-512c-282.77 0-512 229.23-512 512s229.23 512 512 512z" />
<glyph unicode="&#xe929;" d="M512 908.8c-254.493 0-460.8-206.307-460.8-460.8s206.307-460.8 460.8-460.8c254.493 0 460.8 206.307 460.8 460.8s-206.307 460.8-460.8 460.8zM512 960c282.77 0 512-229.23 512-512s-229.23-512-512-512c-282.77 0-512 229.23-512 512s229.23 512 512 512z" />
<glyph unicode="&#xe92a;" d="M512 806.4c197.939 0 358.4-160.461 358.4-358.4s-160.461-358.4-358.4-358.4c-197.939 0-358.4 160.461-358.4 358.4s160.461 358.4 358.4 358.4z" />
<glyph unicode="&#xe92b;" horiz-adv-x="3180" d="M1424.276 712.219h23.040v-19.267h1.779c5.901 13.474 17.947 21.612 36.217 21.612 27.082 0 42.011-16.249 42.011-45.137v-78.552h-23.956v72.542c0 19.51-8.461 29.211-26.193 29.211-17.704 0-28.968-11.83-28.968-30.747v-71.006h-23.929v121.344z" />
<glyph unicode="&#xe92c;" horiz-adv-x="3180" d="M1565.48 590.875h23.956v168.717h-23.956z" />
<glyph unicode="&#xe92d;" horiz-adv-x="3180" d="M1712.532 651.614c0 26.301-11.83 41.661-32.552 41.661-20.83 0-32.525-15.36-32.525-41.661 0-26.516 11.695-41.795 32.525-41.795 20.723 0 32.552 15.387 32.552 41.795zM1622.717 651.614c0 39.101 21.827 62.949 57.263 62.949 35.328 0 57.182-23.848 57.182-62.949 0-39.343-21.747-63.084-57.182-63.084-35.544 0-57.263 23.741-57.263 63.084z" />
<glyph unicode="&#xe92e;" horiz-adv-x="3180" d="M1840.371 635.554v10.159l-29.615-1.886c-16.707-1.132-24.28-6.818-24.28-17.516 0-10.914 9.459-17.273 22.474-17.273 18.055 0 31.421 11.48 31.421 26.516zM1762.385 625.206c0 21.827 16.249 34.439 45.137 36.217l32.849 1.886v10.483c0 12.8-8.461 20.049-24.819 20.049-13.366 0-22.636-4.904-25.304-13.474h-23.175c2.452 20.83 22.043 34.196 49.583 34.196 30.424 0 47.562-15.144 47.562-40.771v-82.917h-23.040v17.058h-1.913c-7.222-12.153-20.48-19.052-36.433-19.052-23.39 0-40.448 14.147-40.448 36.325z" />
<glyph unicode="&#xe92f;" horiz-adv-x="3180" d="M1920.431 651.614c0-25.735 12.126-41.229 32.418-41.229 20.184 0 32.66 15.71 32.66 41.122 0 25.277-12.611 41.229-32.66 41.229-20.157 0-32.418-15.603-32.418-41.122zM1895.693 651.614c0 38.346 19.725 62.626 50.365 62.626 16.627 0 30.639-7.923 37.214-21.288h1.805v66.641h23.929v-168.717h-22.932v19.187h-1.913c-7.222-13.285-21.396-21.181-38.104-21.181-30.855 0-50.365 24.28-50.365 62.733z" />
<glyph unicode="&#xe930;" horiz-adv-x="3180" d="M2197.908 651.614c0 26.301-11.83 41.661-32.552 41.661-20.83 0-32.525-15.36-32.525-41.661 0-26.516 11.695-41.795 32.525-41.795 20.723 0 32.552 15.387 32.552 41.795zM2108.093 651.614c0 39.101 21.854 62.949 57.263 62.949 35.328 0 57.182-23.848 57.182-62.949 0-39.343-21.747-63.084-57.182-63.084-35.517 0-57.263 23.741-57.263 63.084z" />
<glyph unicode="&#xe931;" d="M0 448c0 282.77 229.23 512 512 512s512-229.23 512-512c0-282.77-229.23-512-512-512s-512 229.23-512 512z" />
<glyph unicode="&#xe932;" d="M421.442 462.629v-55.589h93.829c-3.782-23.857-28.362-69.949-93.829-69.949-56.487 0-102.574 45.861-102.574 102.376s46.087 102.376 102.574 102.376c32.143 0 53.651-13.434 65.941-25.015l44.906 42.386c-28.834 26.405-66.177 42.386-110.846 42.386-91.466 0-165.442-72.497-165.442-162.133s73.976-162.133 165.442-162.133c95.484 0 158.824 65.78 158.824 158.427 0 10.654-1.182 18.761-2.6 26.868h-156.225z" />
<glyph unicode="&#xe933;" d="M768 453.689h-45.511v45.511h-45.511v-45.511h-45.511v-45.511h45.511v-45.511h45.511v45.511h45.511z" />
<glyph unicode="&#xe934;" d="M0 448c0 282.77 229.23 512 512 512s512-229.23 512-512c0-282.77-229.23-512-512-512s-512 229.23-512 512z" />
<glyph unicode="&#xe935;" d="M548.3 164.022v278.555h76.893l10.19 95.992h-87.083l0.131 48.045c0 25.036 2.379 38.451 38.338 38.451h48.071v96.002h-76.904c-92.374 0-124.888-46.566-124.888-124.876v-57.633h-57.58v-95.992h57.58v-278.544h115.253z" />
<glyph unicode="&#xe936;" d="M512-32c265.097 0 480 214.903 480 480s-214.903 480-480 480c-265.097 0-480-214.903-480-480s214.903-480 480-480zM512-64c-282.77 0-512 229.23-512 512s229.23 512 512 512c282.77 0 512-229.23 512-512s-229.23-512-512-512z" />
<glyph unicode="&#xe937;" d="M640 592.314l-46.415-0.012c-36.374 0-43.427-16.844-43.427-41.545v-54.479h86.781l-11.298-85.328h-75.483v-218.951h-90.482v218.951h-75.676v85.328h75.676v62.924c0 73.031 45.798 112.797 112.704 112.797 32.044 0 59.588-2.32 67.62-3.369v-76.317z" />
<glyph unicode="&#xe938;" horiz-adv-x="3180" d="M2254.686 712.219h23.040v-19.267h1.779c5.901 13.474 17.947 21.612 36.217 21.612 27.082 0 42.011-16.249 42.011-45.137v-78.552h-23.956v72.542c0 19.51-8.461 29.211-26.193 29.211-17.704 0-28.968-11.83-28.968-30.747v-71.006h-23.929v121.344z" />
<glyph unicode="&#xe939;" horiz-adv-x="3180" d="M2493.036 742.427v-30.747h26.301v-20.184h-26.301v-62.383c0-12.719 5.255-18.297 17.165-18.297 3.692 0 5.794 0.243 9.135 0.566v-19.941c-3.907-0.674-8.381-1.24-13.043-1.24-26.624 0-37.214 9.378-37.214 32.768v68.527h-19.267v20.184h19.267v30.747h23.956z" />
<glyph unicode="&#xe93a;" glyph-name="facebook-logo" d="M791.273 790.003l-101.268-0.025c-79.362 0-94.749-35.934-94.749-88.629v-116.221h189.34l-24.651-182.033h-164.689v-467.095h-197.416v467.095h-165.112v182.033h165.112v134.238c0 155.799 99.922 240.634 245.899 240.634 69.914 0 130.010-4.95 147.534-7.187v-162.81z" />
<glyph unicode="&#xe93b;" glyph-name="times" d="M512 513.825l230.388 230.388c18.177 18.177 47.648 18.177 65.825 0s18.177-47.648 0-65.825l-230.388-230.388 230.388-230.388c18.177-18.177 18.177-47.648 0-65.825s-47.648-18.177-65.825 0l-230.388 230.388-230.388-230.388c-18.177-18.177-47.648-18.177-65.825 0s-18.177 47.648 0 65.825l230.388 230.388-230.388 230.388c-18.177 18.177-18.177 47.648 0 65.825s47.648 18.177 65.825 0l230.388-230.388z" />
<glyph unicode="&#xe93c;" horiz-adv-x="3180" d="M2552.051 759.592h23.741v-66.856h1.886c5.875 13.581 18.701 21.72 36.999 21.72 25.843 0 41.795-16.384 41.795-45.245v-78.336h-23.983v72.435c0 19.375-9.027 29.211-25.95 29.211-19.618 0-30.558-12.396-30.558-30.774v-70.872h-23.929v168.717z" />
<glyph unicode="&#xe93d;" horiz-adv-x="3180" d="M2711.848 662.744h61.305c-0.566 19.052-12.153 31.448-29.885 31.448-17.704 0-30.073-12.504-31.421-31.448zM2796.086 623.643c-5.443-21.747-24.845-35.112-52.574-35.112-34.762 0-56.051 23.848-56.051 62.653 0 38.777 21.747 63.38 55.943 63.38 33.765 0 54.137-23.067 54.137-61.171v-8.354h-85.693v-1.347c0.808-21.261 13.177-34.762 32.31-34.762 14.525 0 24.441 5.255 28.888 14.713h23.040z" />
<glyph unicode="&#xe93e;" horiz-adv-x="3180" d="M161.684 933.053c-74.413 0-134.737-60.324-134.737-134.737v-700.632c0-74.413 60.324-134.737 134.737-134.737h2856.421c74.413 0 134.737 60.324 134.737 134.737v700.632c0 74.413-60.324 134.737-134.737 134.737h-2856.421zM161.684 960h2856.421c89.296 0 161.684-72.388 161.684-161.684v-700.632c0-89.296-72.389-161.684-161.684-161.684h-2856.421c-89.296 0-161.684 72.388-161.684 161.684v700.632c0 89.296 72.388 161.684 161.684 161.684z" />
<glyph unicode="&#xe93f;" glyph-name="golden-arches" horiz-adv-x="1147" d="M824.256 888.363c98.972 0 179.179-417.141 179.179-931.797h143.446c0 554.245-144.474 1003.434-322.624 1003.434-101.372 0-191.689-134.962-250.816-346.103-59.126 211.141-149.53 346.103-250.816 346.103-178.236 0-322.624-449.189-322.624-1003.434h143.446c0 514.656 80.121 931.797 179.179 931.797 98.887 0 179.093-385.093 179.093-860.074h143.36c0 474.982 80.292 860.074 179.179 860.074z" />
<glyph unicode="&#xe940;" horiz-adv-x="857" d="M5.949 534.799c0-231.472 419.149-582.489 419.149-582.489s420.054 351.018 420.054 582.489c0 231.543-187.702 419.245-419.245 419.245s-419.245-187.702-419.245-419.245z" />
<glyph unicode="&#xe941;" horiz-adv-x="857" d="M561.528 79.241c0 0-275.766-36.435-521.526 325.299 0 0 115.974-228.852 385.095-452.465l136.43 127.167z" />
<glyph unicode="&#xe942;" glyph-name="plus" d="M465.455 494.545v279.273c0 25.706 20.839 46.545 46.545 46.545s46.545-20.839 46.545-46.545v-279.273h279.273c25.706 0 46.545-20.839 46.545-46.545s-20.839-46.545-46.545-46.545h-279.273v-279.273c0-25.706-20.839-46.545-46.545-46.545s-46.545 20.839-46.545 46.545v279.273h-279.273c-25.706 0-46.545 20.839-46.545 46.545s20.839 46.545 46.545 46.545h279.273z" />
<glyph unicode="&#xe943;" horiz-adv-x="857" d="M432.733-56.827c-4.424-3.697-10.86-3.693-15.28 0.008-3.336 2.794-9.534 8.099-18.186 15.686-14.386 12.616-30.408 27.056-47.657 43.092-49.281 45.815-98.564 95.265-144.591 146.542-58.41 65.071-107.298 128.387-143.549 188.287-44.715 73.885-68.892 140.4-68.714 198.011 0 238.119 193.033 431.152 431.152 431.152s431.152-193.033 431.152-431.152c0-57.644-24.369-124.153-69.29-198.032-36.362-59.803-85.327-123.013-143.794-187.979-46.204-51.341-95.676-100.861-145.147-146.744-17.316-16.060-33.399-30.523-47.84-43.159-8.684-7.599-14.906-12.912-18.255-15.711zM435.306-23.194c14.273 12.489 30.186 26.799 47.328 42.698 48.979 45.428 97.957 94.453 143.64 145.215 57.552 63.95 105.65 126.040 141.147 184.421 42.859 70.489 65.824 133.164 65.824 185.66 0 224.967-182.371 407.338-407.338 407.338s-407.338-182.371-407.338-407.374c-0.162-52.492 22.617-115.161 65.273-185.645 35.386-58.47 83.405-120.66 140.898-184.71 45.506-50.696 94.294-99.651 143.084-145.008 17.075-15.874 32.927-30.161 47.145-42.629 3.909-3.428 7.302-6.376 10.137-8.822 2.852 2.454 6.265 5.413 10.2 8.856z" />
<glyph unicode="&#xe944;" horiz-adv-x="857" d="M428.65 416.504l-120.848-63.313c-8.374-4.387-18.719-1.155-23.106 7.219-1.745 3.33-2.344 7.142-1.707 10.847l23.064 134.010-97.648 94.853c-6.781 6.587-6.938 17.424-0.351 24.204 2.632 2.71 6.086 4.472 9.825 5.014l135.002 19.549 60.429 122.019c4.195 8.471 14.464 11.938 22.935 7.742 3.359-1.663 6.079-4.383 7.742-7.742l60.429-122.019 135.002-19.549c9.356-1.355 15.842-10.037 14.487-19.393-0.541-3.738-2.304-7.193-5.014-9.825l-97.648-94.853 23.064-134.010c1.603-9.316-4.649-18.169-13.966-19.772-3.705-0.638-7.517-0.038-10.847 1.707l-120.848 63.313z" />
<glyph unicode="&#xe945;" horiz-adv-x="857" d="M5.949 534.799c0-231.472 419.149-582.489 419.149-582.489s420.054 351.018 420.054 582.489c0 231.543-187.702 419.245-419.245 419.245s-419.245-187.702-419.245-419.245z" />
<glyph unicode="&#xe946;" glyph-name="external-link" d="M787.925 789.32c18.177 18.177 47.648 18.177 65.825 0s18.177-47.648 0-65.825l-366.909-366.909c-18.177-18.177-47.648-18.177-65.825 0s-18.177 47.648 0 65.825l366.909 366.909zM791.475 726.532h-216.76c-25.706 0-46.545 20.839-46.545 46.545s20.839 46.545 46.545 46.545h263.301c25.705 0 46.543-20.836 46.545-46.541l0.026-263.327c0.003-25.706-20.835-46.547-46.541-46.55s-46.547 20.835-46.55 46.541l-0.021 216.786zM698.182 168.727v186.182c0 25.706 20.839 46.545 46.545 46.545s46.545-20.839 46.545-46.545v-232.727c0-25.706-20.839-46.545-46.545-46.545h-558.21c-25.706 0-46.545 20.839-46.545 46.545v558.087c0 25.706 20.839 46.545 46.545 46.545h232.392c25.706 0 46.545-20.839 46.545-46.545s-20.839-46.545-46.545-46.545h-185.847v-464.996h465.12z" />
<glyph unicode="&#xe947;" glyph-name="minus" d="M186.182 494.545h651.636c25.706 0 46.545-20.839 46.545-46.545s-20.839-46.545-46.545-46.545h-651.636c-25.706 0-46.545 20.839-46.545 46.545s20.839 46.545 46.545 46.545z" />
<glyph unicode="&#xe948;" horiz-adv-x="857" d="M241.471 718.403c-101.328-101.4-101.281-265.74 0.119-367.092 101.4-101.328 265.764-101.281 367.092 0.119 101.281 101.376 101.281 265.621 0 366.973-101.328 101.4-265.692 101.471-367.092 0.119l-0.119-0.119z" />
<glyph unicode="&#xe949;" horiz-adv-x="857" d="M249.936 359.675c96.726-96.681 253.554-96.681 350.277-0.004 96.681 96.726 96.681 253.554 0.003 350.278-96.726 96.703-253.552 96.704-350.278 0.001-96.703-96.726-96.702-253.552-0.002-350.275zM233.098 726.788c106.028 106.003 277.929 106.003 383.958-0.001 105.976-106.026 105.976-277.925-0.004-383.955-106.026-105.976-277.925-105.976-383.954 0.003-106.001 106.026-106.001 277.927 0 383.953z" />
<glyph unicode="&#xe94a;" horiz-adv-x="857" d="M561.528 79.241c0 0-275.766-36.435-521.526 325.299 0 0 115.974-228.852 385.095-452.465l136.43 127.167z" />
<glyph unicode="&#xe94b;" glyph-name="locator-pin" d="M512 29.090c0 0-349.091 197.134-349.091 492.835 0 190.53 162.908 344.985 349.091 344.984s349.091-154.454 349.091-344.984c0-295.701-349.091-492.835-349.091-492.835zM413.293 436.856c54.549-54.51 142.97-54.485 197.48 0.064 54.485 54.536 54.485 142.893 0 197.416-54.51 54.549-142.931 54.587-197.48 0.064-54.575-54.613-54.549-143.021 0-197.544z" />
<glyph unicode="&#xe94c;" glyph-name="hamburger" d="M93.091 168.727h837.818c25.706 0 46.545-20.839 46.545-46.545s-20.839-46.545-46.545-46.545h-837.818c-25.706 0-46.545 20.839-46.545 46.545s20.839 46.545 46.545 46.545zM93.091 494.545h837.818c25.706 0 46.545-20.839 46.545-46.545s-20.839-46.545-46.545-46.545h-837.818c-25.706 0-46.545 20.839-46.545 46.545s20.839 46.545 46.545 46.545zM93.091 820.364h837.818c25.706 0 46.545-20.839 46.545-46.545s-20.839-46.545-46.545-46.545h-837.818c-25.706 0-46.545 20.839-46.545 46.545s20.839 46.545 46.545 46.545z" />
<glyph unicode="&#xe94d;" horiz-adv-x="857" d="M432.733-56.827c-4.424-3.697-10.86-3.693-15.28 0.008-3.336 2.794-9.534 8.099-18.186 15.686-14.386 12.616-30.408 27.056-47.657 43.092-49.281 45.815-98.564 95.265-144.591 146.542-58.41 65.071-107.298 128.387-143.549 188.287-44.715 73.885-68.892 140.4-68.714 198.011 0 238.119 193.033 431.152 431.152 431.152s431.152-193.033 431.152-431.152c0-57.644-24.369-124.153-69.29-198.032-36.362-59.803-85.327-123.013-143.794-187.979-46.204-51.341-95.676-100.861-145.147-146.744-17.316-16.060-33.399-30.523-47.84-43.159-8.684-7.599-14.906-12.912-18.255-15.711zM435.306-23.194c14.273 12.489 30.186 26.799 47.328 42.698 48.979 45.428 97.957 94.453 143.64 145.215 57.552 63.95 105.65 126.040 141.147 184.421 42.859 70.489 65.824 133.164 65.824 185.66 0 224.967-182.371 407.338-407.338 407.338s-407.338-182.371-407.338-407.374c-0.162-52.492 22.617-115.161 65.273-185.645 35.386-58.47 83.405-120.66 140.898-184.71 45.506-50.696 94.294-99.651 143.084-145.008 17.075-15.874 32.927-30.161 47.145-42.629 3.909-3.428 7.302-6.376 10.137-8.822 2.852 2.454 6.265 5.413 10.2 8.856z" />
<glyph unicode="&#xe950;" d="M512-32c265.097 0 480 214.903 480 480s-214.903 480-480 480c-265.097 0-480-214.903-480-480s214.903-480 480-480zM512-64c-282.77 0-512 229.23-512 512s229.23 512 512 512c282.77 0 512-229.23 512-512s-229.23-512-512-512z" />
<glyph unicode="&#xe951;" d="M467.2 375.273v145.455l119.467-72.73-119.467-72.724zM726.638 558.031c-5.152 19.67-20.333 35.159-39.607 40.415-34.936 9.554-175.031 9.554-175.031 9.554s-140.094 0-175.031-9.554c-19.274-5.257-34.455-20.746-39.607-40.415-9.362-35.649-9.362-110.031-9.362-110.031s0-74.379 9.362-110.031c5.152-19.67 20.333-35.159 39.607-40.418 34.936-9.551 175.031-9.551 175.031-9.551s140.094 0 175.031 9.551c19.274 5.259 34.455 20.748 39.607 40.418 9.362 35.652 9.362 110.031 9.362 110.031s0 74.382-9.362 110.031z" />
<glyph unicode="&#xe952;" d="M1024 448c0-282.77-229.23-512-512-512s-512 229.23-512 512c0 282.77 229.23 512 512 512s512-229.23 512-512z" />
<glyph unicode="&#xe953;" d="M467.2 375.273v145.455l119.467-72.73-119.467-72.724zM726.638 558.031c-5.152 19.67-20.333 35.159-39.607 40.415-34.936 9.554-175.031 9.554-175.031 9.554s-140.094 0-175.031-9.554c-19.274-5.257-34.455-20.746-39.607-40.415-9.362-35.649-9.362-110.031-9.362-110.031s0-74.379 9.362-110.031c5.152-19.67 20.333-35.159 39.607-40.418 34.936-9.551 175.031-9.551 175.031-9.551s140.094 0 175.031 9.551c19.274 5.259 34.455 20.748 39.607 40.418 9.362 35.652 9.362 110.031 9.362 110.031s0 74.382-9.362 110.031z" />
<glyph unicode="&#xe954;" d="M512-32c265.097 0 480 214.903 480 480s-214.903 480-480 480c-265.097 0-480-214.903-480-480s214.903-480 480-480zM512-64c-282.77 0-512 229.23-512 512s229.23 512 512 512c282.77 0 512-229.23 512-512s-229.23-512-512-512z" />
<glyph unicode="&#xe955;" d="M562.881 230.427c-97.030-1.536-133.791 63.56-133.791 109.395v133.818h-45.090v52.911c67.584 22.405 83.831 78.46 87.643 110.388 0.273 2.202 2.15 3.062 3.22 3.062h65.229v-104.336h89.145v-62.024h-89.452v-127.51c0.284-17.336 7.214-41.247 42.86-40.377 11.81 0.276 27.659 3.43 35.942 7.076l21.413-58.41c-8.021-10.885-44.385-23.481-77.119-23.993z" />
<glyph unicode="&#xe956;" d="M1024 448c0-282.77-229.23-512-512-512s-512 229.23-512 512c0 282.77 229.23 512 512 512s512-229.23 512-512z" />
<glyph unicode="&#xe957;" d="M562.881 230.427c-97.030-1.536-133.791 63.56-133.791 109.395v133.818h-45.090v52.911c67.584 22.405 83.831 78.46 87.643 110.388 0.273 2.202 2.15 3.062 3.22 3.062h65.229v-104.336h89.145v-62.024h-89.452v-127.51c0.284-17.336 7.214-41.247 42.86-40.377 11.81 0.276 27.659 3.43 35.942 7.076l21.413-58.41c-8.021-10.885-44.385-23.481-77.119-23.993z" />
<glyph unicode="&#xe958;" d="M512-32c265.097 0 480 214.903 480 480s-214.903 480-480 480c-265.097 0-480-214.903-480-480s214.903-480 480-480zM512-64c-282.77 0-512 229.23-512 512s229.23 512 512 512c282.77 0 512-229.23 512-512s-229.23-512-512-512z" />
<glyph unicode="&#xe959;" d="M759.74 498.364c-8.868-12.42-30.156-17.736-46.116-8.868-113.496 67.392-303.252 74.484-411.444 40.788-17.724-5.316-35.46 5.328-40.788 21.288-5.328 17.724 5.328 35.46 21.276 40.788 125.916 37.236 333.42 30.144 464.652-47.892 15.972-8.856 21.288-30.144 12.42-46.104z" />
<glyph unicode="&#xe95a;" d="M710.072 390.172c-8.856-12.408-24.816-17.724-37.236-8.856-95.772 58.524-241.188 76.26-352.908 40.788-14.196-3.552-30.156 3.54-33.708 17.736-3.552 14.184 3.552 30.144 17.748 33.696 129.456 39.012 289.056 19.512 399.024-47.892 10.632-5.316 15.96-23.052 7.080-35.472z" />
<glyph unicode="&#xe95b;" d="M667.508 292.636c-7.080-10.632-19.5-14.184-30.132-7.080-83.364 51.42-187.992 62.052-312.132 33.684-12.42-3.552-23.064 5.328-26.604 15.96-3.552 12.408 5.328 23.052 15.96 26.604 134.784 30.156 251.832 17.736 344.052-39.012 12.408-5.316 14.184-19.512 8.856-30.156z" />
<glyph unicode="&#xe95c;" d="M1024 448c0-282.77-229.23-512-512-512s-512 229.23-512 512c0 282.77 229.23 512 512 512s512-229.23 512-512z" />
<glyph unicode="&#xe95d;" d="M759.74 498.364c-8.868-12.42-30.156-17.736-46.116-8.868-113.496 67.392-303.252 74.484-411.444 40.788-17.724-5.316-35.46 5.328-40.788 21.288-5.328 17.724 5.328 35.46 21.276 40.788 125.916 37.236 333.42 30.144 464.652-47.892 15.972-8.856 21.288-30.144 12.42-46.104z" />
<glyph unicode="&#xe95e;" d="M710.072 390.172c-8.856-12.408-24.816-17.724-37.236-8.856-95.772 58.524-241.188 76.26-352.908 40.788-14.196-3.552-30.156 3.54-33.708 17.736-3.552 14.184 3.552 30.144 17.748 33.696 129.456 39.012 289.056 19.512 399.024-47.892 10.632-5.316 15.96-23.052 7.080-35.472z" />
<glyph unicode="&#xe95f;" d="M667.508 292.636c-7.080-10.632-19.5-14.184-30.132-7.080-83.364 51.42-187.992 62.052-312.132 33.684-12.42-3.552-23.064 5.328-26.604 15.96-3.552 12.408 5.328 23.052 15.96 26.604 134.784 30.156 251.832 17.736 344.052-39.012 12.408-5.316 14.184-19.512 8.856-30.156z" />
<glyph unicode="&#xe960;" d="M512-32c265.097 0 480 214.903 480 480s-214.903 480-480 480c-265.097 0-480-214.903-480-480s214.903-480 480-480zM512-64c-282.77 0-512 229.23-512 512s229.23 512 512 512c282.77 0 512-229.23 512-512s-229.23-512-512-512z" />
<glyph unicode="&#xe961;" d="M512.021 672h-0.070c60.854 0 68.461-0.266 92.354-1.353 23.847-1.092 40.134-4.867 54.414-10.407 14.747-5.717 27.207-13.37 39.667-25.83 12.46-12.451 20.114-24.948 25.854-39.681 5.507-14.243 9.287-30.52 10.407-54.367 1.073-23.894 1.353-31.528 1.353-92.364s-0.28-68.451-1.353-92.345c-1.12-23.838-4.9-40.12-10.407-54.367-5.74-14.728-13.393-27.226-25.854-39.676-12.446-12.46-24.925-20.132-39.653-25.854-14.252-5.539-30.548-9.315-54.395-10.407-23.894-1.087-31.505-1.353-92.345-1.353-60.831 0-68.461 0.266-92.354 1.353-23.842 1.092-40.124 4.867-54.377 10.407-14.723 5.721-27.221 13.393-39.667 25.854-12.455 12.451-20.109 24.948-25.835 39.681-5.535 14.243-9.31 30.52-10.407 54.367-1.083 23.894-1.353 31.505-1.353 92.34s0.28 68.475 1.349 92.368c1.073 23.838 4.853 40.12 10.407 54.367 5.74 14.728 13.393 27.226 25.854 39.676 12.451 12.455 24.948 20.109 39.681 25.83 14.243 5.539 30.52 9.315 54.367 10.407 23.894 1.087 31.528 1.353 92.364 1.353zM631.591 594.439c-14.84 0-26.88-12.026-26.88-26.871 0-14.84 12.040-26.88 26.88-26.88s26.88 12.040 26.88 26.88c0 14.84-12.040 26.88-26.88 26.88v-0.009zM512.021 563.032c-63.528 0-115.034-51.506-115.034-115.034s51.506-115.011 115.034-115.011c63.528 0 115.016 51.483 115.016 115.011s-51.492 115.034-115.020 115.034h0.005zM512.021 522.665c41.235 0 74.667-33.428 74.667-74.667 0-41.235-33.432-74.667-74.667-74.667-41.24 0-74.667 33.432-74.667 74.667 0 41.24 33.428 74.667 74.667 74.667v0z" />
<glyph unicode="&#xe962;" d="M1024 448c0-282.77-229.23-512-512-512s-512 229.23-512 512c0 282.77 229.23 512 512 512s512-229.23 512-512z" />
<glyph unicode="&#xe963;" d="M512.021 672h-0.070c60.854 0 68.461-0.266 92.354-1.353 23.847-1.092 40.134-4.867 54.414-10.407 14.747-5.717 27.207-13.37 39.667-25.83 12.46-12.451 20.114-24.948 25.854-39.681 5.507-14.243 9.287-30.52 10.407-54.367 1.073-23.894 1.353-31.528 1.353-92.364s-0.28-68.451-1.353-92.345c-1.12-23.838-4.9-40.12-10.407-54.367-5.74-14.728-13.393-27.226-25.854-39.676-12.446-12.46-24.925-20.132-39.653-25.854-14.252-5.539-30.548-9.315-54.395-10.407-23.894-1.087-31.505-1.353-92.345-1.353-60.831 0-68.461 0.266-92.354 1.353-23.842 1.092-40.124 4.867-54.377 10.407-14.723 5.721-27.221 13.393-39.667 25.854-12.455 12.451-20.109 24.948-25.835 39.681-5.535 14.243-9.31 30.52-10.407 54.367-1.083 23.894-1.353 31.505-1.353 92.34s0.28 68.475 1.349 92.368c1.073 23.838 4.853 40.12 10.407 54.367 5.74 14.728 13.393 27.226 25.854 39.676 12.451 12.455 24.948 20.109 39.681 25.83 14.243 5.539 30.52 9.315 54.367 10.407 23.894 1.087 31.528 1.353 92.364 1.353zM631.591 594.439c-14.84 0-26.88-12.026-26.88-26.871 0-14.84 12.040-26.88 26.88-26.88s26.88 12.040 26.88 26.88c0 14.84-12.040 26.88-26.88 26.88v-0.009zM512.021 563.032c-63.528 0-115.034-51.506-115.034-115.034s51.506-115.011 115.034-115.011c63.528 0 115.016 51.483 115.016 115.011s-51.492 115.034-115.020 115.034h0.005zM512.021 522.665c41.235 0 74.667-33.428 74.667-74.667 0-41.235-33.432-74.667-74.667-74.667-41.24 0-74.667 33.432-74.667 74.667 0 41.24 33.428 74.667 74.667 74.667v0z" />
<glyph unicode="&#xe964;" glyph-name="instagram-logo" d="M512.044 913.455h-0.145c126.45 0 142.256-0.553 191.905-2.812 49.552-2.269 83.395-10.114 113.068-21.624 30.643-11.879 56.534-27.782 82.425-53.673 25.891-25.872 41.794-51.841 53.722-82.454 11.443-29.595 19.297-63.419 21.624-112.971 2.23-49.649 2.812-65.513 2.812-191.924s-0.582-142.237-2.812-191.886c-2.327-49.533-10.182-83.366-21.624-112.971-11.927-30.604-27.831-56.573-53.722-82.444-25.862-25.891-51.792-41.833-82.396-53.722-29.615-11.51-63.477-19.355-113.029-21.624-49.649-2.259-65.465-2.812-191.886-2.812-126.401 0-142.256 0.553-191.905 2.812-49.542 2.269-83.375 10.114-112.99 21.624-30.594 11.889-56.563 27.831-82.425 53.722-25.881 25.872-41.785 51.841-53.683 82.454-11.501 29.595-19.346 63.419-21.624 112.971-2.25 49.649-2.812 65.465-2.812 191.876s0.582 142.285 2.802 191.934c2.23 49.533 10.085 83.366 21.624 112.971 11.927 30.604 27.831 56.573 53.722 82.444 25.872 25.881 51.841 41.785 82.454 53.673 29.595 11.51 63.419 19.355 112.971 21.624 49.649 2.259 65.513 2.812 191.924 2.812zM760.502 752.289c-30.837 0-55.855-24.989-55.855-55.836 0-30.837 25.018-55.855 55.855-55.855s55.855 25.018 55.855 55.855c0 30.837-25.018 55.855-55.855 55.855v-0.019zM512.044 687.028c-132.006 0-239.033-107.027-239.033-239.033s107.027-238.984 239.033-238.984c132.006 0 238.994 106.978 238.994 238.984s-106.997 239.033-239.004 239.033h0.010zM512.044 603.148c85.683 0 155.153-69.46 155.153-155.153 0-85.683-69.47-155.153-155.153-155.153-85.693 0-155.153 69.47-155.153 155.153 0 85.693 69.46 155.153 155.153 155.153v0z" />
<glyph unicode="&#xe965;" d="M1024 448c0-282.77-229.23-512-512-512s-512 229.23-512 512c0 282.77 229.23 512 512 512s512-229.23 512-512z" />
<glyph unicode="&#xe966;" d="M679.496 544.363c0.158-4.133 0.243-8.353 0.243-12.56 0-128.109-92.442-275.803-261.522-275.803-51.888 0-100.209 16.054-140.884 43.504 7.183-0.877 14.512-1.327 21.926-1.327 43.049 0 82.702 15.503 114.149 41.513-40.237 0.764-74.155 28.803-85.855 67.298 5.6-1.14 11.383-1.716 17.3-1.716 8.388 0 16.509 1.127 24.215 3.406-42.063 8.879-73.754 48.063-73.754 95.048v1.202c12.406-7.213 26.614-11.621 41.649-12.097-24.666 17.394-40.882 47.073-40.882 80.685 0 17.757 4.517 34.425 12.43 48.789 45.362-58.72 113.065-97.265 189.461-101.322-1.571 7.1-2.362 14.476-2.362 22.078 0 53.535 41.138 96.939 91.869 96.939 26.455 0 50.354-11.759 67.082-30.593 20.989 4.333 40.627 12.398 58.401 23.493-6.854-22.629-21.427-41.626-40.407-53.61 18.591 2.329 36.305 7.539 52.777 15.253-12.284-19.448-27.88-36.504-45.837-50.179z" />
<glyph unicode="&#xe967;" d="M512-32c265.097 0 480 214.903 480 480s-214.903 480-480 480c-265.097 0-480-214.903-480-480s214.903-480 480-480zM512-64c-282.77 0-512 229.23-512 512s229.23 512 512 512c282.77 0 512-229.23 512-512s-229.23-512-512-512z" />
<glyph unicode="&#xe968;" d="M690.163 544.363c0.158-4.133 0.243-8.353 0.243-12.56 0-128.109-92.442-275.803-261.522-275.803-51.888 0-100.209 16.054-140.884 43.504 7.183-0.877 14.512-1.327 21.926-1.327 43.049 0 82.702 15.503 114.149 41.513-40.237 0.764-74.155 28.803-85.855 67.298 5.6-1.14 11.383-1.716 17.3-1.716 8.388 0 16.509 1.127 24.215 3.406-42.063 8.879-73.754 48.063-73.754 95.048v1.202c12.406-7.213 26.614-11.621 41.649-12.097-24.666 17.394-40.882 47.073-40.882 80.685 0 17.757 4.517 34.425 12.43 48.789 45.362-58.72 113.065-97.265 189.461-101.322-1.571 7.1-2.362 14.476-2.362 22.078 0 53.535 41.138 96.939 91.869 96.939 26.455 0 50.354-11.759 67.082-30.593 20.989 4.333 40.627 12.398 58.401 23.493-6.854-22.629-21.427-41.626-40.407-53.61 18.591 2.329 36.305 7.539 52.777 15.253-12.284-19.448-27.88-36.504-45.837-50.179z" />
<glyph unicode="&#xe96b;" glyph-name="twitter-logo" d="M882.208 623.294c0.329-8.516 0.506-17.212 0.506-25.882 0-263.981-192.086-568.321-543.422-568.321-107.819 0-208.226 33.082-292.746 89.645 14.926-1.806 30.155-2.735 45.561-2.735 89.453 0 171.848 31.946 237.192 85.542-83.609 1.574-154.089 59.351-178.4 138.674 11.637-2.348 23.653-3.535 35.948-3.535 17.43 0 34.304 2.322 50.317 7.019-87.404 18.295-153.254 99.038-153.254 195.857v2.477c25.778-14.863 55.301-23.947 86.544-24.927-51.253 35.843-84.95 97-84.95 166.259 0 36.591 9.385 70.937 25.829 100.535 94.26-120.998 234.941-200.424 393.685-208.785-3.263 14.631-4.908 29.83-4.908 45.494 0 110.315 85.481 199.754 190.897 199.754 54.972 0 104.632-24.231 139.391-63.041 43.613 8.928 84.419 25.547 121.354 48.409-14.243-46.629-44.524-85.775-83.963-110.47 38.63 4.8 75.438 15.534 109.666 31.43-25.525-40.075-57.932-75.22-95.246-103.399z" />
<glyph unicode="&#xe96c;" d="M921.617 174.585c0 14.57-183.381 26.384-409.6 26.384-226.236 0-409.6-11.814-409.6-26.384s183.364-26.384 409.6-26.384c226.219 0 409.6 11.814 409.6 26.384z" />
<glyph unicode="&#xe96d;" d="M268.349 203.488c0-17.449-13.756-31.598-30.72-31.598h-40.363c-16.964 0-30.72 14.149-30.72 31.598v176.701c0 17.467 13.756 31.598 30.72 31.598h40.363c16.964 0 30.72-14.131 30.72-31.598v-176.701z" />
<glyph unicode="&#xe96e;" d="M857.45 203.488c0-17.449-13.756-31.598-30.72-31.598h-40.363c-16.964 0-30.72 14.149-30.72 31.598v176.701c0 17.467 13.756 31.598 30.72 31.598h40.363c16.964 0 30.72-14.131 30.72-31.598v-176.701z" />
<glyph unicode="&#xe96f;" d="M867.417 378.053c-7.458 125.583-89.958 191.763-109.295 191.763h-492.237c-19.405 0-102.537-66.759-109.363-193.431-0.239-1.457-0.546-2.896-0.546-4.406v-103.044c0-14.008 8.943-25.752 21.214-29.895 2.935-1.001 6.042-1.65 9.335-1.685 106.684-21.767 216.149-32.914 325.461-32.914 109.346 0 218.795 11.147 325.495 32.914 3.277 0.035 6.4 0.685 9.335 1.703 12.271 4.143 21.197 15.869 21.197 29.877v103.044c0 2.071-0.239 4.108-0.597 6.074z" />
<glyph unicode="&#xe970;" d="M820.617 444.259c0 28.262-22.306 51.206-49.783 51.206s-49.783-22.943-49.783-51.206c0-28.28 22.306-51.206 49.783-51.206s49.783 22.926 49.783 51.206z" />
<glyph unicode="&#xe971;" d="M732 449.351c-1.929 5.775-2.935 11.674-3.14 17.467-7.697-11.867-10.155-27.139-5.308-41.709 8.243-24.769 34.441-37.952 58.539-29.491 8.806 3.142 16.094 8.742 21.402 15.764-29.73-9.023-61.355 7.513-71.492 37.97z" />
<glyph unicode="&#xe972;" d="M829.15 444.259c0-32.934-26.067-59.739-58.317-59.739s-58.317 26.805-58.317 59.739c0 32.922 26.072 59.739 58.317 59.739s58.317-26.817 58.317-59.739zM812.083 444.259c0 23.603-18.54 42.673-41.25 42.673s-41.25-19.070-41.25-42.673c0-23.614 18.534-42.673 41.25-42.673s41.25 19.059 41.25 42.673z" />
<glyph unicode="&#xe973;" d="M302.967 444.259c0 28.262-22.306 51.206-49.783 51.206s-49.783-22.943-49.783-51.206c0-28.28 22.306-51.206 49.783-51.206s49.783 22.926 49.783 51.206z" />
<glyph unicode="&#xe974;" d="M214.333 449.351c-1.929 5.775-2.935 11.674-3.14 17.467-7.697-11.867-10.155-27.139-5.308-41.709 8.243-24.769 34.441-37.952 58.539-29.491 8.806 3.142 16.094 8.742 21.402 15.764-29.73-9.023-61.355 7.513-71.492 37.97z" />
<glyph unicode="&#xe975;" d="M311.501 444.259c0-32.934-26.067-59.739-58.317-59.739s-58.317 26.805-58.317 59.739c0 32.922 26.072 59.739 58.317 59.739s58.317-26.817 58.317-59.739zM294.434 444.259c0 23.603-18.54 42.673-41.25 42.673s-41.25-19.070-41.25-42.673c0-23.614 18.534-42.673 41.25-42.673s41.25 19.059 41.25 42.673z" />
<glyph unicode="&#xe976;" d="M758.117 569.814c0 0-40.311 116.209-50.005 142.646-12.015 32.809-57.31 40.726-196.113 40.726s-184.098-7.917-196.113-40.726c-9.677-26.437-50.005-142.646-50.005-142.646h492.237z" />
<glyph unicode="&#xe977;" d="M292.9 562.596l49.988 141.979c0 11.744 75.708 21.276 169.114 21.276s169.114-9.532 169.114-21.276l49.988-141.979h-438.204z" />
<glyph unicode="&#xe978;" d="M690.5 562.596h-17.067c0 36.944-29.036 66.81-64.717 66.81s-64.717-29.866-64.717-66.81h-17.067c0 46.264 36.568 83.876 81.783 83.876s81.783-37.613 81.783-83.876z" />
<glyph unicode="&#xe979;" d="M825.083 576.79c0-15.781-12.442-28.596-27.802-28.596h-27.563c-15.343 0-27.785 12.815-27.785 28.596 0 15.764 12.442 28.578 27.785 28.578h27.563c15.36 0 27.802-12.815 27.802-28.578z" />
<glyph unicode="&#xe97a;" d="M282.066 576.79c0-15.781-12.442-28.596-27.802-28.596h-27.563c-15.343 0-27.785 12.815-27.785 28.596 0 15.764 12.442 28.578 27.785 28.578h27.563c15.36 0 27.802-12.815 27.802-28.578z" />
<glyph unicode="&#xe97b;" d="M457.216 562.596h-164.318l49.987 141.979c0 1.457 1.178 2.896 3.43 4.283 2.27 1.387 5.581 2.721 9.865 4.002 4.267 1.264 9.506 2.458 15.582 3.599 6.093 1.123 13.005 2.194 20.651 3.142 7.646 0.965 16.043 1.843 25.037 2.616 8.977 0.755 18.603 1.422 28.723 1.949 10.103 0.544 20.719 0.965 31.744 1.246l-20.702-162.816z" />
<glyph unicode="&#xe97c;" d="M719.093 571.129l-46.511 133.446c0-1.729-17.548 3.491-42.062 6.575-31.13 3.917-73.392 6.167-118.519 6.167s-87.389-2.25-118.519-6.167c-24.514-3.085-42.062-8.304-42.546-9.409l-45.986-130.612h414.142zM284.851 565.43l49.504 139.145c0 20.539 73.668 29.809 177.647 29.809s177.647-9.27 177.163-26.975l49.988-141.979c1.954-5.551-2.164-11.367-8.049-11.367h-438.204c-5.885 0-10.003 5.816-8.049 11.367z" />
<glyph unicode="&#xe97d;" d="M512 254.506c-91.682 0-183.467 9.514-272.777 28.245-17.425 3.669-28.672 21.153-25.122 39.076 3.567 17.905 20.599 29.368 37.99 25.84 170.189-35.741 349.628-35.741 519.817 0 17.408 3.528 34.423-7.935 37.99-25.84 3.55-17.923-7.697-35.407-25.122-39.076-89.31-18.73-181.094-28.245-272.777-28.245z" />
<glyph unicode="&#xe97e;" d="M512 263.039c91.056 0 182.254 9.446 271.018 28.062 12.808 2.697 21.16 15.686 18.511 29.058-2.642 13.261-15.138 21.736-27.868 19.156-171.345-35.983-351.979-35.983-523.267-0.012-12.775 2.592-25.284-5.888-27.923-19.135-2.651-13.382 5.702-26.371 18.503-29.066 88.771-18.617 179.969-28.063 271.025-28.063zM512 245.973c-92.232 0-184.605 9.567-274.535 28.428-22.047 4.642-36.183 26.625-31.733 49.093 4.474 22.458 25.954 37.020 48.113 32.524 169.032-35.498 347.277-35.498 516.368 0.012 22.115 4.482 43.58-10.075 48.056-32.545 4.448-22.459-9.688-44.442-31.741-49.085-89.923-18.859-182.296-28.427-274.528-28.427z" />
<glyph unicode="&#xe97f;" d="M867.417 378.053c0-127.743-710.895-127.76-710.895-1.668-0.119-0.737-0.256-1.457-0.358-2.177-0.119-0.737-0.188-1.475-0.188-2.229v-103.044c0-7.004 2.236-13.429 6.007-18.643 3.772-5.196 9.062-9.181 15.206-11.252 1.468-0.492 2.97-0.913 4.523-1.194 1.57-0.298 3.174-0.474 4.813-0.492 53.333-10.884 107.383-19.117 161.741-24.611 54.374-5.494 109.056-8.303 163.721-8.303s109.363 2.809 163.755 8.303c54.357 5.494 108.39 13.727 161.741 24.611 1.638 0.018 3.243 0.193 4.796 0.492 1.553 0.281 3.072 0.702 4.54 1.211 6.127 2.071 11.435 6.039 15.206 11.252 3.755 5.196 5.99 11.621 5.99 18.625v103.044c0 1.036-0.068 2.054-0.171 3.072-0.085 1.018-0.239 2.001-0.427 3.002z" />
<glyph unicode="&#xe980;" d="M876.547 371.979v-103.044c0-17.383-10.986-32.556-26.934-37.94-3.96-1.373-7.966-2.13-10.426-2.002-107.551-21.941-217.575-33.086-327.201-33.086-109.603 0-219.644 11.148-325.552 32.915-4.062 0.043-8.026 0.787-11.974 2.133-16.015 5.407-27.018 20.598-27.018 37.98v103.044c0 1.651 0.148 2.823 0.522 4.987 3.706 68.040 29.278 125.761 65.232 165.343-13.386 5.49-22.814 18.894-22.814 34.476 0 20.436 16.219 37.112 36.318 37.112h27.563c5.86 0 11.474-1.447 16.485-4.098 18.288 52.51 31.904 91.327 37.13 105.598 13.704 37.422 57.89 46.325 204.126 46.325s190.422-8.903 204.128-46.331c5.293-14.491 20.674-58.342 37.115-105.591 5.010 2.65 10.62 4.098 16.464 4.098h27.58c20.112 0 36.335-16.672 36.335-37.112 0-15.58-9.425-28.98-22.813-34.472 35.545-39.123 60.987-96.053 65.093-163.256 0.418-2.432 0.642-4.76 0.642-7.077zM859.022 376.523c-4.301 71.243-33.11 129.263-71.793 165.434-5.654 5.287-1.913 14.766 5.828 14.766h4.233c10.575 0 19.268 8.941 19.268 20.063 0 11.117-8.688 20.045-19.268 20.045h-27.58c-5.412 0-10.487-2.426-14.179-6.67-4.303-4.946-12.346-3.393-14.498 2.8-17.818 51.265-35.266 101.064-40.93 116.568-9.847 26.89-50.725 35.127-188.1 35.127s-178.253-8.237-188.1-35.127c-5.544-15.138-20.748-58.534-40.948-116.571-2.155-6.191-10.195-7.741-14.497-2.796-3.698 4.251-8.758 6.67-14.196 6.67h-27.563c-10.565 0-19.251-8.93-19.251-20.045 0-11.119 8.691-20.063 19.251-20.063h4.25c7.74 0 11.482-9.476 5.83-14.765-39.010-36.499-67.918-95.094-71.837-166.954-0.373-2.175-0.434-2.652-0.434-3.025v-103.044c0-10.031 6.305-18.736 15.434-21.818 2.334-0.796 4.524-1.206 8.288-1.401 106.402-21.71 215.3-32.742 323.755-32.742 108.479 0 217.36 11.030 325.404 32.914 2.143 0.023 4.341 0.438 6.697 1.255 9.104 3.074 15.393 11.76 15.393 21.792v103.044c0 1.377-0.154 2.87-0.459 4.543z" />
<glyph unicode="&#xe981;" d="M529.067 721.067c160.234 0 290.133-129.899 290.133-290.133s-129.899-290.133-290.133-290.133c-160.234 0-290.133 129.899-290.133 290.133s129.899 290.133 290.133 290.133z" />
<glyph unicode="&#xe982;" d="M529.115 550.392c65.979 0 119.467-53.49 119.467-119.471s-53.488-119.471-119.467-119.471c-65.979 0-119.467 53.49-119.467 119.471s53.488 119.471 119.467 119.471z" />
<glyph unicode="&#xe983;" d="M529.067 345.6c-47.128 0-85.333 38.205-85.333 85.333s38.205 85.333 85.333 85.333c47.128 0 85.333-38.205 85.333-85.333s-38.205-85.333-85.333-85.333z" />
<glyph unicode="&#xe984;" d="M306.881 505.447l325.164 187.733c8.163 4.713 18.601 1.916 23.314-6.247s1.916-18.601-6.247-23.314l-325.164-187.733c-8.163-4.713-18.601-1.916-23.314 6.247s-1.916 18.601 6.247 23.314z" />
<glyph unicode="&#xe985;" d="M323.945 454.237l325.131-187.715c8.163-4.713 10.96-15.151 6.247-23.314s-15.151-10.96-23.314-6.247l-325.131 187.715c-8.163 4.713-10.96 15.151-6.247 23.314s15.151 10.96 23.314 6.247z" />
<glyph unicode="&#xe986;" d="M665.6 618.667c-47.128 0-85.333 38.205-85.333 85.333s38.205 85.333 85.333 85.333c47.128 0 85.333-38.205 85.333-85.333s-38.205-85.333-85.333-85.333z" />
<glyph unicode="&#xe987;" d="M290.133 379.733c-47.128 0-85.333 38.205-85.333 85.333s38.205 85.333 85.333 85.333c47.128 0 85.333-38.205 85.333-85.333s-38.205-85.333-85.333-85.333z" />
<glyph unicode="&#xe988;" d="M665.6 140.8c-47.128 0-85.333 38.205-85.333 85.333s38.205 85.333 85.333 85.333c47.128 0 85.333-38.205 85.333-85.333s-38.205-85.333-85.333-85.333z" />
<glyph unicode="&#xe989;" d="M306.881 505.447l325.164 187.733c8.163 4.713 18.601 1.916 23.314-6.247s1.916-18.601-6.247-23.314l-325.164-187.733c-8.163-4.713-18.601-1.916-23.314 6.247s-1.916 18.601 6.247 23.314z" />
<glyph unicode="&#xe98a;" d="M323.945 454.237l325.131-187.715c8.163-4.713 10.96-15.151 6.247-23.314s-15.151-10.96-23.314-6.247l-325.131 187.715c-8.163 4.713-10.96 15.151-6.247 23.314s15.151 10.96 23.314 6.247z" />
<glyph unicode="&#xe98b;" d="M665.6 618.667c-47.128 0-85.333 38.205-85.333 85.333s38.205 85.333 85.333 85.333c47.128 0 85.333-38.205 85.333-85.333s-38.205-85.333-85.333-85.333z" />
<glyph unicode="&#xe98c;" d="M290.133 379.733c-47.128 0-85.333 38.205-85.333 85.333s38.205 85.333 85.333 85.333c47.128 0 85.333-38.205 85.333-85.333s-38.205-85.333-85.333-85.333z" />
<glyph unicode="&#xe98d;" d="M665.6 140.8c-47.128 0-85.333 38.205-85.333 85.333s38.205 85.333 85.333 85.333c47.128 0 85.333-38.205 85.333-85.333s-38.205-85.333-85.333-85.333z" />
<glyph unicode="&#xe98e;" d="M494.983 378.811c-47.128 0-85.333 38.205-85.333 85.333s38.205 85.333 85.333 85.333c47.128 0 85.333-38.205 85.333-85.333s-38.205-85.333-85.333-85.333z" />
<glyph unicode="&#xe98f;" d="M595.077 228.439l13.34-31.428c-147.521-62.619-317.879 6.213-380.5 153.739s6.206 317.885 153.727 380.504c147.521 62.619 317.879-6.213 380.5-153.739l-31.412-13.333c-55.253 130.168-205.575 190.899-335.747 135.644s-190.909-205.574-135.656-335.743c55.253-130.168 205.575-190.899 335.747-135.644z" />
<glyph unicode="&#xe990;" d="M750.983 583.611v85.333c0 9.426 7.641 17.067 17.067 17.067s17.067-7.641 17.067-17.067v-102.4c0-9.426-7.641-17.067-17.067-17.067h-102.4c-9.426 0-17.067 7.641-17.067 17.067s7.641 17.067 17.067 17.067h85.333z" />
<glyph unicode="&#xe991;" d="M631.805 225.5v0c3.683-8.676-0.365-18.696-9.041-22.378l-15.71-6.668-13.337 31.42 15.71 6.668c8.676 3.683 18.696-0.365 22.378-9.041z" />
<glyph unicode="&#xe992;" d="M494.983 378.811c-47.128 0-85.333 38.205-85.333 85.333s38.205 85.333 85.333 85.333c47.128 0 85.333-38.205 85.333-85.333s-38.205-85.333-85.333-85.333z" />
<glyph unicode="&#xe993;" d="M595.077 228.439l13.34-31.428c-147.521-62.619-317.879 6.213-380.5 153.739s6.206 317.885 153.727 380.504c147.521 62.619 317.879-6.213 380.5-153.739l-31.412-13.333c-55.253 130.168-205.575 190.899-335.747 135.644s-190.909-205.574-135.656-335.743c55.253-130.168 205.575-190.899 335.747-135.644z" />
<glyph unicode="&#xe994;" d="M750.983 583.611v85.333c0 9.426 7.641 17.067 17.067 17.067s17.067-7.641 17.067-17.067v-102.4c0-9.426-7.641-17.067-17.067-17.067h-102.4c-9.426 0-17.067 7.641-17.067 17.067s7.641 17.067 17.067 17.067h85.333z" />
<glyph unicode="&#xe995;" d="M631.805 225.5v0c3.683-8.676-0.365-18.696-9.041-22.378l-15.71-6.668-13.337 31.42 15.71 6.668c8.676 3.683 18.696-0.365 22.378-9.041z" />
<glyph unicode="&#xe996;" d="M494.981 755.245c-141.41 0-256.048-114.642-256.048-256.057 0-204.788 256-358.388 256-358.388s256 153.6 256.096 358.388c0 141.415-114.638 256.057-256.048 256.057zM494.981 789.378c160.261 0 290.181-129.924 290.181-290.206-0.047-100.344-52.269-194.302-138.046-280.074-29.333-29.331-60.652-55.638-91.983-78.614-18.907-13.864-33.779-23.638-42.638-28.953-10.809-6.486-24.313-6.486-35.123 0-8.857 5.314-23.724 15.084-42.624 28.944-31.32 22.968-62.628 49.266-91.951 78.588-85.787 85.785-137.998 179.761-137.998 280.126 0 160.266 129.92 290.19 290.181 290.19z" />
<glyph unicode="&#xe997;" d="M494.933 413.867c-47.128 0-85.333 38.205-85.333 85.333s38.205 85.333 85.333 85.333c47.128 0 85.333-38.205 85.333-85.333s-38.205-85.333-85.333-85.333z" />
<glyph unicode="&#xe998;" d="M494.981 755.245c-141.41 0-256.048-114.642-256.048-256.057 0-204.788 256-358.388 256-358.388s256 153.6 256.096 358.388c0 141.415-114.638 256.057-256.048 256.057zM494.981 789.378c160.261 0 290.181-129.924 290.181-290.206-0.047-100.344-52.269-194.302-138.046-280.074-29.333-29.331-60.652-55.638-91.983-78.614-18.907-13.864-33.779-23.638-42.638-28.953-10.809-6.486-24.313-6.486-35.123 0-8.857 5.314-23.724 15.084-42.624 28.944-31.32 22.968-62.628 49.266-91.951 78.588-85.787 85.785-137.998 179.761-137.998 280.126 0 160.266 129.92 290.19 290.181 290.19z" />
<glyph unicode="&#xe999;" d="M494.933 413.867c-47.128 0-85.333 38.205-85.333 85.333s38.205 85.333 85.333 85.333c47.128 0 85.333-38.205 85.333-85.333s-38.205-85.333-85.333-85.333z" />
<glyph unicode="&#xe99a;" d="M375.467 464.81c0-65.981 53.488-119.471 119.467-119.471s119.467 53.49 119.467 119.471h-238.933zM580.267 464.81h68.267c0-84.832-68.77-153.604-153.6-153.604s-153.6 68.772-153.6 153.604h68.267c0-47.13 38.206-85.337 85.333-85.337s85.333 38.207 85.333 85.337z" />
<glyph unicode="&#xe99b;" d="M358.4 498.944v0c9.426 0 17.067-7.641 17.067-17.067v-17.067h-34.133v17.067c0 9.426 7.641 17.067 17.067 17.067z" />
<glyph unicode="&#xe99c;" d="M631.467 498.944v0c9.426 0 17.067-7.641 17.067-17.067v-17.067h-34.133v17.067c0 9.426 7.641 17.067 17.067 17.067z" />
<glyph unicode="&#xe99d;" d="M477.867 330.492h34.133v-155.558h-34.133v155.558z" />
<glyph unicode="&#xe99e;" d="M426.667 209.067h136.533c9.426 0 17.067-7.641 17.067-17.067s-7.641-17.067-17.067-17.067h-136.533c-9.426 0-17.067 7.641-17.067 17.067s7.641 17.067 17.067 17.067z" />
<glyph unicode="&#xe99f;" d="M494.933 379.733c46.933 0 85.333 37.288 85.333 82.862v209.743c0 45.574-38.4 82.862-85.333 82.862s-85.333-37.288-85.333-82.862v-209.743c0-45.574 38.4-82.862 85.333-82.862z" />
<glyph unicode="&#xe9a0;" d="M375.467 464.81c0-65.981 53.488-119.471 119.467-119.471s119.467 53.49 119.467 119.471h-238.933zM580.267 464.81h68.267c0-84.832-68.77-153.604-153.6-153.604s-153.6 68.772-153.6 153.604h68.267c0-47.13 38.206-85.337 85.333-85.337s85.333 38.207 85.333 85.337z" />
<glyph unicode="&#xe9a1;" d="M358.4 498.944v0c9.426 0 17.067-7.641 17.067-17.067v-17.067h-34.133v17.067c0 9.426 7.641 17.067 17.067 17.067z" />
<glyph unicode="&#xe9a2;" d="M631.467 498.944v0c9.426 0 17.067-7.641 17.067-17.067v-17.067h-34.133v17.067c0 9.426 7.641 17.067 17.067 17.067z" />
<glyph unicode="&#xe9a3;" d="M477.867 330.492h34.133v-155.558h-34.133v155.558z" />
<glyph unicode="&#xe9a4;" d="M426.667 209.067h136.533c9.426 0 17.067-7.641 17.067-17.067s-7.641-17.067-17.067-17.067h-136.533c-9.426 0-17.067 7.641-17.067 17.067s7.641 17.067 17.067 17.067z" />
<glyph unicode="&#xe9a5;" d="M494.933 379.733c46.933 0 85.333 37.288 85.333 82.862v209.743c0 45.574-38.4 82.862-85.333 82.862s-85.333-37.288-85.333-82.862v-209.743c0-45.574 38.4-82.862 85.333-82.862z" />
<glyph unicode="&#xe9a6;" glyph-name="bars" d="M375.467 482.133h238.933c18.851 0 34.133-15.282 34.133-34.133s-15.282-34.133-34.133-34.133h-238.933c-18.851 0-34.133 15.282-34.133 34.133s15.282 34.133 34.133 34.133zM375.467 618.667h238.933c18.851 0 34.133-15.282 34.133-34.133s-15.282-34.133-34.133-34.133h-238.933c-18.851 0-34.133 15.282-34.133 34.133s15.282 34.133 34.133 34.133zM375.467 345.6h238.933c18.851 0 34.133-15.282 34.133-34.133s-15.282-34.133-34.133-34.133h-238.933c-18.851 0-34.133 15.282-34.133 34.133s15.282 34.133 34.133 34.133z" />
<glyph unicode="&#xe9a8;" d="M494.933 823.467c9.426 0 17.067-7.641 17.067-17.067v-136.533c0-9.426-7.641-17.067-17.067-17.067s-17.067 7.641-17.067 17.067v136.533c0 9.426 7.641 17.067 17.067 17.067z" />
<glyph unicode="&#xe9a9;" d="M494.933 277.333c9.426 0 17.067-7.641 17.067-17.067v-136.533c0-9.426-7.641-17.067-17.067-17.067s-17.067 7.641-17.067 17.067v136.533c0 9.426 7.641 17.067 17.067 17.067z" />
<glyph unicode="&#xe9aa;" d="M153.6 482.133h136.533c9.426 0 17.067-7.641 17.067-17.067s-7.641-17.067-17.067-17.067h-136.533c-9.426 0-17.067 7.641-17.067 17.067s7.641 17.067 17.067 17.067z" />
<glyph unicode="&#xe9ab;" d="M699.733 482.133h136.533c9.426 0 17.067-7.641 17.067-17.067s-7.641-17.067-17.067-17.067h-136.533c-9.426 0-17.067 7.641-17.067 17.067s7.641 17.067 17.067 17.067z" />
<glyph unicode="&#xe9ac;" d="M494.981 721.067c-141.41 0-256.048-114.642-256.048-256.057s114.638-256.057 256.048-256.057c141.41 0 256.048 114.642 256.048 256.057s-114.638 256.057-256.048 256.057zM494.981 755.2c160.261 0 290.181-129.924 290.181-290.19s-129.92-290.19-290.181-290.19c-160.261 0-290.181 129.924-290.181 290.19s129.92 290.19 290.181 290.19z" />
<glyph unicode="&#xe9ad;" d="M494.933 379.733c-47.128 0-85.333 38.205-85.333 85.333s38.205 85.333 85.333 85.333c47.128 0 85.333-38.205 85.333-85.333s-38.205-85.333-85.333-85.333z" />
<glyph unicode="&#xe9ae;" d="M494.933 823.467c9.426 0 17.067-7.641 17.067-17.067v-136.533c0-9.426-7.641-17.067-17.067-17.067s-17.067 7.641-17.067 17.067v136.533c0 9.426 7.641 17.067 17.067 17.067z" />
<glyph unicode="&#xe9af;" d="M494.933 277.333c9.426 0 17.067-7.641 17.067-17.067v-136.533c0-9.426-7.641-17.067-17.067-17.067s-17.067 7.641-17.067 17.067v136.533c0 9.426 7.641 17.067 17.067 17.067z" />
<glyph unicode="&#xe9b0;" d="M153.6 482.133h136.533c9.426 0 17.067-7.641 17.067-17.067s-7.641-17.067-17.067-17.067h-136.533c-9.426 0-17.067 7.641-17.067 17.067s7.641 17.067 17.067 17.067z" />
<glyph unicode="&#xe9b1;" d="M699.733 482.133h136.533c9.426 0 17.067-7.641 17.067-17.067s-7.641-17.067-17.067-17.067h-136.533c-9.426 0-17.067 7.641-17.067 17.067s7.641 17.067 17.067 17.067z" />
<glyph unicode="&#xe9b2;" d="M494.981 721.067c-141.41 0-256.048-114.642-256.048-256.057s114.638-256.057 256.048-256.057c141.41 0 256.048 114.642 256.048 256.057s-114.638 256.057-256.048 256.057zM494.981 755.2c160.261 0 290.181-129.924 290.181-290.19s-129.92-290.19-290.181-290.19c-160.261 0-290.181 129.924-290.181 290.19s129.92 290.19 290.181 290.19z" />
<glyph unicode="&#xe9b3;" d="M494.933 379.733c-47.128 0-85.333 38.205-85.333 85.333s38.205 85.333 85.333 85.333c47.128 0 85.333-38.205 85.333-85.333s-38.205-85.333-85.333-85.333z" />
<glyph unicode="&#xe9b4;" d="M153.6 721.067h682.667c9.426 0 17.067-7.641 17.067-17.067s-7.641-17.067-17.067-17.067h-682.667c-9.426 0-17.067 7.641-17.067 17.067s7.641 17.067 17.067 17.067z" />
<glyph unicode="&#xe9b5;" d="M631.467 618.667c-47.128 0-85.333 38.205-85.333 85.333s38.205 85.333 85.333 85.333c47.128 0 85.333-38.205 85.333-85.333s-38.205-85.333-85.333-85.333z" />
<glyph unicode="&#xe9b6;" d="M153.6 482.133h682.667c9.426 0 17.067-7.641 17.067-17.067s-7.641-17.067-17.067-17.067h-682.667c-9.426 0-17.067 7.641-17.067 17.067s7.641 17.067 17.067 17.067z" />
<glyph unicode="&#xe9b7;" d="M324.267 379.733c-47.128 0-85.333 38.205-85.333 85.333s38.205 85.333 85.333 85.333c47.128 0 85.333-38.205 85.333-85.333s-38.205-85.333-85.333-85.333z" />
<glyph unicode="&#xe9b8;" d="M153.6 243.2h682.667c9.426 0 17.067-7.641 17.067-17.067s-7.641-17.067-17.067-17.067h-682.667c-9.426 0-17.067 7.641-17.067 17.067s7.641 17.067 17.067 17.067z" />
<glyph unicode="&#xe9b9;" d="M631.467 140.8c-47.128 0-85.333 38.205-85.333 85.333s38.205 85.333 85.333 85.333c47.128 0 85.333-38.205 85.333-85.333s-38.205-85.333-85.333-85.333z" />
<glyph unicode="&#xe9ba;" d="M153.6 721.067h682.667c9.426 0 17.067-7.641 17.067-17.067s-7.641-17.067-17.067-17.067h-682.667c-9.426 0-17.067 7.641-17.067 17.067s7.641 17.067 17.067 17.067z" />
<glyph unicode="&#xe9bb;" d="M631.467 618.667c-47.128 0-85.333 38.205-85.333 85.333s38.205 85.333 85.333 85.333c47.128 0 85.333-38.205 85.333-85.333s-38.205-85.333-85.333-85.333z" />
<glyph unicode="&#xe9bc;" d="M153.6 482.133h682.667c9.426 0 17.067-7.641 17.067-17.067s-7.641-17.067-17.067-17.067h-682.667c-9.426 0-17.067 7.641-17.067 17.067s7.641 17.067 17.067 17.067z" />
<glyph unicode="&#xe9bd;" d="M324.267 379.733c-47.128 0-85.333 38.205-85.333 85.333s38.205 85.333 85.333 85.333c47.128 0 85.333-38.205 85.333-85.333s-38.205-85.333-85.333-85.333z" />
<glyph unicode="&#xe9be;" d="M153.6 243.2h682.667c9.426 0 17.067-7.641 17.067-17.067s-7.641-17.067-17.067-17.067h-682.667c-9.426 0-17.067 7.641-17.067 17.067s7.641 17.067 17.067 17.067z" />
<glyph unicode="&#xe9bf;" d="M631.467 140.8c-47.128 0-85.333 38.205-85.333 85.333s38.205 85.333 85.333 85.333c47.128 0 85.333-38.205 85.333-85.333s-38.205-85.333-85.333-85.333z" />
<glyph unicode="&#xe9c0;" d="M680.216 296.436c0-105.557-82.842-191.124-185.037-191.124s-185.054 85.567-185.054 191.124c0 105.557 82.859 191.124 185.054 191.124s185.037-85.567 185.037-191.124z" />
<glyph unicode="&#xe9c1;" d="M671.683 296.436c0 100.905-79.084 182.591-176.503 182.591-97.423 0-176.521-81.689-176.521-182.591s79.098-182.591 176.521-182.591c97.419 0 176.503 81.686 176.503 182.591zM688.749 296.436c0-110.209-86.599-199.657-193.57-199.657-106.974 0-193.587 89.451-193.587 199.657s86.613 199.657 193.587 199.657c106.971 0 193.57-89.448 193.57-199.657z" />
<glyph unicode="&#xe9c2;" d="M529.033 353.882c13.346 0 24.183-51.016 24.183-133.092h19.337c0 82.076-19.49 143.299-43.52 143.299-13.687 0-25.89-17.099-33.86-46.538-7.97 29.439-20.173 45.674-33.86 45.674-24.047 0-43.537-60.359-43.537-142.435h19.354c0 82.076 10.837 133.092 24.183 133.092 13.363 0 24.183-51.016 24.183-116.663h19.337c0 65.647 10.854 116.663 24.201 116.663z" />
<glyph unicode="&#xe9c3;" d="M668.95 475.969c-95.812 98.964-251.733 98.964-347.563 0l-58.453 60.376c128.051 132.281 336.435 132.281 464.486 0l-58.47-60.376z" />
<glyph unicode="&#xe9c4;" d="M668.864 488.114l46.625 48.159c-123.17 121.003-317.47 121.002-440.623 0l46.61-48.157c97.499 94.126 249.89 94.126 347.389-0.001zM662.837 470.017c-92.476 95.501-242.86 95.501-335.336 0-3.354-3.464-8.909-3.463-12.262 0.001l-58.453 60.394c-3.202 3.309-3.202 8.561 0 11.87 131.405 135.745 345.361 135.745 476.783 0 3.203-3.309 3.203-8.562 0-11.871l-58.47-60.394c-3.353-3.463-8.908-3.464-12.261-0.001z" />
<glyph unicode="&#xe9c5;" d="M761.849 589.536c-71.236 73.58-165.956 114.107-266.684 114.107s-195.447-40.527-266.667-114.107l-58.47 60.394c86.852 89.709 202.325 139.068 325.137 139.068s238.302-49.359 325.137-139.068l-58.453-60.394z" />
<glyph unicode="&#xe9c6;" d="M808.409 649.878c-84.543 84.315-195.429 130.604-313.244 130.604s-228.7-46.29-313.244-130.604l46.61-48.143c72.089 71.264 166.476 110.441 266.634 110.441 100.174 0 194.561-39.177 266.634-110.441l46.609 48.142zM755.735 583.602c-69.615 71.923-162.142 111.508-260.569 111.508-98.411 0-190.937-39.586-260.57-111.509-3.353-3.464-8.908-3.464-12.262 0l-58.47 60.394c-3.203 3.309-3.203 8.562 0 11.871 88.439 91.348 206.132 141.684 331.302 141.684s242.863-50.335 331.302-141.684c3.203-3.309 3.203-8.562 0-11.871l-58.47-60.394c-3.354-3.464-8.909-3.464-12.262 0.001z" />
<glyph unicode="&#xe9c7;" d="M921.617 174.666c0 14.595-183.381 26.429-409.6 26.429-226.236 0-409.6-11.834-409.6-26.429s183.364-26.429 409.6-26.429c226.219 0 409.6 11.834 409.6 26.429z" />
<glyph unicode="&#xe9c8;" d="M547.633 570.302v-299.629c0-44.505 121.122-45.384 121.122-87.866 0-16.88-70.229-23.387-156.86-23.387-86.613 0-156.843 6.506-156.843 23.387 0 42.483 121.122 43.362 121.122 87.866v299.629z" />
<glyph unicode="&#xe9c9;" d="M547.633 429.53c0-6.225-15.94-11.289-35.567-11.289-19.644 0-35.567 5.064-35.567 11.289v123.192h71.134v-123.192z" />
<glyph unicode="&#xe9ca;" d="M539.1 570.302h17.067v-299.629c0-12.996 14.16-21.731 54.963-36.679l2.155-0.789c47.662-17.461 64.004-27.425 64.004-50.398 0-24.254-58.233-31.92-165.393-31.92-107.144 0-165.376 7.666-165.376 31.92 0 22.973 16.342 32.937 64.004 50.398l2.155 0.789c40.803 14.948 54.963 23.683 54.963 36.679v299.629h17.067v-299.629c0-24.176-17.129-34.742-66.159-52.704l-2.155-0.789c-39.258-14.383-52.808-22.644-52.808-34.373 0-6.768 61.419-14.853 148.309-14.853 86.905 0 148.326 8.085 148.326 14.853 0 11.729-13.55 19.99-52.808 34.373l-2.155 0.789c-49.030 17.962-66.159 28.528-66.159 52.704v299.629z" />
<glyph unicode="&#xe9cb;" d="M749.5 525.52h-474.88c-6.758 0-12.288 5.68-12.288 12.66v57.323c0 6.963 5.53 12.66 12.288 12.66h474.88c6.758 0 12.288-5.697 12.288-12.66v-57.323c0-6.981-5.53-12.66-12.288-12.66z" />
<glyph unicode="&#xe9cc;" d="M749.5 534.053c1.995 0 3.755 1.811 3.755 4.127v57.323c0 2.306-1.767 4.127-3.755 4.127h-474.88c-1.988 0-3.755-1.821-3.755-4.127v-57.323c0-2.316 1.759-4.127 3.755-4.127h474.88zM749.5 516.987h-474.88c-11.533 0-20.821 9.56-20.821 21.194v57.323c0 11.62 9.292 21.194 20.821 21.194h474.88c11.529 0 20.821-9.574 20.821-21.194v-57.323c0-11.633-9.288-21.194-20.821-21.194z" />
<glyph unicode="&#xe9cd;" d="M238.234 180.952c0-3.499 8.909-6.313 19.934-6.313 10.991 0 19.917 2.813 19.917 6.313v242.147h-39.851v-242.147z" />
<glyph unicode="&#xe9ce;" d="M238.234 350.522c0-3.482 8.909-6.313 19.934-6.313 10.991 0 19.917 2.831 19.917 6.313v55.002h-39.851v-55.002z" />
<glyph unicode="&#xe9cf;" d="M229.7 180.952v242.147c0 4.713 3.821 8.533 8.533 8.533h39.851c4.713 0 8.533-3.821 8.533-8.533v-242.147c0-10.855-12.612-14.846-28.45-14.846-15.863 0-28.467 3.988-28.467 14.846zM258.167 183.173c4.465 0 8.572 0.54 11.383 1.408v229.985h-22.784v-229.986c2.812-0.867 6.922-1.407 11.401-1.407z" />
<glyph unicode="&#xe9d0;" d="M238.234 473.781c-12.527 0-22.733 10.515-22.733 23.422l-27.699 187.831c0 19.413-15.292 35.168-34.133 35.168-18.859 0-34.133-15.755-34.133-35.168l17.067-228.52c0-29.347 23.159-53.226 51.627-53.226h226.918c0 29.347 0 70.335-51.644 70.335l-125.269 0.158z" />
<glyph unicode="&#xe9d1;" d="M238.234 482.315l125.269-0.158c39.759 0 56.702-21.068 59.592-57.583 0.487-6.148 0.585-11.042 0.585-21.286 0-4.713-3.821-8.533-8.533-8.533h-226.918c-33.239 0-60.16 27.756-60.136 61.124l-17.090 229.155c0 24.075 19.042 43.701 42.667 43.701 23.612 0 42.667-19.632 42.575-42.456l27.791-189.076c0-8.25 6.443-14.888 14.199-14.888zM207.059 495.958l-27.791 189.076c0 14.756-11.529 26.634-25.6 26.634-14.081 0-25.6-11.872-25.624-25.999l17.090-229.155c0-24.693 19.399-44.693 43.093-44.693h218.342c-0.062 4.545-0.201 7.767-0.489 11.406-2.257 28.514-12.992 41.863-42.589 41.863l-125.264 0.158c-17.295 0.003-31.26 14.394-31.169 30.71z" />
<glyph unicode="&#xe9d2;" d="M785.884 180.952c0-3.499-8.909-6.313-19.917-6.313s-19.934 2.813-19.934 6.313v242.147h39.851v-242.147z" />
<glyph unicode="&#xe9d3;" d="M785.884 350.522c0-3.482-8.909-6.313-19.917-6.313s-19.934 2.831-19.934 6.313v55.002h39.851v-55.002z" />
<glyph unicode="&#xe9d4;" d="M777.351 414.566h-22.784v-229.984c2.814-0.868 6.927-1.409 11.401-1.409 4.47 0 8.575 0.54 11.383 1.406v229.987zM794.417 180.952c0-10.856-12.603-14.846-28.45-14.846-15.854 0-28.467 3.989-28.467 14.846v242.147c0 4.713 3.821 8.533 8.533 8.533h39.851c4.713 0 8.533-3.821 8.533-8.533v-242.147z" />
<glyph unicode="&#xe9d5;" d="M785.884 473.781c12.527 0 22.733 10.515 22.733 23.422l27.716 187.831c0 19.413 15.292 35.168 34.133 35.168 18.859 0 34.133-15.755 34.133-35.168l-17.067-228.52c0-29.347-23.159-53.226-51.644-53.226h-226.918c0 29.347 0 70.335 51.644 70.335l125.269 0.158z" />
<glyph unicode="&#xe9d6;" d="M660.615 465.090c-29.586 0-40.321-13.349-42.578-41.863-0.288-3.639-0.427-6.861-0.489-11.406h218.342c23.709 0 43.11 19.998 43.134 45.328l17.043 227.884c0 14.763-11.519 26.634-25.6 26.634-14.071 0-25.6-11.879-25.691-27.88l-27.625-186.585c0-17.561-13.965-31.952-31.26-31.955l-125.275-0.158zM785.873 482.315c7.767 0 14.21 6.639 14.302 16.134l27.625 186.585c0 24.069 19.054 43.701 42.667 43.701 23.624 0 42.667-19.626 42.643-44.337l-17.043-227.884c0-34.007-26.924-61.76-60.177-61.76h-226.918c-4.713 0-8.533 3.821-8.533 8.533 0 10.244 0.099 15.138 0.585 21.286 2.89 36.515 19.833 57.583 59.581 57.583l125.269 0.158z" />
<glyph unicode="&#xe9d7;" d="M887.467 89.6c0 9.129-168.178 16.498-375.467 16.498s-375.467-7.369-375.467-16.498c0-9.129 168.178-16.498 375.467-16.498s375.467 7.369 375.467 16.498z" />
<glyph unicode="&#xe9d8;" d="M494.932 241.004l-160.758-82.111c-16.788-8.575-37.349-1.917-45.924 14.871-3.378 6.613-4.507 14.148-3.216 21.46l30.444 172.452-128.047 121.264c-13.687 12.962-14.275 34.566-1.313 48.254 5.31 5.607 12.365 9.248 20.012 10.328l177.893 25.114 80.477 158.425c8.538 16.807 29.084 23.511 45.891 14.973 6.452-3.278 11.696-8.521 14.973-14.973l80.477-158.425 177.893-25.114c18.666-2.635 31.662-19.903 29.027-38.57-1.080-7.647-4.72-14.702-10.328-20.012l-128.047-121.264 30.444-172.452c3.277-18.564-9.115-36.27-27.68-39.548-7.313-1.291-14.847-0.162-21.46 3.216l-160.758 82.111z" />
<glyph unicode="&#xe9d9;" d="M154.653 525.114l132.137-172.073-22.777-227.494h438.844l9.269 16.768c0 0-311.66 149.294-421.876 412.767-159.664-17.514-135.596-29.968-135.596-29.968z" />
<glyph unicode="&#xe9da;" d="M487.169 256.203c4.876 2.49 10.651 2.49 15.526 0l160.758-82.111c3.307-1.689 7.074-2.253 10.73-1.608 9.282 1.639 15.478 10.492 13.84 19.774l-30.444 172.452c-0.997 5.646 0.908 11.416 5.071 15.359l128.047 121.264c2.804 2.655 4.624 6.183 5.164 10.006 1.318 9.333-5.18 17.967-14.513 19.285l-177.893 25.114c-5.517 0.779-10.307 4.202-12.83 9.17l-80.477 158.425c-1.639 3.226-4.261 5.848-7.487 7.487-8.404 4.269-18.677 0.917-22.945-7.487l-80.477-158.425c-2.523-4.968-7.313-8.391-12.83-9.17l-177.893-25.114c-3.823-0.54-7.351-2.36-10.006-5.164-6.481-6.844-6.187-17.646 0.656-24.127l128.047-121.264c4.163-3.943 6.068-9.712 5.071-15.359l-30.444-172.452c-0.645-3.656-0.081-7.424 1.608-10.73 4.287-8.394 14.568-11.723 22.962-7.436l160.758 82.111zM494.932 241.004l-160.758-82.111c-16.788-8.575-37.349-1.917-45.924 14.871-3.378 6.613-4.507 14.148-3.216 21.46l30.444 172.452-128.047 121.264c-13.687 12.962-14.275 34.566-1.313 48.254 5.31 5.607 12.365 9.248 20.012 10.328l177.893 25.114 80.477 158.425c8.538 16.807 29.084 23.511 45.891 14.973 6.452-3.278 11.696-8.521 14.973-14.973l80.477-158.425 177.893-25.114c18.666-2.635 31.662-19.903 29.027-38.57-1.080-7.647-4.72-14.702-10.328-20.012l-128.047-121.264 30.444-172.452c3.277-18.564-9.115-36.27-27.68-39.548-7.313-1.291-14.847-0.162-21.46 3.216l-160.758 82.111z" />
<glyph unicode="&#xe9db;" d="M912.717 377.061c6.281-19.701-4.83-40.714-24.832-46.922l-607.13-188.107c-20.002-6.191-41.301 4.744-47.599 24.462l-122.897 385.35c-6.298 19.718 4.83 40.731 24.832 46.922l607.13 188.107c20.002 6.208 41.301-4.744 47.599-24.462l122.897-385.35z" />
<glyph unicode="&#xe9dc;" d="M607.783 243.086l-326.929-101.33c-20.002-6.208-41.318 4.744-47.599 24.462l-94.327 295.679c0 0 58.965-138.713 198.519-192.734 139.537-54.038 270.336-26.077 270.336-26.077z" />
<glyph unicode="&#xe9dd;" d="M781.691 759.815c-4.866 15.236-21.396 23.733-36.945 18.907l-607.132-188.108c-15.496-4.797-24.073-20.999-19.225-36.177l122.896-385.347c4.864-15.23 21.392-23.721 36.945-18.907l607.126 188.106c15.494 4.809 24.067 21.012 19.231 36.18l-122.896 385.346zM920.847 379.654c7.728-24.242-5.931-50.060-30.436-57.666l-607.132-188.108c-24.458-7.57-50.523 5.821-58.252 30.021l-122.896 385.347c-7.747 24.255 5.924 50.082 30.435 57.669l607.126 188.106c24.454 7.59 50.527-5.812 58.258-30.019l122.897-385.35z" />
<glyph unicode="&#xe9de;" d="M618.283 238.347l-62.737-19.499-150.869 471.707 62.737 19.499z" />
<glyph unicode="&#xe9df;" d="M461.864 699.393l-46.439-14.433 145.67-455.451 46.439 14.433-145.67 455.451zM620.815 230.198l-62.737-19.499c-4.474-1.391-9.233 1.087-10.66 5.549l-150.869 471.707c-1.444 4.515 1.068 9.341 5.595 10.748l62.737 19.499c4.474 1.391 9.233-1.087 10.66-5.549l150.869-471.707c1.444-4.515-1.068-9.341-5.595-10.748z" />
<glyph unicode="&#xe9e0;" d="M173.317 325.349l-19.78 61.844 696.115 216.372 19.78-61.844z" />
<glyph unicode="&#xe9e1;" d="M858.684 547.316l-14.581 45.588-679.817-211.306 14.581-45.588 679.817 211.306zM165.189 322.75l-19.78 61.844c-1.444 4.515 1.068 9.341 5.595 10.748l696.115 216.372c4.474 1.391 9.233-1.086 10.661-5.549l19.78-61.844c1.444-4.515-1.068-9.341-5.595-10.748l-696.115-216.372c-4.474-1.391-9.233 1.086-10.661 5.549z" />
<glyph unicode="&#xe9e2;" d="M555.699 469.207l123.443-44.078-55.467-36.356 2.543-63.88-101.803 98.184z" />
<glyph unicode="&#xe9e3;" d="M535.51 424.231l81.337-78.446-1.698 42.647c-0.119 2.995 1.342 5.833 3.849 7.476l41.119 26.952-101.064 36.087-23.543-34.717zM634.745 325.231c0.306-7.686-8.914-11.821-14.45-6.482l-101.803 98.184c-2.988 2.882-3.469 7.496-1.139 10.932l31.283 46.131c2.183 3.22 6.268 4.555 9.932 3.247l123.443-44.078c6.638-2.37 7.703-11.309 1.808-15.173l-51.426-33.708 2.351-59.052z" />
<glyph unicode="&#xe9e4;" d="M472.499 443.347l-75.486-105.906 66.594 1.581 35.089-53.769 26.266 137.989z" />
<glyph unicode="&#xe9e5;" d="M397.216 328.91c-7.028-0.167-11.232 7.759-7.151 13.484l75.486 105.906c2.257 3.167 6.371 4.407 10.002 3.015l52.463-20.104c3.857-1.478 6.102-5.506 5.329-9.564l-26.266-137.989c-1.436-7.546-11.331-9.501-15.529-3.068l-32.492 49.789-61.843-1.469zM413.862 346.377l49.543 1.177c2.954 0.070 5.734-1.393 7.349-3.867l23.519-36.039 20.972 110.181-39.631 15.187-61.752-86.638z" />
<glyph unicode="&#xe9e6;" d="M629.7 542.942c28.791 54.509-6.775 50.791-39.39 67.531-32.614 16.723-53.077 41.589-78.694-6.931-25.634-48.52-13.961-103.517-13.961-103.517l54.033-27.726c0 0 49.22 16.134 78.012 70.643z" />
<glyph unicode="&#xe9e7;" d="M637.246 538.957c-8.253-15.625-18.557-29.163-30.438-40.746-11.346-11.061-23.502-19.766-35.681-26.385-7.392-4.018-13.24-6.475-16.78-7.636l-6.554 0.517-54.033 27.726-4.452 5.82c-0.381 1.796-0.92 4.955-1.449 9.274-3.235 26.42-1.523 55.668 8.842 83.511 2.113 5.677 4.565 11.18 7.369 16.488 8.108 15.357 16.352 24.951 25.705 29.626 15.804 7.901 20.42 6.076 55.378-14.116 3.348-1.934 6.23-3.522 9.054-4.971 1.278-0.656 2.601-1.298 3.979-1.934 5.027-2.317 10.034-4.251 20.050-7.988 32.661-12.602 39.979-29.485 19.009-69.187zM562.977 486.821c10.865 5.905 21.755 13.703 31.917 23.61 10.641 10.374 19.863 22.49 27.261 36.497 15.998 30.289 13.422 36.232-10.062 45.293-9.855 3.668-15.451 5.829-21.052 8.411-1.591 0.733-3.129 1.48-4.624 2.247-3.104 1.592-6.224 3.312-9.8 5.377-28.103 16.233-31.398 17.535-39.211 13.629-5.603-2.801-11.648-9.835-18.245-22.331-2.454-4.646-4.605-9.475-6.465-14.471-9.268-24.896-10.827-51.543-7.896-75.483 0.182-1.484 0.362-2.796 0.531-3.923l46.899-24.065c2.718 1.122 6.381 2.835 10.748 5.208z" />
<glyph unicode="&#xe9e8;" d="M367.3 461.385c-55.296 28.382-23.996 45.441-7.031 77.575 16.981 32.15 19.285 64.082 68.506 38.829 49.203-25.269 71.663-76.902 71.663-76.902l-28.143-53.264c0 0-49.715-14.62-104.994 13.762z" />
<glyph unicode="&#xe9e9;" d="M485.577 510.649c-6.059 10.127-13.448 20.263-22.175 29.699-11.408 12.334-24.248 22.518-38.523 29.849-27.984 14.357-35.287 11.086-46.409-12.679-1.006-2.149-4.592-10.067-4.897-10.731-2.115-4.61-3.876-8.247-5.758-11.811-2.31-4.376-4.907-8.607-8.262-13.619-15.034-22.458-14.946-22.307-15.044-27.77-0.122-6.779 6.995-14.503 26.688-24.611 31.745-16.299 63.503-19.344 90.822-14.817 1.762 0.292 3.275 0.58 4.523 0.842l24.352 46.089c-1.27 2.507-3.040 5.753-5.316 9.557zM327.445 493.894c0.114 6.359 2.305 12.464 6.405 19.53 1.497 2.58 3.192 5.209 5.564 8.701 0.242 0.356 4.662 6.792 5.957 8.726 3.053 4.56 5.359 8.317 7.353 12.094 1.712 3.241 3.344 6.614 5.339 10.96 0.266 0.579 3.891 8.584 4.951 10.848 14.951 31.947 32.38 39.754 69.66 20.628 16.173-8.306 30.567-19.722 43.258-33.444 9.584-10.363 17.659-21.44 24.292-32.525 4.007-6.698 6.67-11.971 8.040-15.119l-0.28-7.39-28.143-53.264-5.137-4.2c-1.921-0.565-5.277-1.349-9.893-2.114-30.66-5.081-66.037-1.688-101.406 16.471-24.876 12.768-36.228 25.089-35.958 40.1z" />
<glyph unicode="&#xe9ea;" d="M554.849 432.527l-60.297-18.742c-6.451-2.002-13.38 1.565-15.428 7.907l-19.029 59.489c-2.031 6.359 1.587 13.19 8.038 15.192l60.297 18.759c6.434 1.985 13.38-1.565 15.394-7.924l19.046-59.489c2.031-6.359-1.587-13.19-8.021-15.192z" />
<glyph unicode="&#xe9eb;" d="M554.744 445.117l-19.055 59.515c-0.586 1.85-2.749 2.961-4.724 2.352l-60.302-18.76c-1.949-0.605-3.020-2.627-2.44-4.442l19.022-59.467c0.608-1.883 2.782-2.999 4.775-2.381l60.295 18.741c1.936 0.603 3.007 2.629 2.428 4.442zM557.385 424.379l-60.303-18.744c-10.893-3.38-22.586 2.621-26.085 13.457l-19.031 59.493c-3.48 10.897 2.681 22.538 13.632 25.936l60.316 18.764c10.896 3.362 22.61-2.654 26.037-13.476l19.048-59.495c3.478-10.891-2.675-22.532-13.615-25.936z" />
<glyph unicode="&#xe9ec;" d="M857.106 645.732c-2.474 20.386-21.324 34.936-42.12 32.511l-545.94-63.667c-20.796-2.425-35.637-20.921-33.164-41.291l16.292-134.258c0.29-2.308 2.337-3.846 4.708-3.88 15.439-0.301 28.694-11.723 30.554-27.176s-8.291-29.551-23.201-33.381c-2.303-0.602-3.924-2.559-3.634-4.867l16.735-137.87c2.474-20.386 21.324-34.936 42.12-32.511l545.957 63.667c20.779 2.425 35.637 20.921 33.147 41.291l-41.455 341.431z" />
<glyph unicode="&#xe9ed;" d="M615.983 234.591l-298.883-34.886c-18.288-2.141-34.87 10.653-37.036 28.581l-32.669 268.817c0 0 28.029-128.455 139.564-197.055 111.535-68.617 229.025-65.457 229.025-65.457z" />
<glyph unicode="&#xe9ee;" d="M865.574 646.796l42-345.911c2.76-22.662-13.69-43.15-36.637-45.815l-555.020-64.738c-22.916-2.661-43.753 13.419-46.509 36.046l-17.64 145.329c-0.568 4.677 2.763 8.93 7.44 9.499 13.099 1.594 22.373 13.177 20.844 25.864-1.532 12.738-13.385 21.925-26.557 20.451-4.653-0.521-8.856 2.804-9.42 7.451l-17.214 141.722c-2.738 22.657 13.708 43.138 36.655 45.824l550.511 64.202c25.402 2.965 48.501-14.866 51.546-39.924zM816.005 669.768l-550.508-64.202c-13.629-1.595-23.288-13.623-21.693-26.819l16.297-134.178c18.837-1.735 34.576-16.182 36.895-35.458 2.319-19.243-9.511-36.894-27.363-42.945l16.717-137.727c1.611-13.229 13.935-22.74 27.594-21.153l555.020 64.738c13.623 1.582 23.276 13.604 21.668 26.802l-42.001 345.913c-1.903 15.66-16.483 26.915-32.626 25.031z" />
<glyph unicode="&#xe9ef;" d="M730.913 732.511c-6.329 19.517-27.602 30.303-47.494 24.099l-563.58-175.666c-19.909-6.204-30.912-27.042-24.583-46.559l46.078-142.018c0.358-1.104 1.518-1.672 2.661-1.405 16.991 4.097 34.529-5.368 39.902-21.958 5.357-16.556-3.395-34.183-19.653-40.455-1.092-0.418-1.706-1.539-1.348-2.642l47.272-145.73c6.329-19.517 27.602-30.303 47.494-24.099l563.58 175.666c19.909 6.204 30.912 27.059 24.583 46.559l-114.913 354.208z" />
<glyph unicode="&#xe9f0;" d="M510.412 452.576l11.345-35.086c6.329 5.352 10.44 13.111 7.864 21.055-2.815 8.696-10.986 12.643-19.209 14.031v0zM467.149 525.927c-7.165-4.482-12.658-11.539-9.758-20.503 2.491-7.676 9.042-11.004 20.437-12.526l-10.679 33.029zM533.357 381.651l5.868-18.179c1.331-4.097 1.74-5.368-3.207-6.907l-8.103-2.525c-4.708-1.455-5.288 0.334-6.449 3.913l-5.544 17.159c-16.087-4.449-35.467-6.79-52.851-6.288-4.947 0.151-6.312 1.706-6.977 3.746-0.324 1.020-0.648 2.893-0.699 5.703l-0.375 20.737c-0.136 3.060 0.529 5.519 3.907 6.572 1.314 0.401 2.695 0.552 4.777 0.351 12.556-0.602 28.353 0.351 41.131 3.479l-14.671 45.321-26.732 2.693c-22.314 2.358-39.305 13.981-46.248 35.504-9.622 29.701 11.993 55.289 39.032 66.794l-6.534 20.219c-1.007 3.077 0.239 4.599 2.61 5.318l9.4 2.927c3.651 1.137 4.743 0.351 5.817-2.977l6.38-19.717c14.961 3.529 29.018 4.515 44.764 2.927 4.777-0.485 6.653-1.89 7.404-4.181 0.324-1.020 0.478-2.391 0.444-4.081l-1.109-21.49c-0.034-2.542-0.665-5-3.531-5.887-1.297-0.401-2.968-0.636-5.033-0.435-9.263 1.054-21.58 0.903-32.004-0.652l13.255-40.973 16.104-1.739c23.525-2.559 45.72-12.576 53.26-35.872 10.355-31.992-6.227-58.015-34.085-71.46v0z" />
<glyph unicode="&#xe9f1;" d="M299.452 151.555l-82.517-25.654-148.316 458.581 82.517 25.654z" />
<glyph unicode="&#xe9f2;" d="M563.423 252.124l-305.81-95.359c-18.714-5.837-38.691 4.315-44.645 22.644l-89.239 275.055c0 0 55.648-128.99 186.478-178.877s253.215-23.463 253.215-23.463z" />
<glyph unicode="&#xe9f3;" d="M737.425 736.023l114.629-356.322c7.519-23.343-5.403-48.278-28.741-55.731l-564.412-180.567c-23.306-7.443-48.291 5.3-55.798 28.607l-48.153 149.704c-1.55 4.818 1.045 9.977 5.797 11.524 13.307 4.332 20.585 18.424 16.392 31.495-4.206 13.124-18.426 20.416-31.834 16.196-4.736-1.491-9.792 1.166-11.333 5.953l-46.97 145.986c-7.495 23.342 5.424 48.269 28.758 55.744l559.829 179.090c25.832 8.266 53.529-5.866 61.835-31.677zM681.123 750.222l-559.826-179.089c-13.858-4.44-21.446-19.079-17.080-32.674l44.47-138.216c19.962 1.981 39.306-10.071 45.671-29.932 6.359-19.826-2.336-40.835-19.677-50.829l45.634-141.873c4.389-13.626 19.166-21.163 33.057-16.727l564.412 180.567c13.855 4.425 21.437 19.056 17.058 32.651l-114.63 356.324c-5.191 16.13-22.674 25.051-39.090 19.798z" />
<glyph unicode="&#xe9f4;" d="M785.067 806.4l-54.613-34.133-54.613 34.133-54.613-34.133-54.613 34.133-54.613-34.133-54.613 34.133-54.613-34.133-54.613 34.133-54.613-34.133-54.613 34.133v-682.667c0-18.842 15.292-34.133 34.133-34.133h477.867c18.842 0 34.133 15.292 34.133 34.133v682.667z" />
<glyph unicode="&#xe9f5;" d="M773.939 467.812c0-4.311 0 48.455 6.73 99.923-18.666 27.165-39.627 42.4-61.785 42.4-44.541 0-84.15-57.112-110.043-146.634-25.892 89.365-65.656 146.634-110.197 146.634-78.14 0-141.638-190.215-141.638-424.798h62.882c0 217.906 35.294 394.59 78.602 394.59s78.756-162.996 78.756-364.225h62.882c0 201.071 35.294 364.225 78.602 364.225 21.686 0 41.050-42.745 55.209-112.115z" />
<glyph unicode="&#xe9f6;" d="M289.088 516.267h-50.155v187.733h50.155c18.457 0 33.437-15.292 33.437-34.133v-119.467c0-18.842-14.98-34.133-33.437-34.133z" />
<glyph unicode="&#xe9f7;" d="M768 775.608l-37.547-23.467-54.613 34.133-54.613-34.133-54.613 34.133-54.613-34.133-54.613 34.133-54.613-34.133-54.613 34.133-54.613-34.133-37.547 23.467v-651.874c0-9.416 7.651-17.067 17.067-17.067h477.867c9.416 0 17.067 7.651 17.067 17.067v651.874zM785.067 806.4v-682.667c0-18.842-15.292-34.133-34.133-34.133h-477.867c-18.842 0-34.133 15.292-34.133 34.133v682.667l54.613-34.133 54.613 34.133 54.613-34.133 54.613 34.133 54.613-34.133 54.613 34.133 54.613-34.133 54.613 34.133 54.613-34.133 54.613 34.133z" />
<glyph unicode="&#xe9f8;" d="M716.8 140.8l-204.8 102.4-204.8-102.4v580.267c0 18.842 15.292 34.133 34.133 34.133h341.333c18.842 0 34.133-15.292 34.133-34.133v-580.267z" />
<glyph unicode="&#xe9f9;" d="M341.333 755.193c-31.71 0-34.133-34.141-34.133-34.141v-580.259l204.8 102.423 204.8-102.423c0 0-375.467 222.593-375.467 614.4z" />
<glyph unicode="&#xe9fa;" d="M682.667 721.067h-341.333v-525.038l170.667 85.333 170.667-85.333v525.038zM716.8 140.8l-204.8 102.4-204.8-102.4v580.267c0 18.842 15.292 34.133 34.133 34.133h341.333c18.842 0 34.133-15.292 34.133-34.133v-580.267z" />
<glyph unicode="&#xe9fb;" d="M341.333 755.2c-31.71 0-34.133-34.141-34.133-34.141v-580.259l204.8 102.423 204.8-102.423c0 0-375.467 222.593-375.467 614.4z" />
</font>
</defs>
</svg>
