<svg width="33" height="46" xmlns="http://www.w3.org/2000/svg" xmlns:xlink="http://www.w3.org/1999/xlink">
 <defs>
  <svg id="svg_2" x="0px" y="0px" width="274" height="240" viewBox="0 0 274 240">
   <metadata id="metadata11">image/svg+xml</metadata>
   <path d="m196.488998,18.773001c23.334,0 42.251999,98.376001 42.251999,219.730005l33.809998,0c0,-130.692009 -34.05899,-236.635006 -76.061996,-236.635006c-23.899994,0 -45.220993,31.84 -59.164001,81.629009c-13.936996,-49.788998 -35.265999,-81.629009 -59.162994,-81.629009c-42.003002,0 -76.066003,105.942997 -76.066003,236.635006l33.814,0c0,-121.353989 18.921001,-219.729986 42.252003,-219.729986c23.337997,0 42.264,90.808989 42.264,202.834997l33.801994,0c0.001007,-112.026009 18.921005,-202.835016 42.261002,-202.835016" id="path3" fill="#ffc300"/>
  </svg>
 </defs>
 <g>
  <title>Layer 1</title>
  <path fill="#BD2026" d="m30.893,13.952c0,-7.704999 -6.58,-13.952 -14.698,-13.952c-8.115,0 -14.695,6.247 -14.695,13.952c0,1.412001 0.223,2.778 0.637,4.062h-0.008l0.017,0.033001c0.654,1.427 14.052,27.875 14.052,27.875s13.396,-26.448 14.052,-27.879002l0.013,-0.029999h-0.005001c0.411001,-1.283001 0.635,-2.649 0.635,-4.061001" id="svg_1"/>
  <use xlink:href="#svg_2" id="svg_3" transform="matrix(0.05596106871962547,0,0,0.05596106871962547,0,0) " y="62.54348" x="151.89131"/>
 </g>
</svg>