<?xml version="1.0" standalone="no"?> <!DOCTYPE svg PUBLIC "-//W3C//DTD SVG 1.0//EN" "http://www.w3.org/TR/2001/REC-SVG-20010904/DTD/svg10.dtd" > <svg xmlns="http://www.w3.org/2000/svg" width="100%" height="100%">
<defs >
<font id="LovinSansWebBlackItalic" horiz-adv-x="591" ><font-face
    font-family=""
    units-per-em="1000"
    panose-1="2 11 5 3 0 0 0 2 0 4"
    ascent="900"
    descent="-300"
    alphabetic="0" />
<missing-glyph horiz-adv-x="666" d="M100 700H606V0H100V700ZM584 21V679H122V21H584ZM206 272L286 350L206 431L274 498L353 419L433 498L500 431L421 350L500 272L432 204L353 283L275 204L206 272Z" />
<glyph unicode="&#xd;" glyph-name="CR" horiz-adv-x="220" />
<glyph unicode=" " glyph-name="space" horiz-adv-x="220" />
<glyph unicode="!" glyph-name="exclam" horiz-adv-x="338" d="M123 700H371L244 244Q231 248 212 251T171 254T128 252T90 245L123 700ZM36 92Q36 115 44 136T68 173T105 198T154 208Q175 208 192 201T223 180T244 149T252 110Q252 88 244 67T221 30T184 3T134
-8Q92 -8 64 20T36 92Z" />
<glyph unicode="&quot;" glyph-name="quotedbl" horiz-adv-x="508" d="M118 700H303L251 406H66L118 700ZM361 700H546L494 406H309L361 700Z" />
<glyph unicode="#" glyph-name="numbersign" horiz-adv-x="682" d="M362 164H264L218 0H57L103 164H14L40 308H143L170 403H75L102 547H210L253 700H414L371 547H469L512 700H673L630 547H704L677 403H590L563 308H647L621 164H523L477 0H316L362 164ZM304 308H402L429
403H331L304 308Z" />
<glyph unicode="$" glyph-name="dollar" horiz-adv-x="387" d="M181 229Q145 232 120 243T78 273T56 315T50 363H168Q166 346 171 335T197 320L209 389L164 401Q78 424 78 498Q78 536 91 563T127 609T183 637T255 648L264 700H290L281 647Q347 641 377 606T399
520H286Q287 533 282 542T265 556L254 498L296 487Q338 475 362 450T387 382Q387 343 374 316T336 270T279 241T207 229L198 176H172L181 229ZM234 383L223 319Q235 321 247 328T260 356Q260 366 255 373T240 382L234 383ZM239 557Q225 557 215 552T204 530Q204
512 230 505L239 557Z" />
<glyph unicode="%" glyph-name="percent" horiz-adv-x="927" d="M237 429Q253 429 261 437T272 459L288 551Q291 567 282 577T255 587Q226 587 220 556L204 465Q201 449 211 439T237 429ZM234 306Q198 306 167 317T112 347T74 395T60 458Q60 471 63 488L76 561Q90
636 134 673T259 710Q294 710 325 701T381 672T419 625T433 560Q433 544 430 528L417 453Q406 386 358 346T234 306ZM648 700H801L320 0H167L648 700ZM710 112Q726 112 734 120T745 142L761 234Q764 250 755 260T728 270Q699 270 693 239L677 148Q674 132 684 122T710
112ZM707 -11Q671 -11 640 0T585 30T547 78T533 141Q533 154 536 171L549 244Q563 319 607 356T732 393Q767 393 798 384T854 355T892 308T906 243Q906 227 903 211L890 136Q879 69 831 29T707 -11Z" />
<glyph unicode="&amp;" glyph-name="ampersand" horiz-adv-x="721" d="M554 -14L503 42Q461 16 412 1T308 -14Q246 -14 194 0T105 40T47 106T26 195Q26 238 38 272T71 331T121 374T184 403Q152 453 152 508Q152 560 170 598T221 662T298 701T393 714Q430 714 468
706T538 679T588 632T608 563Q608 549 605 534L598 494H430L435 522Q436 527 436 533Q436 552 424 562T391 573Q368 573 353 560T338 520Q338 505 343 493T359 469L501 314L512 376H671L652 267Q643 222 625 181L691 109L554 -14ZM332 125Q376 125 412 144L272
300Q252 287 236 266T219 210Q219 166 252 146T332 125Z" />
<glyph unicode="&apos;" glyph-name="quotesingle" horiz-adv-x="265" d="M118 700H303L251 406H66L118 700Z" />
<glyph unicode="(" glyph-name="parenleft" horiz-adv-x="378" d="M95 -134Q72 -49 60 36T47 205Q47 278 59 356T97 510T163 656T258 782H463Q419 721 383 652T320 507T279 351T264 187Q264 115 273 36T300 -134H95V-134Z" />
<glyph unicode=")" glyph-name="parenright" horiz-adv-x="378" d="M301 782Q324 697 336 612T349 443Q349 369 337 291T299 137T233 -8T138 -134H-67Q-23 -73 13 -4T76 141T117 297T132 461Q132 533 123 612T96 782H301V782Z" />
<glyph unicode="*" glyph-name="asterisk" horiz-adv-x="258" d="M202 562L189 485H152L165 560L93 522L77 554L155 593L86 632L106 663L177 622L190 700H227L214 624L282 660L298 629L223 592L290 553L269 521L202 562Z" />
<glyph unicode="+" glyph-name="plus" horiz-adv-x="582" d="M192 269H52L84 451H225L252 612H455L426 451H566L534 269H394L366 108H164L192 269Z" />
<glyph unicode="," glyph-name="comma" horiz-adv-x="286" d="M69 9Q48 15 30 36T12 93Q12 143 43 175T130 208Q153 208 171 200T202 179T221 148T228 111Q228 89 223 71T207 37T184 6T155 -26L80 -104H-30L69 9Z" />
<glyph unicode="-" glyph-name="hyphen" horiz-adv-x="396" d="M66 424H391L357 232H31L66 424Z" />
<glyph unicode="." glyph-name="period" horiz-adv-x="286" d="M4 92Q4 115 12 136T36 173T73 198T122 208Q143 208 160 201T191 180T212 149T220 110Q220 88 212 67T189 30T152 3T102 -8Q60 -8 32 20T4 92Z" />
<glyph unicode="/" glyph-name="slash" horiz-adv-x="527" d="M388 750H601L168 -105H-45L388 750Z" />
<glyph unicode="0" glyph-name="zero" horiz-adv-x="639" d="M310 162Q375 162 387 232L426 454Q427 459 427 463T428 471Q428 500 410 519T358 538Q329 538 310 521T284 464L245 245Q244 240 244 236T243 228Q243 196 262 179T310 162ZM305 -14Q246 -14 196 3T109
53T51 130T30 229Q30 243 31 254T35 278L70 476Q92 600 170 657T365 714Q420 714 470 698T558 652T620 578T643 479Q643 468 642 456T638 432L604 239Q594 180 569 134T506 54T417 4T305 -14Z" />
<glyph unicode="1" glyph-name="one" horiz-adv-x="445" d="M206 470Q191 464 172 459T132 448T93 439T58 433L92 627Q119 632 148 640T206 658T262 678T311 700H463L340 0H124L206 470Z" />
<glyph unicode="2" glyph-name="two" horiz-adv-x="610" d="M24 164L331 404Q341 411 351 420T371 441T386 465T392 493Q392 513 380 525T347 537Q321 537 308 524T289 482L287 470H79L82 488Q92 550 115 593T175 663T261 702T372 714Q420 714 463 700T540 661T592
599T612 516Q612 472 599 436T563 370T507 313T436 260L315 177H542L512 0H-5L24 164Z" />
<glyph unicode="3" glyph-name="three" horiz-adv-x="613" d="M332 431Q367 431 384 446T406 487Q411 514 399 532T357 550Q330 550 314 537T289 488H91Q111 602 184 658T376 714Q433 714 479 699T558 656T604 588T610 498Q599 435 564 398T488 342Q537 322 559
279T571 177Q562 127 538 91T477 31T391 -3T284 -14Q224 -14 175 1T92 47T42 123T33 229H237Q232 194 248 172T298 150Q356 150 365 208Q370 238 354 256T307 275H220L247 431H332Z" />
<glyph unicode="4" glyph-name="four" horiz-adv-x="637" d="M328 124H9L37 280L385 700H624L551 287H628L599 124H522L501 0H307L328 124ZM357 287L400 527L210 287H357Z" />
<glyph unicode="5" glyph-name="five" horiz-adv-x="625" d="M290 -14Q243 -14 198 0T116 41T56 110T28 205H235Q240 187 257 174T301 160Q336 160 358 182T381 241Q381 270 362 290T310 311Q287 311 271 302T244 275H47L190 700H603L573 529H330L306 461Q321
471 342 476T388 481Q437 481 476 464T542 417T584 349T599 267Q599 206 576 155T512 66T414 7T290 -14Z" />
<glyph unicode="6" glyph-name="six" horiz-adv-x="628" d="M580 700L358 466Q368 473 380 476T401 479Q447 479 485 462T550 415T592 346T607 264Q607 205 583 155T518 67T420 8T299 -14Q245 -14 195 4T107 54T46 133T23 236Q23 262 27 285Q33 317 43 343T68
391T99 432T133 470L345 700H580ZM311 156Q349 156 371 182T393 243Q393 274 372 295T318 317Q283 317 259 294T235 231Q235 196 257 176T311 156Z" />
<glyph unicode="7" glyph-name="seven" horiz-adv-x="559" d="M349 523H77L109 700H609L582 546L226 0H2L349 523Z" />
<glyph unicode="8" glyph-name="eight" horiz-adv-x="630" d="M293 -14Q246 -14 199 -1T113 40T51 106T27 198Q27 268 62 315T163 386Q139 410 126 440T112 505Q112 557 133 596T190 661T274 700T376 714Q419 714 463 704T542 670T600 612T622 527Q622 470 594
426T512 353Q547 339 573 303T600 214Q600 158 575 115T508 44T411 1T293 -14ZM320 275Q305 275 291 272T266 261T247 240T240 209Q240 181 260 164T309 147Q342 147 364 165T387 216Q387 242 368 258T320 275ZM368 551Q342 551 324 534T306 487Q306 465 320 450T359
434Q386 434 403 452T420 498Q420 519 407 535T368 551Z" />
<glyph unicode="9" glyph-name="nine" horiz-adv-x="628" d="M80 0L290 231Q282 226 271 224T250 221Q205 221 169 238T107 284T68 353T54 436Q54 497 76 548T138 636T235 693T361 714Q416 714 466 697T554 647T615 569T638 466Q638 443 633 415Q627 383 616 357T591
309T561 268T527 230L315 0H80ZM349 544Q314 544 291 521T268 459Q268 427 289 405T342 383Q377 383 401 407T425 470Q425 503 404 523T349 544Z" />
<glyph unicode=":" glyph-name="colon" horiz-adv-x="286" d="M4 92Q4 115 12 136T36 173T73 198T122 208Q143 208 160 201T191 180T212 149T220 110Q220 88 212 67T189 30T152 3T102 -8Q60 -8 32 20T4 92ZM57 391Q57 414 65 435T89 472T126 497T175 507Q196 507
213 500T244 479T265 448T273 409Q273 387 265 366T242 329T205 302T155 291Q113 291 85 319T57 391Z" />
<glyph unicode=";" glyph-name="semicolon" horiz-adv-x="286" d="M57 391Q57 414 65 435T89 472T126 497T175 507Q196 507 213 500T244 479T265 448T273 409Q273 387 265 366T242 329T205 302T155 291Q113 291 85 319T57 391ZM61 9Q40 15 22 36T4 93Q4 143 35
175T122 208Q145 208 163 200T194 179T213 148T220 111Q220 89 215 71T199 37T176 6T147 -26L72 -104H-38L61 9Z" />
<glyph unicode="&lt;" glyph-name="less" horiz-adv-x="583" d="M51 291L75 429L510 591L559 433L316 355L539 274L472 110L51 291Z" />
<glyph unicode="=" glyph-name="equal" horiz-adv-x="592" d="M67 320H549L518 146H36L67 320ZM112 574H594L563 400H81L112 574Z" />
<glyph unicode="&gt;" glyph-name="greater" horiz-adv-x="584" d="M574 429L550 291L97 122L66 287L310 364L88 445L158 608L574 429Z" />
<glyph unicode="?" glyph-name="question" horiz-adv-x="543" d="M170 284Q181 342 200 383T267 449L316 474Q333 482 345 491T357 516Q357 530 343 536T312 542Q280 542 266 532T247 495H51Q64 611 135 662T326 714Q369 714 412 704T491 672T549 616T572 532Q572
480 550 441T475 370L412 333Q386 318 373 304T354 260L350 236Q308 250 257 250T161 236L170 284ZM134 92Q134 115 142 136T166 173T203 198T252 208Q273 208 290 201T321 180T342 149T350 110Q350 88 342 67T319 30T282 3T232 -8Q190 -8 162 20T134 92Z" />
<glyph unicode="@" glyph-name="at" horiz-adv-x="933" d="M440 496Q483 496 509 480T548 445L555 487H699L661 272Q660 266 660 260T659 249Q659 225 669 210T705 194Q729 194 745 215T770 265T783 325T787 376Q787 487 712 546T504 605Q426 605 365 581T262
511T198 401T176 255Q176 189 198 139T259 56T351 6T468 -11Q531 -11 590 -1T688 21L667 -89Q630 -100 573 -110T453 -120Q362 -120 287 -93T158 -16T75 102T45 254Q45 355 76 439T166 585T312 680T510 714Q594 714 667 691T795 625T881 519T913 377Q913 329 902
278T864 186T795 117T689 90Q629 90 593 111T548 165Q541 153 528 142T496 122T455 108T408 103Q373 103 346 114T299 145T271 191T261 248Q261 256 261 262T264 278L276 346Q289 421 331 458T440 496ZM478 380Q437 380 428 329L419 278Q418 273 418 270T418 263Q418
220 458 220Q480 220 491 233T506 267L516 324Q517 329 517 332T517 338Q517 356 508 368T478 380Z" />
<glyph unicode="A" glyph-name="A" horiz-adv-x="733" d="M330 700H554L680 0H466L455 106H242L197 0H-33L330 700ZM317 279H437L414 503L317 279Z" />
<glyph unicode="B" glyph-name="B" horiz-adv-x="690" d="M133 700H501Q538 700 569 688T624 654T660 602T673 535Q673 475 644 431T552 361Q604 348 632 312T661 222Q661 168 638 127T575 58T484 15T375 0H10L133 700ZM385 165Q412 165 431 181T450 227Q450 247
438 260T400 274H271L252 165H385ZM391 431Q418 431 435 447T453 490Q453 509 442 522T407 535H317L299 431H391Z" />
<glyph unicode="C" glyph-name="C" horiz-adv-x="707" d="M349 -14Q279 -14 222 6T123 64T60 154T37 270Q37 301 43 336L58 420Q85 573 165 643T386 714Q452 714 507 696T604 643T670 554T697 428H491Q490 448 485 466T467 499T436 523T389 532Q338 532 312 501T275
409L258 313Q255 292 255 277Q255 229 280 199T360 168Q385 168 404 177T436 202T457 235T470 272H674Q665 209 639 157T570 66T472 7T349 -14Z" />
<glyph unicode="D" glyph-name="D" horiz-adv-x="721" d="M348 176Q403 176 433 198T472 273L496 409Q498 416 498 424T499 438Q499 480 474 502T404 524H320L259 176H348ZM133 700H474Q529 700 574 684T652 639T703 567T721 471Q721 457 720 443T716 413L689
261Q666 130 587 65T355 0H10L133 700Z" />
<glyph unicode="E" glyph-name="E" horiz-adv-x="619" d="M133 700H662L630 520H320L307 444H588L555 264H275L261 180H571L540 0H10L133 700Z" />
<glyph unicode="F" glyph-name="F" horiz-adv-x="589" d="M133 700H643L612 518H320L303 421H565L533 239H271L229 0H10L133 700Z" />
<glyph unicode="G" glyph-name="G" horiz-adv-x="744" d="M474 60Q450 26 404 6T303 -14Q229 -14 174 10T86 77T40 181T41 315L61 428Q87 573 175 643T403 714Q464 714 519 699T616 652T683 571T713 452H506Q498 490 471 511T398 532Q298 532 277 415L256 295Q244
225 267 187T357 148Q403 148 430 170T468 223H361L390 388H711L642 0H463L474 60Z" />
<glyph unicode="H" glyph-name="H" horiz-adv-x="728" d="M133 700H352L307 451H488L532 700H751L628 0H409L453 251H273L229 0H10L133 700Z" />
<glyph unicode="I" glyph-name="I" horiz-adv-x="333" d="M135 700H354L231 0H12L135 700Z" />
<glyph unicode="J" glyph-name="J" horiz-adv-x="626" d="M272 -14Q217 -14 171 1T90 44T37 110T18 196Q18 207 19 218T23 242H231Q230 237 230 233T229 223Q229 199 242 184T284 168Q315 168 330 187T351 234L433 700H652L568 222Q559 169 536 126T476 51T388
3T272 -14Z" />
<glyph unicode="K" glyph-name="K" horiz-adv-x="690" d="M133 700H352L297 385L494 700H755L518 340L638 0H384L286 325L229 0H10L133 700Z" />
<glyph unicode="L" glyph-name="L" horiz-adv-x="583" d="M133 700H352L261 182H545L513 0H10L133 700Z" />
<glyph unicode="M" glyph-name="M" horiz-adv-x="833" d="M132 700H333L437 360L652 700H856L733 0H525L573 273L486 147H316L269 283L219 0H11L132 700Z" />
<glyph unicode="N" glyph-name="N" horiz-adv-x="733" d="M133 700H341L485 375L542 700H756L633 0H425L281 325L224 0H10L133 700Z" />
<glyph unicode="O" glyph-name="O" horiz-adv-x="729" d="M360 168Q414 168 441 203T480 296L496 386Q498 395 499 405T500 424Q500 475 473 503T392 532Q338 532 312 501T274 409L259 323Q257 315 256 302T254 278Q254 228 278 198T360 168ZM354 -14Q283 -14
225 7T125 66T60 158T37 275Q37 307 43 340L58 425Q84 572 169 643T402 714Q468 714 525 695T625 640T692 551T717 431Q717 417 715 397T711 363L697 284Q685 217 657 162T586 68T484 8T354 -14Z" />
<glyph unicode="P" glyph-name="P" horiz-adv-x="672" d="M133 700H450Q505 700 550 683T628 636T677 564T695 472Q695 403 672 349T606 257T502 200T363 180H261L229 0H10L133 700ZM381 360Q422 360 448 384T475 450Q475 478 459 499T408 520H321L293 360H381Z" />
<glyph unicode="Q" glyph-name="Q" horiz-adv-x="729" d="M313 -130Q293 -102 274 -68T239 2Q192 16 155 41T92 102T51 181T37 275Q37 307 43 340L58 425Q84 572 169 643T402 714Q468 714 525 695T625 640T692 551T717 431Q717 417 715 397T711 363L697 284Q678
178 620 105T468 2Q482 -30 500 -61T542 -130H313ZM360 168Q414 168 441 203T480 296L496 386Q498 395 499 405T500 424Q500 475 473 503T392 532Q338 532 312 501T274 409L259 323Q257 315 256 302T254 278Q254 228 278 198T360 168Z" />
<glyph unicode="R" glyph-name="R" horiz-adv-x="717" d="M330 184H260L229 0H10L133 700H485Q537 700 579 683T652 635T698 562T715 471Q715 382 674 316T555 216L654 0H405L330 184ZM401 357Q442 357 468 383T495 452Q495 482 477 503T424 525H321L291 357H401Z" />
<glyph unicode="S" glyph-name="S" horiz-adv-x="647" d="M297 -14Q170 -14 99 38T28 183Q28 208 33 230H239Q236 219 236 209Q236 183 256 168T319 152Q335 152 350 155T377 166T396 185T403 212Q403 225 396 234T375 247L244 277Q163 296 121 338T78 453Q78
578 156 646T375 714Q426 714 472 702T554 667T611 608T632 526Q632 506 627 481H425Q427 491 427 500Q427 522 413 535T366 548Q341 548 320 539T299 501Q299 487 305 480T322 471L468 435Q622 397 622 259Q622 194 597 144T528 58T425 5T297 -14Z" />
<glyph unicode="T" glyph-name="T" horiz-adv-x="611" d="M242 516H67L100 700H667L634 516H461L370 0H151L242 516Z" />
<glyph unicode="U" glyph-name="U" horiz-adv-x="721" d="M333 -14Q275 -14 223 4T132 54T71 130T48 229Q48 238 49 249T52 272L127 700H346L271 273Q269 263 269 253Q269 215 291 193T352 170Q396 170 421 195T454 266L531 700H750L674 271Q651 138 567 62T333 -14Z" />
<glyph unicode="V" glyph-name="V" horiz-adv-x="691" d="M85 700H316L344 251L525 700H761L423 0H180L85 700Z" />
<glyph unicode="W" glyph-name="W" horiz-adv-x="1008" d="M91 700H315L312 314L474 700H684L718 314L847 700H1073L782 0H570L534 425L349 0H137L91 700Z" />
<glyph unicode="X" glyph-name="X" horiz-adv-x="691" d="M256 370L110 700H329L397 527L517 700H753L483 351L639 0H421L338 187L199 0H-37L256 370Z" />
<glyph unicode="Y" glyph-name="Y" horiz-adv-x="664" d="M216 242L70 700H307L361 442L499 700H743L431 220L393 0H174L216 242Z" />
<glyph unicode="Z" glyph-name="Z" horiz-adv-x="638" d="M32 182L367 518H103L135 700H668L636 518L300 182H584L552 0H0L32 182Z" />
<glyph unicode="[" glyph-name="bracketleft" horiz-adv-x="395" d="M144 782H469L438 606H326L226 42H338L308 -134H-19L144 782Z" />
<glyph unicode="\" glyph-name="backslash" horiz-adv-x="527" d="M112 750H316L447 -105H243L112 750Z" />
<glyph unicode="]" glyph-name="bracketright" horiz-adv-x="394" d="M275 -134H-50L-19 42H93L193 606H81L111 782H438L275 -134Z" />
<glyph unicode="^" glyph-name="asciicircum" horiz-adv-x="584" d="M581 410H377L338 527L265 410H47L270 700H460L581 410Z" />
<glyph unicode="_" glyph-name="underscore" horiz-adv-x="543" d="M-26 -48H520L501 -152H-45L-26 -48Z" />
<glyph unicode="`" glyph-name="grave" horiz-adv-x="412" d="M221 573Q194 612 172 653T133 742H391Q397 663 422 573H221Z" />
<glyph unicode="a" glyph-name="a" horiz-adv-x="607" d="M167 -12Q88 -12 47 24T6 123Q6 172 22 207T67 265T138 299T232 310Q271 310 304 303T358 284L367 335Q371 356 360 369T325 382Q284 382 268 354H74Q106 448 178 495T356 542Q414 542 459 526T534 481T576
411T579 321L523 0H318L326 50Q316 36 299 25T261 6T216 -7T167 -12ZM265 110Q294 110 313 124T336 160L342 194Q332 199 318 203T282 207Q253 207 233 196T212 152Q212 131 226 121T265 110Z" />
<glyph unicode="b" glyph-name="b" horiz-adv-x="619" d="M348 -12Q327 -12 307 -8T269 5T237 23T214 45L205 0H0L129 730H343L301 493Q321 515 353 528T423 542Q513 542 559 490T606 352Q606 339 605 325T600 290L585 205Q566 99 506 44T348 -12ZM255 233Q254
228 254 224T253 215Q253 190 266 174T309 157Q338 157 353 174T375 227L388 301Q389 306 389 309T389 317Q389 341 375 357T332 373Q302 373 288 355T268 306L255 233Z" />
<glyph unicode="c" glyph-name="c" horiz-adv-x="573" d="M277 -12Q222 -12 176 3T95 48T41 119T21 212Q21 238 25 261L36 323Q55 427 123 484T307 542Q360 542 406 529T486 489T539 417T560 311H368Q368 336 354 354T311 373Q281 373 267 356T247 306L233 228Q231
218 231 211Q231 185 247 171T288 157Q304 157 315 163T334 178T346 198T352 219H545Q538 165 516 123T459 50T378 4T277 -12Z" />
<glyph unicode="d" glyph-name="d" horiz-adv-x="616" d="M271 542Q316 542 347 528T399 492L441 730H655L526 0H323L330 45Q314 20 277 4T197 -12Q110 -12 63 40T16 179Q16 193 17 208T21 239L36 324Q54 428 112 485T271 542ZM366 301Q367 306 367 310T368 319Q368
345 353 359T312 373Q282 373 267 355T246 301L234 233Q233 228 233 224T232 214Q232 187 246 172T290 157Q318 157 333 177T353 227L366 301Z" />
<glyph unicode="e" glyph-name="e" horiz-adv-x="560" d="M263 -12Q200 -12 154 5T79 51T35 121T20 208Q20 220 21 231T24 255L35 318Q55 429 121 485T309 542Q366 542 410 527T483 484T528 418T544 333Q544 322 543 310T539 283L527 214H225L221 191Q216 165
228 146T273 127Q296 127 309 138T327 163H514Q505 129 485 98T433 42T359 3T263 -12ZM243 318H349L353 342Q354 347 354 350T354 355Q354 377 342 388T306 400Q257 400 247 342L243 318Z" />
<glyph unicode="f" glyph-name="f" horiz-adv-x="363" d="M86 372H35L63 530H114L123 579Q131 622 145 652T181 702T234 731T310 740Q347 740 380 734T438 719L416 588Q411 590 399 592T374 595Q353 595 345 586T333 559L328 530H395L367 372H300L235 0H21L86 372Z" />
<glyph unicode="g" glyph-name="g" horiz-adv-x="613" d="M255 -166Q203 -166 158 -156T77 -126T17 -75T-18 -5H185Q190 -21 205 -30T247 -39Q273 -39 290 -24T312 18L323 80Q310 62 280 49T215 36Q174 36 139 47T78 82T37 139T22 221Q22 232 23 243T26 267L38
335Q56 438 111 490T269 542Q318 542 351 525T405 485L413 530H617L528 27Q519 -21 495 -57T434 -117T352 -154T255 -166ZM287 173Q318 173 332 191T351 241L364 317Q365 322 365 326T366 335Q366 359 352 374T308 390Q280 390 266 373T246 324L233 247Q232 242
232 238T231 229Q231 203 246 188T287 173Z" />
<glyph unicode="h" glyph-name="h" horiz-adv-x="604" d="M128 730H342L301 493Q320 516 353 529T426 542Q503 542 543 500T583 387Q583 375 582 362T579 340L519 0H305L360 312Q364 335 353 348T322 361Q302 361 289 352T270 317L214 0H0L128 730Z" />
<glyph unicode="i" glyph-name="i" horiz-adv-x="304" d="M93 527Q116 515 147 509T210 503Q237 503 262 508T306 524L214 0H0L93 527ZM107 651Q107 702 139 732T227 763Q248 763 268 756T303 735T327 703T336 661Q336 612 304 581T214 549Q192 549 173 556T139
577T116 609T107 651Z" />
<glyph unicode="j" glyph-name="j" horiz-adv-x="304" d="M209 -27Q196 -99 156 -132T45 -166Q13 -166 -21 -162T-85 -148L-63 -22Q-50 -28 -32 -28Q-6 -28 -1 -5L93 527Q116 515 147 509T210 503Q237 503 262 508T306 524L209 -27ZM107 651Q107 702 139 732T227
763Q248 763 268 756T303 735T327 703T336 661Q336 612 304 581T214 549Q192 549 173 556T139 577T116 609T107 651Z" />
<glyph unicode="k" glyph-name="k" horiz-adv-x="587" d="M130 730H344L267 295L386 530H627L467 249L534 0H308L258 244L215 0H1L130 730Z" />
<glyph unicode="l" glyph-name="l" horiz-adv-x="304" d="M128 730H342L214 0H0L128 730Z" />
<glyph unicode="m" glyph-name="m" horiz-adv-x="897" d="M513 0H299L354 312Q358 335 347 348T316 361Q277 361 270 317L214 0H0L93 530H298L289 480Q309 508 343 525T420 542Q467 542 500 526T552 479Q579 505 620 523T719 542Q796 542 836 500T876 387Q876
375 875 362T872 340L812 0H598L653 312Q657 335 646 348T615 361Q576 361 569 317L513 0Z" />
<glyph unicode="n" glyph-name="n" horiz-adv-x="604" d="M93 530H298L289 480Q310 510 345 526T426 542Q503 542 543 500T583 387Q583 375 582 362T579 340L519 0H305L360 312Q364 335 353 348T322 361Q302 361 289 352T270 317L214 0H0L93 530Z" />
<glyph unicode="o" glyph-name="o" horiz-adv-x="577" d="M279 157Q305 157 319 172T337 210L353 301Q355 311 355 319Q355 345 340 359T298 373Q251 373 242 317L225 221Q224 216 224 213T224 208Q224 185 238 171T279 157ZM275 -12Q221 -12 174 3T93 48T40 119T20
212Q20 225 21 236T25 261L37 329Q56 436 124 489T298 542Q349 542 396 529T479 487T538 417T560 317Q560 306 559 292T555 266L544 204Q526 104 457 46T275 -12Z" />
<glyph unicode="p" glyph-name="p" horiz-adv-x="616" d="M348 -12Q303 -12 271 1T220 38L186 -154H-28L93 530H296L289 485Q305 510 342 526T422 542Q509 542 556 490T603 351Q603 337 602 322T598 291L583 206Q565 102 507 45T348 -12ZM253 229Q252 224 252
220T251 211Q251 185 266 171T307 157Q337 157 352 175T373 229L385 297Q386 302 386 306T387 316Q387 343 373 358T329 373Q301 373 286 353T266 303L253 229Z" />
<glyph unicode="q" glyph-name="q" horiz-adv-x="617" d="M273 542Q294 542 314 538T352 525T384 507T407 485L416 530H621L500 -154H286L320 37Q300 15 268 2T198 -12Q108 -12 62 40T15 178Q15 191 16 205T21 240L36 325Q55 431 115 486T273 542ZM366 297Q367
302 367 306T368 315Q368 340 355 356T312 373Q283 373 268 356T246 303L233 229Q232 224 232 221T232 213Q232 189 246 173T289 157Q319 157 333 175T353 224L366 297Z" />
<glyph unicode="r" glyph-name="r" horiz-adv-x="391" d="M93 530H296L281 445Q308 535 396 535Q415 535 425 531L388 323Q376 326 354 326Q309 326 287 305T255 233L214 0H0L93 530Z" />
<glyph unicode="s" glyph-name="s" horiz-adv-x="526" d="M229 -12Q188 -12 148 -4T75 21T23 65T2 131Q2 139 3 147T6 163H194Q191 143 204 133T244 122Q264 122 280 130T296 156Q296 163 293 168T278 175L155 201Q100 212 68 245T36 336Q36 389 55 427T109 491T191
529T293 542Q334 542 374 535T445 510T496 464T516 393Q516 385 516 378T514 365H326Q328 371 328 378Q328 394 317 401T288 408Q273 408 260 402T247 378Q247 360 266 356L393 327Q449 315 477 280T506 196Q506 146 485 107T427 42T339 2T229 -12Z" />
<glyph unicode="t" glyph-name="t" horiz-adv-x="391" d="M36 372L64 530H122L147 672H361L336 530H419L391 372H308L274 182Q268 146 305 146Q317 146 328 148T347 152L322 8Q314 5 300 2T269 -5T234 -10T200 -12Q115 -12 78 29T54 146L94 372H36Z" />
<glyph unicode="u" glyph-name="u" horiz-adv-x="601" d="M511 0H306L315 50Q298 24 261 6T178 -12Q103 -12 64 33T25 149Q25 161 26 173T30 199L89 530H303L246 210Q242 190 252 176T284 161Q304 161 316 173T332 204L390 530H604L511 0Z" />
<glyph unicode="v" glyph-name="v" horiz-adv-x="542" d="M45 530H255L265 227L372 530H592L334 0H120L45 530Z" />
<glyph unicode="w" glyph-name="w" horiz-adv-x="831" d="M56 530H261L253 266L372 530H553L582 266L665 530H872L647 0H455L418 259L288 0H95L56 530Z" />
<glyph unicode="x" glyph-name="x" horiz-adv-x="585" d="M192 270L63 530H275L323 417L409 530H636L405 255L535 0H321L272 109L191 0H-39L192 270Z" />
<glyph unicode="y" glyph-name="y" horiz-adv-x="540" d="M333 0Q313 -39 294 -70T252 -122T198 -155T124 -166Q95 -166 65 -162T13 -148L37 -13Q46 -19 60 -22T86 -26Q101 -26 108 -22T121 -7L126 2L44 530H255L264 217L383 530H594L333 0Z" />
<glyph unicode="z" glyph-name="z" horiz-adv-x="521" d="M16 147L252 372H64L92 530H535L509 382L273 158H477L450 0H-9L16 147Z" />
<glyph unicode="{" glyph-name="braceleft" horiz-adv-x="428" d="M264 -134Q72 -134 72 23Q72 49 78 84L94 176Q95 181 95 185T96 193Q96 219 79 227T34 236H7L38 412H77Q107 412 123 424T146 471L165 581Q175 636 191 674T235 737T307 771T413 782H512L481 606H441Q411
606 396 598T375 556L357 450Q347 390 312 361T228 326Q267 320 290 293T314 223Q314 208 311 193L295 103Q294 98 294 94T293 84Q293 61 306 52T342 42H382L351 -134H264Z" />
<glyph unicode="|" glyph-name="bar" horiz-adv-x="350" d="M181 800H361L194 -150H14L181 800Z" />
<glyph unicode="}" glyph-name="braceright" horiz-adv-x="428" d="M191 782Q383 782 383 625Q383 598 377 564L361 472Q360 467 360 463T359 455Q359 429 376 421T421 412H448L417 236H378Q348 236 332 224T309 177L290 67Q280 11 264 -27T220 -89T148 -123T42
-134H-57L-26 42H14Q29 42 40 43T59 50T72 65T80 92L98 198Q108 258 143 287T227 322Q188 328 165 355T141 425Q141 440 144 455L160 545Q161 550 161 554T162 564Q162 587 149 596T113 606H73L104 782H191Z" />
<glyph unicode="~" glyph-name="asciitilde" horiz-adv-x="679" d="M47 276Q64 331 82 373T124 444T181 486T261 501Q286 501 311 494T360 477T403 460T437 452Q458 452 467 467T483 499L667 439Q654 394 638 355T600 288T547 244T477 228Q451 228 425 235T375
252T329 269T289 277Q263 277 253 263T232 219L47 276Z" />
<glyph unicode="&#xa0;" glyph-name="uni00A0" horiz-adv-x="220" />
<glyph unicode="&#xa1;" glyph-name="exclamdown" horiz-adv-x="338" d="M253 0H5L132 456Q145 452 164 449T205 446T248 448T286 455L253 0ZM340 608Q340 585 332 564T308 527T271 502T222 492Q201 492 184 499T153 520T132 551T124 590Q124 612 132 633T155
670T192 697T242 708Q284 708 312 680T340 608Z" />
<glyph unicode="&#xa2;" glyph-name="cent" horiz-adv-x="592" d="M62 392Q71 446 94 485T153 551T232 590T327 605L344 700H400L382 601Q419 596 451 582T508 544T549 486T569 408H406Q401 426 390 441T358 463L318 233Q347 240 362 257T386 292H549Q540 246
516 210T457 149T380 110T293 95L277 0H221L238 98Q199 103 165 117T104 155T63 212T47 287Q47 297 48 307T51 328L62 392ZM220 296Q220 275 231 259T262 236L303 467Q274 462 258 445T236 400L221 311Q220 307 220 303T220 296Z" />
<glyph unicode="&#xa3;" glyph-name="sterling" horiz-adv-x="668" d="M29 161H134L151 260H62L88 407H177L196 518Q214 619 279 666T454 714Q494 714 535 704T611 671T666 615T688 534Q688 515 685 499L681 476H485L488 493Q492 516 481 527T450 538Q413 538
407 501L392 407H541L516 260H365L348 161H578L549 0H0L29 161Z" />
<glyph unicode="&#xa4;" glyph-name="currency" horiz-adv-x="636" d="M340 132Q332 131 324 131T308 131Q295 131 282 132T257 136L219 84H1L117 236Q102 266 102 305Q102 323 105 341L112 380Q122 437 154 478L96 607H307L325 558Q332 559 344 559T367 560Q378
560 388 559T410 556L447 607H663L545 460Q565 425 565 383Q565 378 565 369T562 353L555 312Q545 256 509 214L565 84H358L340 132ZM286 329Q285 324 285 322T285 318Q285 300 296 289T327 277Q344 277 356 288T373 318L382 368Q385 387 374 401T340 415Q319 415
308 403T293 369L286 329Z" />
<glyph unicode="&#xa5;" glyph-name="yen" horiz-adv-x="638" d="M95 456H159L108 700H338L351 441L455 700H686L548 456H613L585 300H461L434 252H577L549 96H398L381 0H167L184 96H31L59 252H202L192 300H67L95 456Z" />
<glyph unicode="&#xa6;" glyph-name="brokenbar" horiz-adv-x="350" d="M84 240H262L193 -150H15L84 240ZM182 800H360L292 410H114L182 800Z" />
<glyph unicode="&#xa7;" glyph-name="section" horiz-adv-x="624" d="M255 -146Q216 -146 174 -138T98 -111T41 -61T18 17Q18 25 18 32T21 49L22 55H208L207 49Q203 26 218 13T264 -1Q276 -1 288 1T310 9T327 23T334 46Q334 65 305 72L147 111Q101 122 69 153T37
240Q37 300 66 341T137 407Q108 442 108 497Q108 551 128 591T184 659T269 700T375 714Q415 714 457 707T533 681T590 632T612 556Q612 539 609 523L607 511H422L424 523Q428 548 409 558T365 569Q342 569 325 561T307 529Q307 507 331 501L475 464Q536 448 568
413T600 327Q600 229 512 153Q533 121 533 80Q533 27 511 -15T450 -86T362 -130T255 -146ZM361 238Q367 236 374 235T386 231Q394 240 399 251T405 276Q405 302 378 308L258 337Q251 330 244 320T237 295Q237 281 245 273T267 261L361 238Z" />
<glyph unicode="&#xa8;" glyph-name="dieresis" horiz-adv-x="520" d="M121 652Q121 696 150 724T227 753Q245 753 261 747T289 731T309 705T317 671Q317 630 288 601T208 571Q173 571 147 592T121 652ZM355 652Q355 696 384 724T461 753Q479 753 495 747T523
731T543 705T551 671Q551 630 522 601T442 571Q407 571 381 592T355 652Z" />
<glyph unicode="&#xa9;" glyph-name="copyright" horiz-adv-x="792" d="M416 712Q498 712 565 683T681 605T755 489T782 350Q782 276 756 211T681 96T566 17T416 -12Q334 -12 267 17T151 95T77 210T50 350Q50 423 76 489T151 604T266 683T416 712ZM416 15Q493
15 555 43T660 117T727 224T751 350Q751 415 728 475T661 582T555 657T416 685Q339 685 277 657T172 583T105 476T81 350Q81 285 104 225T171 118T277 43T416 15ZM487 392Q483 417 468 435T419 453Q381 453 366 430T351 375V325Q351 293 366 270T419 247Q453 247
468 265T487 308H573Q571 279 560 254T528 209T480 180T419 169Q378 169 348 182T298 216T269 266T259 326V374Q259 405 268 433T298 483T348 518T419 531Q452 531 480 520T528 491T559 447T573 392H487Z" />
<glyph unicode="&#xaa;" glyph-name="ordfeminine" horiz-adv-x="421" d="M49 312H397L375 187H27L49 312ZM170 351Q111 351 85 382T67 464Q76 518 114 540T218 562Q239 562 259 558T292 545L297 573Q299 587 292 596T268 605Q246 605 236 588H109Q128 649 176
680T291 712Q330 712 360 701T409 670T435 623T437 562L402 359H265L270 390Q257 374 229 363T170 351ZM234 432Q272 432 278 465L282 488Q268 495 246 495Q229 495 217 490T202 468Q199 451 208 442T234 432Z" />
<glyph unicode="&#xab;" glyph-name="guillemotleft" horiz-adv-x="745" d="M10 281L192 502H448L264 265L370 60H121L10 281ZM332 281L514 502H770L586 265L692 60H443L332 281Z" />
<glyph unicode="&#xac;" glyph-name="logicalnot" horiz-adv-x="572" d="M322 269H42L74 451H556L496 108H294L322 269Z" />
<glyph unicode="&#xae;" glyph-name="registered" horiz-adv-x="320" d="M220 443Q189 443 164 454T121 483T93 525T83 576Q83 602 93 626T121 668T164 697T220 708Q251 708 276 697T319 668T347 626T357 576Q357 549 347 525T319 483T276 454T220 443ZM220 461Q247
461 268 470T305 495T328 531T337 576Q337 599 329 620T305 656T269 681T220 690Q193 690 172 681T135 657T111 620T103 576Q103 552 111 532T134 495T171 470T220 461ZM221 556H206V519H175V639H228Q249 639 260 627T271 597Q271 572 252 561L274 519H239L221
556ZM223 581Q241 581 241 597Q241 614 223 614H206V581H223Z" />
<glyph unicode="&#xaf;" glyph-name="macron" horiz-adv-x="474" d="M127 734H511L483 578H99L127 734Z" />
<glyph unicode="&#xb0;" glyph-name="degree" horiz-adv-x="406" d="M249 622Q217 622 196 602T175 545Q175 516 192 497T238 478Q271 478 291 502T312 558Q312 584 295 603T249 622ZM231 390Q199 390 171 401T121 431T88 478T75 538Q75 573 87 604T123 659T179
696T253 710Q284 710 312 699T363 668T398 621T411 561Q411 525 397 494T359 440T302 404T231 390Z" />
<glyph unicode="&#xb1;" glyph-name="plusminus" horiz-adv-x="593" d="M37 168H179L197 268H56L88 451H229L257 612H460L432 451H571L539 268H400L382 168H519L490 0H8L37 168Z" />
<glyph unicode="&#xb2;" glyph-name="twosuperior" horiz-adv-x="418" d="M101 559L279 678Q293 688 301 695T309 712Q309 729 289 729Q280 729 274 725T265 710L264 704H131L133 716Q144 785 189 816T302 847Q332 847 360 839T409 816T443 778T456 725Q456 672
427 642T342 585L309 569H429L408 453H83L101 559Z" />
<glyph unicode="&#xb3;" glyph-name="threesuperior" horiz-adv-x="411" d="M275 690Q293 690 303 698T314 724Q314 735 307 741T288 748Q260 748 254 719H133Q144 783 188 815T302 847Q333 847 359 840T404 820T435 786T446 739Q446 706 430 681T379 644Q402
637 416 619T431 573Q431 540 417 516T378 475T323 451T258 443Q220 443 189 452T137 478T107 520T103 577H227Q226 561 234 552T261 542Q277 542 287 550T297 575Q297 586 291 593T271 600H218L234 690H275Z" />
<glyph unicode="&#xb4;" glyph-name="acute" horiz-adv-x="412" d="M119 573Q132 595 142 615T162 655T180 696T198 742H462Q430 691 394 648T322 573H119Z" />
<glyph unicode="&#xb5;" glyph-name="mu" horiz-adv-x="606" d="M516 0H311L320 50Q306 29 277 12T212 -10L184 -174H-31L94 530H308L251 210Q247 190 257 176T289 161Q309 161 321 173T337 204L395 530H609L516 0Z" />
<glyph unicode="&#xb6;" glyph-name="paragraph" horiz-adv-x="616" d="M480 573H399L319 122Q257 123 209 141T126 191T73 269T55 370Q55 450 81 511T154 615T270 678T422 700H644L490 -174H348L480 573Z" />
<glyph unicode="&#xb7;" glyph-name="periodcentered" horiz-adv-x="296" d="M49 324Q49 349 58 371T83 411T123 438T175 448Q219 448 249 419T279 344Q279 321 271 299T246 258T207 229T153 218Q131 218 112 226T79 248T57 282T49 324Z" />
<glyph unicode="&#xb8;" glyph-name="cedilla" horiz-adv-x="301" d="M77 -186Q55 -186 31 -184T-11 -178L1 -113Q16 -116 35 -116Q49 -116 57 -113T66 -98Q66 -84 43 -82L20 -80L51 0H126L118 -30L136 -31Q174 -33 194 -50T215 -98Q215 -123 204 -139T173 -166T128
-181T77 -186Z" />
<glyph unicode="&#xb9;" glyph-name="onesuperior" horiz-adv-x="331" d="M195 693Q178 688 152 683T107 674L129 795Q165 801 201 811T268 837H367L299 453H152L195 693Z" />
<glyph unicode="&#xba;" glyph-name="ordmasculine" horiz-adv-x="418" d="M250 461Q267 461 277 471T291 499L301 556Q305 576 295 588T265 601Q248 601 238 592T224 562L214 505Q211 487 220 474T250 461ZM249 350Q213 350 182 360T129 390T93 437T80 498Q80
511 83 528L91 575Q103 644 149 678T269 712Q305 712 335 702T388 672T424 627T437 568Q437 552 434 539L425 488Q414 424 367 387T249 350ZM53 312H385L363 187H31L53 312Z" />
<glyph unicode="&#xbb;" glyph-name="guillemotright" horiz-adv-x="745" d="M167 297L61 502H311L422 282L240 60H-17L167 297ZM490 297L384 502H634L745 282L563 60H306L490 297Z" />
<glyph unicode="&#xbc;" glyph-name="onequarter" horiz-adv-x="869" d="M599 700H752L271 0H118L599 700ZM181 556Q164 551 138 546T93 537L115 658Q151 664 187 674T254 700H353L285 316H138L181 556ZM627 61H436L454 161L655 384H807L769 165H816L797 61H750L740
0H617L627 61ZM646 165L667 284L563 165H646Z" />
<glyph unicode="&#xbd;" glyph-name="onehalf" horiz-adv-x="881" d="M483 106L661 225Q675 235 683 242T691 259Q691 276 671 276Q662 276 656 272T647 257L646 251H513L515 263Q526 332 571 363T684 394Q714 394 742 386T791 363T825 325T838 272Q838 219 809
189T724 132L691 116H811L790 0H465L483 106ZM596 700H749L268 0H115L596 700ZM181 556Q164 551 138 546T93 537L115 658Q151 664 187 674T254 700H353L285 316H138L181 556Z" />
<glyph unicode="&#xbe;" glyph-name="threequarters" horiz-adv-x="910" d="M638 700H791L310 0H157L638 700ZM666 61H475L493 161L694 384H846L808 165H855L836 61H789L779 0H656L666 61ZM685 165L706 284L602 165H685ZM227 553Q245 553 255 561T266 587Q266
598 259 604T240 611Q212 611 206 582H85Q96 646 140 678T254 710Q285 710 311 703T356 683T387 649T398 602Q398 569 382 544T331 507Q354 500 368 482T383 436Q383 403 369 379T330 338T275 314T210 306Q172 306 141 315T89 341T59 383T55 440H179Q178 424 186
415T213 405Q229 405 239 413T249 438Q249 449 243 456T223 463H170L186 553H227Z" />
<glyph unicode="&#xbf;" glyph-name="questiondown" horiz-adv-x="543" d="M401 416Q390 358 371 317T304 251L255 226Q238 218 226 209T214 184Q214 170 228 164T259 158Q291 158 305 168T324 205H520Q507 89 436 38T245 -14Q202 -14 159 -4T80 28T22 84T-1 168Q-1
220 21 259T96 330L159 367Q185 382 198 396T217 440L221 464Q263 450 314 450T410 464L401 416ZM437 608Q437 585 429 564T405 527T368 502T319 492Q298 492 281 499T250 520T229 551T221 590Q221 612 229 633T252 670T289 697T339 708Q381 708 409 680T437 608Z"
/>
<glyph unicode="&#xc0;" glyph-name="Agrave" horiz-adv-x="733" d="M330 700H554L680 0H466L455 106H242L197 0H-33L330 700ZM317 279H437L414 503L317 279ZM338 742Q327 758 315 778T292 820T271 863T256 901H506Q511 860 520 822T542 742H338Z" />
<glyph unicode="&#xc1;" glyph-name="Aacute" horiz-adv-x="733" d="M330 700H554L680 0H466L455 106H242L197 0H-33L330 700ZM317 279H437L414 503L317 279ZM343 742Q367 781 387 818T427 901H697Q682 880 665 858T628 814T591 774T556 742H343Z" />
<glyph unicode="&#xc2;" glyph-name="Acircumflex" horiz-adv-x="733" d="M330 700H554L680 0H466L455 106H242L197 0H-33L330 700ZM317 279H437L414 503L317 279ZM683 742H485L463 788L425 742H225L370 901H594L683 742Z" />
<glyph unicode="&#xc3;" glyph-name="Atilde" horiz-adv-x="733" d="M330 700H554L680 0H466L455 106H242L197 0H-33L330 700ZM317 279H437L414 503L317 279ZM183 772Q191 808 202 835T232 882T278 910T346 920Q371 920 398 916T449 906T493 897T523 892Q541 892
547 901T557 925L708 882Q701 850 691 824T663 779T619 750T555 739Q528 739 500 743T448 752T403 762T371 766Q354 766 347 756T335 732L183 772Z" />
<glyph unicode="&#xc4;" glyph-name="Adieresis" horiz-adv-x="733" d="M330 700H554L680 0H466L455 106H242L197 0H-33L330 700ZM317 279H437L414 503L317 279ZM240 819Q240 864 268 892T348 920Q366 920 382 914T411 898T432 872T440 838Q440 819 433 801T412
769T378 747T329 738Q291 738 266 759T240 819ZM487 819Q487 864 515 892T595 920Q613 920 629 914T658 898T679 872T687 838Q687 819 680 801T659 769T625 747T576 738Q538 738 513 759T487 819Z" />
<glyph unicode="&#xc5;" glyph-name="Aring" horiz-adv-x="733" d="M327 694Q318 712 318 734Q318 791 358 821T465 851Q488 851 510 845T549 827T578 797T589 754Q589 730 581 711T558 676L680 0H466L455 106H242L197 0H-33L327 694ZM317 279H437L414 503L317
279ZM405 739Q405 722 417 711T451 700Q477 700 490 715T503 749Q503 766 491 776T459 786Q436 786 421 774T405 739Z" />
<glyph unicode="&#xc6;" glyph-name="AE" horiz-adv-x="1112" d="M521 104H265L183 0H-52L529 700H1155L1123 520H813L800 444H1081L1048 264H768L754 180H1064L1033 0H503L521 104ZM552 279L595 523L402 279H552Z" />
<glyph unicode="&#xc7;" glyph-name="Ccedilla" horiz-adv-x="707" d="M296 -186Q274 -186 250 -184T208 -178L220 -113Q235 -116 254 -116Q268 -116 276 -113T285 -98Q285 -84 262 -82L239 -80L267 -6Q214 4 172 28T99 89T53 170T37 270Q37 301 43 336L58 420Q85
573 165 643T386 714Q452 714 507 696T604 643T670 554T697 428H491Q490 448 485 466T467 499T436 523T389 532Q338 532 312 501T275 409L258 313Q255 292 255 277Q255 229 280 199T360 168Q385 168 404 177T436 202T457 235T470 272H674Q665 209 639 157T570 66T472
7T349 -14H341L337 -30L355 -31Q393 -33 413 -50T434 -98Q434 -123 423 -139T392 -166T347 -181T296 -186Z" />
<glyph unicode="&#xc8;" glyph-name="Egrave" horiz-adv-x="619" d="M133 700H662L630 520H320L307 444H588L555 264H275L261 180H571L540 0H10L133 700ZM311 742Q300 758 288 778T265 820T244 863T229 901H479Q484 860 493 822T515 742H311Z" />
<glyph unicode="&#xc9;" glyph-name="Eacute" horiz-adv-x="619" d="M133 700H662L630 520H320L307 444H588L555 264H275L261 180H571L540 0H10L133 700ZM280 742Q304 781 324 818T364 901H634Q619 880 602 858T565 814T528 774T493 742H280Z" />
<glyph unicode="&#xca;" glyph-name="Ecircumflex" horiz-adv-x="619" d="M133 700H662L630 520H320L307 444H588L555 264H275L261 180H571L540 0H10L133 700ZM636 742H438L416 788L378 742H178L323 901H547L636 742Z" />
<glyph unicode="&#xcb;" glyph-name="Edieresis" horiz-adv-x="619" d="M133 700H662L630 520H320L307 444H588L555 264H275L261 180H571L540 0H10L133 700ZM200 819Q200 864 228 892T308 920Q326 920 342 914T371 898T392 872T400 838Q400 819 393 801T372 769T338
747T289 738Q251 738 226 759T200 819ZM447 819Q447 864 475 892T555 920Q573 920 589 914T618 898T639 872T647 838Q647 819 640 801T619 769T585 747T536 738Q498 738 473 759T447 819Z" />
<glyph unicode="&#xcc;" glyph-name="Igrave" horiz-adv-x="333" d="M135 700H354L231 0H12L135 700ZM402 742Q391 758 379 778T356 820T335 863T320 901H570Q575 860 584 822T606 742H402Z" />
<glyph unicode="&#xcd;" glyph-name="Iacute" horiz-adv-x="333" d="M135 700H354L231 0H12L135 700ZM403 742Q427 781 447 818T487 901H757Q742 880 725 858T688 814T651 774T616 742H403Z" />
<glyph unicode="&#xce;" glyph-name="Icircumflex" horiz-adv-x="333" d="M135 700H354L231 0H12L135 700ZM736 742H538L516 788L478 742H278L423 901H647L736 742Z" />
<glyph unicode="&#xcf;" glyph-name="Idieresis" horiz-adv-x="333" d="M135 700H354L231 0H12L135 700ZM296 819Q296 864 324 892T404 920Q422 920 438 914T467 898T488 872T496 838Q496 819 489 801T468 769T434 747T385 738Q347 738 322 759T296 819ZM543 819Q543
864 571 892T651 920Q669 920 685 914T714 898T735 872T743 838Q743 819 736 801T715 769T681 747T632 738Q594 738 569 759T543 819Z" />
<glyph unicode="&#xd0;" glyph-name="Eth" horiz-adv-x="739" d="M59 440H122L168 700H509Q564 700 609 684T687 639T738 567T756 471Q756 457 755 443T751 413L724 261Q701 130 622 65T390 0H45L90 260H28L59 440ZM383 176Q438 176 468 198T507 273L531 409Q533
416 533 424T534 438Q534 480 509 502T439 524H355L340 440H451L420 260H308L294 176H383Z" />
<glyph unicode="&#xd1;" glyph-name="Ntilde" horiz-adv-x="733" d="M133 700H341L485 375L542 700H756L633 0H425L281 325L224 0H10L133 700ZM198 772Q206 808 217 835T247 882T293 910T361 920Q386 920 413 916T464 906T508 897T538 892Q556 892 562 901T572
925L723 882Q716 850 706 824T678 779T634 750T570 739Q543 739 515 743T463 752T418 762T386 766Q369 766 362 756T350 732L198 772Z" />
<glyph unicode="&#xd2;" glyph-name="Ograve" horiz-adv-x="729" d="M360 168Q414 168 441 203T480 296L496 386Q498 395 499 405T500 424Q500 475 473 503T392 532Q338 532 312 501T274 409L259 323Q257 315 256 302T254 278Q254 228 278 198T360 168ZM354 -14Q283
-14 225 7T125 66T60 158T37 275Q37 307 43 340L58 425Q84 572 169 643T402 714Q468 714 525 695T625 640T692 551T717 431Q717 417 715 397T711 363L697 284Q685 217 657 162T586 68T484 8T354 -14ZM320 742Q309 758 297 778T274 820T253 863T238 901H488Q493
860 502 822T524 742H320Z" />
<glyph unicode="&#xd3;" glyph-name="Oacute" horiz-adv-x="729" d="M360 168Q414 168 441 203T480 296L496 386Q498 395 499 405T500 424Q500 475 473 503T392 532Q338 532 312 501T274 409L259 323Q257 315 256 302T254 278Q254 228 278 198T360 168ZM354 -14Q283
-14 225 7T125 66T60 158T37 275Q37 307 43 340L58 425Q84 572 169 643T402 714Q468 714 525 695T625 640T692 551T717 431Q717 417 715 397T711 363L697 284Q685 217 657 162T586 68T484 8T354 -14ZM326 742Q350 781 370 818T410 901H680Q665 880 648 858T611
814T574 774T539 742H326Z" />
<glyph unicode="&#xd4;" glyph-name="Ocircumflex" horiz-adv-x="729" d="M360 168Q414 168 441 203T480 296L496 386Q498 395 499 405T500 424Q500 475 473 503T392 532Q338 532 312 501T274 409L259 323Q257 315 256 302T254 278Q254 228 278 198T360 168ZM354
-14Q283 -14 225 7T125 66T60 158T37 275Q37 307 43 340L58 425Q84 572 169 643T402 714Q468 714 525 695T625 640T692 551T717 431Q717 417 715 397T711 363L697 284Q685 217 657 162T586 68T484 8T354 -14ZM667 742H469L447 788L409 742H209L354 901H578L667
742Z" />
<glyph unicode="&#xd5;" glyph-name="Otilde" horiz-adv-x="729" d="M360 168Q414 168 441 203T480 296L496 386Q498 395 499 405T500 424Q500 475 473 503T392 532Q338 532 312 501T274 409L259 323Q257 315 256 302T254 278Q254 228 278 198T360 168ZM354 -14Q283
-14 225 7T125 66T60 158T37 275Q37 307 43 340L58 425Q84 572 169 643T402 714Q468 714 525 695T625 640T692 551T717 431Q717 417 715 397T711 363L697 284Q685 217 657 162T586 68T484 8T354 -14ZM180 772Q188 808 199 835T229 882T275 910T343 920Q368 920
395 916T446 906T490 897T520 892Q538 892 544 901T554 925L705 882Q698 850 688 824T660 779T616 750T552 739Q525 739 497 743T445 752T400 762T368 766Q351 766 344 756T332 732L180 772Z" />
<glyph unicode="&#xd6;" glyph-name="Odieresis" horiz-adv-x="729" d="M360 168Q414 168 441 203T480 296L496 386Q498 395 499 405T500 424Q500 475 473 503T392 532Q338 532 312 501T274 409L259 323Q257 315 256 302T254 278Q254 228 278 198T360 168ZM354
-14Q283 -14 225 7T125 66T60 158T37 275Q37 307 43 340L58 425Q84 572 169 643T402 714Q468 714 525 695T625 640T692 551T717 431Q717 417 715 397T711 363L697 284Q685 217 657 162T586 68T484 8T354 -14ZM224 819Q224 864 252 892T332 920Q350 920 366 914T395
898T416 872T424 838Q424 819 417 801T396 769T362 747T313 738Q275 738 250 759T224 819ZM471 819Q471 864 499 892T579 920Q597 920 613 914T642 898T663 872T671 838Q671 819 664 801T643 769T609 747T560 738Q522 738 497 759T471 819Z" />
<glyph unicode="&#xd7;" glyph-name="multiply" horiz-adv-x="619" d="M48 241L196 366L88 496L235 620L342 489L493 620L605 483L454 353L562 223L414 99L308 230L159 104L48 241Z" />
<glyph unicode="&#xd8;" glyph-name="Oslash" horiz-adv-x="742" d="M361 -14Q307 -14 261 -2T176 33L105 -50H-19L104 95Q44 169 44 275Q44 307 50 340L65 425Q91 572 176 643T409 714Q461 714 507 702T593 667L663 750H786L664 607Q693 572 708 529T724 431Q724
417 722 397T718 363L704 284Q692 217 665 162T594 68T493 8T361 -14ZM266 323Q264 315 263 302T261 278L463 516Q436 532 399 532Q345 532 319 501T281 409L266 323ZM367 168Q421 168 448 203T487 296L503 386Q505 394 506 404T507 422L303 183Q327 168 367 168Z"
/>
<glyph unicode="&#xd9;" glyph-name="Ugrave" horiz-adv-x="721" d="M333 -14Q275 -14 223 4T132 54T71 130T48 229Q48 238 49 249T52 272L127 700H346L271 273Q269 263 269 253Q269 215 291 193T352 170Q396 170 421 195T454 266L531 700H750L674 271Q651 138
567 62T333 -14ZM343 742Q332 758 320 778T297 820T276 863T261 901H511Q516 860 525 822T547 742H343Z" />
<glyph unicode="&#xda;" glyph-name="Uacute" horiz-adv-x="721" d="M333 -14Q275 -14 223 4T132 54T71 130T48 229Q48 238 49 249T52 272L127 700H346L271 273Q269 263 269 253Q269 215 291 193T352 170Q396 170 421 195T454 266L531 700H750L674 271Q651 138
567 62T333 -14ZM333 742Q357 781 377 818T417 901H687Q672 880 655 858T618 814T581 774T546 742H333Z" />
<glyph unicode="&#xdb;" glyph-name="Ucircumflex" horiz-adv-x="721" d="M333 -14Q275 -14 223 4T132 54T71 130T48 229Q48 238 49 249T52 272L127 700H346L271 273Q269 263 269 253Q269 215 291 193T352 170Q396 170 421 195T454 266L531 700H750L674 271Q651
138 567 62T333 -14ZM680 742H482L460 788L422 742H222L367 901H591L680 742Z" />
<glyph unicode="&#xdc;" glyph-name="Udieresis" horiz-adv-x="721" d="M333 -14Q275 -14 223 4T132 54T71 130T48 229Q48 238 49 249T52 272L127 700H346L271 273Q269 263 269 253Q269 215 291 193T352 170Q396 170 421 195T454 266L531 700H750L674 271Q651
138 567 62T333 -14ZM242 819Q242 864 270 892T350 920Q368 920 384 914T413 898T434 872T442 838Q442 819 435 801T414 769T380 747T331 738Q293 738 268 759T242 819ZM489 819Q489 864 517 892T597 920Q615 920 631 914T660 898T681 872T689 838Q689 819 682
801T661 769T627 747T578 738Q540 738 515 759T489 819Z" />
<glyph unicode="&#xdd;" glyph-name="Yacute" horiz-adv-x="672" d="M219 242L73 700H310L364 442L502 700H746L434 220L396 0H177L219 242ZM299 742Q323 781 343 818T383 901H653Q638 880 621 858T584 814T547 774T512 742H299Z" />
<glyph unicode="&#xde;" glyph-name="Thorn" horiz-adv-x="675" d="M133 700H352L337 617H435Q490 617 535 600T613 553T662 481T680 389Q680 320 657 266T591 174T487 117T348 97H246L229 0H10L133 700ZM366 277Q407 277 433 301T460 367Q460 395 444 416T393
437H306L278 277H366Z" />
<glyph unicode="&#xdf;" glyph-name="germandbls" horiz-adv-x="636" d="M90 510Q111 630 183 682T375 734Q422 734 467 723T548 687T606 628T628 544Q628 490 602 443T524 366Q562 349 586 312T611 227Q611 173 590 131T532 59T443 15T331 0H271L300 170H328Q356
170 379 183T402 229Q402 246 391 258T357 270H316L344 430Q374 441 392 462T411 513Q411 533 397 547T360 562Q313 562 303 505L214 0H0L90 510Z" />
<glyph unicode="&#xe0;" glyph-name="agrave" horiz-adv-x="609" d="M169 -12Q90 -12 49 24T8 123Q8 172 24 207T69 265T140 299T234 310Q273 310 306 303T360 284L369 335Q373 356 362 369T327 382Q286 382 270 354H76Q108 448 180 495T358 542Q416 542 461 526T536
481T578 411T581 321L525 0H320L328 50Q318 36 301 25T263 6T218 -7T169 -12ZM267 110Q296 110 315 124T338 160L344 194Q334 199 320 203T284 207Q255 207 235 196T214 152Q214 131 228 121T267 110ZM264 573Q237 612 215 653T176 742H434Q440 663 465 573H264Z"
/>
<glyph unicode="&#xe1;" glyph-name="aacute" horiz-adv-x="609" d="M169 -12Q90 -12 49 24T8 123Q8 172 24 207T69 265T140 299T234 310Q273 310 306 303T360 284L369 335Q373 356 362 369T327 382Q286 382 270 354H76Q108 448 180 495T358 542Q416 542 461 526T536
481T578 411T581 321L525 0H320L328 50Q318 36 301 25T263 6T218 -7T169 -12ZM267 110Q296 110 315 124T338 160L344 194Q334 199 320 203T284 207Q255 207 235 196T214 152Q214 131 228 121T267 110ZM267 573Q280 595 290 615T310 655T328 696T346 742H610Q578
691 542 648T470 573H267Z" />
<glyph unicode="&#xe2;" glyph-name="acircumflex" horiz-adv-x="609" d="M169 -12Q90 -12 49 24T8 123Q8 172 24 207T69 265T140 299T234 310Q273 310 306 303T360 284L369 335Q373 356 362 369T327 382Q286 382 270 354H76Q108 448 180 495T358 542Q416 542
461 526T536 481T578 411T581 321L525 0H320L328 50Q318 36 301 25T263 6T218 -7T169 -12ZM267 110Q296 110 315 124T338 160L344 194Q334 199 320 203T284 207Q255 207 235 196T214 152Q214 131 228 121T267 110ZM294 742H514L595 573H411L387 630L348 573H158L294
742Z" />
<glyph unicode="&#xe3;" glyph-name="atilde" horiz-adv-x="609" d="M169 -12Q90 -12 49 24T8 123Q8 172 24 207T69 265T140 299T234 310Q273 310 306 303T360 284L369 335Q373 356 362 369T327 382Q286 382 270 354H76Q108 448 180 495T358 542Q416 542 461 526T536
481T578 411T581 321L525 0H320L328 50Q318 36 301 25T263 6T218 -7T169 -12ZM267 110Q296 110 315 124T338 160L344 194Q334 199 320 203T284 207Q255 207 235 196T214 152Q214 131 228 121T267 110ZM138 606Q148 641 160 668T189 715T229 745T284 755Q307 755
330 751T373 741T410 732T435 727Q452 727 458 736T471 760L611 717Q593 650 560 612T466 573Q443 573 420 577T377 586T340 595T314 599Q300 599 293 592T279 567L138 606Z" />
<glyph unicode="&#xe4;" glyph-name="adieresis" horiz-adv-x="609" d="M169 -12Q90 -12 49 24T8 123Q8 172 24 207T69 265T140 299T234 310Q273 310 306 303T360 284L369 335Q373 356 362 369T327 382Q286 382 270 354H76Q108 448 180 495T358 542Q416 542 461
526T536 481T578 411T581 321L525 0H320L328 50Q318 36 301 25T263 6T218 -7T169 -12ZM267 110Q296 110 315 124T338 160L344 194Q334 199 320 203T284 207Q255 207 235 196T214 152Q214 131 228 121T267 110ZM165 652Q165 696 194 724T271 753Q289 753 305 747T333
731T353 705T361 671Q361 630 332 601T252 571Q217 571 191 592T165 652ZM399 652Q399 696 428 724T505 753Q523 753 539 747T567 731T587 705T595 671Q595 630 566 601T486 571Q451 571 425 592T399 652Z" />
<glyph unicode="&#xe5;" glyph-name="aring" horiz-adv-x="609" d="M169 -12Q90 -12 49 24T8 123Q8 172 24 207T69 265T140 299T234 310Q273 310 306 303T360 284L369 335Q373 356 362 369T327 382Q286 382 270 354H76Q108 448 180 495T358 542Q416 542 461 526T536
481T578 411T581 321L525 0H320L328 50Q318 36 301 25T263 6T218 -7T169 -12ZM267 110Q296 110 315 124T338 160L344 194Q334 199 320 203T284 207Q255 207 235 196T214 152Q214 131 228 121T267 110ZM386 634Q409 634 424 648T440 683Q440 700 428 710T396 720Q373
720 358 708T342 673Q342 656 353 645T386 634ZM382 569Q358 569 336 575T295 593T266 624T255 668Q255 725 295 755T402 785Q424 785 446 779T486 761T515 731T526 688Q526 660 515 638T484 601T438 577T382 569Z" />
<glyph unicode="&#xe6;" glyph-name="ae" horiz-adv-x="895" d="M598 -12Q538 -12 495 2T421 43Q383 18 328 3T207 -12Q110 -12 58 27T6 133Q6 226 67 268T232 310Q271 310 304 303T358 284L367 335Q371 356 360 369T325 382Q284 382 268 354H74Q103 454 172 498T346
542Q403 542 439 525T495 487Q508 501 526 511T564 528T605 538T644 542Q701 542 745 527T818 484T863 418T879 333Q879 322 878 310T874 283L862 214H560L554 180Q553 158 566 143T608 127Q631 127 644 138T662 163H849Q840 129 820 98T768 42T694 3T598 -12ZM265
110Q294 110 313 124T336 160L342 194Q332 199 318 203T282 207Q253 207 233 196T212 152Q212 131 226 121T265 110ZM578 318H684L688 342Q689 347 689 350T689 355Q689 377 677 388T641 400Q592 400 582 342L578 318Z" />
<glyph unicode="&#xe7;" glyph-name="ccedilla" horiz-adv-x="573" d="M232 -186Q210 -186 186 -184T144 -178L156 -113Q171 -116 190 -116Q204 -116 212 -113T221 -98Q221 -84 198 -82L175 -80L204 -4Q163 5 130 23T72 70T35 134T21 212Q21 238 25 261L36 323Q55
427 123 484T307 542Q360 542 406 529T486 489T539 417T560 311H368Q368 336 354 354T311 373Q281 373 267 356T247 306L233 228Q231 218 231 211Q231 185 247 171T288 157Q304 157 315 163T334 178T346 198T352 219H545Q538 165 516 123T459 50T378 4T278 -12L273
-30L291 -31Q329 -33 349 -50T370 -98Q370 -123 359 -139T328 -166T283 -181T232 -186Z" />
<glyph unicode="&#xe8;" glyph-name="egrave" horiz-adv-x="560" d="M263 -12Q200 -12 154 5T79 51T35 121T20 208Q20 220 21 231T24 255L35 318Q55 429 121 485T309 542Q366 542 410 527T483 484T528 418T544 333Q544 322 543 310T539 283L527 214H225L221 191Q216
165 228 146T273 127Q296 127 309 138T327 163H514Q505 129 485 98T433 42T359 3T263 -12ZM243 318H349L353 342Q354 347 354 350T354 355Q354 377 342 388T306 400Q257 400 247 342L243 318ZM224 573Q197 612 175 653T136 742H394Q400 663 425 573H224Z" />
<glyph unicode="&#xe9;" glyph-name="eacute" horiz-adv-x="560" d="M263 -12Q200 -12 154 5T79 51T35 121T20 208Q20 220 21 231T24 255L35 318Q55 429 121 485T309 542Q366 542 410 527T483 484T528 418T544 333Q544 322 543 310T539 283L527 214H225L221 191Q216
165 228 146T273 127Q296 127 309 138T327 163H514Q505 129 485 98T433 42T359 3T263 -12ZM243 318H349L353 342Q354 347 354 350T354 355Q354 377 342 388T306 400Q257 400 247 342L243 318ZM238 573Q251 595 261 615T281 655T299 696T317 742H581Q549 691 513
648T441 573H238Z" />
<glyph unicode="&#xea;" glyph-name="ecircumflex" horiz-adv-x="560" d="M263 -12Q200 -12 154 5T79 51T35 121T20 208Q20 220 21 231T24 255L35 318Q55 429 121 485T309 542Q366 542 410 527T483 484T528 418T544 333Q544 322 543 310T539 283L527 214H225L221
191Q216 165 228 146T273 127Q296 127 309 138T327 163H514Q505 129 485 98T433 42T359 3T263 -12ZM243 318H349L353 342Q354 347 354 350T354 355Q354 377 342 388T306 400Q257 400 247 342L243 318ZM248 742H468L549 573H365L341 630L302 573H112L248 742Z" />
<glyph unicode="&#xeb;" glyph-name="edieresis" horiz-adv-x="560" d="M263 -12Q200 -12 154 5T79 51T35 121T20 208Q20 220 21 231T24 255L35 318Q55 429 121 485T309 542Q366 542 410 527T483 484T528 418T544 333Q544 322 543 310T539 283L527 214H225L221
191Q216 165 228 146T273 127Q296 127 309 138T327 163H514Q505 129 485 98T433 42T359 3T263 -12ZM243 318H349L353 342Q354 347 354 350T354 355Q354 377 342 388T306 400Q257 400 247 342L243 318ZM130 652Q130 696 159 724T236 753Q254 753 270 747T298 731T318
705T326 671Q326 630 297 601T217 571Q182 571 156 592T130 652ZM364 652Q364 696 393 724T470 753Q488 753 504 747T532 731T552 705T560 671Q560 630 531 601T451 571Q416 571 390 592T364 652Z" />
<glyph unicode="&#xec;" glyph-name="igrave" horiz-adv-x="304" d="M93 530H307L214 0H0L93 530ZM361 573Q334 612 312 653T273 742H531Q537 663 562 573H361Z" />
<glyph unicode="&#xed;" glyph-name="iacute" horiz-adv-x="304" d="M93 530H307L214 0H0L93 530ZM362 574Q375 596 385 616T405 656T423 697T441 743H705Q673 692 637 649T565 574H362Z" />
<glyph unicode="&#xee;" glyph-name="icircumflex" horiz-adv-x="304" d="M93 530H307L214 0H0L93 530ZM384 742H604L685 573H501L477 630L438 573H248L384 742Z" />
<glyph unicode="&#xef;" glyph-name="idieresis" horiz-adv-x="304" d="M93 530H307L214 0H0L93 530ZM263 907Q263 951 292 979T369 1008Q387 1008 403 1002T431 986T451 960T459 926Q459 885 430 856T350 826Q315 826 289 847T263 907ZM497 907Q497 951 526 979T603
1008Q621 1008 637 1002T665 986T685 960T693 926Q693 885 664 856T584 826Q549 826 523 847T497 907Z" />
<glyph unicode="&#xf0;" glyph-name="eth" horiz-adv-x="587" d="M195 629L236 645Q183 691 124 730H371Q379 725 387 721T403 710L505 749L545 647L488 624Q526 573 551 508T577 369Q577 354 576 339T572 307L558 229Q537 111 463 49T268 -14Q212 -14 166 3T88
50T37 119T19 204Q19 214 20 225T23 244L34 305Q53 408 113 459T273 511Q332 511 376 485Q365 503 352 521T321 559L235 525L195 629ZM228 211Q227 206 227 200Q227 178 241 165T281 151Q310 151 324 168T344 209L359 294Q360 298 360 301T360 307Q360 330 346
344T305 358Q254 358 244 301L228 211Z" />
<glyph unicode="&#xf1;" glyph-name="ntilde" horiz-adv-x="604" d="M93 530H298L289 480Q310 510 345 526T426 542Q503 542 543 500T583 387Q583 375 582 362T579 340L519 0H305L360 312Q364 335 353 348T322 361Q302 361 289 352T270 317L214 0H0L93 530ZM125
606Q135 641 147 668T176 715T216 745T271 755Q294 755 317 751T360 741T397 732T422 727Q439 727 445 736T458 760L598 717Q580 650 547 612T453 573Q430 573 407 577T364 586T327 595T301 599Q287 599 280 592T266 567L125 606Z" />
<glyph unicode="&#xf2;" glyph-name="ograve" horiz-adv-x="577" d="M279 157Q305 157 319 172T337 210L353 301Q355 311 355 319Q355 345 340 359T298 373Q251 373 242 317L225 221Q224 216 224 213T224 208Q224 185 238 171T279 157ZM275 -12Q221 -12 174 3T93
48T40 119T20 212Q20 225 21 236T25 261L37 329Q56 436 124 489T298 542Q349 542 396 529T479 487T538 417T560 317Q560 306 559 292T555 266L544 204Q526 104 457 46T275 -12ZM223 573Q196 612 174 653T135 742H393Q399 663 424 573H223Z" />
<glyph unicode="&#xf3;" glyph-name="oacute" horiz-adv-x="577" d="M279 157Q305 157 319 172T337 210L353 301Q355 311 355 319Q355 345 340 359T298 373Q251 373 242 317L225 221Q224 216 224 213T224 208Q224 185 238 171T279 157ZM275 -12Q221 -12 174 3T93
48T40 119T20 212Q20 225 21 236T25 261L37 329Q56 436 124 489T298 542Q349 542 396 529T479 487T538 417T560 317Q560 306 559 292T555 266L544 204Q526 104 457 46T275 -12ZM234 573Q247 595 257 615T277 655T295 696T313 742H577Q545 691 509 648T437 573H234Z"
/>
<glyph unicode="&#xf4;" glyph-name="ocircumflex" horiz-adv-x="577" d="M279 157Q305 157 319 172T337 210L353 301Q355 311 355 319Q355 345 340 359T298 373Q251 373 242 317L225 221Q224 216 224 213T224 208Q224 185 238 171T279 157ZM275 -12Q221 -12 174
3T93 48T40 119T20 212Q20 225 21 236T25 261L37 329Q56 436 124 489T298 542Q349 542 396 529T479 487T538 417T560 317Q560 306 559 292T555 266L544 204Q526 104 457 46T275 -12ZM256 742H476L557 573H373L349 630L310 573H120L256 742Z" />
<glyph unicode="&#xf5;" glyph-name="otilde" horiz-adv-x="577" d="M279 157Q305 157 319 172T337 210L353 301Q355 311 355 319Q355 345 340 359T298 373Q251 373 242 317L225 221Q224 216 224 213T224 208Q224 185 238 171T279 157ZM275 -12Q221 -12 174 3T93
48T40 119T20 212Q20 225 21 236T25 261L37 329Q56 436 124 489T298 542Q349 542 396 529T479 487T538 417T560 317Q560 306 559 292T555 266L544 204Q526 104 457 46T275 -12ZM113 606Q123 641 135 668T164 715T204 745T259 755Q282 755 305 751T348 741T385 732T410
727Q427 727 433 736T446 760L586 717Q568 650 535 612T441 573Q418 573 395 577T352 586T315 595T289 599Q275 599 268 592T254 567L113 606Z" />
<glyph unicode="&#xf6;" glyph-name="odieresis" horiz-adv-x="577" d="M279 157Q305 157 319 172T337 210L353 301Q355 311 355 319Q355 345 340 359T298 373Q251 373 242 317L225 221Q224 216 224 213T224 208Q224 185 238 171T279 157ZM275 -12Q221 -12 174
3T93 48T40 119T20 212Q20 225 21 236T25 261L37 329Q56 436 124 489T298 542Q349 542 396 529T479 487T538 417T560 317Q560 306 559 292T555 266L544 204Q526 104 457 46T275 -12ZM133 652Q133 696 162 724T239 753Q257 753 273 747T301 731T321 705T329 671Q329
630 300 601T220 571Q185 571 159 592T133 652ZM367 652Q367 696 396 724T473 753Q491 753 507 747T535 731T555 705T563 671Q563 630 534 601T454 571Q419 571 393 592T367 652Z" />
<glyph unicode="&#xf7;" glyph-name="divide" horiz-adv-x="584" d="M87 451H569L537 269H55L87 451ZM165 135Q165 185 198 212T285 239Q303 239 320 234T351 218T373 191T381 155Q381 108 349 80T262 51Q220 51 193 74T165 135ZM241 565Q241 615 274 642T361
669Q379 669 396 664T427 648T449 621T457 585Q457 538 425 510T338 481Q296 481 269 504T241 565Z" />
<glyph unicode="&#xf8;" glyph-name="oslash" horiz-adv-x="589" d="M281 -12Q193 -12 128 28L59 -50H-24L80 67Q54 96 40 132T26 212Q26 225 27 236T31 261L43 329Q62 436 130 489T304 542Q348 542 388 532T463 502L533 581H616L512 463Q537 436 551 400T566
317Q566 306 565 292T561 266L550 204Q532 104 463 46T281 -12ZM235 243L341 363Q324 373 304 373Q257 373 248 317L235 243ZM285 157Q311 157 325 172T343 210L356 286L250 166Q263 157 285 157Z" />
<glyph unicode="&#xf9;" glyph-name="ugrave" horiz-adv-x="601" d="M511 0H306L315 50Q298 24 261 6T178 -12Q103 -12 64 33T25 149Q25 161 26 173T30 199L89 530H303L246 210Q242 190 252 176T284 161Q304 161 316 173T332 204L390 530H604L511 0ZM263 573Q236
612 214 653T175 742H433Q439 663 464 573H263Z" />
<glyph unicode="&#xfa;" glyph-name="uacute" horiz-adv-x="601" d="M511 0H306L315 50Q298 24 261 6T178 -12Q103 -12 64 33T25 149Q25 161 26 173T30 199L89 530H303L246 210Q242 190 252 176T284 161Q304 161 316 173T332 204L390 530H604L511 0ZM254 573Q267
595 277 615T297 655T315 696T333 742H597Q565 691 529 648T457 573H254Z" />
<glyph unicode="&#xfb;" glyph-name="ucircumflex" horiz-adv-x="601" d="M511 0H306L315 50Q298 24 261 6T178 -12Q103 -12 64 33T25 149Q25 161 26 173T30 199L89 530H303L246 210Q242 190 252 176T284 161Q304 161 316 173T332 204L390 530H604L511 0ZM272
742H492L573 573H389L365 630L326 573H136L272 742Z" />
<glyph unicode="&#xfc;" glyph-name="udieresis" horiz-adv-x="601" d="M511 0H306L315 50Q298 24 261 6T178 -12Q103 -12 64 33T25 149Q25 161 26 173T30 199L89 530H303L246 210Q242 190 252 176T284 161Q304 161 316 173T332 204L390 530H604L511 0ZM160 652Q160
696 189 724T266 753Q284 753 300 747T328 731T348 705T356 671Q356 630 327 601T247 571Q212 571 186 592T160 652ZM394 652Q394 696 423 724T500 753Q518 753 534 747T562 731T582 705T590 671Q590 630 561 601T481 571Q446 571 420 592T394 652Z" />
<glyph unicode="&#xfd;" glyph-name="yacute" horiz-adv-x="540" d="M333 0Q313 -39 294 -70T252 -122T198 -155T124 -166Q95 -166 65 -162T13 -148L37 -13Q46 -19 60 -22T86 -26Q101 -26 108 -22T121 -7L126 2L44 530H255L264 217L383 530H594L333 0ZM222 573Q235
595 245 615T265 655T283 696T301 742H565Q533 691 497 648T425 573H222Z" />
<glyph unicode="&#xfe;" glyph-name="thorn" horiz-adv-x="617" d="M349 -12Q304 -12 272 3T221 38L188 -154H-26L129 730H343L301 495Q323 517 355 529T423 542Q510 542 557 490T604 351Q604 337 603 322T599 291L584 206Q566 102 508 45T349 -12ZM254 229Q253
224 253 220T252 211Q252 185 267 171T308 157Q338 157 353 175T374 229L386 297Q387 302 387 306T388 316Q388 343 374 358T330 373Q302 373 287 353T267 303L254 229Z" />
<glyph unicode="&#xff;" glyph-name="ydieresis" horiz-adv-x="540" d="M333 0Q313 -39 294 -70T252 -122T198 -155T124 -166Q95 -166 65 -162T13 -148L37 -13Q46 -19 60 -22T86 -26Q101 -26 108 -22T121 -7L126 2L44 530H255L264 217L383 530H594L333 0ZM127
652Q127 696 156 724T233 753Q251 753 267 747T295 731T315 705T323 671Q323 630 294 601T214 571Q179 571 153 592T127 652ZM361 652Q361 696 390 724T467 753Q485 753 501 747T529 731T549 705T557 671Q557 630 528 601T448 571Q413 571 387 592T361 652Z" />
<glyph unicode="&#x100;" glyph-name="Amacron" horiz-adv-x="733" d="M330 700H554L680 0H466L455 106H242L197 0H-33L330 700ZM317 279H437L414 503L317 279ZM259 900H685L658 743H232L259 900Z" />
<glyph unicode="&#x101;" glyph-name="amacron" horiz-adv-x="609" d="M169 -12Q90 -12 49 24T8 123Q8 172 24 207T69 265T140 299T234 310Q273 310 306 303T360 284L369 335Q373 356 362 369T327 382Q286 382 270 354H76Q108 448 180 495T358 542Q416 542 461
526T536 481T578 411T581 321L525 0H320L328 50Q318 36 301 25T263 6T218 -7T169 -12ZM267 110Q296 110 315 124T338 160L344 194Q334 199 320 203T284 207Q255 207 235 196T214 152Q214 131 228 121T267 110ZM211 734H595L567 578H183L211 734Z" />
<glyph unicode="&#x102;" glyph-name="Abreve" horiz-adv-x="733" d="M330 700H554L680 0H466L455 106H242L197 0H-33L330 700ZM317 279H437L414 503L317 279ZM455 742Q411 742 373 752T307 783T264 833T250 901H432Q429 882 438 871T466 860Q486 860 498 872T512
901H694Q685 858 663 828T610 779T539 751T455 742Z" />
<glyph unicode="&#x103;" glyph-name="abreve" horiz-adv-x="609" d="M169 -12Q90 -12 49 24T8 123Q8 172 24 207T69 265T140 299T234 310Q273 310 306 303T360 284L369 335Q373 356 362 369T327 382Q286 382 270 354H76Q108 448 180 495T358 542Q416 542 461
526T536 481T578 411T581 321L525 0H320L328 50Q318 36 301 25T263 6T218 -7T169 -12ZM267 110Q296 110 315 124T338 160L344 194Q334 199 320 203T284 207Q255 207 235 196T214 152Q214 131 228 121T267 110ZM385 573Q346 573 309 583T243 614T200 666T188 742H356Q352
720 363 707T397 693Q420 693 431 707T446 742H614Q603 664 546 619T385 573Z" />
<glyph unicode="&#x104;" glyph-name="Aogonek" horiz-adv-x="733" d="M506 -186Q396 -186 396 -110Q396 -72 415 -46T466 0L455 106H242L197 0H-33L330 700H554L680 0H606Q591 -10 577 -23T563 -55Q563 -73 588 -73Q599 -73 611 -71T631 -67L612 -171Q591 -176
563 -181T506 -186ZM317 279H437L414 503L317 279Z" />
<glyph unicode="&#x105;" glyph-name="aogonek" horiz-adv-x="607" d="M358 -186Q248 -186 248 -110Q248 -72 267 -46T318 0L326 50Q316 36 299 25T261 6T216 -7T167 -12Q88 -12 47 24T6 123Q6 172 22 207T67 265T138 299T232 310Q271 310 304 303T358 284L367
335Q371 356 360 369T325 382Q284 382 268 354H74Q106 448 178 495T356 542Q414 542 459 526T534 481T576 411T579 321L523 0H458Q443 -10 429 -23T415 -55Q415 -73 440 -73Q451 -73 463 -71T483 -67L464 -171Q443 -176 415 -181T358 -186ZM265 110Q294 110 313
124T336 160L342 194Q332 199 318 203T282 207Q253 207 233 196T212 152Q212 131 226 121T265 110Z" />
<glyph unicode="&#x106;" glyph-name="Cacute" horiz-adv-x="707" d="M349 -14Q279 -14 222 6T123 64T60 154T37 270Q37 301 43 336L58 420Q85 573 165 643T386 714Q452 714 507 696T604 643T670 554T697 428H491Q490 448 485 466T467 499T436 523T389 532Q338
532 312 501T275 409L258 313Q255 292 255 277Q255 229 280 199T360 168Q385 168 404 177T436 202T457 235T470 272H674Q665 209 639 157T570 66T472 7T349 -14ZM312 742Q336 781 356 818T396 901H666Q651 880 634 858T597 814T560 774T525 742H312Z" />
<glyph unicode="&#x107;" glyph-name="cacute" horiz-adv-x="573" d="M277 -12Q222 -12 176 3T95 48T41 119T21 212Q21 238 25 261L36 323Q55 427 123 484T307 542Q360 542 406 529T486 489T539 417T560 311H368Q368 336 354 354T311 373Q281 373 267 356T247
306L233 228Q231 218 231 211Q231 185 247 171T288 157Q304 157 315 163T334 178T346 198T352 219H545Q538 165 516 123T459 50T378 4T277 -12ZM236 573Q249 595 259 615T279 655T297 696T315 742H579Q547 691 511 648T439 573H236Z" />
<glyph unicode="&#x108;" glyph-name="Ccircumflex" horiz-adv-x="707" d="M349 -14Q279 -14 222 6T123 64T60 154T37 270Q37 301 43 336L58 420Q85 573 165 643T386 714Q452 714 507 696T604 643T670 554T697 428H491Q490 448 485 466T467 499T436 523T389 532Q338
532 312 501T275 409L258 313Q255 292 255 277Q255 229 280 199T360 168Q385 168 404 177T436 202T457 235T470 272H674Q665 209 639 157T570 66T472 7T349 -14ZM652 742H454L432 788L394 742H194L339 901H563L652 742Z" />
<glyph unicode="&#x109;" glyph-name="ccircumflex" horiz-adv-x="573" d="M277 -12Q222 -12 176 3T95 48T41 119T21 212Q21 238 25 261L36 323Q55 427 123 484T307 542Q360 542 406 529T486 489T539 417T560 311H368Q368 336 354 354T311 373Q281 373 267 356T247
306L233 228Q231 218 231 211Q231 185 247 171T288 157Q304 157 315 163T334 178T346 198T352 219H545Q538 165 516 123T459 50T378 4T277 -12ZM258 742H478L559 573H375L351 630L312 573H122L258 742Z" />
<glyph unicode="&#x10a;" glyph-name="Cdotaccent" horiz-adv-x="707" d="M349 -14Q279 -14 222 6T123 64T60 154T37 270Q37 301 43 336L58 420Q85 573 165 643T386 714Q452 714 507 696T604 643T670 554T697 428H491Q490 448 485 466T467 499T436 523T389 532Q338
532 312 501T275 409L258 313Q255 292 255 277Q255 229 280 199T360 168Q385 168 404 177T436 202T457 235T470 272H674Q665 209 639 157T570 66T472 7T349 -14ZM324 837Q324 888 356 917T442 947Q463 947 482 940T516 920T540 888T549 847Q549 799 518 768T429
737Q408 737 389 744T355 764T333 796T324 837Z" />
<glyph unicode="&#x10b;" glyph-name="cdotaccent" horiz-adv-x="573" d="M277 -12Q222 -12 176 3T95 48T41 119T21 212Q21 238 25 261L36 323Q55 427 123 484T307 542Q360 542 406 529T486 489T539 417T560 311H368Q368 336 354 354T311 373Q281 373 267 356T247
306L233 228Q231 218 231 211Q231 185 247 171T288 157Q304 157 315 163T334 178T346 198T352 219H545Q538 165 516 123T459 50T378 4T277 -12ZM238 673Q238 724 270 753T356 783Q377 783 396 776T430 756T454 724T463 683Q463 635 432 604T343 573Q322 573 303
580T269 600T247 632T238 673Z" />
<glyph unicode="&#x10c;" glyph-name="Ccaron" horiz-adv-x="707" d="M349 -14Q279 -14 222 6T123 64T60 154T37 270Q37 301 43 336L58 420Q85 573 165 643T386 714Q452 714 507 696T604 643T670 554T697 428H491Q490 448 485 466T467 499T436 523T389 532Q338
532 312 501T275 409L258 313Q255 292 255 277Q255 229 280 199T360 168Q385 168 404 177T436 202T457 235T470 272H674Q665 209 639 157T570 66T472 7T349 -14ZM219 901H417L439 855L477 901H677L532 742H308L219 901Z" />
<glyph unicode="&#x10d;" glyph-name="ccaron" horiz-adv-x="573" d="M277 -12Q222 -12 176 3T95 48T41 119T21 212Q21 238 25 261L36 323Q55 427 123 484T307 542Q360 542 406 529T486 489T539 417T560 311H368Q368 336 354 354T311 373Q281 373 267 356T247
306L233 228Q231 218 231 211Q231 185 247 171T288 157Q304 157 315 163T334 178T346 198T352 219H545Q538 165 516 123T459 50T378 4T277 -12ZM450 573H230L149 742H333L357 685L396 742H586L450 573Z" />
<glyph unicode="&#x10e;" glyph-name="Dcaron" horiz-adv-x="721" d="M348 176Q403 176 433 198T472 273L496 409Q498 416 498 424T499 438Q499 480 474 502T404 524H320L259 176H348ZM133 700H474Q529 700 574 684T652 639T703 567T721 471Q721 457 720 443T716
413L689 261Q666 130 587 65T355 0H10L133 700ZM215 901H413L435 855L473 901H673L528 742H304L215 901Z" />
<glyph unicode="&#x10f;" glyph-name="dcaron" horiz-adv-x="831" d="M766 558Q746 566 730 583T714 633Q714 674 740 702T818 730Q863 730 886 704T909 641Q909 624 904 610T891 584T872 561T848 536L792 478H697L766 558ZM271 542Q316 542 347 528T399 492L441
730H655L526 0H323L330 45Q314 20 277 4T197 -12Q110 -12 63 40T16 179Q16 193 17 208T21 239L36 324Q54 428 112 485T271 542ZM366 301Q367 306 367 310T368 319Q368 345 353 359T312 373Q282 373 267 355T246 301L234 233Q233 228 233 224T232 214Q232 187 246
172T290 157Q318 157 333 177T353 227L366 301Z" />
<glyph unicode="&#x110;" glyph-name="Dcroat" horiz-adv-x="739" d="M59 440H122L168 700H509Q564 700 609 684T687 639T738 567T756 471Q756 457 755 443T751 413L724 261Q701 130 622 65T390 0H45L90 260H28L59 440ZM383 176Q438 176 468 198T507 273L531 409Q533
416 533 424T534 438Q534 480 509 502T439 524H355L340 440H451L420 260H308L294 176H383Z" />
<glyph unicode="&#x111;" glyph-name="dcroat" horiz-adv-x="616" d="M670 530H625L532 0H329L336 45Q320 20 283 4T203 -12Q116 -12 69 40T22 179Q22 193 23 207T27 239L37 296Q55 400 113 457T272 514Q317 514 348 500T400 464L411 530H340L366 679H438L447
730H661L652 679H696L670 530ZM368 278Q369 283 369 287T370 296Q370 322 355 336T314 350Q284 350 269 332T248 278L239 228Q238 223 238 219T237 209Q237 182 251 167T295 152Q323 152 338 172T358 222L368 278Z" />
<glyph unicode="&#x112;" glyph-name="Emacron" horiz-adv-x="619" d="M133 700H662L630 520H320L307 444H588L555 264H275L261 180H571L540 0H10L133 700ZM218 900H644L617 743H191L218 900Z" />
<glyph unicode="&#x113;" glyph-name="emacron" horiz-adv-x="560" d="M263 -12Q200 -12 154 5T79 51T35 121T20 208Q20 220 21 231T24 255L35 318Q55 429 121 485T309 542Q366 542 410 527T483 484T528 418T544 333Q544 322 543 310T539 283L527 214H225L221
191Q216 165 228 146T273 127Q296 127 309 138T327 163H514Q505 129 485 98T433 42T359 3T263 -12ZM243 318H349L353 342Q354 347 354 350T354 355Q354 377 342 388T306 400Q257 400 247 342L243 318ZM166 734H550L522 578H138L166 734Z" />
<glyph unicode="&#x114;" glyph-name="Ebreve" horiz-adv-x="619" d="M133 700H662L630 520H320L307 444H588L555 264H275L261 180H571L540 0H10L133 700ZM416 742Q372 742 334 752T268 783T225 833T211 901H393Q390 882 399 871T427 860Q447 860 459 872T473
901H655Q646 858 624 828T571 779T500 751T416 742Z" />
<glyph unicode="&#x115;" glyph-name="ebreve" horiz-adv-x="560" d="M263 -12Q200 -12 154 5T79 51T35 121T20 208Q20 220 21 231T24 255L35 318Q55 429 121 485T309 542Q366 542 410 527T483 484T528 418T544 333Q544 322 543 310T539 283L527 214H225L221 191Q216
165 228 146T273 127Q296 127 309 138T327 163H514Q505 129 485 98T433 42T359 3T263 -12ZM243 318H349L353 342Q354 347 354 350T354 355Q354 377 342 388T306 400Q257 400 247 342L243 318ZM339 573Q300 573 263 583T197 614T154 666T142 742H310Q306 720 317
707T351 693Q374 693 385 707T400 742H568Q557 664 500 619T339 573Z" />
<glyph unicode="&#x116;" glyph-name="Edotaccent" horiz-adv-x="619" d="M133 700H662L630 520H320L307 444H588L555 264H275L261 180H571L540 0H10L133 700ZM304 837Q304 888 336 917T422 947Q443 947 462 940T496 920T520 888T529 847Q529 799 498 768T409
737Q388 737 369 744T335 764T313 796T304 837Z" />
<glyph unicode="&#x117;" glyph-name="edotaccent" horiz-adv-x="560" d="M263 -12Q200 -12 154 5T79 51T35 121T20 208Q20 220 21 231T24 255L35 318Q55 429 121 485T309 542Q366 542 410 527T483 484T528 418T544 333Q544 322 543 310T539 283L527 214H225L221
191Q216 165 228 146T273 127Q296 127 309 138T327 163H514Q505 129 485 98T433 42T359 3T263 -12ZM243 318H349L353 342Q354 347 354 350T354 355Q354 377 342 388T306 400Q257 400 247 342L243 318ZM236 674Q236 725 268 754T354 784Q375 784 394 777T428 757T452
725T461 684Q461 636 430 605T341 574Q320 574 301 581T267 601T245 633T236 674Z" />
<glyph unicode="&#x118;" glyph-name="Eogonek" horiz-adv-x="619" d="M133 700H662L630 520H320L307 444H588L555 264H275L261 180H571L540 0H483Q468 -10 454 -23T440 -55Q440 -73 465 -73Q476 -73 488 -71T508 -67L489 -171Q468 -176 440 -181T383 -186Q273
-186 273 -110Q273 -72 292 -46T343 0H10L133 700Z" />
<glyph unicode="&#x119;" glyph-name="eogonek" horiz-adv-x="560" d="M267 -12Q201 -13 155 4T78 51T34 121T20 208Q20 220 21 231T24 255L35 318Q55 429 121 485T309 542Q366 542 410 527T483 484T528 418T544 333Q544 322 543 310T539 283L527 214H225L221
191Q216 165 228 146T273 127Q296 127 309 138T327 163H514Q504 127 484 96T426 37Q396 14 375 -10T353 -55Q353 -73 378 -73Q389 -73 401 -71T421 -67L402 -171Q381 -176 353 -181T296 -186Q186 -186 186 -110Q186 -79 208 -56T267 -12ZM243 318H349L353 342Q354
347 354 350T354 355Q354 377 342 388T306 400Q257 400 247 342L243 318Z" />
<glyph unicode="&#x11a;" glyph-name="Ecaron" horiz-adv-x="619" d="M133 700H662L630 520H320L307 444H588L555 264H275L261 180H571L540 0H10L133 700ZM209 901H407L429 855L467 901H667L522 742H298L209 901Z" />
<glyph unicode="&#x11b;" glyph-name="ecaron" horiz-adv-x="560" d="M263 -12Q200 -12 154 5T79 51T35 121T20 208Q20 220 21 231T24 255L35 318Q55 429 121 485T309 542Q366 542 410 527T483 484T528 418T544 333Q544 322 543 310T539 283L527 214H225L221 191Q216
165 228 146T273 127Q296 127 309 138T327 163H514Q505 129 485 98T433 42T359 3T263 -12ZM243 318H349L353 342Q354 347 354 350T354 355Q354 377 342 388T306 400Q257 400 247 342L243 318ZM445 573H225L144 742H328L352 685L391 742H581L445 573Z" />
<glyph unicode="&#x11c;" glyph-name="Gcircumflex" horiz-adv-x="723" d="M474 60Q450 26 404 6T303 -14Q229 -14 174 10T86 77T40 181T41 315L61 428Q87 573 175 643T403 714Q464 714 519 699T616 652T683 571T713 452H506Q498 490 471 511T398 532Q298 532
277 415L256 295Q244 225 267 187T357 148Q403 148 430 170T468 223H361L390 388H711L642 0H463L474 60ZM663 742H465L443 788L405 742H205L350 901H574L663 742Z" />
<glyph unicode="&#x11d;" glyph-name="gcircumflex" horiz-adv-x="613" d="M255 -166Q203 -166 158 -156T77 -126T17 -75T-18 -5H185Q190 -21 205 -30T247 -39Q273 -39 290 -24T312 18L323 80Q310 62 280 49T215 36Q174 36 139 47T78 82T37 139T22 221Q22 232
23 243T26 267L38 335Q56 438 111 490T269 542Q318 542 351 525T405 485L413 530H617L528 27Q519 -21 495 -57T434 -117T352 -154T255 -166ZM287 173Q318 173 332 191T351 241L364 317Q365 322 365 326T366 335Q366 359 352 374T308 390Q280 390 266 373T246 324L233
247Q232 242 232 238T231 229Q231 203 246 188T287 173ZM287 742H507L588 573H404L380 630L341 573H151L287 742Z" />
<glyph unicode="&#x11e;" glyph-name="Gbreve" horiz-adv-x="723" d="M474 60Q450 26 404 6T303 -14Q229 -14 174 10T86 77T40 181T41 315L61 428Q87 573 175 643T403 714Q464 714 519 699T616 652T683 571T713 452H506Q498 490 471 511T398 532Q298 532 277 415L256
295Q244 225 267 187T357 148Q403 148 430 170T468 223H361L390 388H711L642 0H463L474 60ZM438 742Q394 742 356 752T290 783T247 833T233 901H415Q412 882 421 871T449 860Q469 860 481 872T495 901H677Q668 858 646 828T593 779T522 751T438 742Z" />
<glyph unicode="&#x11f;" glyph-name="gbreve" horiz-adv-x="613" d="M255 -166Q203 -166 158 -156T77 -126T17 -75T-18 -5H185Q190 -21 205 -30T247 -39Q273 -39 290 -24T312 18L323 80Q310 62 280 49T215 36Q174 36 139 47T78 82T37 139T22 221Q22 232 23 243T26
267L38 335Q56 438 111 490T269 542Q318 542 351 525T405 485L413 530H617L528 27Q519 -21 495 -57T434 -117T352 -154T255 -166ZM287 173Q318 173 332 191T351 241L364 317Q365 322 365 326T366 335Q366 359 352 374T308 390Q280 390 266 373T246 324L233 247Q232
242 232 238T231 229Q231 203 246 188T287 173ZM369 573Q330 573 293 583T227 614T184 666T172 742H340Q336 720 347 707T381 693Q404 693 415 707T430 742H598Q587 664 530 619T369 573Z" />
<glyph unicode="&#x120;" glyph-name="Gdotaccent" horiz-adv-x="723" d="M474 60Q450 26 404 6T303 -14Q229 -14 174 10T86 77T40 181T41 315L61 428Q87 573 175 643T403 714Q464 714 519 699T616 652T683 571T713 452H506Q498 490 471 511T398 532Q298 532 277
415L256 295Q244 225 267 187T357 148Q403 148 430 170T468 223H361L390 388H711L642 0H463L474 60ZM329 837Q329 888 361 917T447 947Q468 947 487 940T521 920T545 888T554 847Q554 799 523 768T434 737Q413 737 394 744T360 764T338 796T329 837Z" />
<glyph unicode="&#x121;" glyph-name="gdotaccent" horiz-adv-x="613" d="M255 -166Q203 -166 158 -156T77 -126T17 -75T-18 -5H185Q190 -21 205 -30T247 -39Q273 -39 290 -24T312 18L323 80Q310 62 280 49T215 36Q174 36 139 47T78 82T37 139T22 221Q22 232 23
243T26 267L38 335Q56 438 111 490T269 542Q318 542 351 525T405 485L413 530H617L528 27Q519 -21 495 -57T434 -117T352 -154T255 -166ZM287 173Q318 173 332 191T351 241L364 317Q365 322 365 326T366 335Q366 359 352 374T308 390Q280 390 266 373T246 324L233
247Q232 242 232 238T231 229Q231 203 246 188T287 173ZM265 674Q265 725 297 754T383 784Q404 784 423 777T457 757T481 725T490 684Q490 636 459 605T370 574Q349 574 330 581T296 601T274 633T265 674Z" />
<glyph unicode="&#x122;" glyph-name="Gcommaaccent" horiz-adv-x="723" d="M474 60Q450 26 404 6T303 -14Q229 -14 174 10T86 77T40 181T41 315L61 428Q87 573 175 643T403 714Q464 714 519 699T616 652T683 571T713 452H506Q498 490 471 511T398 532Q298 532
277 415L256 295Q244 225 267 187T357 148Q403 148 430 170T468 223H361L390 388H711L642 0H463L474 60ZM213 -196Q176 -178 176 -140Q176 -95 205 -72T283 -49Q322 -49 347 -70T373 -125Q373 -156 356 -177T317 -218L281 -250H165L213 -196Z" />
<glyph unicode="&#x123;" glyph-name="gcommaaccent" horiz-adv-x="613" d="M255 -166Q203 -166 158 -156T77 -126T17 -75T-18 -5H185Q190 -21 205 -30T247 -39Q273 -39 290 -24T312 18L323 80Q310 62 280 49T215 36Q174 36 139 47T78 82T37 139T22 221Q22 232
23 243T26 267L38 335Q56 438 111 490T269 542Q318 542 351 525T405 485L413 530H617L528 27Q519 -21 495 -57T434 -117T352 -154T255 -166ZM287 173Q318 173 332 191T351 241L364 317Q365 322 365 326T366 335Q366 359 352 374T308 390Q280 390 266 373T246 324L233
247Q232 242 232 238T231 229Q231 203 246 188T287 173ZM429 694Q447 688 459 677T471 643Q471 624 462 610T437 585T402 569T361 563Q319 563 295 580T271 629Q271 658 288 679T331 721L367 750H480L429 694Z" />
<glyph unicode="&#x124;" glyph-name="Hcircumflex" horiz-adv-x="728" d="M133 700H352L307 451H488L532 700H751L628 0H409L453 251H273L229 0H10L133 700ZM681 742H483L461 788L423 742H223L368 901H592L681 742Z" />
<glyph unicode="&#x125;" glyph-name="hcircumflex" horiz-adv-x="604" d="M128 730H342L301 493Q320 516 353 529T426 542Q503 542 543 500T583 387Q583 375 582 362T579 340L519 0H305L360 312Q364 335 353 348T322 361Q302 361 289 352T270 317L214 0H0L128
730ZM735 772H537L515 818L477 772H277L422 931H646L735 772Z" />
<glyph unicode="&#x126;" glyph-name="Hbar" horiz-adv-x="768" d="M78 637H142L153 700H372L360 637H541L552 700H771L760 637H824L799 496H735L648 0H429L473 251H293L249 0H30L117 496H53L78 637ZM508 451L516 496H335L327 451H508Z" />
<glyph unicode="&#x127;" glyph-name="hbar" horiz-adv-x="604" d="M75 681H119L128 730H342L334 681H400L374 532H308L296 465Q315 488 348 501T421 514Q498 514 538 472T578 359Q578 347 577 334T574 312L519 0H305L355 284Q359 307 348 320T317 333Q297 333
284 324T265 289L214 0H0L93 532H49L75 681Z" />
<glyph unicode="&#x128;" glyph-name="Itilde" horiz-adv-x="333" d="M135 700H354L231 0H12L135 700ZM-13 772Q-5 808 6 835T36 882T82 910T150 920Q175 920 202 916T253 906T297 897T327 892Q345 892 351 901T361 925L512 882Q505 850 495 824T467 779T423 750T359
739Q332 739 304 743T252 752T207 762T175 766Q158 766 151 756T139 732L-13 772Z" />
<glyph unicode="&#x129;" glyph-name="itilde" horiz-adv-x="304" d="M93 530H307L214 0H0L93 530ZM233 606Q243 641 255 668T284 715T324 745T379 755Q402 755 425 751T468 741T505 732T530 727Q547 727 553 736T566 760L706 717Q688 650 655 612T561 573Q538
573 515 577T472 586T435 595T409 599Q395 599 388 592T374 567L233 606Z" />
<glyph unicode="&#x12a;" glyph-name="uni012A" horiz-adv-x="333" d="M135 700H354L231 0H12L135 700ZM330 900H756L729 743H303L330 900Z" />
<glyph unicode="&#x12b;" glyph-name="imacron" horiz-adv-x="304" d="M93 530H307L214 0H0L93 530ZM300 734H684L656 578H272L300 734Z" />
<glyph unicode="&#x12c;" glyph-name="Ibreve" horiz-adv-x="333" d="M135 700H354L231 0H12L135 700ZM521 742Q477 742 439 752T373 783T330 833T316 901H498Q495 882 504 871T532 860Q552 860 564 872T578 901H760Q751 858 729 828T676 779T605 751T521 742Z" />
<glyph unicode="&#x12d;" glyph-name="uni012D" horiz-adv-x="304" d="M93 530H307L214 0H0L93 530ZM474 576Q435 576 398 586T332 617T289 669T277 745H445Q441 723 452 710T486 696Q509 696 520 710T535 745H703Q692 667 635 622T474 576Z" />
<glyph unicode="&#x12e;" glyph-name="Iogonek" horiz-adv-x="333" d="M57 -186Q-53 -186 -53 -110Q-53 -72 -37 -46T12 0L135 700H354L231 0H152Q137 -11 126 -24T114 -55Q114 -73 139 -73Q150 -73 162 -71T182 -67L163 -171Q155 -174 142 -176T115 -181T85 -184T57
-186Z" />
<glyph unicode="&#x12f;" glyph-name="iogonek" horiz-adv-x="304" d="M42 -186Q-68 -186 -68 -110Q-68 -91 -64 -77T-52 -51T-31 -26T0 0L93 527Q116 515 147 509T210 503Q237 503 262 508T306 524L214 0H140Q125 -10 112 -23T99 -55Q99 -73 124 -73Q135 -73
147 -71T167 -67L148 -171Q127 -176 99 -181T42 -186ZM107 651Q107 702 139 732T227 763Q248 763 268 756T303 735T327 703T336 661Q336 612 304 581T214 549Q192 549 173 556T139 577T116 609T107 651Z" />
<glyph unicode="&#x130;" glyph-name="Idotaccent" horiz-adv-x="333" d="M135 700H354L231 0H12L135 700ZM157 837Q157 888 189 917T275 947Q296 947 315 940T349 920T373 888T382 847Q382 799 351 768T262 737Q241 737 222 744T188 764T166 796T157 837Z" />
<glyph unicode="&#x131;" glyph-name="dotlessi" horiz-adv-x="304" d="M93 530H307L214 0H0L93 530Z" />
<glyph unicode="&#x132;" glyph-name="IJ" horiz-adv-x="959" d="M135 700H354L231 0H12L135 700ZM605 -14Q550 -14 504 1T423 44T370 110T351 196Q351 207 352 218T356 242H564Q563 237 563 233T562 223Q562 199 575 184T617 168Q648 168 663 187T684 234L766
700H985L901 222Q892 169 869 126T809 51T721 3T605 -14Z" />
<glyph unicode="&#x133;" glyph-name="ij" horiz-adv-x="608" d="M93 527Q116 515 147 509T210 503Q237 503 262 508T306 524L214 0H0L93 527ZM107 651Q107 702 139 732T227 763Q248 763 268 756T303 735T327 703T336 661Q336 612 304 581T214 549Q192 549 173
556T139 577T116 609T107 651ZM513 -27Q500 -99 460 -132T349 -166Q317 -166 283 -162T219 -148L241 -22Q254 -28 272 -28Q298 -28 303 -5L397 527Q420 515 451 509T514 503Q541 503 566 508T610 524L513 -27ZM411 651Q411 702 443 732T531 763Q552 763 572 756T607
735T631 703T640 661Q640 612 608 581T518 549Q496 549 477 556T443 577T420 609T411 651Z" />
<glyph unicode="&#x134;" glyph-name="Jcircumflex" horiz-adv-x="626" d="M272 -14Q217 -14 171 1T90 44T37 110T18 196Q18 207 19 218T23 242H231Q230 237 230 233T229 223Q229 199 242 184T284 168Q315 168 330 187T351 234L433 700H652L568 222Q559 169 536
126T476 51T388 3T272 -14ZM775 742H577L555 788L517 742H317L462 901H686L775 742Z" />
<glyph unicode="&#x135;" glyph-name="jcircumflex" horiz-adv-x="304" d="M209 -27Q196 -99 156 -132T45 -166Q13 -166 -21 -162T-85 -148L-63 -22Q-50 -28 -32 -28Q-6 -28 -1 -5L93 527Q116 515 147 509T210 503Q237 503 262 508T306 524L209 -27ZM127 742H347L428
573H244L220 630L181 573H-9L127 742Z" />
<glyph unicode="&#x136;" glyph-name="Kcommaaccent" horiz-adv-x="690" d="M133 700H352L297 385L494 700H755L518 340L638 0H384L286 325L229 0H10L133 700ZM200 -196Q163 -178 163 -140Q163 -95 192 -72T270 -49Q309 -49 334 -70T360 -125Q360 -156 343 -177T304
-218L268 -250H152L200 -196Z" />
<glyph unicode="&#x137;" glyph-name="kcommaaccent" horiz-adv-x="587" d="M130 730H344L267 295L386 530H627L467 249L534 0H308L258 244L215 0H1L130 730ZM156 -196Q119 -178 119 -140Q119 -95 148 -72T226 -49Q265 -49 290 -70T316 -125Q316 -156 299 -177T260
-218L224 -250H108L156 -196Z" />
<glyph unicode="&#x138;" glyph-name="kgreenlandic" horiz-adv-x="587" d="M95 530H309L267 295L386 530H627L467 249L534 0H308L257 239L215 0H1L95 530Z" />
<glyph unicode="&#x139;" glyph-name="Lacute" horiz-adv-x="583" d="M133 700H352L261 182H545L513 0H10L133 700ZM398 742Q422 781 442 818T482 901H752Q737 880 720 858T683 814T646 774T611 742H398Z" />
<glyph unicode="&#x13a;" glyph-name="lacute" horiz-adv-x="304" d="M128 730H342L214 0H0L128 730ZM390 772Q414 811 434 848T474 931H744Q729 910 712 888T675 844T638 804T603 772H390Z" />
<glyph unicode="&#x13b;" glyph-name="Lcommaaccent" horiz-adv-x="583" d="M133 700H352L261 182H545L513 0H10L133 700ZM150 -196Q113 -178 113 -140Q113 -95 142 -72T220 -49Q259 -49 284 -70T310 -125Q310 -156 293 -177T254 -218L218 -250H102L150 -196Z" />
<glyph unicode="&#x13c;" glyph-name="lcommaaccent" horiz-adv-x="304" d="M128 730H342L214 0H0L128 730ZM242 -196Q205 -178 205 -140Q205 -95 234 -72T312 -49Q351 -49 376 -70T402 -125Q402 -156 385 -177T346 -218L310 -250H194L242 -196Z" />
<glyph unicode="&#x13d;" glyph-name="Lcaron" horiz-adv-x="583" d="M457 528Q437 536 421 553T405 603Q405 644 431 672T509 700Q554 700 577 674T600 611Q600 594 595 580T582 554T563 531T539 506L483 448H388L457 528ZM133 700H352L261 182H545L513 0H10L133 700Z" />
<glyph unicode="&#x13e;" glyph-name="lcaron" horiz-adv-x="524" d="M452 558Q432 566 416 583T400 633Q400 674 426 702T504 730Q549 730 572 704T595 641Q595 624 590 610T577 584T558 561T534 536L478 478H383L452 558ZM128 730H342L214 0H0L128 730Z" />
<glyph unicode="&#x13f;" glyph-name="Ldot" horiz-adv-x="583" d="M133 700H352L261 182H545L513 0H10L133 700ZM338 345Q338 368 346 389T370 426T407 451T456 461Q477 461 494 454T525 433T546 402T554 363Q554 341 546 320T523 283T486 256T436 245Q394 245
366 273T338 345Z" />
<glyph unicode="&#x140;" glyph-name="ldot" horiz-adv-x="525" d="M128 730H342L214 0H0L128 730ZM308 272Q308 295 316 316T340 353T377 378T426 388Q447 388 464 381T495 360T516 329T524 290Q524 268 516 247T493 210T456 183T406 172Q364 172 336 200T308 272Z" />
<glyph unicode="&#x141;" glyph-name="Lslash" horiz-adv-x="602" d="M32 323L91 355L152 700H371L333 485L436 540L401 341L298 286L280 182H564L532 0H29L56 156L-4 124L32 323Z" />
<glyph unicode="&#x142;" glyph-name="lslash" horiz-adv-x="325" d="M23 311L67 341L135 730H349L310 507L358 540L323 343L275 310L221 0H7L32 144L-12 114L23 311Z" />
<glyph unicode="&#x143;" glyph-name="Nacute" horiz-adv-x="733" d="M133 700H341L485 375L542 700H756L633 0H425L281 325L224 0H10L133 700ZM327 742Q351 781 371 818T411 901H681Q666 880 649 858T612 814T575 774T540 742H327Z" />
<glyph unicode="&#x144;" glyph-name="nacute" horiz-adv-x="604" d="M93 530H298L289 480Q310 510 345 526T426 542Q503 542 543 500T583 387Q583 375 582 362T579 340L519 0H305L360 312Q364 335 353 348T322 361Q302 361 289 352T270 317L214 0H0L93 530ZM247
573Q260 595 270 615T290 655T308 696T326 742H590Q558 691 522 648T450 573H247Z" />
<glyph unicode="&#x145;" glyph-name="Ncommaaccent" horiz-adv-x="733" d="M133 700H341L485 375L542 700H756L633 0H425L281 325L224 0H10L133 700ZM211 -196Q174 -178 174 -140Q174 -95 203 -72T281 -49Q320 -49 345 -70T371 -125Q371 -156 354 -177T315 -218L279
-250H163L211 -196Z" />
<glyph unicode="&#x146;" glyph-name="ncommaaccent" horiz-adv-x="604" d="M93 530H298L289 480Q310 510 345 526T426 542Q503 542 543 500T583 387Q583 375 582 362T579 340L519 0H305L360 312Q364 335 353 348T322 361Q302 361 289 352T270 317L214 0H0L93
530ZM148 -196Q111 -178 111 -140Q111 -95 140 -72T218 -49Q257 -49 282 -70T308 -125Q308 -156 291 -177T252 -218L216 -250H100L148 -196Z" />
<glyph unicode="&#x147;" glyph-name="Ncaron" horiz-adv-x="733" d="M133 700H341L485 375L542 700H756L633 0H425L281 325L224 0H10L133 700ZM241 901H439L461 855L499 901H699L554 742H330L241 901Z" />
<glyph unicode="&#x148;" glyph-name="ncaron" horiz-adv-x="604" d="M93 530H298L289 480Q310 510 345 526T426 542Q503 542 543 500T583 387Q583 375 582 362T579 340L519 0H305L360 312Q364 335 353 348T322 361Q302 361 289 352T270 317L214 0H0L93 530ZM462
573H242L161 742H345L369 685L408 742H598L462 573Z" />
<glyph unicode="&#x149;" glyph-name="napostrophe" horiz-adv-x="799" d="M409 558Q389 566 373 583T357 633Q357 674 383 702T461 730Q506 730 529 704T552 641Q552 624 547 610T534 584T515 561T491 536L435 478H340L409 558ZM288 530H493L484 480Q505 510
540 526T621 542Q698 542 738 500T778 387Q778 375 777 362T774 340L714 0H500L555 312Q559 335 548 348T517 361Q497 361 484 352T465 317L409 0H195L288 530Z" />
<glyph unicode="&#x14a;" glyph-name="Eng" horiz-adv-x="733" d="M133 700H341L485 375L542 700H756L633 -2Q619 -83 573 -128T438 -174H318L346 -14H383Q417 -14 421 9L281 325L224 0H10L133 700Z" />
<glyph unicode="&#x14b;" glyph-name="eng" horiz-adv-x="604" d="M93 530H298L289 480Q310 510 345 526T426 542Q503 542 543 500T583 387Q583 375 582 362T579 340L518 -6Q503 -92 455 -133T323 -174H237L265 -14H282Q303 -14 306 6L360 312Q364 335 353 348T322
361Q302 361 289 352T270 317L214 0H0L93 530Z" />
<glyph unicode="&#x14c;" glyph-name="Omacron" horiz-adv-x="729" d="M360 168Q414 168 441 203T480 296L496 386Q498 395 499 405T500 424Q500 475 473 503T392 532Q338 532 312 501T274 409L259 323Q257 315 256 302T254 278Q254 228 278 198T360 168ZM354
-14Q283 -14 225 7T125 66T60 158T37 275Q37 307 43 340L58 425Q84 572 169 643T402 714Q468 714 525 695T625 640T692 551T717 431Q717 417 715 397T711 363L697 284Q685 217 657 162T586 68T484 8T354 -14ZM259 900H685L658 743H232L259 900Z" />
<glyph unicode="&#x14d;" glyph-name="omacron" horiz-adv-x="577" d="M279 157Q305 157 319 172T337 210L353 301Q355 311 355 319Q355 345 340 359T298 373Q251 373 242 317L225 221Q224 216 224 213T224 208Q224 185 238 171T279 157ZM275 -12Q221 -12 174
3T93 48T40 119T20 212Q20 225 21 236T25 261L37 329Q56 436 124 489T298 542Q349 542 396 529T479 487T538 417T560 317Q560 306 559 292T555 266L544 204Q526 104 457 46T275 -12ZM175 734H559L531 578H147L175 734Z" />
<glyph unicode="&#x14e;" glyph-name="Obreve" horiz-adv-x="729" d="M360 168Q414 168 441 203T480 296L496 386Q498 395 499 405T500 424Q500 475 473 503T392 532Q338 532 312 501T274 409L259 323Q257 315 256 302T254 278Q254 228 278 198T360 168ZM354 -14Q283
-14 225 7T125 66T60 158T37 275Q37 307 43 340L58 425Q84 572 169 643T402 714Q468 714 525 695T625 640T692 551T717 431Q717 417 715 397T711 363L697 284Q685 217 657 162T586 68T484 8T354 -14ZM445 742Q401 742 363 752T297 783T254 833T240 901H422Q419
882 428 871T456 860Q476 860 488 872T502 901H684Q675 858 653 828T600 779T529 751T445 742Z" />
<glyph unicode="&#x14f;" glyph-name="obreve" horiz-adv-x="577" d="M279 157Q305 157 319 172T337 210L353 301Q355 311 355 319Q355 345 340 359T298 373Q251 373 242 317L225 221Q224 216 224 213T224 208Q224 185 238 171T279 157ZM275 -12Q221 -12 174 3T93
48T40 119T20 212Q20 225 21 236T25 261L37 329Q56 436 124 489T298 542Q349 542 396 529T479 487T538 417T560 317Q560 306 559 292T555 266L544 204Q526 104 457 46T275 -12ZM345 573Q306 573 269 583T203 614T160 666T148 742H316Q312 720 323 707T357 693Q380
693 391 707T406 742H574Q563 664 506 619T345 573Z" />
<glyph unicode="&#x150;" glyph-name="Ohungarumlaut" horiz-adv-x="729" d="M360 168Q414 168 441 203T480 296L496 386Q498 395 499 405T500 424Q500 475 473 503T392 532Q338 532 312 501T274 409L259 323Q257 315 256 302T254 278Q254 228 278 198T360 168ZM354
-14Q283 -14 225 7T125 66T60 158T37 275Q37 307 43 340L58 425Q84 572 169 643T402 714Q468 714 525 695T625 640T692 551T717 431Q717 417 715 397T711 363L697 284Q685 217 657 162T586 68T484 8T354 -14ZM231 742Q241 770 254 814T277 901H500Q486 859 468
819T426 742H231ZM469 742Q489 778 505 816T537 901H760Q739 859 715 818T664 742H469Z" />
<glyph unicode="&#x151;" glyph-name="ohungarumlaut" horiz-adv-x="577" d="M279 157Q305 157 319 172T337 210L353 301Q355 311 355 319Q355 345 340 359T298 373Q251 373 242 317L225 221Q224 216 224 213T224 208Q224 185 238 171T279 157ZM275 -12Q221 -12
174 3T93 48T40 119T20 212Q20 225 21 236T25 261L37 329Q56 436 124 489T298 542Q349 542 396 529T479 487T538 417T560 317Q560 306 559 292T555 266L544 204Q526 104 457 46T275 -12ZM142 573Q156 609 168 653T189 742H400Q387 699 366 656T325 573H142ZM370
573Q390 611 407 652T439 742H650Q640 720 628 697T604 651T578 608T553 573H370Z" />
<glyph unicode="&#x152;" glyph-name="OE" horiz-adv-x="1057" d="M349 0Q272 0 214 20T117 78T57 166T37 278Q37 297 39 316T44 352L51 391Q65 470 94 528T171 625T283 681T435 700H1100L1068 520H758L745 444H1026L993 264H713L699 180H1009L978 0H349ZM259
329Q257 317 256 307T255 288Q255 233 285 207T371 180H479L539 520H421Q383 520 357 511T313 484T285 438T267 373L259 329Z" />
<glyph unicode="&#x153;" glyph-name="oe" horiz-adv-x="881" d="M584 -12Q536 -12 499 -2T432 35Q408 14 365 1T275 -12Q221 -12 174 3T93 48T40 119T20 212Q20 225 21 236T25 261L37 329Q56 436 124 489T298 542Q356 542 394 529T462 493Q481 506 499 515T536
531T578 539T630 542Q685 542 728 527T802 484T849 418T865 333Q865 322 864 310T860 283L848 214H545L541 190Q536 163 549 145T593 127Q614 127 627 137T648 163H835Q826 129 806 98T755 42T681 3T584 -12ZM279 157Q305 157 319 172T337 210L353 301Q355 311
355 319Q355 345 340 359T298 373Q251 373 242 317L225 221Q224 216 224 213T224 208Q224 185 238 171T279 157ZM564 318H670L674 341Q675 346 675 349T675 354Q675 400 627 400Q601 400 587 385T568 341L564 318Z" />
<glyph unicode="&#x154;" glyph-name="Racute" horiz-adv-x="717" d="M330 184H260L229 0H10L133 700H485Q537 700 579 683T652 635T698 562T715 471Q715 382 674 316T555 216L654 0H405L330 184ZM401 357Q442 357 468 383T495 452Q495 482 477 503T424 525H321L291
357H401ZM301 742Q325 781 345 818T385 901H655Q640 880 623 858T586 814T549 774T514 742H301Z" />
<glyph unicode="&#x155;" glyph-name="racute" horiz-adv-x="391" d="M93 530H296L281 445Q308 535 396 535Q415 535 425 531L388 323Q376 326 354 326Q309 326 287 305T255 233L214 0H0L93 530ZM163 573Q176 595 186 615T206 655T224 696T242 742H506Q474 691
438 648T366 573H163Z" />
<glyph unicode="&#x156;" glyph-name="Rcommaaccent" horiz-adv-x="717" d="M330 184H260L229 0H10L133 700H485Q537 700 579 683T652 635T698 562T715 471Q715 382 674 316T555 216L654 0H405L330 184ZM401 357Q442 357 468 383T495 452Q495 482 477 503T424
525H321L291 357H401ZM203 -196Q166 -178 166 -140Q166 -95 195 -72T273 -49Q312 -49 337 -70T363 -125Q363 -156 346 -177T307 -218L271 -250H155L203 -196Z" />
<glyph unicode="&#x157;" glyph-name="rcommaaccent" horiz-adv-x="391" d="M93 530H296L281 445Q308 535 396 535Q415 535 425 531L388 323Q376 326 354 326Q309 326 287 305T255 233L214 0H0L93 530ZM244 -196Q207 -178 207 -140Q207 -95 236 -72T314 -49Q353
-49 378 -70T404 -125Q404 -156 387 -177T348 -218L312 -250H196L244 -196Z" />
<glyph unicode="&#x158;" glyph-name="Rcaron" horiz-adv-x="717" d="M330 184H260L229 0H10L133 700H485Q537 700 579 683T652 635T698 562T715 471Q715 382 674 316T555 216L654 0H405L330 184ZM401 357Q442 357 468 383T495 452Q495 482 477 503T424 525H321L291
357H401ZM213 901H411L433 855L471 901H671L526 742H302L213 901Z" />
<glyph unicode="&#x159;" glyph-name="rcaron" horiz-adv-x="391" d="M93 530H296L281 445Q308 535 396 535Q415 535 425 531L388 323Q376 326 354 326Q309 326 287 305T255 233L214 0H0L93 530ZM639 573H419L338 742H522L546 685L585 742H775L639 573Z" />
<glyph unicode="&#x15a;" glyph-name="Sacute" horiz-adv-x="647" d="M297 -14Q170 -14 99 38T28 183Q28 208 33 230H239Q236 219 236 209Q236 183 256 168T319 152Q335 152 350 155T377 166T396 185T403 212Q403 225 396 234T375 247L244 277Q163 296 121 338T78
453Q78 578 156 646T375 714Q426 714 472 702T554 667T611 608T632 526Q632 506 627 481H425Q427 491 427 500Q427 522 413 535T366 548Q341 548 320 539T299 501Q299 487 305 480T322 471L468 435Q622 397 622 259Q622 194 597 144T528 58T425 5T297 -14ZM286
742Q310 781 330 818T370 901H640Q625 880 608 858T571 814T534 774T499 742H286Z" />
<glyph unicode="&#x15b;" glyph-name="sacute" horiz-adv-x="526" d="M229 -12Q188 -12 148 -4T75 21T23 65T2 131Q2 139 3 147T6 163H194Q191 143 204 133T244 122Q264 122 280 130T296 156Q296 163 293 168T278 175L155 201Q100 212 68 245T36 336Q36 389 55
427T109 491T191 529T293 542Q334 542 374 535T445 510T496 464T516 393Q516 385 516 378T514 365H326Q328 371 328 378Q328 394 317 401T288 408Q273 408 260 402T247 378Q247 360 266 356L393 327Q449 315 477 280T506 196Q506 146 485 107T427 42T339 2T229
-12ZM207 573Q220 595 230 615T250 655T268 696T286 742H550Q518 691 482 648T410 573H207Z" />
<glyph unicode="&#x15c;" glyph-name="Scircumflex" horiz-adv-x="647" d="M297 -14Q170 -14 99 38T28 183Q28 208 33 230H239Q236 219 236 209Q236 183 256 168T319 152Q335 152 350 155T377 166T396 185T403 212Q403 225 396 234T375 247L244 277Q163 296 121
338T78 453Q78 578 156 646T375 714Q426 714 472 702T554 667T611 608T632 526Q632 506 627 481H425Q427 491 427 500Q427 522 413 535T366 548Q341 548 320 539T299 501Q299 487 305 480T322 471L468 435Q622 397 622 259Q622 194 597 144T528 58T425 5T297 -14ZM626
742H428L406 788L368 742H168L313 901H537L626 742Z" />
<glyph unicode="&#x15d;" glyph-name="scircumflex" horiz-adv-x="526" d="M229 -12Q188 -12 148 -4T75 21T23 65T2 131Q2 139 3 147T6 163H194Q191 143 204 133T244 122Q264 122 280 130T296 156Q296 163 293 168T278 175L155 201Q100 212 68 245T36 336Q36 389
55 427T109 491T191 529T293 542Q334 542 374 535T445 510T496 464T516 393Q516 385 516 378T514 365H326Q328 371 328 378Q328 394 317 401T288 408Q273 408 260 402T247 378Q247 360 266 356L393 327Q449 315 477 280T506 196Q506 146 485 107T427 42T339 2T229
-12ZM484 742H704L785 573H601L577 630L538 573H348L484 742Z" />
<glyph unicode="&#x15e;" glyph-name="Scedilla" horiz-adv-x="647" d="M289 -186Q267 -186 243 -184T201 -178L213 -113Q228 -116 247 -116Q261 -116 269 -113T278 -98Q278 -84 255 -82L232 -80L258 -13Q149 -5 89 46T28 183Q28 208 33 230H239Q236 219 236 209Q236
183 256 168T319 152Q335 152 350 155T377 166T396 185T403 212Q403 225 396 234T375 247L244 277Q163 296 121 338T78 453Q78 578 156 646T375 714Q426 714 472 702T554 667T611 608T632 526Q632 506 627 481H425Q427 491 427 500Q427 522 413 535T366 548Q341
548 320 539T299 501Q299 487 305 480T322 471L468 435Q622 397 622 259Q622 199 600 151T540 68T448 13T334 -12L330 -30L348 -31Q386 -33 406 -50T427 -98Q427 -123 416 -139T385 -166T340 -181T289 -186Z" />
<glyph unicode="&#x15f;" glyph-name="scedilla" horiz-adv-x="526" d="M217 -186Q195 -186 171 -184T129 -178L141 -113Q156 -116 175 -116Q189 -116 197 -113T206 -98Q206 -84 183 -82L160 -80L187 -10Q151 -6 118 4T59 31T18 73T2 131Q2 139 3 147T6 163H194Q191
143 204 133T244 122Q264 122 280 130T296 156Q296 163 293 168T278 175L155 201Q100 212 68 245T36 336Q36 389 55 427T109 491T191 529T293 542Q334 542 374 535T445 510T496 464T516 393Q516 385 516 378T514 365H326Q328 371 328 378Q328 394 317 401T288 408Q273
408 260 402T247 378Q247 360 266 356L393 327Q449 315 477 280T506 196Q506 149 488 113T437 50T360 8T263 -11L258 -30L276 -31Q314 -33 334 -50T355 -98Q355 -123 344 -139T313 -166T268 -181T217 -186Z" />
<glyph unicode="&#x160;" glyph-name="Scaron" horiz-adv-x="647" d="M297 -14Q170 -14 99 38T28 183Q28 208 33 230H239Q236 219 236 209Q236 183 256 168T319 152Q335 152 350 155T377 166T396 185T403 212Q403 225 396 234T375 247L244 277Q163 296 121 338T78
453Q78 578 156 646T375 714Q426 714 472 702T554 667T611 608T632 526Q632 506 627 481H425Q427 491 427 500Q427 522 413 535T366 548Q341 548 320 539T299 501Q299 487 305 480T322 471L468 435Q622 397 622 259Q622 194 597 144T528 58T425 5T297 -14ZM195
901H393L415 855L453 901H653L508 742H284L195 901Z" />
<glyph unicode="&#x161;" glyph-name="scaron" horiz-adv-x="526" d="M229 -12Q188 -12 148 -4T75 21T23 65T2 131Q2 139 3 147T6 163H194Q191 143 204 133T244 122Q264 122 280 130T296 156Q296 163 293 168T278 175L155 201Q100 212 68 245T36 336Q36 389 55
427T109 491T191 529T293 542Q334 542 374 535T445 510T496 464T516 393Q516 385 516 378T514 365H326Q328 371 328 378Q328 394 317 401T288 408Q273 408 260 402T247 378Q247 360 266 356L393 327Q449 315 477 280T506 196Q506 146 485 107T427 42T339 2T229
-12ZM670 573H450L369 742H553L577 685L616 742H806L670 573Z" />
<glyph unicode="&#x162;" glyph-name="Tcommaaccent" horiz-adv-x="611" d="M141 -196Q104 -178 104 -140Q104 -95 133 -72T211 -49Q250 -49 275 -70T301 -125Q301 -156 284 -177T245 -218L209 -250H93L141 -196ZM242 516H67L100 700H667L634 516H461L370 0H151L242 516Z" />
<glyph unicode="&#x163;" glyph-name="tcommaaccent" horiz-adv-x="391" d="M55 -196Q18 -178 18 -140Q18 -95 47 -72T125 -49Q164 -49 189 -70T215 -125Q215 -156 198 -177T159 -218L123 -250H7L55 -196ZM36 372L64 530H122L147 672H361L336 530H419L391 372H308L274
182Q268 146 305 146Q317 146 328 148T347 152L322 8Q314 5 300 2T269 -5T234 -10T200 -12Q115 -12 78 29T54 146L94 372H36Z" />
<glyph unicode="&#x164;" glyph-name="Tcaron" horiz-adv-x="611" d="M242 516H67L100 700H667L634 516H461L370 0H151L242 516ZM183 901H381L403 855L441 901H641L496 742H272L183 901Z" />
<glyph unicode="&#x165;" glyph-name="tcaron" horiz-adv-x="481" d="M421 614Q384 632 384 670Q384 715 413 738T491 761Q530 761 555 740T581 685Q581 654 564 633T525 592L489 560H373L421 614ZM36 372L64 530H122L147 672H361L336 530H419L391 372H308L274
182Q268 146 305 146Q317 146 328 148T347 152L322 8Q314 5 300 2T269 -5T234 -10T200 -12Q115 -12 78 29T54 146L94 372H36Z" />
<glyph unicode="&#x166;" glyph-name="Tbar" horiz-adv-x="611" d="M118 403H222L242 516H67L100 700H667L634 516H461L441 403H545L513 222H409L370 0H151L190 222H86L118 403Z" />
<glyph unicode="&#x167;" glyph-name="tbar" horiz-adv-x="391" d="M38 372L66 530H124L149 672H363L338 530H421L393 372H310L305 343H374L348 196H278L276 182Q270 146 307 146Q319 146 330 148T349 152L324 8Q316 5 302 2T271 -5T236 -10T202 -12Q117 -12 80
29T56 146L65 196H8L34 343H91L96 372H38Z" />
<glyph unicode="&#x168;" glyph-name="Utilde" horiz-adv-x="721" d="M333 -14Q275 -14 223 4T132 54T71 130T48 229Q48 238 49 249T52 272L127 700H346L271 273Q269 263 269 253Q269 215 291 193T352 170Q396 170 421 195T454 266L531 700H750L674 271Q651 138
567 62T333 -14ZM191 772Q199 808 210 835T240 882T286 910T354 920Q379 920 406 916T457 906T501 897T531 892Q549 892 555 901T565 925L716 882Q709 850 699 824T671 779T627 750T563 739Q536 739 508 743T456 752T411 762T379 766Q362 766 355 756T343 732L191
772Z" />
<glyph unicode="&#x169;" glyph-name="utilde" horiz-adv-x="601" d="M511 0H306L315 50Q298 24 261 6T178 -12Q103 -12 64 33T25 149Q25 161 26 173T30 199L89 530H303L246 210Q242 190 252 176T284 161Q304 161 316 173T332 204L390 530H604L511 0ZM134 606Q144
641 156 668T185 715T225 745T280 755Q303 755 326 751T369 741T406 732T431 727Q448 727 454 736T467 760L607 717Q589 650 556 612T462 573Q439 573 416 577T373 586T336 595T310 599Q296 599 289 592T275 567L134 606Z" />
<glyph unicode="&#x16a;" glyph-name="Umacron" horiz-adv-x="721" d="M333 -14Q275 -14 223 4T132 54T71 130T48 229Q48 238 49 249T52 272L127 700H346L271 273Q269 263 269 253Q269 215 291 193T352 170Q396 170 421 195T454 266L531 700H750L674 271Q651 138
567 62T333 -14ZM261 900H687L660 743H234L261 900Z" />
<glyph unicode="&#x16b;" glyph-name="umacron" horiz-adv-x="601" d="M511 0H306L315 50Q298 24 261 6T178 -12Q103 -12 64 33T25 149Q25 161 26 173T30 199L89 530H303L246 210Q242 190 252 176T284 161Q304 161 316 173T332 204L390 530H604L511 0ZM190 734H574L546
578H162L190 734Z" />
<glyph unicode="&#x16c;" glyph-name="Ubreve" horiz-adv-x="721" d="M333 -14Q275 -14 223 4T132 54T71 130T48 229Q48 238 49 249T52 272L127 700H346L271 273Q269 263 269 253Q269 215 291 193T352 170Q396 170 421 195T454 266L531 700H750L674 271Q651 138
567 62T333 -14ZM461 742Q417 742 379 752T313 783T270 833T256 901H438Q435 882 444 871T472 860Q492 860 504 872T518 901H700Q691 858 669 828T616 779T545 751T461 742Z" />
<glyph unicode="&#x16d;" glyph-name="ubreve" horiz-adv-x="601" d="M511 0H306L315 50Q298 24 261 6T178 -12Q103 -12 64 33T25 149Q25 161 26 173T30 199L89 530H303L246 210Q242 190 252 176T284 161Q304 161 316 173T332 204L390 530H604L511 0ZM363 573Q324
573 287 583T221 614T178 666T166 742H334Q330 720 341 707T375 693Q398 693 409 707T424 742H592Q581 664 524 619T363 573Z" />
<glyph unicode="&#x16e;" glyph-name="Uring" horiz-adv-x="721" d="M333 -14Q275 -14 223 4T132 54T71 130T48 229Q48 238 49 249T52 272L127 700H346L271 273Q269 263 269 253Q269 215 291 193T352 170Q396 170 421 195T454 266L531 700H750L674 271Q651 138
567 62T333 -14ZM461 807Q484 807 499 821T515 856Q515 873 503 883T471 893Q448 893 433 881T417 846Q417 829 428 818T461 807ZM457 742Q433 742 411 748T370 766T341 797T330 841Q330 898 370 928T477 958Q499 958 521 952T561 934T590 904T601 861Q601 833
590 811T559 774T513 750T457 742Z" />
<glyph unicode="&#x16f;" glyph-name="uring" horiz-adv-x="601" d="M511 0H306L315 50Q298 24 261 6T178 -12Q103 -12 64 33T25 149Q25 161 26 173T30 199L89 530H303L246 210Q242 190 252 176T284 161Q304 161 316 173T332 204L390 530H604L511 0ZM365 634Q388
634 403 648T419 683Q419 700 407 710T375 720Q352 720 337 708T321 673Q321 656 332 645T365 634ZM361 569Q337 569 315 575T274 593T245 624T234 668Q234 725 274 755T381 785Q403 785 425 779T465 761T494 731T505 688Q505 660 494 638T463 601T417 577T361
569Z" />
<glyph unicode="&#x170;" glyph-name="Uhungarumlaut" horiz-adv-x="721" d="M333 -14Q275 -14 223 4T132 54T71 130T48 229Q48 238 49 249T52 272L127 700H346L271 273Q269 263 269 253Q269 215 291 193T352 170Q396 170 421 195T454 266L531 700H750L674 271Q651
138 567 62T333 -14ZM228 742Q238 770 251 814T274 901H497Q483 859 465 819T423 742H228ZM466 742Q486 778 502 816T534 901H757Q736 859 712 818T661 742H466Z" />
<glyph unicode="&#x171;" glyph-name="uhungarumlaut" horiz-adv-x="601" d="M511 0H306L315 50Q298 24 261 6T178 -12Q103 -12 64 33T25 149Q25 161 26 173T30 199L89 530H303L246 210Q242 190 252 176T284 161Q304 161 316 173T332 204L390 530H604L511 0ZM155
573Q169 609 181 653T202 742H413Q400 699 379 656T338 573H155ZM383 573Q403 611 420 652T452 742H663Q653 720 641 697T617 651T591 608T566 573H383Z" />
<glyph unicode="&#x172;" glyph-name="Uogonek" horiz-adv-x="721" d="M353 -186Q243 -186 243 -110Q243 -77 260 -54T303 -13Q250 -9 204 11T123 62T68 136T48 229Q48 238 49 249T52 272L127 700H346L271 273Q269 263 269 253Q269 215 291 193T352 170Q396 170
421 195T454 266L531 700H750L674 271Q665 218 650 179T610 109T550 54T466 5Q446 -5 428 -18T410 -52Q410 -73 435 -73Q446 -73 458 -71T478 -67L459 -171Q438 -176 410 -181T353 -186Z" />
<glyph unicode="&#x173;" glyph-name="uogonek" horiz-adv-x="601" d="M346 -186Q236 -186 236 -110Q236 -72 255 -46T306 0L315 50Q298 24 261 6T178 -12Q103 -12 64 33T25 149Q25 161 26 173T30 199L89 530H303L246 210Q242 190 252 176T284 161Q304 161 316
173T332 204L390 530H604L511 0H446Q430 -11 417 -23T403 -55Q403 -73 428 -73Q439 -73 451 -71T471 -67L452 -171Q431 -176 403 -181T346 -186Z" />
<glyph unicode="&#x174;" glyph-name="Wcircumflex" horiz-adv-x="1012" d="M93 700H317L314 314L476 700H686L720 314L849 700H1075L784 0H572L536 425L351 0H139L93 700ZM819 742H621L599 788L561 742H361L506 901H730L819 742Z" />
<glyph unicode="&#x175;" glyph-name="wcircumflex" horiz-adv-x="831" d="M56 530H261L253 266L372 530H553L582 266L665 530H872L647 0H455L418 259L288 0H95L56 530ZM391 742H611L692 573H508L484 630L445 573H255L391 742Z" />
<glyph unicode="&#x176;" glyph-name="Ycircumflex" horiz-adv-x="672" d="M219 242L73 700H310L364 442L502 700H746L434 220L396 0H177L219 242ZM645 742H447L425 788L387 742H187L332 901H556L645 742Z" />
<glyph unicode="&#x177;" glyph-name="ycircumflex" horiz-adv-x="540" d="M333 0Q313 -39 294 -70T252 -122T198 -155T124 -166Q95 -166 65 -162T13 -148L37 -13Q46 -19 60 -22T86 -26Q101 -26 108 -22T121 -7L126 2L44 530H255L264 217L383 530H594L333 0ZM242
742H462L543 573H359L335 630L296 573H106L242 742Z" />
<glyph unicode="&#x178;" glyph-name="Ydieresis" horiz-adv-x="672" d="M219 242L73 700H310L364 442L502 700H746L434 220L396 0H177L219 242ZM202 819Q202 864 230 892T310 920Q328 920 344 914T373 898T394 872T402 838Q402 819 395 801T374 769T340 747T291
738Q253 738 228 759T202 819ZM449 819Q449 864 477 892T557 920Q575 920 591 914T620 898T641 872T649 838Q649 819 642 801T621 769T587 747T538 738Q500 738 475 759T449 819Z" />
<glyph unicode="&#x179;" glyph-name="Zacute" horiz-adv-x="638" d="M32 182L367 518H103L135 700H668L636 518L300 182H584L552 0H0L32 182ZM285 742Q309 781 329 818T369 901H639Q624 880 607 858T570 814T533 774T498 742H285Z" />
<glyph unicode="&#x17a;" glyph-name="zacute" horiz-adv-x="521" d="M16 147L252 372H64L92 530H535L509 382L273 158H477L450 0H-9L16 147ZM220 573Q233 595 243 615T263 655T281 696T299 742H563Q531 691 495 648T423 573H220Z" />
<glyph unicode="&#x17b;" glyph-name="Zdotaccent" horiz-adv-x="638" d="M32 182L367 518H103L135 700H668L636 518L300 182H584L552 0H0L32 182ZM304 837Q304 888 336 917T422 947Q443 947 462 940T496 920T520 888T529 847Q529 799 498 768T409 737Q388 737
369 744T335 764T313 796T304 837Z" />
<glyph unicode="&#x17c;" glyph-name="zdotaccent" horiz-adv-x="521" d="M16 147L252 372H64L92 530H535L509 382L273 158H477L450 0H-9L16 147ZM220 673Q220 724 252 753T338 783Q359 783 378 776T412 756T436 724T445 683Q445 635 414 604T325 573Q304 573
285 580T251 600T229 632T220 673Z" />
<glyph unicode="&#x17d;" glyph-name="Zcaron" horiz-adv-x="638" d="M32 182L367 518H103L135 700H668L636 518L300 182H584L552 0H0L32 182ZM214 901H412L434 855L472 901H672L527 742H303L214 901Z" />
<glyph unicode="&#x17e;" glyph-name="zcaron" horiz-adv-x="521" d="M16 147L252 372H64L92 530H535L509 382L273 158H477L450 0H-9L16 147ZM441 573H221L140 742H324L348 685L387 742H577L441 573Z" />
<glyph unicode="&#x192;" glyph-name="florin" horiz-adv-x="458" d="M-36 -2H9Q33 -2 38 19L110 287H51L81 459H156L180 548Q190 585 204 613T240 660T292 690T364 700H500L469 528H409Q391 528 386 511L372 459H433L402 287H326L242 -27Q221 -105 172 -139T40
-174H-65L-36 -2Z" />
<glyph unicode="&#x1fa;" glyph-name="Aringacute" horiz-adv-x="733" d="M374 848Q391 876 404 902T430 968H671Q652 934 627 902T578 848H374ZM317 279H437L414 503L317 279ZM325 691Q319 706 319 724Q319 777 357 804T462 831Q484 831 506 826T544 809T571
782T582 744Q582 707 558 678L680 0H466L455 106H242L197 0H-33L325 691ZM446 700Q469 700 482 711T496 739Q496 751 486 758T456 766Q406 766 406 729Q406 717 415 709T446 700Z" />
<glyph unicode="&#x1fb;" glyph-name="aringacute" horiz-adv-x="609" d="M388 629Q411 629 424 640T437 668Q437 680 428 687T398 695Q349 695 349 658Q349 646 358 638T388 629ZM384 566Q360 566 338 571T299 587T272 614T262 653Q262 706 300 732T404 758Q426
758 447 753T486 738T513 711T523 673Q523 624 484 595T384 566ZM324 786Q341 814 354 839T380 904H620Q603 872 577 840T527 786H324ZM169 -12Q90 -12 49 24T8 123Q8 172 24 207T69 265T140 299T234 310Q273 310 306 303T360 284L369 335Q373 356 362 369T327
382Q286 382 270 354H76Q108 448 180 495T358 542Q416 542 461 526T536 481T578 411T581 321L525 0H320L328 50Q318 36 301 25T263 6T218 -7T169 -12ZM267 110Q296 110 315 124T338 160L344 194Q334 199 320 203T284 207Q255 207 235 196T214 152Q214 131 228 121T267
110Z" />
<glyph unicode="&#x1fc;" glyph-name="AEacute" horiz-adv-x="1112" d="M586 742Q610 781 630 818T670 901H940Q925 880 908 858T871 814T834 774T799 742H586ZM521 104H265L183 0H-52L529 700H1155L1123 520H813L800 444H1081L1048 264H768L754 180H1064L1033
0H503L521 104ZM552 279L595 523L402 279H552Z" />
<glyph unicode="&#x1fd;" glyph-name="aeacute" horiz-adv-x="899" d="M390 573Q403 595 413 615T433 655T451 696T469 742H733Q701 691 665 648T593 573H390ZM598 -12Q538 -12 495 2T421 43Q383 18 328 3T207 -12Q110 -12 58 27T6 133Q6 226 67 268T232 310Q271
310 304 303T358 284L367 335Q371 356 360 369T325 382Q284 382 268 354H74Q103 454 172 498T346 542Q403 542 439 525T495 487Q508 501 526 511T564 528T605 538T644 542Q701 542 745 527T818 484T863 418T879 333Q879 322 878 310T874 283L862 214H560L554 180Q553
158 566 143T608 127Q631 127 644 138T662 163H849Q840 129 820 98T768 42T694 3T598 -12ZM265 110Q294 110 313 124T336 160L342 194Q332 199 318 203T282 207Q253 207 233 196T212 152Q212 131 226 121T265 110ZM578 318H684L688 342Q689 347 689 350T689 355Q689
377 677 388T641 400Q592 400 582 342L578 318Z" />
<glyph unicode="&#x1fe;" glyph-name="Oslashacute" horiz-adv-x="742" d="M324 742Q348 781 368 818T408 901H678Q663 880 646 858T609 814T572 774T537 742H324ZM361 -14Q307 -14 261 -2T176 33L105 -50H-19L104 95Q44 169 44 275Q44 307 50 340L65 425Q91 572
176 643T409 714Q461 714 507 702T593 667L663 750H786L664 607Q693 572 708 529T724 431Q724 417 722 397T718 363L704 284Q692 217 665 162T594 68T493 8T361 -14ZM266 323Q264 315 263 302T261 278L463 516Q436 532 399 532Q345 532 319 501T281 409L266 323ZM367
168Q421 168 448 203T487 296L503 386Q505 394 506 404T507 422L303 183Q327 168 367 168Z" />
<glyph unicode="&#x1ff;" glyph-name="oslashacute" horiz-adv-x="589" d="M225 573Q238 595 248 615T268 655T286 696T304 742H568Q536 691 500 648T428 573H225ZM281 -12Q193 -12 128 28L59 -50H-24L80 67Q54 96 40 132T26 212Q26 225 27 236T31 261L43 329Q62
436 130 489T304 542Q348 542 388 532T463 502L533 581H616L512 463Q537 436 551 400T566 317Q566 306 565 292T561 266L550 204Q532 104 463 46T281 -12ZM235 243L341 363Q324 373 304 373Q257 373 248 317L235 243ZM285 157Q311 157 325 172T343 210L356 286L250
166Q263 157 285 157Z" />
<glyph unicode="&#x218;" glyph-name="Scommaaccent" horiz-adv-x="647" d="M297 -14Q170 -14 99 38T28 183Q28 208 33 230H239Q236 219 236 209Q236 183 256 168T319 152Q335 152 350 155T377 166T396 185T403 212Q403 225 396 234T375 247L244 277Q163 296 121
338T78 453Q78 578 156 646T375 714Q426 714 472 702T554 667T611 608T632 526Q632 506 627 481H425Q427 491 427 500Q427 522 413 535T366 548Q341 548 320 539T299 501Q299 487 305 480T322 471L468 435Q622 397 622 259Q622 194 597 144T528 58T425 5T297 -14ZM185
-196Q148 -178 148 -140Q148 -95 177 -72T255 -49Q294 -49 319 -70T345 -125Q345 -156 328 -177T289 -218L253 -250H137L185 -196Z" />
<glyph unicode="&#x219;" glyph-name="scommaaccent" horiz-adv-x="526" d="M229 -12Q188 -12 148 -4T75 21T23 65T2 131Q2 139 3 147T6 163H194Q191 143 204 133T244 122Q264 122 280 130T296 156Q296 163 293 168T278 175L155 201Q100 212 68 245T36 336Q36
389 55 427T109 491T191 529T293 542Q334 542 374 535T445 510T496 464T516 393Q516 385 516 378T514 365H326Q328 371 328 378Q328 394 317 401T288 408Q273 408 260 402T247 378Q247 360 266 356L393 327Q449 315 477 280T506 196Q506 146 485 107T427 42T339
2T229 -12ZM111 -196Q74 -178 74 -140Q74 -95 103 -72T181 -49Q220 -49 245 -70T271 -125Q271 -156 254 -177T215 -218L179 -250H63L111 -196Z" />
<glyph unicode="&#x21a;" glyph-name="Tcommaaccent" horiz-adv-x="611" d="M141 -196Q104 -178 104 -140Q104 -95 133 -72T211 -49Q250 -49 275 -70T301 -125Q301 -156 284 -177T245 -218L209 -250H93L141 -196ZM242 516H67L100 700H667L634 516H461L370 0H151L242 516Z" />
<glyph unicode="&#x21b;" glyph-name="tcommaaccent" horiz-adv-x="391" d="M55 -196Q18 -178 18 -140Q18 -95 47 -72T125 -49Q164 -49 189 -70T215 -125Q215 -156 198 -177T159 -218L123 -250H7L55 -196ZM36 372L64 530H122L147 672H361L336 530H419L391 372H308L274
182Q268 146 305 146Q317 146 328 148T347 152L322 8Q314 5 300 2T269 -5T234 -10T200 -12Q115 -12 78 29T54 146L94 372H36Z" />
<glyph unicode="&#x2c6;" glyph-name="circumflex" horiz-adv-x="524" d="M237 742H457L538 573H354L330 630L291 573H101L237 742Z" />
<glyph unicode="&#x2c7;" glyph-name="caron" horiz-adv-x="524" d="M427 573H207L126 742H310L334 685L373 742H563L427 573Z" />
<glyph unicode="&#x2d8;" glyph-name="breve" horiz-adv-x="516" d="M325 573Q286 573 249 583T183 614T140 666T128 742H296Q292 720 303 707T337 693Q360 693 371 707T386 742H554Q543 664 486 619T325 573Z" />
<glyph unicode="&#x2d9;" glyph-name="dotaccent" horiz-adv-x="316" d="M115 655Q115 706 147 735T233 765Q254 765 273 758T307 738T331 706T340 665Q340 617 309 586T220 555Q199 555 180 562T146 582T124 614T115 655Z" />
<glyph unicode="&#x2da;" glyph-name="ring" horiz-adv-x="362" d="M246 634Q269 634 284 648T300 683Q300 700 288 710T256 720Q233 720 218 708T202 673Q202 656 213 645T246 634ZM242 569Q218 569 196 575T155 593T126 624T115 668Q115 725 155 755T262 785Q284
785 306 779T346 761T375 731T386 688Q386 660 375 638T344 601T298 577T242 569Z" />
<glyph unicode="&#x2db;" glyph-name="ogonek" horiz-adv-x="323" d="M92 -186Q-18 -186 -18 -110Q-18 -72 1 -46T52 0H192Q177 -10 163 -23T149 -55Q149 -73 174 -73Q185 -73 197 -71T217 -67L198 -171Q177 -176 149 -181T92 -186Z" />
<glyph unicode="&#x2dc;" glyph-name="tilde" horiz-adv-x="549" d="M99 606Q109 641 121 668T150 715T190 745T245 755Q268 755 291 751T334 741T371 732T396 727Q413 727 419 736T432 760L572 717Q554 650 521 612T427 573Q404 573 381 577T338 586T301 595T275
599Q261 599 254 592T240 567L99 606Z" />
<glyph unicode="&#x2dd;" glyph-name="hungarumlaut" horiz-adv-x="567" d="M110 573Q124 609 136 653T157 742H368Q355 699 334 656T293 573H110ZM338 573Q358 611 375 652T407 742H618Q608 720 596 697T572 651T546 608T521 573H338Z" />
<glyph unicode="&#x312;" glyph-name="uni0312" horiz-adv-x="403" d="M296 694Q314 688 326 677T338 643Q338 624 329 610T304 585T269 569T228 563Q186 563 162 580T138 629Q138 658 155 679T198 721L234 750H347L296 694Z" />
<glyph unicode="&#x315;" glyph-name="uni0315" horiz-adv-x="360" d="M191 558Q171 566 155 583T139 633Q139 674 165 702T243 730Q288 730 311 704T334 641Q334 624 329 610T316 584T297 561T273 536L217 478H122L191 558Z" />
<glyph unicode="&#x326;" glyph-name="uni0326" horiz-adv-x="355" d="M26 -196Q-11 -178 -11 -140Q-11 -95 18 -72T96 -49Q135 -49 160 -70T186 -125Q186 -156 169 -177T130 -218L94 -250H-22L26 -196Z" />
<glyph unicode="&#x3a9;" glyph-name="Omega" horiz-adv-x="751" d="M23 174H95Q78 205 65 245T52 331Q52 416 77 487T149 608T266 686T424 714Q485 714 541 698T641 648T711 562T737 440Q737 370 710 299T626 174H691L660 0H378L409 174Q434 196 454 225T487
288T508 358T515 429Q515 474 488 503T411 532Q370 532 343 513T299 462T275 392T268 313Q268 271 278 236T305 174L274 0H-8L23 174Z" />
<glyph unicode="&#x3c0;" glyph-name="pi" horiz-adv-x="717" d="M122 363H44L73 530H741L712 363H619L589 199Q584 172 616 172H669L639 0H527Q453 0 410 33T367 134Q367 155 371 175L405 363H336L272 0H58L122 363Z" />
</font>
</defs>
</svg>
