<?xml version="1.0" standalone="no"?> <!DOCTYPE svg PUBLIC "-//W3C//DTD SVG 1.0//EN" "http://www.w3.org/TR/2001/REC-SVG-20010904/DTD/svg10.dtd" > <svg xmlns="http://www.w3.org/2000/svg" width="100%" height="100%">
<defs >
<font id="LovinSansWebMediumItalic" horiz-adv-x="575" ><font-face
    font-family=""
    units-per-em="1000"
    panose-1="2 11 3 4 0 0 0 1 0 2"
    ascent="900"
    descent="-300"
    alphabetic="0" />
<missing-glyph horiz-adv-x="686" d="M233 264L320 350L233 438L276 481L363 394L452 481L495 438L407 350L495 264L451 220L363 307L277 220L233 264ZM599 16V684H127V16H599ZM110 700H616V0H110V700Z" />
<glyph unicode="&#xd;" glyph-name="CR" horiz-adv-x="220" />
<glyph unicode=" " glyph-name="space" horiz-adv-x="220" />
<glyph unicode="!" glyph-name="exclam" horiz-adv-x="296" d="M39 64Q39 100 61 124T123 148Q153 148 173 128T194 77Q194 42 171 17T109 -8Q78 -8 59 13T39 64ZM189 199Q177 204 161 206T127 209Q106 209 88 204L143 700H311L189 199Z" />
<glyph unicode="&quot;" glyph-name="quotedbl" horiz-adv-x="477" d="M145 700H262L213 420H95L145 700ZM360 700H477L428 420H310L360 700Z" />
<glyph unicode="#" glyph-name="numbersign" horiz-adv-x="674" d="M388 191H238L184 0H80L134 191H34L50 283H161L202 426H95L112 518H228L280 700H384L332 518H482L534 700H638L586 518H681L664 426H560L519 283H620L603 191H492L438 0H334L388 191ZM265 283H415L456
426H306L265 283Z" />
<glyph unicode="$" glyph-name="dollar" horiz-adv-x="425" d="M201 231Q144 236 109 267T75 357H159Q159 331 172 316T212 297L231 401L191 414Q154 426 134 453T113 516Q113 577 155 612T265 647H274L284 702H304L294 645Q343 639 372 610T404 526H321Q320 545
311 559T282 578L265 480L315 464Q389 439 389 371Q389 308 344 269T223 230H221L211 174H191L201 231ZM250 396L232 296Q259 297 279 310T299 352Q299 364 293 374T269 390L250 396ZM203 530Q203 502 234 491L246 487L262 580Q234 579 219 568T203 530Z" />
<glyph unicode="%" glyph-name="percent" horiz-adv-x="881" d="M237 395Q296 395 308 466L323 551Q324 556 324 560T325 569Q325 595 309 612T258 630Q226 630 210 612T188 561L172 471Q171 466 171 463T171 457Q171 428 189 412T237 395ZM233 315Q200 315 172
325T122 355T89 400T77 458Q77 472 80 487L94 568Q107 641 149 675T266 710Q334 710 376 672T419 571Q419 565 419 556T416 539L402 460Q390 391 346 353T233 315ZM649 700H752L269 0H166L649 700ZM661 70Q720 70 732 141L747 226Q748 231 748 235T749 244Q749
270 733 287T682 305Q650 305 634 287T612 236L596 146Q595 141 595 138T595 132Q595 103 613 87T661 70ZM657 -10Q624 -10 596 0T546 30T513 75T501 133Q501 147 504 162L518 243Q531 316 573 350T690 385Q758 385 800 347T843 246Q843 240 843 231T840 214L826
135Q814 66 770 28T657 -10Z" />
<glyph unicode="&amp;" glyph-name="ampersand" horiz-adv-x="686" d="M544 -14L491 50Q453 20 404 3T293 -14Q233 -14 186 3T106 50T57 116T40 195Q40 238 52 272T87 332T138 376T200 406Q185 429 173 459T161 525Q161 571 176 606T219 665T286 701T372 714Q403
714 436 706T497 679T542 634T560 568Q560 562 560 557T558 545L551 504H437L443 539Q444 544 444 547T444 553Q444 583 423 602T369 621Q333 621 306 602T279 539Q279 516 289 498T312 463L494 241Q496 249 497 256T501 271L515 351H623L608 266Q597 202 570 149L641
64L544 -14ZM300 81Q342 81 374 92T430 125L256 337Q237 325 220 312T190 283T170 245T162 195Q162 145 199 113T300 81Z" />
<glyph unicode="&apos;" glyph-name="quotesingle" horiz-adv-x="262" d="M145 700H262L213 420H95L145 700Z" />
<glyph unicode="(" glyph-name="parenleft" horiz-adv-x="339" d="M112 -134Q62 36 62 191Q62 269 75 348T116 504T182 651T275 782H405Q358 715 320 646T256 502T215 348T200 181Q200 109 210 33T243 -134H112V-134Z" />
<glyph unicode=")" glyph-name="parenright" horiz-adv-x="339" d="M248 782Q298 612 298 457Q298 379 285 300T244 144T177 -3T85 -134H-45Q49 -1 104 146T160 467Q160 539 150 615T117 782H248V782Z" />
<glyph unicode="*" glyph-name="asterisk" horiz-adv-x="287" d="M219 568L204 485H175L190 567L110 527L99 551L181 592L108 638L122 661L198 615L213 700H242L227 616L304 657L317 634L234 590L304 548L289 524L219 568Z" />
<glyph unicode="+" glyph-name="plus" horiz-adv-x="599" d="M244 303H76L96 417H264L297 602H424L391 417H557L538 303H371L339 118H212L244 303Z" />
<glyph unicode="," glyph-name="comma" horiz-adv-x="258" d="M17 69Q17 107 40 128T101 150Q133 150 155 129T177 78Q177 50 164 31T134 -6L46 -101H-31L59 0Q39 10 28 29T17 69Z" />
<glyph unicode="-" glyph-name="hyphen" horiz-adv-x="408" d="M74 380H373L351 258H52L74 380Z" />
<glyph unicode="." glyph-name="period" horiz-adv-x="251" d="M13 64Q13 100 35 124T97 148Q127 148 147 128T168 77Q168 42 145 17T83 -8Q52 -8 33 13T13 64Z" />
<glyph unicode="/" glyph-name="slash" horiz-adv-x="465" d="M396 750H533L100 -105H-37L396 750Z" />
<glyph unicode="0" glyph-name="zero" horiz-adv-x="639" d="M307 99Q367 99 398 133T440 227L481 460Q482 465 482 472T483 488Q483 536 454 568T367 601Q307 601 276 569T233 476L192 243Q190 234 190 228T189 213Q189 161 221 130T307 99ZM303 -14Q250 -14
205 2T125 48T72 119T52 210Q52 232 56 255L96 482Q115 594 181 654T371 714Q424 714 469 698T549 653T602 583T621 493Q621 481 620 471T617 449L578 226Q568 171 547 127T491 52T410 3T303 -14Z" />
<glyph unicode="1" glyph-name="one" horiz-adv-x="398" d="M230 557Q215 549 195 542T153 527T109 513T68 501L90 627Q112 633 137 641T189 658T240 678T285 700H394L271 0H133L230 557Z" />
<glyph unicode="2" glyph-name="two" horiz-adv-x="604" d="M33 105L364 385Q403 418 426 449T450 523Q450 560 424 580T358 601Q307 601 279 574T243 498L241 485H108L111 504Q144 714 371 714Q414 714 453 701T522 664T569 606T587 530Q587 490 576 458T543
397T492 340T423 282L212 113H514L494 0H16L33 105Z" />
<glyph unicode="3" glyph-name="three" horiz-adv-x="611" d="M319 407Q348 407 373 414T417 434T446 469T457 517Q457 556 431 581T359 607Q311 607 282 582T241 509H114Q155 714 376 714Q423 714 463 701T532 663T578 604T595 530Q595 465 558 417T455 346Q497
333 528 298T559 208Q559 157 538 116T481 46T395 2T291 -14Q240 -14 197 -3T122 35T71 103T49 205H178Q176 155 205 124T292 92Q346 92 384 121T422 206Q422 244 396 270T314 296H195L215 407H319Z" />
<glyph unicode="4" glyph-name="four" horiz-adv-x="633" d="M578 700L499 258H589L571 154H481L455 0H329L356 154H22L39 254L404 700H578ZM374 258L433 592L167 258H374Z" />
<glyph unicode="5" glyph-name="five" horiz-adv-x="622" d="M291 -14Q246 -14 205 -1T131 37T77 100T50 186H181Q190 144 220 121T298 98Q331 98 356 110T399 142T426 187T436 239Q436 262 429 283T407 320T371 345T321 355Q280 355 253 338T207 294H79L216 700H588L569
591H307L255 434Q277 451 305 458T371 466Q413 466 449 451T514 409T558 343T574 258Q574 199 553 150T495 64T405 7T291 -14Z" />
<glyph unicode="6" glyph-name="six" horiz-adv-x="612" d="M521 700L297 445Q310 454 331 459T373 464Q414 464 450 448T512 404T554 337T570 254Q570 198 550 150T492 65T402 7T285 -14Q236 -14 193 2T117 49T65 120T46 212Q46 251 53 282T74 342T107 395T149
447L373 700H521ZM317 359Q286 359 261 348T217 318T189 272T179 215Q179 159 212 127T296 95Q328 95 353 107T397 139T424 185T434 240Q434 290 403 324T317 359Z" />
<glyph unicode="7" glyph-name="seven" horiz-adv-x="550" d="M420 587H110L130 700H584L567 602L178 0H36L420 587Z" />
<glyph unicode="8" glyph-name="eight" horiz-adv-x="630" d="M289 -14Q245 -14 203 -2T127 34T74 95T53 181Q53 256 94 307T203 377Q175 402 157 430T139 506Q139 554 156 592T206 658T282 699T381 714Q420 714 458 703T526 670T575 614T594 536Q594 477 563
430T475 356Q492 349 508 337T538 308T560 268T568 218Q568 165 547 122T488 49T399 3T289 -14ZM298 90Q356 90 395 123T434 212Q434 254 404 279T325 305Q265 305 225 276T185 186Q185 144 215 117T298 90ZM352 409Q378 409 399 418T434 443T456 479T464 523Q464
560 440 585T373 610Q322 610 294 580T265 498Q265 462 288 436T352 409Z" />
<glyph unicode="9" glyph-name="nine" horiz-adv-x="612" d="M123 0L325 243Q317 241 301 239T269 236Q229 236 194 253T132 300T90 368T74 450Q74 509 93 557T149 641T238 695T354 714Q405 714 449 698T527 651T579 580T598 488Q598 437 582 393T537 310Q526
296 515 283T492 256L270 0H123ZM326 341Q357 341 382 352T425 383T452 429T462 485Q462 510 454 532T430 570T394 595T347 605Q282 605 246 565T209 459Q209 408 240 375T326 341Z" />
<glyph unicode=":" glyph-name="colon" horiz-adv-x="251" d="M68 376Q68 412 90 436T152 460Q182 460 202 440T223 389Q223 354 200 329T138 304Q107 304 88 325T68 376ZM13 64Q13 100 35 124T97 148Q127 148 147 128T168 77Q168 42 145 17T83 -8Q52 -8 33 13T13 64Z" />
<glyph unicode=";" glyph-name="semicolon" horiz-adv-x="252" d="M80 376Q80 412 102 436T164 460Q194 460 214 440T235 389Q235 354 212 329T150 304Q119 304 100 325T80 376ZM22 69Q22 107 45 128T106 150Q138 150 160 129T182 78Q182 50 169 31T139 -6L51
-101H-26L64 0Q44 10 33 29T22 69Z" />
<glyph unicode="&lt;" glyph-name="less" horiz-adv-x="573" d="M59 317L73 403L511 587L551 491L229 356L505 229L451 124L59 317Z" />
<glyph unicode="=" glyph-name="equal" horiz-adv-x="618" d="M87 290H545L526 183H69L87 290ZM131 537H589L570 430H113L131 537Z" />
<glyph unicode="&gt;" glyph-name="greater" horiz-adv-x="573" d="M555 403L541 317L95 130L64 232L385 368L110 494L159 598L555 403Z" />
<glyph unicode="?" glyph-name="question" horiz-adv-x="500" d="M172 255Q183 317 206 352T264 411L314 446Q327 455 340 464T365 485T384 509T392 539Q392 569 367 587T303 605Q252 605 229 583T198 519L195 502H70L73 520Q90 624 150 669T321 714Q366 714 404
702T469 667T512 614T528 548Q528 497 504 458T428 385L365 345Q350 336 339 327T318 305T302 277T291 238L284 200Q258 208 225 208Q194 208 162 200L172 255ZM132 64Q132 100 154 124T216 148Q246 148 266 128T287 77Q287 42 264 17T202 -8Q171 -8 152 13T132
64Z" />
<glyph unicode="@" glyph-name="at" horiz-adv-x="932" d="M681 494L642 272Q639 257 639 244Q639 208 657 189T706 170Q736 170 756 189T788 237T806 300T811 364Q811 425 790 475T730 562T635 618T506 638Q424 638 359 611T249 534T181 416T157 267Q157 200
178 144T240 46T340 -19T478 -42Q523 -42 565 -38T652 -21L642 -97Q606 -108 558 -114T467 -120Q373 -120 299 -90T173 -8T94 115T67 267Q67 359 96 440T182 582T321 678T511 714Q602 714 674 688T796 615T873 505T900 369Q900 317 889 268T853 181T792 120T702
97Q652 97 614 118T565 180Q559 167 547 155T517 132T479 116T433 110Q399 110 371 122T322 155T290 205T278 269Q278 280 278 288T281 307L287 340Q301 415 344 456T459 498Q499 498 528 482T572 441L581 494H681ZM383 300Q382 295 381 288T380 273Q380 238 398
216T452 193Q485 193 508 216T540 284L545 312Q547 322 547 336Q547 369 528 392T471 415Q436 415 416 391T388 329L383 300Z" />
<glyph unicode="A" glyph-name="A" horiz-adv-x="688" d="M349 700H492L623 0H487L465 148H196L125 0H-22L349 700ZM251 260H449L403 574L251 260Z" />
<glyph unicode="B" glyph-name="B" horiz-adv-x="659" d="M155 700H464Q503 700 533 688T586 654T619 603T631 542Q631 514 624 487T603 435T566 391T512 358Q566 346 595 310T624 222Q624 170 603 129T545 59T459 15T353 0H32L155 700ZM365 109Q423 109 454 139T486
218Q486 254 463 277T397 301H221L187 109H365ZM386 410Q413 410 433 418T466 441T486 474T493 514Q493 546 474 568T415 591H272L240 410H386Z" />
<glyph unicode="C" glyph-name="C" horiz-adv-x="699" d="M342 -14Q276 -14 223 6T133 61T76 146T56 256Q56 288 62 323L79 420Q105 569 182 641T398 714Q455 714 505 697T593 647T653 565T678 451H548Q546 482 535 509T505 556T457 587T392 599Q315 599 275 555T218
418L199 312Q197 298 196 285T194 258Q194 185 233 143T347 101Q384 101 413 114T462 148T496 195T515 249H645Q636 192 611 144T547 61T455 6T342 -14Z" />
<glyph unicode="D" glyph-name="D" horiz-adv-x="703" d="M319 114Q398 114 445 148T506 261L534 420Q538 440 538 462Q538 522 504 554T400 586H274L190 114H319ZM155 700H443Q494 700 537 685T612 640T661 570T679 476Q679 462 678 448T674 420L646 261Q635
197 612 148T551 66T457 17T325 0H32L155 700Z" />
<glyph unicode="E" glyph-name="E" horiz-adv-x="616" d="M155 700H636L616 584H274L244 413H557L536 297H224L192 116H535L514 0H32L155 700Z" />
<glyph unicode="F" glyph-name="F" horiz-adv-x="585" d="M155 700H626L606 584H275L242 396H544L524 280H221L172 0H32L155 700Z" />
<glyph unicode="G" glyph-name="G" horiz-adv-x="730" d="M490 66Q468 34 427 10T321 -14Q257 -14 208 4T125 56T74 136T56 236Q56 255 57 279T64 328L81 426Q106 570 186 642T396 714Q453 714 503 699T592 653T653 575T678 462H547Q542 525 502 562T393 599Q318
599 277 556T221 431L202 324Q198 303 197 279T195 232Q195 165 234 132T345 98Q410 98 454 135T509 242L510 248H351L371 362H669L606 0H479L490 66Z" />
<glyph unicode="H" glyph-name="H" horiz-adv-x="716" d="M155 700H295L244 414H527L577 700H717L594 0H454L505 289H223L172 0H32L155 700Z" />
<glyph unicode="I" glyph-name="I" horiz-adv-x="304" d="M160 700H300L177 0H37L160 700Z" />
<glyph unicode="J" glyph-name="J" horiz-adv-x="606" d="M255 -14Q208 -14 167 0T96 39T49 101T31 181Q31 200 34 215H163Q156 164 185 133T267 102Q323 102 349 132T384 210L470 700H610L523 202Q505 99 438 43T255 -14Z" />
<glyph unicode="K" glyph-name="K" horiz-adv-x="646" d="M155 700H295L237 369L522 700H694L380 345L580 0H419L232 341L172 0H32L155 700Z" />
<glyph unicode="L" glyph-name="L" horiz-adv-x="578" d="M155 700H295L192 116H515L495 0H32L155 700Z" />
<glyph unicode="M" glyph-name="M" horiz-adv-x="806" d="M156 700H285L412 309L674 700H807L684 0H550L624 420L447 170H333L243 438L166 0H32L156 700Z" />
<glyph unicode="N" glyph-name="N" horiz-adv-x="724" d="M155 700H287L505 223L589 700H725L602 0H470L252 476L168 0H32L155 700Z" />
<glyph unicode="O" glyph-name="O" horiz-adv-x="723" d="M352 101Q430 101 474 151T533 282L551 387Q553 396 554 409T555 433Q555 469 545 499T514 552T464 586T397 599Q316 599 274 551T216 415L199 317Q197 303 196 290T194 263Q194 190 233 146T352 101ZM347
-14Q279 -14 225 6T134 63T78 151T58 263Q58 298 64 334L80 426Q105 567 184 640T404 714Q468 714 521 694T612 637T672 549T693 438Q693 407 687 374L671 285Q659 219 633 164T567 70T471 8T347 -14Z" />
<glyph unicode="P" glyph-name="P" horiz-adv-x="648" d="M155 700H443Q492 700 532 684T601 640T646 573T662 487Q662 422 640 373T577 290T481 240T362 223H211L172 0H32L155 700ZM372 339Q445 339 483 377T522 479Q522 524 495 554T414 584H275L232 339H372Z" />
<glyph unicode="Q" glyph-name="Q" horiz-adv-x="723" d="M332 -130Q324 -118 316 -103T301 -71T286 -38T275 -7Q171 13 115 85T58 263Q58 298 64 334L80 426Q105 567 184 640T404 714Q468 714 521 694T612 637T672 549T693 438Q693 407 687 374L671 285Q661 229
641 182T591 97T521 34T430 -4Q438 -32 453 -65T488 -130H332ZM352 101Q430 101 474 151T533 282L551 387Q553 396 554 409T555 433Q555 469 545 499T514 552T464 586T397 599Q316 599 274 551T216 415L199 317Q197 303 196 290T194 263Q194 190 233 146T352 101Z"
/>
<glyph unicode="R" glyph-name="R" horiz-adv-x="696" d="M366 225H211L172 0H32L155 700H453Q504 700 546 685T618 641T665 573T682 486Q682 397 635 334T505 243L610 0H457L366 225ZM386 335Q457 335 499 372T542 474Q542 523 510 555T420 588H275L231 335H386Z" />
<glyph unicode="S" glyph-name="S" horiz-adv-x="651" d="M319 -14Q270 -14 222 -3T136 32T75 92T51 177Q51 193 54 211L56 223H188L186 212Q185 207 185 202T184 191Q184 165 196 147T228 118T274 101T328 95Q385 95 424 124T463 204Q463 262 402 278L247 317Q178
334 142 375T105 479Q105 538 126 582T184 655T272 699T381 714Q427 714 471 702T549 667T604 611T625 533Q625 524 624 513T621 496L620 491H490L491 496Q493 506 493 516Q493 539 483 555T455 583T415 599T368 605Q343 605 321 599T281 580T253 548T243 502Q243
477 257 462T295 440L457 397Q523 380 562 337T602 228Q602 169 579 124T518 49T428 2T319 -14Z" />
<glyph unicode="T" glyph-name="T" horiz-adv-x="584" d="M279 584H83L104 700H636L615 584H420L317 0H177L279 584Z" />
<glyph unicode="U" glyph-name="U" horiz-adv-x="716" d="M330 -14Q280 -14 233 1T150 45T91 117T68 213Q68 224 69 235T72 255L150 700H290L211 250Q208 235 208 220Q208 164 244 133T340 102Q412 102 452 141T504 251L583 700H723L644 251Q633 189 607 140T542
57T449 4T330 -14Z" />
<glyph unicode="V" glyph-name="V" horiz-adv-x="647" d="M94 700H233L303 158L557 700H705L358 0H202L94 700Z" />
<glyph unicode="W" glyph-name="W" horiz-adv-x="947" d="M105 700H243L255 197L484 700H617L675 197L863 700H1003L714 0H583L528 536L281 0H150L105 700Z" />
<glyph unicode="X" glyph-name="X" horiz-adv-x="661" d="M281 366L123 700H260L368 469L556 700H708L424 354L592 0H455L337 249L133 0H-20L281 366Z" />
<glyph unicode="Y" glyph-name="Y" horiz-adv-x="624" d="M240 256L80 700H227L331 380L536 700H695L377 240L335 0H195L240 256Z" />
<glyph unicode="Z" glyph-name="Z" horiz-adv-x="614" d="M35 116L450 584H128L148 700H632L611 584L196 116H540L520 0H15L35 116Z" />
<glyph unicode="[" glyph-name="bracketleft" horiz-adv-x="381" d="M168 782H449L429 670H284L162 -22H307L288 -134H6L168 782Z" />
<glyph unicode="\" glyph-name="backslash" horiz-adv-x="462" d="M115 750H243L374 -105H246L115 750Z" />
<glyph unicode="]" glyph-name="bracketright" horiz-adv-x="381" d="M237 -134H-44L-24 -22H121L243 670H98L117 782H399L237 -134Z" />
<glyph unicode="^" glyph-name="asciicircum" horiz-adv-x="537" d="M282 700H398L512 414H381L325 591L206 414H70L282 700Z" />
<glyph unicode="_" glyph-name="underscore" horiz-adv-x="517" d="M-33 -64H485L473 -136H-46L-33 -64Z" />
<glyph unicode="`" glyph-name="grave" horiz-adv-x="395" d="M223 579Q200 613 179 655T143 733H305Q313 693 324 657T350 579H223Z" />
<glyph unicode="a" glyph-name="a" horiz-adv-x="584" d="M347 0L356 57Q335 28 290 8T192 -12Q109 -12 67 28T25 134Q25 182 41 214T87 267T156 295T242 304Q284 304 323 294T388 267L400 336Q407 375 383 400T314 426Q243 426 211 373H86Q115 448 172 490T332
532Q376 532 413 519T478 483T521 428T537 359Q537 342 534 324L477 0H347ZM242 72Q290 72 326 94T369 157L376 198Q359 209 331 217T267 225Q217 225 186 207T154 140Q154 105 177 89T242 72Z" />
<glyph unicode="b" glyph-name="b" horiz-adv-x="608" d="M322 -12Q268 -12 226 9T164 66L151 0H22L151 730H287L240 466Q262 494 297 513T384 532Q427 532 462 517T521 476T559 413T573 333Q573 322 572 310T569 284L555 204Q538 105 479 47T322 -12ZM303 98Q354
98 382 129T421 216L433 284Q436 300 436 316Q436 365 409 393T334 422Q234 422 210 294L199 234Q196 217 196 202Q196 153 224 126T303 98Z" />
<glyph unicode="c" glyph-name="c" horiz-adv-x="567" d="M269 -12Q221 -12 179 2T105 44T56 110T38 199Q38 212 39 222T42 244L55 319Q73 424 136 478T310 532Q356 532 397 519T468 479T516 414T534 325H414Q412 367 385 395T308 424Q255 424 227 393T188 302L175
228Q172 213 172 198Q172 152 199 124T276 96Q325 96 352 125T390 193H514Q506 148 486 111T434 46T361 3T269 -12Z" />
<glyph unicode="d" glyph-name="d" horiz-adv-x="608" d="M229 -12Q183 -12 148 4T88 47T50 111T37 190Q37 202 38 213T41 238L55 318Q74 422 133 477T286 532Q317 532 342 525T387 506T420 481T440 453L489 730H625L496 0H366L377 62Q362 33 322 11T229 -12ZM276
98Q330 98 359 133T399 222L410 283Q413 299 413 315Q413 365 385 393T306 422Q255 422 227 391T188 300L177 238Q174 220 174 203Q174 155 200 127T276 98Z" />
<glyph unicode="e" glyph-name="e" horiz-adv-x="561" d="M261 -12Q205 -12 163 5T94 50T52 117T38 197Q38 208 39 219T42 244L54 312Q63 362 83 403T135 472T210 516T307 532Q356 532 396 518T464 478T507 415T523 332Q523 323 522 310T519 284L507 214H168Q165
199 165 185Q165 140 191 112T271 84Q312 84 336 104T371 152H492Q472 80 413 34T261 -12ZM185 310H399L401 323Q402 328 402 333T403 343Q403 384 378 409T305 435Q252 435 225 404T186 313L185 310Z" />
<glyph unicode="f" glyph-name="f" horiz-adv-x="360" d="M53 0L125 414H59L78 520H145L157 590Q164 630 176 658T209 705T260 731T331 740Q361 740 387 735T431 721L414 623Q402 628 387 630T355 633Q324 633 310 621T291 579L281 520H387L368 414H262L189 0H53Z" />
<glyph unicode="g" glyph-name="g" horiz-adv-x="608" d="M245 -166Q202 -166 163 -156T91 -126T37 -78T7 -11H138Q148 -37 179 -51T250 -65Q299 -65 328 -40T366 34L379 107Q371 92 356 80T321 57T279 42T234 36Q193 36 158 50T98 89T58 150T43 229Q43 249 47
272L57 329Q74 428 130 480T288 532Q317 532 342 525T388 507T423 482T446 454L458 520H588L499 15Q482 -78 414 -122T245 -166ZM284 142Q335 142 366 174T406 260L411 290Q412 295 412 302T413 317Q413 365 385 393T305 422Q208 422 190 317L183 275Q180 257 180
247Q180 190 209 166T284 142Z" />
<glyph unicode="h" glyph-name="h" horiz-adv-x="594" d="M151 730H287L239 459Q259 488 297 510T388 532Q462 532 505 489T549 372Q549 361 548 350T545 327L488 0H352L407 312Q409 322 409 333Q409 370 386 390T327 411Q278 411 249 382T210 297L158 0H22L151 730Z" />
<glyph unicode="i" glyph-name="i" horiz-adv-x="280" d="M132 648Q132 683 154 709T219 735Q249 735 269 717T290 667Q290 649 284 633T267 605T240 585T203 577Q173 577 153 596T132 648ZM119 520Q152 509 192 509Q229 509 256 520L164 0H28L119 520Z" />
<glyph unicode="j" glyph-name="j" horiz-adv-x="280" d="M131 648Q131 683 153 709T218 735Q248 735 268 717T289 667Q289 649 283 633T266 605T239 585T202 577Q172 577 152 596T131 648ZM118 520Q151 509 191 509Q228 509 255 520L156 -39Q145 -101 111 -133T12
-166Q-8 -166 -29 -163T-70 -155L-52 -56Q-44 -59 -35 -60T-15 -61Q4 -61 12 -52T22 -29L118 520Z" />
<glyph unicode="k" glyph-name="k" horiz-adv-x="540" d="M151 730H287L208 285L404 520H564L337 252L480 0H332L202 250L158 0H22L151 730Z" />
<glyph unicode="l" glyph-name="l" horiz-adv-x="278" d="M156 730H292L163 0H27L156 730Z" />
<glyph unicode="m" glyph-name="m" horiz-adv-x="916" d="M484 0H348L403 312Q404 317 404 323T405 334Q405 370 383 390T325 411Q276 411 248 382T210 297L158 0H22L114 520H244L231 451Q257 491 297 511T388 532Q439 532 475 511T529 451Q560 490 603 511T706
532Q743 532 773 520T825 487T859 435T871 367Q871 344 867 324L810 0H674L729 312Q730 317 730 323T731 334Q731 370 709 390T651 411Q602 411 574 381T536 295L484 0Z" />
<glyph unicode="n" glyph-name="n" horiz-adv-x="594" d="M114 520H244L231 451Q257 491 298 511T390 532Q464 532 506 487T549 369Q549 358 548 347T545 323L488 0H352L407 312Q408 317 408 322T409 333Q409 370 386 390T327 411Q278 411 249 382T210 297L158
0H22L114 520Z" />
<glyph unicode="o" glyph-name="o" d="M274 95Q324 95 352 124T389 203L405 294Q408 310 408 324Q408 372 380 398T302 425Q249 425 223 396T186 312L170 221Q169 217 168 210T167 194Q167 146 196 121T274 95ZM271 -12Q218 -12 175 3T102 47T56 114T39 202Q39
214 40 225T43 250L55 318Q75 429 139 480T304 532Q359 532 402 517T476 474T522 407T538 320Q538 307 537 294T533 267L522 204Q514 156 494 116T443 48T368 4T271 -12Z" />
<glyph unicode="p" glyph-name="p" horiz-adv-x="608" d="M384 532Q429 532 464 517T524 475T561 412T574 333Q574 324 573 309T569 282L555 202Q536 98 477 43T324 -12Q292 -12 267 -5T223 13T191 38T170 67L131 -154H-5L114 520H244L233 458Q240 472 255 485T290
509T334 526T384 532ZM334 422Q280 422 251 390T211 298L200 237Q199 232 198 223T197 207Q197 159 225 129T304 98Q355 98 383 130T422 220L433 282Q436 300 436 317Q436 365 411 393T334 422Z" />
<glyph unicode="q" glyph-name="q" horiz-adv-x="608" d="M288 532Q315 532 339 526T384 508T420 482T445 450L459 520H588L469 -154H333L370 54Q354 30 315 9T225 -12Q181 -12 146 3T87 44T49 106T36 185Q36 208 41 236L55 316Q64 365 82 405T130 473T198 516T288
532ZM307 422Q256 422 228 391T189 304L177 236Q174 219 174 204Q174 155 201 127T276 98Q376 98 400 226L411 286Q414 305 414 316Q414 364 386 393T307 422Z" />
<glyph unicode="r" glyph-name="r" horiz-adv-x="378" d="M114 520H242L227 429Q247 481 288 502T392 524H406L382 388H358Q298 388 257 355T201 245L158 0H22L114 520Z" />
<glyph unicode="s" glyph-name="s" horiz-adv-x="518" d="M229 -12Q188 -12 150 -3T84 25T38 71T21 132Q21 137 21 143T23 155L24 161H143L142 156Q138 137 145 123T166 100T199 87T241 83Q282 83 311 100T340 153Q340 169 332 180T301 197L169 227Q116 239 89
270T62 348Q62 394 79 429T126 486T197 520T289 532Q327 532 363 524T427 498T473 454T490 390Q490 384 490 377T488 364L487 358H368L369 364Q375 400 348 418T281 437Q243 437 218 421T192 370Q192 352 202 343T231 328L366 295Q416 282 443 252T470 176Q470
131 451 96T400 37T323 1T229 -12Z" />
<glyph unicode="t" glyph-name="t" horiz-adv-x="379" d="M124 414H49L68 520H143L168 662H304L279 520H390L372 414H260L215 159Q210 127 217 113T257 99Q274 99 287 101T311 106L293 3Q278 -3 254 -7T204 -12Q141 -12 107 19T73 105Q73 123 76 141L124 414Z" />
<glyph unicode="u" glyph-name="u" horiz-adv-x="593" d="M207 -12Q134 -12 91 32T47 150Q47 161 48 172T51 195L109 520H245L189 207Q187 198 187 193T187 182Q187 145 209 126T267 106Q313 106 343 136T381 214L436 520H572L481 0H351L363 64Q344 32 302 10T207 -12Z" />
<glyph unicode="v" glyph-name="v" horiz-adv-x="508" d="M54 520H186L233 148L404 520H545L279 0H143L54 520Z" />
<glyph unicode="w" glyph-name="w" horiz-adv-x="777" d="M66 520H197L212 167L375 520H494L538 167L675 520H807L579 0H456L410 363L236 0H113L66 520Z" />
<glyph unicode="x" glyph-name="x" horiz-adv-x="536" d="M204 268L77 520H209L287 365L419 520H565L341 257L472 0H339L258 160L122 0H-25L204 268Z" />
<glyph unicode="y" glyph-name="y" horiz-adv-x="508" d="M16 -54Q27 -59 43 -61T72 -63Q98 -63 112 -53T137 -23L150 1L53 520H189L236 139L406 520H544L284 1L256 -50Q239 -80 224 -102T189 -138T146 -159T89 -166Q67 -166 42 -162T0 -151L16 -54Z" />
<glyph unicode="z" glyph-name="z" horiz-adv-x="515" d="M25 96L334 418H92L109 520H509L492 424L183 102H442L424 0H8L25 96Z" />
<glyph unicode="{" glyph-name="braceleft" horiz-adv-x="420" d="M261 -134Q184 -134 142 -101T100 3Q100 16 101 27T104 50L128 187Q129 192 129 196T130 206Q130 237 111 252T57 268H28L48 380H84Q127 380 147 399T176 459L203 612Q211 658 225 690T264 742T323
772T409 782H495L476 670H422Q378 670 361 653T336 595L309 443Q298 381 267 355T188 323Q226 312 247 288T269 225Q269 217 268 210T266 198L241 57Q238 42 238 31Q238 0 255 -11T305 -22H354L334 -134H261Z" />
<glyph unicode="|" glyph-name="bar" horiz-adv-x="328" d="M203 800H317L150 -150H36L203 800Z" />
<glyph unicode="}" glyph-name="braceright" horiz-adv-x="420" d="M188 782Q265 782 307 749T349 645Q349 632 348 621T345 598L321 461Q320 456 320 452T319 442Q319 411 338 396T392 380H421L401 268H365Q322 268 302 249T273 189L246 36Q238 -10 224 -42T185
-94T126 -124T40 -134H-46L-27 -22H27Q49 -22 64 -18T88 -5T103 18T113 53L140 205Q151 267 182 293T261 325Q223 336 202 360T180 423Q180 431 181 438T183 450L208 591Q211 606 211 617Q211 648 194 659T144 670H95L115 782H188Z" />
<glyph unicode="~" glyph-name="asciitilde" horiz-adv-x="633" d="M606 419Q594 388 582 359T551 307T508 270T445 256Q421 256 394 267T340 293T288 319T241 331Q211 331 197 308T172 256L61 291Q71 327 84 358T117 413T164 449T229 463Q259 463 288 452T345
426T396 400T437 388Q450 388 459 395T475 412T486 435T496 458L606 419Z" />
<glyph unicode="&#xa0;" glyph-name="uni00A0" horiz-adv-x="220" />
<glyph unicode="&#xa1;" glyph-name="exclamdown" horiz-adv-x="296" d="M289 636Q289 600 267 576T205 552Q175 552 155 572T134 623Q134 658 157 683T219 708Q250 708 269 687T289 636ZM139 501Q151 496 167 494T201 491Q222 491 240 496L185 0H17L139 501Z" />
<glyph unicode="&#xa2;" glyph-name="cent" horiz-adv-x="568" d="M235 103Q196 108 164 124T108 165T71 225T58 300Q58 311 59 322T62 346L71 398Q88 498 152 548T317 598H322L340 700H381L362 594Q395 588 425 574T479 537T518 482T536 409H412Q398 472 343
484L295 213Q337 217 358 239T391 291H515Q495 206 434 154T275 101L258 0H217L235 103ZM192 335Q189 317 189 300Q189 265 204 243T254 215L302 487Q260 485 235 463T202 392L192 335Z" />
<glyph unicode="&#xa3;" glyph-name="sterling" horiz-adv-x="667" d="M34 106H148L179 280H79L96 386H197L220 517Q239 621 298 667T464 714Q503 714 539 703T603 669T649 615T666 542Q666 525 663 509L660 492H534L537 510Q544 552 521 577T454 602Q413 602
389 583T356 516L333 386H525L506 280H315L284 106H551L533 0H16L34 106Z" />
<glyph unicode="&#xa4;" glyph-name="currency" horiz-adv-x="620" d="M364 148Q337 141 302 141Q259 141 222 156L169 88H26L137 230Q118 265 118 306Q118 321 121 341L130 391Q135 422 148 448T177 491L123 610H256L283 548Q311 555 348 555Q389 555 424 540L476
606H615L505 472Q515 458 521 437T528 393Q528 379 525 363L516 311Q505 249 465 207L522 85H392L364 148ZM309 235Q347 235 370 256T400 312L411 374Q412 379 412 382T412 390Q412 422 390 441T333 460Q257 460 245 386L235 329Q234 324 234 320T233 310Q233 276
252 256T309 235Z" />
<glyph unicode="&#xa5;" glyph-name="yen" horiz-adv-x="590" d="M96 428H183L114 700H258L318 390L484 700H630L466 428H556L539 328H406L363 256L360 239H523L506 140H342L318 0H182L206 140H45L62 239H224L227 256L208 328H78L96 428Z" />
<glyph unicode="&#xa6;" glyph-name="brokenbar" horiz-adv-x="328" d="M104 238H218L150 -150H36L104 238ZM203 800H317L248 412H134L203 800Z" />
<glyph unicode="&#xa7;" glyph-name="section" horiz-adv-x="602" d="M240 -136Q198 -136 157 -124T86 -88T41 -31T33 47L35 58H154L153 52Q149 29 156 13T177 -15T211 -31T254 -37Q297 -37 325 -16T354 42Q354 62 342 74T310 94L170 145Q62 183 62 281Q62 338
90 376T160 437Q133 468 133 515Q133 613 195 663T367 714Q410 714 449 702T517 666T560 607T567 527L566 521H447L448 527Q455 572 428 593T357 615Q339 615 321 611T290 598T268 574T259 538Q259 517 270 505T304 484L441 433Q498 412 527 378T557 293Q557 245
531 201T466 126Q482 99 482 67Q482 21 464 -16T413 -80T336 -121T240 -136ZM388 187Q408 209 418 228T429 269Q429 290 418 306T379 332L233 387Q218 373 204 352T189 304Q189 284 199 270T233 246L388 187Z" />
<glyph unicode="&#xa8;" glyph-name="dieresis" horiz-adv-x="504" d="M140 645Q140 678 162 701T222 725Q250 725 269 708T288 661Q288 627 266 603T206 579Q178 579 159 597T140 645ZM346 645Q346 678 368 701T428 725Q456 725 475 708T494 661Q494 627 472
603T412 579Q384 579 365 597T346 645Z" />
<glyph unicode="&#xa9;" glyph-name="copyright" horiz-adv-x="840" d="M433 169Q394 169 365 181T317 215T289 265T280 324V376Q280 407 289 435T317 484T365 518T433 531Q465 531 491 521T537 492T567 450T580 399H512Q507 427 489 448T433 470Q390 470 371
442T352 376V324Q352 286 371 258T433 230Q471 230 489 251T512 301H580Q578 274 567 250T537 208T492 180T433 169ZM431 712Q514 712 581 683T697 605T771 489T797 350Q797 276 771 211T697 96T582 17T431 -12Q348 -12 281 17T165 95T91 210T65 350Q65 423 91
489T165 604T280 683T431 712ZM431 9Q510 9 573 38T681 114T748 223T772 350Q772 415 749 476T681 585T574 662T431 691Q351 691 288 662T181 586T114 477T90 350Q90 285 113 224T181 115T288 38T431 9Z" />
<glyph unicode="&#xaa;" glyph-name="ordfeminine" horiz-adv-x="428" d="M65 309H381L367 229H51L65 309ZM297 369L303 406Q290 389 260 376T195 362Q146 362 119 386T91 453Q91 510 129 537T228 564Q260 564 285 557T324 542L331 582Q336 608 321 623T280 638Q253
638 238 628T214 604H131Q151 655 190 682T295 710Q352 710 387 681T423 603Q423 597 423 591T421 578L384 369H297ZM233 420Q261 420 283 432T311 470L315 494Q305 500 288 505T250 510Q219 510 200 499T181 459Q181 441 193 431T233 420Z" />
<glyph unicode="&#xab;" glyph-name="guillemotleft" horiz-adv-x="635" d="M15 276L210 492H373L175 265L296 60H139L15 276ZM294 276L489 492H652L454 265L575 60H418L294 276Z" />
<glyph unicode="&#xac;" glyph-name="logicalnot" horiz-adv-x="580" d="M391 303H57L76 417H538L486 118H359L391 303Z" />
<glyph unicode="&#xae;" glyph-name="registered" horiz-adv-x="358" d="M234 556H212V520H188V637H238Q256 637 268 626T280 596Q280 584 274 575T257 560L282 520H255L234 556ZM235 575Q256 575 256 596Q256 605 252 611T236 617H212V575H235ZM229 443Q197 443
172 454T129 483T102 525T92 576Q92 602 101 626T129 668T172 697T229 708Q260 708 285 697T329 668T356 626T366 576Q366 549 357 525T329 483T286 454T229 443ZM229 454Q257 454 279 463T318 489T344 528T353 576Q353 601 344 623T319 661T280 687T229 697Q201
697 178 688T139 662T114 623T105 576Q105 551 114 529T139 490T178 464T229 454Z" />
<glyph unicode="&#xaf;" glyph-name="macron" horiz-adv-x="484" d="M148 706H477L459 599H130L148 706Z" />
<glyph unicode="&#xb0;" glyph-name="degree" horiz-adv-x="399" d="M158 542Q158 507 180 482T242 457Q264 457 281 465T311 489T330 523T337 565Q337 600 315 625T256 651Q209 651 184 622T158 542ZM237 398Q206 398 179 408T133 437T102 482T91 541Q91 616
134 663T257 710Q288 710 314 700T361 670T392 625T404 568Q404 532 392 501T358 447T305 411T237 398Z" />
<glyph unicode="&#xb1;" glyph-name="plusminus" horiz-adv-x="610" d="M48 107H216L248 287H80L100 401H268L301 586H427L394 401H562L542 287H374L342 107H510L492 0H30L48 107Z" />
<glyph unicode="&#xb2;" glyph-name="twosuperior" horiz-adv-x="401" d="M103 531L292 673Q308 685 319 698T331 728Q331 745 318 755T283 766Q260 766 245 755T226 719L225 713H138L140 724Q152 791 194 818T292 846Q352 846 390 816T428 738Q428 691 404 664T337
608L234 538H393L379 460H90L103 531Z" />
<glyph unicode="&#xb3;" glyph-name="threesuperior" horiz-adv-x="401" d="M200 613L213 685H266Q291 685 309 697T328 735Q328 752 316 764T282 776Q260 776 245 766T224 732H142Q153 789 191 816T292 844Q351 844 384 815T418 743Q418 705 398 681T341 647Q369
640 384 621T400 575Q400 546 389 523T356 485T307 461T246 453Q217 453 191 459T146 479T116 517T107 573H186Q186 550 199 536T245 521Q271 521 290 534T310 574Q310 591 298 602T264 613H200Z" />
<glyph unicode="&#xb4;" glyph-name="acute" horiz-adv-x="395" d="M137 579Q163 617 184 654T228 733H405Q393 715 378 695T344 655T307 615T270 579H137Z" />
<glyph unicode="&#xb5;" glyph-name="mu" horiz-adv-x="598" d="M212 -12Q197 -12 183 -11T156 -4L126 -174H-10L114 520H250L194 207Q192 198 192 193T192 182Q192 145 214 126T272 106Q318 106 348 136T386 214L441 520H577L486 0H356L368 64Q349 32 307 10T212 -12Z" />
<glyph unicode="&#xb6;" glyph-name="paragraph" horiz-adv-x="607" d="M496 618H387L307 161Q256 161 213 176T138 221T88 292T70 387Q70 457 90 515T152 614T256 677T402 700H603L449 -174H357L496 618Z" />
<glyph unicode="&#xb7;" glyph-name="periodcentered" horiz-adv-x="254" d="M52 280Q52 316 74 340T136 364Q166 364 186 344T207 293Q207 258 184 233T122 208Q91 208 72 229T52 280Z" />
<glyph unicode="&#xb8;" glyph-name="cedilla" horiz-adv-x="336" d="M98 -186Q78 -186 59 -185T26 -180L35 -125Q57 -130 79 -130Q99 -130 110 -124T121 -107Q121 -96 112 -92T86 -85L53 -81L82 0H146L135 -37L154 -39Q183 -42 201 -58T219 -102Q219 -123 210
-139T184 -165T145 -181T98 -186Z" />
<glyph unicode="&#xb9;" glyph-name="onesuperior" horiz-adv-x="309" d="M203 742Q185 734 159 728T108 716L122 799Q150 805 179 814T237 837H317L251 460H154L203 742Z" />
<glyph unicode="&#xba;" glyph-name="ordmasculine" horiz-adv-x="432" d="M257 433Q292 433 310 454T334 510L341 550Q342 555 342 559T343 568Q343 597 325 616T275 635Q211 635 198 562L191 522Q189 512 189 502Q189 470 207 452T257 433ZM257 361Q224 361
196 371T148 399T115 442T103 500Q103 508 104 515T106 528L114 573Q125 636 166 671T277 707Q308 707 335 697T384 669T417 625T429 568Q429 560 429 553T427 540L420 500Q409 440 366 401T257 361ZM76 309H376L363 229H62L76 309Z" />
<glyph unicode="&#xbb;" glyph-name="guillemotright" horiz-adv-x="635" d="M353 276L158 60H-5L193 287L72 492H229L353 276ZM632 276L437 60H274L472 287L351 492H508L632 276Z" />
<glyph unicode="&#xbc;" glyph-name="onequarter" horiz-adv-x="830" d="M608 700H711L228 0H125L608 700ZM206 605Q188 597 162 591T111 579L125 662Q153 668 182 677T240 700H320L254 323H157L206 605ZM433 141L631 377H751L711 144H759L746 73H698L685 0H598L611
73H420L433 141ZM623 144L652 306L520 144H623Z" />
<glyph unicode="&#xbd;" glyph-name="onehalf" horiz-adv-x="843" d="M465 71L654 213Q670 225 681 238T693 268Q693 285 680 295T645 306Q622 306 607 295T588 259L587 253H500L502 264Q514 331 556 358T654 386Q714 386 752 356T790 278Q790 231 766 204T699
148L596 78H755L741 0H452L465 71ZM603 700H706L223 0H120L603 700ZM206 605Q188 597 162 591T111 579L125 662Q153 668 182 677T240 700H320L254 323H157L206 605Z" />
<glyph unicode="&#xbe;" glyph-name="threequarters" horiz-adv-x="877" d="M184 476L197 548H250Q275 548 293 560T312 598Q312 615 300 627T266 639Q244 639 229 629T208 595H126Q137 652 175 679T276 707Q335 707 368 678T402 606Q402 568 382 544T325 510Q353
503 368 484T384 438Q384 409 373 386T340 348T291 324T230 316Q201 316 175 322T130 342T100 380T91 436H170Q170 413 183 399T229 384Q255 384 274 397T294 437Q294 454 282 465T248 476H184ZM650 700H753L270 0H167L650 700ZM475 141L673 377H793L753 144H801L788
73H740L727 0H640L653 73H462L475 141ZM665 144L694 306L562 144H665Z" />
<glyph unicode="&#xbf;" glyph-name="questiondown" horiz-adv-x="500" d="M371 445Q360 383 337 348T279 289L229 254Q216 245 203 236T178 215T159 191T151 161Q151 131 176 113T240 95Q291 95 314 117T345 181L348 198H473L470 180Q453 76 393 31T222 -14Q177
-14 139 -2T74 33T31 86T15 152Q15 203 39 242T115 315L178 355Q193 364 204 373T225 395T241 423T252 462L259 500Q285 492 318 492Q349 492 381 500L371 445ZM411 636Q411 600 389 576T327 552Q297 552 277 572T256 623Q256 658 279 683T341 708Q372 708 391
687T411 636Z" />
<glyph unicode="&#xc0;" glyph-name="Agrave" horiz-adv-x="688" d="M349 700H492L623 0H487L465 148H196L125 0H-22L349 700ZM251 260H449L403 574L251 260ZM356 753Q336 782 316 821T282 894H438Q445 862 458 823T482 753H356Z" />
<glyph unicode="&#xc1;" glyph-name="Aacute" horiz-adv-x="688" d="M349 700H492L623 0H487L465 148H196L125 0H-22L349 700ZM251 260H449L403 574L251 260ZM365 753Q391 786 414 821T458 894H625Q611 874 596 854T564 816T532 781T503 753H365Z" />
<glyph unicode="&#xc2;" glyph-name="Acircumflex" horiz-adv-x="688" d="M349 700H492L623 0H487L465 148H196L125 0H-22L349 700ZM251 260H449L403 574L251 260ZM384 894H516L609 753H486L442 820L375 753H241L384 894Z" />
<glyph unicode="&#xc3;" glyph-name="Atilde" horiz-adv-x="688" d="M349 700H492L623 0H487L465 148H196L125 0H-22L349 700ZM251 260H449L403 574L251 260ZM211 776Q219 804 229 827T255 866T293 891T347 900Q371 900 395 894T442 880T484 866T516 859Q537 859
546 874T562 906L647 877Q639 849 629 827T603 788T567 764T517 755Q497 755 474 761T428 776T382 790T344 797Q324 797 315 784T297 750L211 776Z" />
<glyph unicode="&#xc4;" glyph-name="Adieresis" horiz-adv-x="688" d="M349 700H492L623 0H487L465 148H196L125 0H-22L349 700ZM251 260H449L403 574L251 260ZM256 819Q256 852 278 875T338 899Q366 899 385 882T404 835Q404 801 382 777T322 753Q294 753 275
771T256 819ZM480 819Q480 852 502 875T562 899Q590 899 609 882T628 835Q628 801 606 777T546 753Q518 753 499 771T480 819Z" />
<glyph unicode="&#xc5;" glyph-name="Aring" horiz-adv-x="688" d="M341 686Q325 706 325 739Q325 784 356 810T432 837Q475 837 504 815T534 751Q534 727 524 708T496 674L623 0H487L465 148H196L125 0H-22L341 686ZM251 260H449L403 574L251 260ZM428 700Q451
700 463 715T476 749Q476 766 464 777T432 789Q408 789 396 776T383 740Q383 723 394 712T428 700Z" />
<glyph unicode="&#xc6;" glyph-name="AE" horiz-adv-x="1069" d="M511 148H235L115 0H-45L547 700H1089L1069 584H727L697 413H1010L989 297H677L645 116H988L967 0H485L511 148ZM530 260L587 582L327 260H530Z" />
<glyph unicode="&#xc7;" glyph-name="Ccedilla" horiz-adv-x="699" d="M294 -186Q274 -186 255 -185T222 -180L231 -125Q253 -130 275 -130Q295 -130 306 -124T317 -107Q317 -96 308 -92T282 -85L249 -81L275 -8Q224 1 183 24T114 81T71 160T56 256Q56 288 62
323L79 420Q105 569 182 641T398 714Q455 714 505 697T593 647T653 565T678 451H548Q546 482 535 509T505 556T457 587T392 599Q315 599 275 555T218 418L199 312Q197 298 196 285T194 258Q194 185 233 143T347 101Q384 101 413 114T462 148T496 195T515 249H645Q636
192 611 144T547 61T455 6T342 -14H338L331 -37L350 -39Q379 -42 397 -58T415 -102Q415 -123 406 -139T380 -165T341 -181T294 -186Z" />
<glyph unicode="&#xc8;" glyph-name="Egrave" horiz-adv-x="616" d="M155 700H636L616 584H274L244 413H557L536 297H224L192 116H535L514 0H32L155 700ZM346 753Q326 782 306 821T272 894H428Q435 862 448 823T472 753H346Z" />
<glyph unicode="&#xc9;" glyph-name="Eacute" horiz-adv-x="616" d="M155 700H636L616 584H274L244 413H557L536 297H224L192 116H535L514 0H32L155 700ZM324 753Q350 786 373 821T417 894H584Q570 874 555 854T523 816T491 781T462 753H324Z" />
<glyph unicode="&#xca;" glyph-name="Ecircumflex" horiz-adv-x="616" d="M155 700H636L616 584H274L244 413H557L536 297H224L192 116H535L514 0H32L155 700ZM361 894H493L586 753H463L419 820L352 753H218L361 894Z" />
<glyph unicode="&#xcb;" glyph-name="Edieresis" horiz-adv-x="616" d="M155 700H636L616 584H274L244 413H557L536 297H224L192 116H535L514 0H32L155 700ZM231 819Q231 852 253 875T313 899Q341 899 360 882T379 835Q379 801 357 777T297 753Q269 753 250 771T231
819ZM455 819Q455 852 477 875T537 899Q565 899 584 882T603 835Q603 801 581 777T521 753Q493 753 474 771T455 819Z" />
<glyph unicode="&#xcc;" glyph-name="Igrave" horiz-adv-x="304" d="M160 700H300L177 0H37L160 700ZM426 753Q406 782 386 821T352 894H508Q515 862 528 823T552 753H426Z" />
<glyph unicode="&#xcd;" glyph-name="Iacute" horiz-adv-x="304" d="M160 700H300L177 0H37L160 700ZM172 753Q198 786 221 821T265 894H432Q418 874 403 854T371 816T339 781T310 753H172Z" />
<glyph unicode="&#xce;" glyph-name="Icircumflex" horiz-adv-x="304" d="M160 700H300L177 0H37L160 700ZM450 894H582L675 753H552L508 820L441 753H307L450 894Z" />
<glyph unicode="&#xcf;" glyph-name="Idieresis" horiz-adv-x="304" d="M160 700H300L177 0H37L160 700ZM323 819Q323 852 345 875T405 899Q433 899 452 882T471 835Q471 801 449 777T389 753Q361 753 342 771T323 819ZM547 819Q547 852 569 875T629 899Q657 899
676 882T695 835Q695 801 673 777T613 753Q585 753 566 771T547 819Z" />
<glyph unicode="&#xd0;" glyph-name="Eth" horiz-adv-x="734" d="M63 408H135L186 700H474Q525 700 568 685T643 640T692 570T710 476Q710 462 709 448T705 420L677 261Q666 197 643 148T582 66T488 17T356 0H63L114 292H42L63 408ZM350 114Q429 114 476 148T537
261L565 420Q569 440 569 462Q569 522 535 554T431 586H305L273 408H428L408 292H252L221 114H350Z" />
<glyph unicode="&#xd1;" glyph-name="Ntilde" horiz-adv-x="724" d="M155 700H287L505 223L589 700H725L602 0H470L252 476L168 0H32L155 700ZM233 776Q241 804 251 827T277 866T315 891T369 900Q393 900 417 894T464 880T506 866T538 859Q559 859 568 874T584
906L669 877Q661 849 651 827T625 788T589 764T539 755Q519 755 496 761T450 776T404 790T366 797Q346 797 337 784T319 750L233 776Z" />
<glyph unicode="&#xd2;" glyph-name="Ograve" horiz-adv-x="723" d="M352 101Q430 101 474 151T533 282L551 387Q553 396 554 409T555 433Q555 469 545 499T514 552T464 586T397 599Q316 599 274 551T216 415L199 317Q197 303 196 290T194 263Q194 190 233 146T352
101ZM347 -14Q279 -14 225 6T134 63T78 151T58 263Q58 298 64 334L80 426Q105 567 184 640T404 714Q468 714 521 694T612 637T672 549T693 438Q693 407 687 374L671 285Q659 219 633 164T567 70T471 8T347 -14ZM363 753Q343 782 323 821T289 894H445Q452 862 465
823T489 753H363Z" />
<glyph unicode="&#xd3;" glyph-name="Oacute" horiz-adv-x="723" d="M352 101Q430 101 474 151T533 282L551 387Q553 396 554 409T555 433Q555 469 545 499T514 552T464 586T397 599Q316 599 274 551T216 415L199 317Q197 303 196 290T194 263Q194 190 233 146T352
101ZM347 -14Q279 -14 225 6T134 63T78 151T58 263Q58 298 64 334L80 426Q105 567 184 640T404 714Q468 714 521 694T612 637T672 549T693 438Q693 407 687 374L671 285Q659 219 633 164T567 70T471 8T347 -14ZM362 753Q388 786 411 821T455 894H622Q608 874 593
854T561 816T529 781T500 753H362Z" />
<glyph unicode="&#xd4;" glyph-name="Ocircumflex" horiz-adv-x="723" d="M352 101Q430 101 474 151T533 282L551 387Q553 396 554 409T555 433Q555 469 545 499T514 552T464 586T397 599Q316 599 274 551T216 415L199 317Q197 303 196 290T194 263Q194 190 233
146T352 101ZM347 -14Q279 -14 225 6T134 63T78 151T58 263Q58 298 64 334L80 426Q105 567 184 640T404 714Q468 714 521 694T612 637T672 549T693 438Q693 407 687 374L671 285Q659 219 633 164T567 70T471 8T347 -14ZM391 894H523L616 753H493L449 820L382 753H248L391
894Z" />
<glyph unicode="&#xd5;" glyph-name="Otilde" horiz-adv-x="723" d="M352 101Q430 101 474 151T533 282L551 387Q553 396 554 409T555 433Q555 469 545 499T514 552T464 586T397 599Q316 599 274 551T216 415L199 317Q197 303 196 290T194 263Q194 190 233 146T352
101ZM347 -14Q279 -14 225 6T134 63T78 151T58 263Q58 298 64 334L80 426Q105 567 184 640T404 714Q468 714 521 694T612 637T672 549T693 438Q693 407 687 374L671 285Q659 219 633 164T567 70T471 8T347 -14ZM218 776Q226 804 236 827T262 866T300 891T354 900Q378
900 402 894T449 880T491 866T523 859Q544 859 553 874T569 906L654 877Q646 849 636 827T610 788T574 764T524 755Q504 755 481 761T435 776T389 790T351 797Q331 797 322 784T304 750L218 776Z" />
<glyph unicode="&#xd6;" glyph-name="Odieresis" horiz-adv-x="723" d="M352 101Q430 101 474 151T533 282L551 387Q553 396 554 409T555 433Q555 469 545 499T514 552T464 586T397 599Q316 599 274 551T216 415L199 317Q197 303 196 290T194 263Q194 190 233
146T352 101ZM347 -14Q279 -14 225 6T134 63T78 151T58 263Q58 298 64 334L80 426Q105 567 184 640T404 714Q468 714 521 694T612 637T672 549T693 438Q693 407 687 374L671 285Q659 219 633 164T567 70T471 8T347 -14ZM266 819Q266 852 288 875T348 899Q376 899
395 882T414 835Q414 801 392 777T332 753Q304 753 285 771T266 819ZM490 819Q490 852 512 875T572 899Q600 899 619 882T638 835Q638 801 616 777T556 753Q528 753 509 771T490 819Z" />
<glyph unicode="&#xd7;" glyph-name="multiply" horiz-adv-x="598" d="M405 357L534 202L444 125L314 280L144 136L70 223L241 368L115 521L205 598L332 445L501 589L575 502L405 357Z" />
<glyph unicode="&#xd8;" glyph-name="Oslash" horiz-adv-x="723" d="M347 -14Q291 -14 246 -1T165 37L94 -50H-4L111 90Q81 132 70 172T58 263Q58 298 64 334L80 426Q105 567 184 640T404 714Q456 714 501 701T582 661L655 750H753L637 609Q664 574 678 531T693
438Q693 423 692 406T687 374L671 285Q659 219 633 164T567 70T471 8T347 -14ZM352 101Q430 101 474 151T533 282L551 387Q553 396 554 409T555 433Q555 450 553 467T545 498L245 134Q262 118 290 110T352 101ZM194 263Q194 246 196 231T202 201L501 564Q460 599
397 599Q316 599 274 551T216 415L199 317Q197 303 196 290T194 263Z" />
<glyph unicode="&#xd9;" glyph-name="Ugrave" horiz-adv-x="716" d="M330 -14Q280 -14 233 1T150 45T91 117T68 213Q68 224 69 235T72 255L150 700H290L211 250Q208 235 208 220Q208 164 244 133T340 102Q412 102 452 141T504 251L583 700H723L644 251Q633 189
607 140T542 57T449 4T330 -14ZM374 753Q354 782 334 821T300 894H456Q463 862 476 823T500 753H374Z" />
<glyph unicode="&#xda;" glyph-name="Uacute" horiz-adv-x="716" d="M330 -14Q280 -14 233 1T150 45T91 117T68 213Q68 224 69 235T72 255L150 700H290L211 250Q208 235 208 220Q208 164 244 133T340 102Q412 102 452 141T504 251L583 700H723L644 251Q633 189
607 140T542 57T449 4T330 -14ZM354 753Q380 786 403 821T447 894H614Q600 874 585 854T553 816T521 781T492 753H354Z" />
<glyph unicode="&#xdb;" glyph-name="Ucircumflex" horiz-adv-x="716" d="M330 -14Q280 -14 233 1T150 45T91 117T68 213Q68 224 69 235T72 255L150 700H290L211 250Q208 235 208 220Q208 164 244 133T340 102Q412 102 452 141T504 251L583 700H723L644 251Q633
189 607 140T542 57T449 4T330 -14ZM403 894H535L628 753H505L461 820L394 753H260L403 894Z" />
<glyph unicode="&#xdc;" glyph-name="Udieresis" horiz-adv-x="716" d="M330 -14Q280 -14 233 1T150 45T91 117T68 213Q68 224 69 235T72 255L150 700H290L211 250Q208 235 208 220Q208 164 244 133T340 102Q412 102 452 141T504 251L583 700H723L644 251Q633
189 607 140T542 57T449 4T330 -14ZM266 819Q266 852 288 875T348 899Q376 899 395 882T414 835Q414 801 392 777T332 753Q304 753 285 771T266 819ZM490 819Q490 852 512 875T572 899Q600 899 619 882T638 835Q638 801 616 777T556 753Q528 753 509 771T490 819Z"
/>
<glyph unicode="&#xdd;" glyph-name="Yacute" horiz-adv-x="624" d="M240 256L80 700H227L331 380L536 700H695L377 240L335 0H195L240 256ZM304 753Q330 786 353 821T397 894H564Q550 874 535 854T503 816T471 781T442 753H304Z" />
<glyph unicode="&#xde;" glyph-name="Thorn" horiz-adv-x="651" d="M155 700H295L276 593H424Q473 593 513 577T582 533T627 466T643 380Q643 315 621 266T558 183T462 133T343 116H192L172 0H32L155 700ZM353 232Q426 232 464 270T503 372Q503 417 476 447T395
477H256L213 232H353Z" />
<glyph unicode="&#xdf;" glyph-name="germandbls" horiz-adv-x="612" d="M116 532Q135 639 198 686T363 734Q405 734 446 723T519 689T570 632T590 551Q590 485 555 437T463 365Q512 351 543 311T574 216Q574 165 555 125T502 57T418 15T310 0H261L280 108H307Q367
108 403 135T440 216Q440 260 409 283T333 306H314L332 410Q394 421 424 456T454 537Q454 576 430 600T360 625Q317 625 289 604T251 528L158 0H22L116 532Z" />
<glyph unicode="&#xe0;" glyph-name="agrave" horiz-adv-x="584" d="M347 0L356 57Q335 28 290 8T192 -12Q109 -12 67 28T25 134Q25 182 41 214T87 267T156 295T242 304Q284 304 323 294T388 267L400 336Q407 375 383 400T314 426Q243 426 211 373H86Q115 448
172 490T332 532Q376 532 413 519T478 483T521 428T537 359Q537 342 534 324L477 0H347ZM242 72Q290 72 326 94T369 157L376 198Q359 209 331 217T267 225Q217 225 186 207T154 140Q154 105 177 89T242 72ZM288 579Q265 613 244 655T208 733H370Q378 693 389 657T415
579H288Z" />
<glyph unicode="&#xe1;" glyph-name="aacute" horiz-adv-x="584" d="M347 0L356 57Q335 28 290 8T192 -12Q109 -12 67 28T25 134Q25 182 41 214T87 267T156 295T242 304Q284 304 323 294T388 267L400 336Q407 375 383 400T314 426Q243 426 211 373H86Q115 448
172 490T332 532Q376 532 413 519T478 483T521 428T537 359Q537 342 534 324L477 0H347ZM242 72Q290 72 326 94T369 157L376 198Q359 209 331 217T267 225Q217 225 186 207T154 140Q154 105 177 89T242 72ZM289 579Q315 617 336 654T380 733H557Q545 715 530 695T496
655T459 615T422 579H289Z" />
<glyph unicode="&#xe2;" glyph-name="acircumflex" horiz-adv-x="584" d="M347 0L356 57Q335 28 290 8T192 -12Q109 -12 67 28T25 134Q25 182 41 214T87 267T156 295T242 304Q284 304 323 294T388 267L400 336Q407 375 383 400T314 426Q243 426 211 373H86Q115
448 172 490T332 532Q376 532 413 519T478 483T521 428T537 359Q537 342 534 324L477 0H347ZM242 72Q290 72 326 94T369 157L376 198Q359 209 331 217T267 225Q217 225 186 207T154 140Q154 105 177 89T242 72ZM322 733H453L537 579H417L378 655L317 579H186L322
733Z" />
<glyph unicode="&#xe3;" glyph-name="atilde" horiz-adv-x="584" d="M347 0L356 57Q335 28 290 8T192 -12Q109 -12 67 28T25 134Q25 182 41 214T87 267T156 295T242 304Q284 304 323 294T388 267L400 336Q407 375 383 400T314 426Q243 426 211 373H86Q115 448
172 490T332 532Q376 532 413 519T478 483T521 428T537 359Q537 342 534 324L477 0H347ZM242 72Q290 72 326 94T369 157L376 198Q359 209 331 217T267 225Q217 225 186 207T154 140Q154 105 177 89T242 72ZM163 608Q172 636 181 658T204 696T237 719T285 727Q306
727 329 721T373 706T412 691T441 684Q450 684 456 689T468 701T476 715T482 729L567 698Q559 676 550 655T529 617T499 590T457 580Q439 580 418 586T374 601T331 616T294 623Q275 623 268 613T250 579L163 608Z" />
<glyph unicode="&#xe4;" glyph-name="adieresis" horiz-adv-x="584" d="M347 0L356 57Q335 28 290 8T192 -12Q109 -12 67 28T25 134Q25 182 41 214T87 267T156 295T242 304Q284 304 323 294T388 267L400 336Q407 375 383 400T314 426Q243 426 211 373H86Q115 448
172 490T332 532Q376 532 413 519T478 483T521 428T537 359Q537 342 534 324L477 0H347ZM242 72Q290 72 326 94T369 157L376 198Q359 209 331 217T267 225Q217 225 186 207T154 140Q154 105 177 89T242 72ZM199 645Q199 678 221 701T281 725Q309 725 328 708T347
661Q347 627 325 603T265 579Q237 579 218 597T199 645ZM405 645Q405 678 427 701T487 725Q515 725 534 708T553 661Q553 627 531 603T471 579Q443 579 424 597T405 645Z" />
<glyph unicode="&#xe5;" glyph-name="aring" horiz-adv-x="584" d="M347 0L356 57Q335 28 290 8T192 -12Q109 -12 67 28T25 134Q25 182 41 214T87 267T156 295T242 304Q284 304 323 294T388 267L400 336Q407 375 383 400T314 426Q243 426 211 373H86Q115 448 172
490T332 532Q376 532 413 519T478 483T521 428T537 359Q537 342 534 324L477 0H347ZM242 72Q290 72 326 94T369 157L376 198Q359 209 331 217T267 225Q217 225 186 207T154 140Q154 105 177 89T242 72ZM383 627Q406 627 418 642T431 676Q431 693 419 704T387 716Q363
716 351 703T338 667Q338 650 349 639T383 627ZM380 579Q334 579 307 602T280 666Q280 711 311 737T387 764Q430 764 459 742T489 678Q489 634 458 607T380 579Z" />
<glyph unicode="&#xe6;" glyph-name="ae" horiz-adv-x="908" d="M608 -12Q549 -12 502 7T432 63Q415 45 391 32T339 8T281 -7T222 -12Q123 -12 74 27T25 136Q25 184 41 216T87 267T156 295T242 304Q284 304 320 294T388 267L400 335Q407 374 383 400T314 426Q242
426 211 375H86Q116 454 174 493T330 532Q380 532 418 516T482 468Q543 532 654 532Q703 532 743 518T811 478T854 415T870 332Q870 323 869 310T866 284L854 214H515Q512 199 512 185Q512 140 538 112T618 84Q659 84 683 104T718 152H839Q819 80 760 34T608 -12ZM242
72Q290 72 326 94T369 157L376 198Q356 210 326 217T267 225Q217 225 186 208T154 142Q154 107 177 90T242 72ZM532 310H746L748 323Q749 328 749 333T750 343Q750 384 725 409T652 435Q599 435 572 404T533 313L532 310Z" />
<glyph unicode="&#xe7;" glyph-name="ccedilla" horiz-adv-x="567" d="M223 -186Q203 -186 184 -185T151 -180L160 -125Q182 -130 204 -130Q224 -130 235 -124T246 -107Q246 -96 237 -92T211 -85L178 -81L205 -5Q169 3 138 20T85 64T51 124T38 199Q38 212 39 222T42
244L55 319Q73 424 136 478T310 532Q356 532 397 519T468 479T516 414T534 325H414Q412 367 385 395T308 424Q255 424 227 393T188 302L175 228Q172 213 172 198Q172 152 199 124T276 96Q325 96 352 125T390 193H514Q506 148 486 111T434 46T360 3T267 -12L260
-37L279 -39Q308 -42 326 -58T344 -102Q344 -123 335 -139T309 -165T270 -181T223 -186Z" />
<glyph unicode="&#xe8;" glyph-name="egrave" horiz-adv-x="561" d="M261 -12Q205 -12 163 5T94 50T52 117T38 197Q38 208 39 219T42 244L54 312Q63 362 83 403T135 472T210 516T307 532Q356 532 396 518T464 478T507 415T523 332Q523 323 522 310T519 284L507
214H168Q165 199 165 185Q165 140 191 112T271 84Q312 84 336 104T371 152H492Q472 80 413 34T261 -12ZM185 310H399L401 323Q402 328 402 333T403 343Q403 384 378 409T305 435Q252 435 225 404T186 313L185 310ZM252 579Q229 613 208 655T172 733H334Q342 693
353 657T379 579H252Z" />
<glyph unicode="&#xe9;" glyph-name="eacute" horiz-adv-x="561" d="M261 -12Q205 -12 163 5T94 50T52 117T38 197Q38 208 39 219T42 244L54 312Q63 362 83 403T135 472T210 516T307 532Q356 532 396 518T464 478T507 415T523 332Q523 323 522 310T519 284L507
214H168Q165 199 165 185Q165 140 191 112T271 84Q312 84 336 104T371 152H492Q472 80 413 34T261 -12ZM185 310H399L401 323Q402 328 402 333T403 343Q403 384 378 409T305 435Q252 435 225 404T186 313L185 310ZM268 579Q294 617 315 654T359 733H536Q524 715
509 695T475 655T438 615T401 579H268Z" />
<glyph unicode="&#xea;" glyph-name="ecircumflex" horiz-adv-x="561" d="M261 -12Q205 -12 163 5T94 50T52 117T38 197Q38 208 39 219T42 244L54 312Q63 362 83 403T135 472T210 516T307 532Q356 532 396 518T464 478T507 415T523 332Q523 323 522 310T519 284L507
214H168Q165 199 165 185Q165 140 191 112T271 84Q312 84 336 104T371 152H492Q472 80 413 34T261 -12ZM185 310H399L401 323Q402 328 402 333T403 343Q403 384 378 409T305 435Q252 435 225 404T186 313L185 310ZM287 733H418L502 579H382L343 655L282 579H151L287
733Z" />
<glyph unicode="&#xeb;" glyph-name="edieresis" horiz-adv-x="561" d="M261 -12Q205 -12 163 5T94 50T52 117T38 197Q38 208 39 219T42 244L54 312Q63 362 83 403T135 472T210 516T307 532Q356 532 396 518T464 478T507 415T523 332Q523 323 522 310T519 284L507
214H168Q165 199 165 185Q165 140 191 112T271 84Q312 84 336 104T371 152H492Q472 80 413 34T261 -12ZM185 310H399L401 323Q402 328 402 333T403 343Q403 384 378 409T305 435Q252 435 225 404T186 313L185 310ZM165 645Q165 678 187 701T247 725Q275 725 294
708T313 661Q313 627 291 603T231 579Q203 579 184 597T165 645ZM371 645Q371 678 393 701T453 725Q481 725 500 708T519 661Q519 627 497 603T437 579Q409 579 390 597T371 645Z" />
<glyph unicode="&#xec;" glyph-name="igrave" horiz-adv-x="280" d="M119 520H255L163 0H27L119 520ZM384 579Q361 613 340 655T304 733H466Q474 693 485 657T511 579H384Z" />
<glyph unicode="&#xed;" glyph-name="iacute" horiz-adv-x="280" d="M119 520H255L163 0H27L119 520ZM387 579Q413 617 434 654T478 733H655Q643 715 628 695T594 655T557 615T520 579H387Z" />
<glyph unicode="&#xee;" glyph-name="icircumflex" horiz-adv-x="280" d="M119 520H255L163 0H27L119 520ZM412 733H543L627 579H507L468 655L407 579H276L412 733Z" />
<glyph unicode="&#xef;" glyph-name="idieresis" horiz-adv-x="280" d="M119 520H255L163 0H27L119 520ZM288 645Q288 678 310 701T370 725Q398 725 417 708T436 661Q436 627 414 603T354 579Q326 579 307 597T288 645ZM494 645Q494 678 516 701T576 725Q604 725
623 708T642 661Q642 627 620 603T560 579Q532 579 513 597T494 645Z" />
<glyph unicode="&#xf0;" glyph-name="eth" horiz-adv-x="579" d="M196 614L289 646Q239 692 173 730H336Q352 721 367 710T399 684L507 721L534 649L456 622Q496 569 521 502T547 359Q547 324 541 290L526 205Q517 156 496 116T443 47T367 2T270 -14Q218 -14 175
1T102 45T54 111T37 197Q37 209 38 220T41 239L52 301Q88 507 283 507Q327 507 362 492T414 457Q391 525 346 583L223 541L196 614ZM174 233Q171 216 171 197Q171 146 198 120T273 93Q328 93 356 124T392 204L405 278Q406 283 406 290T407 303Q407 346 381 375T304
404Q253 404 225 380T185 295L174 233Z" />
<glyph unicode="&#xf1;" glyph-name="ntilde" horiz-adv-x="594" d="M114 520H244L231 451Q257 491 298 511T390 532Q464 532 506 487T549 369Q549 358 548 347T545 323L488 0H352L407 312Q408 317 408 322T409 333Q409 370 386 390T327 411Q278 411 249 382T210
297L158 0H22L114 520ZM163 608Q172 636 181 658T204 696T237 719T285 727Q306 727 329 721T373 706T412 691T441 684Q450 684 456 689T468 701T476 715T482 729L567 698Q559 676 550 655T529 617T499 590T457 580Q439 580 418 586T374 601T331 616T294 623Q275
623 268 613T250 579L163 608Z" />
<glyph unicode="&#xf2;" glyph-name="ograve" d="M274 95Q324 95 352 124T389 203L405 294Q408 310 408 324Q408 372 380 398T302 425Q249 425 223 396T186 312L170 221Q169 217 168 210T167 194Q167 146 196 121T274 95ZM271 -12Q218 -12 175 3T102 47T56 114T39
202Q39 214 40 225T43 250L55 318Q75 429 139 480T304 532Q359 532 402 517T476 474T522 407T538 320Q538 307 537 294T533 267L522 204Q514 156 494 116T443 48T368 4T271 -12ZM260 579Q237 613 216 655T180 733H342Q350 693 361 657T387 579H260Z" />
<glyph unicode="&#xf3;" glyph-name="oacute" d="M274 95Q324 95 352 124T389 203L405 294Q408 310 408 324Q408 372 380 398T302 425Q249 425 223 396T186 312L170 221Q169 217 168 210T167 194Q167 146 196 121T274 95ZM271 -12Q218 -12 175 3T102 47T56 114T39
202Q39 214 40 225T43 250L55 318Q75 429 139 480T304 532Q359 532 402 517T476 474T522 407T538 320Q538 307 537 294T533 267L522 204Q514 156 494 116T443 48T368 4T271 -12ZM267 579Q293 617 314 654T358 733H535Q523 715 508 695T474 655T437 615T400 579H267Z"
/>
<glyph unicode="&#xf4;" glyph-name="ocircumflex" d="M274 95Q324 95 352 124T389 203L405 294Q408 310 408 324Q408 372 380 398T302 425Q249 425 223 396T186 312L170 221Q169 217 168 210T167 194Q167 146 196 121T274 95ZM271 -12Q218 -12 175 3T102 47T56
114T39 202Q39 214 40 225T43 250L55 318Q75 429 139 480T304 532Q359 532 402 517T476 474T522 407T538 320Q538 307 537 294T533 267L522 204Q514 156 494 116T443 48T368 4T271 -12ZM297 733H428L512 579H392L353 655L292 579H161L297 733Z" />
<glyph unicode="&#xf5;" glyph-name="otilde" d="M274 95Q324 95 352 124T389 203L405 294Q408 310 408 324Q408 372 380 398T302 425Q249 425 223 396T186 312L170 221Q169 217 168 210T167 194Q167 146 196 121T274 95ZM271 -12Q218 -12 175 3T102 47T56 114T39
202Q39 214 40 225T43 250L55 318Q75 429 139 480T304 532Q359 532 402 517T476 474T522 407T538 320Q538 307 537 294T533 267L522 204Q514 156 494 116T443 48T368 4T271 -12ZM146 608Q155 636 164 658T187 696T220 719T268 727Q289 727 312 721T356 706T395
691T424 684Q433 684 439 689T451 701T459 715T465 729L550 698Q542 676 533 655T512 617T482 590T440 580Q422 580 401 586T357 601T314 616T277 623Q258 623 251 613T233 579L146 608Z" />
<glyph unicode="&#xf6;" glyph-name="odieresis" d="M274 95Q324 95 352 124T389 203L405 294Q408 310 408 324Q408 372 380 398T302 425Q249 425 223 396T186 312L170 221Q169 217 168 210T167 194Q167 146 196 121T274 95ZM271 -12Q218 -12 175 3T102 47T56
114T39 202Q39 214 40 225T43 250L55 318Q75 429 139 480T304 532Q359 532 402 517T476 474T522 407T538 320Q538 307 537 294T533 267L522 204Q514 156 494 116T443 48T368 4T271 -12ZM174 645Q174 678 196 701T256 725Q284 725 303 708T322 661Q322 627 300 603T240
579Q212 579 193 597T174 645ZM380 645Q380 678 402 701T462 725Q490 725 509 708T528 661Q528 627 506 603T446 579Q418 579 399 597T380 645Z" />
<glyph unicode="&#xf7;" glyph-name="divide" horiz-adv-x="598" d="M92 418H550L529 302H71L92 418ZM199 154Q199 189 221 212T281 236Q310 236 330 217T350 167Q350 133 328 109T267 84Q237 84 218 104T199 154ZM270 554Q270 589 292 612T352 636Q381 636 401
617T421 567Q421 533 399 509T338 484Q308 484 289 504T270 554Z" />
<glyph unicode="&#xf8;" glyph-name="oslash" d="M271 -12Q185 -12 129 26L65 -50H-10L85 64Q60 97 50 128T39 202Q39 214 40 225T43 250L55 318Q75 429 139 480T304 532Q390 532 447 495L511 571H586L491 458Q514 433 526 398T538 320Q538 307 537 294T533 267L522
204Q514 156 494 116T443 48T368 4T271 -12ZM274 95Q324 95 352 124T389 203L405 294Q408 310 408 324Q408 342 404 354L204 115Q232 95 274 95ZM167 194Q167 178 170 165L371 405Q345 425 302 425Q249 425 223 396T186 312L170 221Q169 217 168 210T167 194Z"
/>
<glyph unicode="&#xf9;" glyph-name="ugrave" horiz-adv-x="593" d="M207 -12Q134 -12 91 32T47 150Q47 161 48 172T51 195L109 520H245L189 207Q187 198 187 193T187 182Q187 145 209 126T267 106Q313 106 343 136T381 214L436 520H572L481 0H351L363 64Q344
32 302 10T207 -12ZM288 579Q265 613 244 655T208 733H370Q378 693 389 657T415 579H288Z" />
<glyph unicode="&#xfa;" glyph-name="uacute" horiz-adv-x="593" d="M207 -12Q134 -12 91 32T47 150Q47 161 48 172T51 195L109 520H245L189 207Q187 198 187 193T187 182Q187 145 209 126T267 106Q313 106 343 136T381 214L436 520H572L481 0H351L363 64Q344
32 302 10T207 -12ZM267 579Q293 617 314 654T358 733H535Q523 715 508 695T474 655T437 615T400 579H267Z" />
<glyph unicode="&#xfb;" glyph-name="ucircumflex" horiz-adv-x="593" d="M207 -12Q134 -12 91 32T47 150Q47 161 48 172T51 195L109 520H245L189 207Q187 198 187 193T187 182Q187 145 209 126T267 106Q313 106 343 136T381 214L436 520H572L481 0H351L363 64Q344
32 302 10T207 -12ZM312 733H443L527 579H407L368 655L307 579H176L312 733Z" />
<glyph unicode="&#xfc;" glyph-name="udieresis" horiz-adv-x="593" d="M207 -12Q134 -12 91 32T47 150Q47 161 48 172T51 195L109 520H245L189 207Q187 198 187 193T187 182Q187 145 209 126T267 106Q313 106 343 136T381 214L436 520H572L481 0H351L363 64Q344
32 302 10T207 -12ZM187 645Q187 678 209 701T269 725Q297 725 316 708T335 661Q335 627 313 603T253 579Q225 579 206 597T187 645ZM393 645Q393 678 415 701T475 725Q503 725 522 708T541 661Q541 627 519 603T459 579Q431 579 412 597T393 645Z" />
<glyph unicode="&#xfd;" glyph-name="yacute" horiz-adv-x="508" d="M16 -54Q27 -59 43 -61T72 -63Q98 -63 112 -53T137 -23L150 1L53 520H189L236 139L406 520H544L284 1L256 -50Q239 -80 224 -102T189 -138T146 -159T89 -166Q67 -166 42 -162T0 -151L16 -54ZM229
579Q255 617 276 654T320 733H497Q485 715 470 695T436 655T399 615T362 579H229Z" />
<glyph unicode="&#xfe;" glyph-name="thorn" horiz-adv-x="609" d="M151 730H286L240 470Q260 495 298 513T384 532Q429 532 464 517T524 475T561 412T574 333Q574 324 573 309T569 282L555 202Q536 98 477 43T324 -12Q292 -12 267 -5T223 13T191 38T170 67L132
-154H-4L151 730ZM334 422Q280 422 251 390T211 298L200 237Q199 232 198 223T197 207Q197 159 225 129T304 98Q355 98 383 130T422 220L433 282Q436 300 436 317Q436 365 411 393T334 422Z" />
<glyph unicode="&#xff;" glyph-name="ydieresis" horiz-adv-x="508" d="M16 -54Q27 -59 43 -61T72 -63Q98 -63 112 -53T137 -23L150 1L53 520H189L236 139L406 520H544L284 1L256 -50Q239 -80 224 -102T189 -138T146 -159T89 -166Q67 -166 42 -162T0 -151L16 -54ZM143
645Q143 678 165 701T225 725Q253 725 272 708T291 661Q291 627 269 603T209 579Q181 579 162 597T143 645ZM349 645Q349 678 371 701T431 725Q459 725 478 708T497 661Q497 627 475 603T415 579Q387 579 368 597T349 645Z" />
<glyph unicode="&#x100;" glyph-name="Amacron" horiz-adv-x="688" d="M349 700H492L623 0H487L465 148H196L125 0H-22L349 700ZM251 260H449L403 574L251 260ZM260 881H636L617 772H241L260 881Z" />
<glyph unicode="&#x101;" glyph-name="amacron" horiz-adv-x="584" d="M347 0L356 57Q335 28 290 8T192 -12Q109 -12 67 28T25 134Q25 182 41 214T87 267T156 295T242 304Q284 304 323 294T388 267L400 336Q407 375 383 400T314 426Q243 426 211 373H86Q115 448
172 490T332 532Q376 532 413 519T478 483T521 428T537 359Q537 342 534 324L477 0H347ZM242 72Q290 72 326 94T369 157L376 198Q359 209 331 217T267 225Q217 225 186 207T154 140Q154 105 177 89T242 72ZM224 706H553L535 599H206L224 706Z" />
<glyph unicode="&#x102;" glyph-name="Abreve" horiz-adv-x="688" d="M349 700H492L623 0H487L465 148H196L125 0H-22L349 700ZM251 260H449L403 574L251 260ZM435 753Q398 753 366 762T311 788T277 832T270 894H375Q371 868 389 850T443 832Q482 832 501 851T525
894H630Q618 822 566 788T435 753Z" />
<glyph unicode="&#x103;" glyph-name="abreve" horiz-adv-x="584" d="M347 0L356 57Q335 28 290 8T192 -12Q109 -12 67 28T25 134Q25 182 41 214T87 267T156 295T242 304Q284 304 323 294T388 267L400 336Q407 375 383 400T314 426Q243 426 211 373H86Q115 448
172 490T332 532Q376 532 413 519T478 483T521 428T537 359Q537 342 534 324L477 0H347ZM242 72Q290 72 326 94T369 157L376 198Q359 209 331 217T267 225Q217 225 186 207T154 140Q154 105 177 89T242 72ZM378 579Q343 579 312 588T259 617T224 665T216 733H314Q311
701 328 680T383 658Q404 658 418 665T442 683T456 707T465 733H564Q553 661 504 620T378 579Z" />
<glyph unicode="&#x104;" glyph-name="Aogonek" horiz-adv-x="688" d="M492 -186Q444 -186 418 -165T391 -108Q391 -88 399 -71T420 -40T451 -16T487 0L465 148H196L125 0H-22L349 700H492L623 0H564Q547 -15 532 -35T516 -83Q516 -107 547 -107Q553 -107 560
-107T574 -104L561 -177Q553 -179 533 -182T492 -186ZM251 260H449L403 574L251 260Z" />
<glyph unicode="&#x105;" glyph-name="aogonek" horiz-adv-x="584" d="M352 -186Q304 -186 278 -165T251 -108Q251 -88 259 -71T280 -40T311 -16T347 0L356 57Q335 28 290 8T192 -12Q109 -12 67 28T25 134Q25 182 41 214T87 267T156 295T242 304Q284 304 323 294T388
267L400 336Q407 375 383 400T314 426Q243 426 211 373H86Q115 448 172 490T332 532Q376 532 413 519T478 483T521 428T537 359Q537 342 534 324L477 0H424Q407 -15 392 -35T376 -83Q376 -107 407 -107Q413 -107 420 -107T434 -104L421 -177Q413 -179 393 -182T352
-186ZM242 72Q290 72 326 94T369 157L376 198Q359 209 331 217T267 225Q217 225 186 207T154 140Q154 105 177 89T242 72Z" />
<glyph unicode="&#x106;" glyph-name="Cacute" horiz-adv-x="699" d="M342 -14Q276 -14 223 6T133 61T76 146T56 256Q56 288 62 323L79 420Q105 569 182 641T398 714Q455 714 505 697T593 647T653 565T678 451H548Q546 482 535 509T505 556T457 587T392 599Q315
599 275 555T218 418L199 312Q197 298 196 285T194 258Q194 185 233 143T347 101Q384 101 413 114T462 148T496 195T515 249H645Q636 192 611 144T547 61T455 6T342 -14ZM353 753Q379 786 402 821T446 894H613Q599 874 584 854T552 816T520 781T491 753H353Z" />
<glyph unicode="&#x107;" glyph-name="cacute" horiz-adv-x="567" d="M269 -12Q221 -12 179 2T105 44T56 110T38 199Q38 212 39 222T42 244L55 319Q73 424 136 478T310 532Q356 532 397 519T468 479T516 414T534 325H414Q412 367 385 395T308 424Q255 424 227
393T188 302L175 228Q172 213 172 198Q172 152 199 124T276 96Q325 96 352 125T390 193H514Q506 148 486 111T434 46T361 3T269 -12ZM262 579Q288 617 309 654T353 733H530Q518 715 503 695T469 655T432 615T395 579H262Z" />
<glyph unicode="&#x108;" glyph-name="Ccircumflex" horiz-adv-x="699" d="M342 -14Q276 -14 223 6T133 61T76 146T56 256Q56 288 62 323L79 420Q105 569 182 641T398 714Q455 714 505 697T593 647T653 565T678 451H548Q546 482 535 509T505 556T457 587T392 599Q315
599 275 555T218 418L199 312Q197 298 196 285T194 258Q194 185 233 143T347 101Q384 101 413 114T462 148T496 195T515 249H645Q636 192 611 144T547 61T455 6T342 -14ZM382 894H514L607 753H484L440 820L373 753H239L382 894Z" />
<glyph unicode="&#x109;" glyph-name="ccircumflex" horiz-adv-x="567" d="M269 -12Q221 -12 179 2T105 44T56 110T38 199Q38 212 39 222T42 244L55 319Q73 424 136 478T310 532Q356 532 397 519T468 479T516 414T534 325H414Q412 367 385 395T308 424Q255 424
227 393T188 302L175 228Q172 213 172 198Q172 152 199 124T276 96Q325 96 352 125T390 193H514Q506 148 486 111T434 46T361 3T269 -12ZM297 733H428L512 579H392L353 655L292 579H161L297 733Z" />
<glyph unicode="&#x10a;" glyph-name="Cdotaccent" horiz-adv-x="699" d="M342 -14Q276 -14 223 6T133 61T76 146T56 256Q56 288 62 323L79 420Q105 569 182 641T398 714Q455 714 505 697T593 647T653 565T678 451H548Q546 482 535 509T505 556T457 587T392 599Q315
599 275 555T218 418L199 312Q197 298 196 285T194 258Q194 185 233 143T347 101Q384 101 413 114T462 148T496 195T515 249H645Q636 192 611 144T547 61T455 6T342 -14ZM360 824Q360 859 382 885T447 911Q477 911 497 893T518 843Q518 825 512 809T495 781T468
761T431 753Q401 753 381 772T360 824Z" />
<glyph unicode="&#x10b;" glyph-name="cdotaccent" horiz-adv-x="567" d="M269 -12Q221 -12 179 2T105 44T56 110T38 199Q38 212 39 222T42 244L55 319Q73 424 136 478T310 532Q356 532 397 519T468 479T516 414T534 325H414Q412 367 385 395T308 424Q255 424
227 393T188 302L175 228Q172 213 172 198Q172 152 199 124T276 96Q325 96 352 125T390 193H514Q506 148 486 111T434 46T361 3T269 -12ZM276 650Q276 685 298 711T363 737Q393 737 413 719T434 669Q434 651 428 635T411 607T384 587T347 579Q317 579 297 598T276
650Z" />
<glyph unicode="&#x10c;" glyph-name="Ccaron" horiz-adv-x="699" d="M342 -14Q276 -14 223 6T133 61T76 146T56 256Q56 288 62 323L79 420Q105 569 182 641T398 714Q455 714 505 697T593 647T653 565T678 451H548Q546 482 535 509T505 556T457 587T392 599Q315
599 275 555T218 418L199 312Q197 298 196 285T194 258Q194 185 233 143T347 101Q384 101 413 114T462 148T496 195T515 249H645Q636 192 611 144T547 61T455 6T342 -14ZM270 894H392L437 827L502 894H638L495 753H363L270 894Z" />
<glyph unicode="&#x10d;" glyph-name="ccaron" horiz-adv-x="567" d="M269 -12Q221 -12 179 2T105 44T56 110T38 199Q38 212 39 222T42 244L55 319Q73 424 136 478T310 532Q356 532 397 519T468 479T516 414T534 325H414Q412 367 385 395T308 424Q255 424 227
393T188 302L175 228Q172 213 172 198Q172 152 199 124T276 96Q325 96 352 125T390 193H514Q506 148 486 111T434 46T361 3T269 -12ZM402 579H271L187 733H307L347 656L407 733H538L402 579Z" />
<glyph unicode="&#x10e;" glyph-name="Dcaron" horiz-adv-x="703" d="M319 114Q398 114 445 148T506 261L534 420Q538 440 538 462Q538 522 504 554T400 586H274L190 114H319ZM155 700H443Q494 700 537 685T612 640T661 570T679 476Q679 462 678 448T674 420L646
261Q635 197 612 148T551 66T457 17T325 0H32L155 700ZM261 894H383L428 827L493 894H629L486 753H354L261 894Z" />
<glyph unicode="&#x10f;" glyph-name="dcaron" horiz-adv-x="794" d="M697 653Q697 685 718 706T776 727Q805 727 822 709T840 664Q840 639 829 622T799 584L734 508H664L734 593Q718 601 708 615T697 653ZM229 -12Q183 -12 148 4T88 47T50 111T37 190Q37 202
38 213T41 238L55 318Q74 422 133 477T286 532Q317 532 342 525T387 506T420 481T440 453L489 730H625L496 0H366L377 62Q362 33 322 11T229 -12ZM276 98Q330 98 359 133T399 222L410 283Q413 299 413 315Q413 365 385 393T306 422Q255 422 227 391T188 300L177
238Q174 220 174 203Q174 155 200 127T276 98Z" />
<glyph unicode="&#x110;" glyph-name="Dcroat" horiz-adv-x="734" d="M63 408H135L186 700H474Q525 700 568 685T643 640T692 570T710 476Q710 462 709 448T705 420L677 261Q666 197 643 148T582 66T488 17T356 0H63L114 292H42L63 408ZM350 114Q429 114 476 148T537
261L565 420Q569 440 569 462Q569 522 535 554T431 586H305L273 408H428L408 292H252L221 114H350Z" />
<glyph unicode="&#x111;" glyph-name="dcroat" horiz-adv-x="632" d="M379 657H476L489 730H625L612 657H671L655 564H595L496 0H366L377 62Q362 33 322 11T229 -12Q183 -12 148 4T88 47T50 111T37 190Q37 202 38 213T41 238L55 318Q74 422 133 477T286 532Q317
532 342 525T387 506T420 481T440 453L459 564H363L379 657ZM276 98Q330 98 359 133T399 222L410 283Q413 299 413 315Q413 365 385 393T306 422Q255 422 227 391T188 300L177 238Q174 220 174 203Q174 155 200 127T276 98Z" />
<glyph unicode="&#x112;" glyph-name="Emacron" horiz-adv-x="616" d="M155 700H636L616 584H274L244 413H557L536 297H224L192 116H535L514 0H32L155 700ZM239 881H615L596 772H220L239 881Z" />
<glyph unicode="&#x113;" glyph-name="emacron" horiz-adv-x="561" d="M261 -12Q205 -12 163 5T94 50T52 117T38 197Q38 208 39 219T42 244L54 312Q63 362 83 403T135 472T210 516T307 532Q356 532 396 518T464 478T507 415T523 332Q523 323 522 310T519 284L507
214H168Q165 199 165 185Q165 140 191 112T271 84Q312 84 336 104T371 152H492Q472 80 413 34T261 -12ZM185 310H399L401 323Q402 328 402 333T403 343Q403 384 378 409T305 435Q252 435 225 404T186 313L185 310ZM190 706H519L501 599H172L190 706Z" />
<glyph unicode="&#x114;" glyph-name="Ebreve" horiz-adv-x="616" d="M155 700H636L616 584H274L244 413H557L536 297H224L192 116H535L514 0H32L155 700ZM415 753Q378 753 346 762T291 788T257 832T250 894H355Q351 868 369 850T423 832Q462 832 481 851T505
894H610Q598 822 546 788T415 753Z" />
<glyph unicode="&#x115;" glyph-name="ebreve" horiz-adv-x="561" d="M261 -12Q205 -12 163 5T94 50T52 117T38 197Q38 208 39 219T42 244L54 312Q63 362 83 403T135 472T210 516T307 532Q356 532 396 518T464 478T507 415T523 332Q523 323 522 310T519 284L507
214H168Q165 199 165 185Q165 140 191 112T271 84Q312 84 336 104T371 152H492Q472 80 413 34T261 -12ZM185 310H399L401 323Q402 328 402 333T403 343Q403 384 378 409T305 435Q252 435 225 404T186 313L185 310ZM350 579Q315 579 284 588T231 617T196 665T188
733H286Q283 701 300 680T355 658Q376 658 390 665T414 683T428 707T437 733H536Q525 661 476 620T350 579Z" />
<glyph unicode="&#x116;" glyph-name="Edotaccent" horiz-adv-x="616" d="M155 700H636L616 584H274L244 413H557L536 297H224L192 116H535L514 0H32L155 700ZM327 824Q327 859 349 885T414 911Q444 911 464 893T485 843Q485 825 479 809T462 781T435 761T398
753Q368 753 348 772T327 824Z" />
<glyph unicode="&#x117;" glyph-name="edotaccent" horiz-adv-x="561" d="M261 -12Q205 -12 163 5T94 50T52 117T38 197Q38 208 39 219T42 244L54 312Q63 362 83 403T135 472T210 516T307 532Q356 532 396 518T464 478T507 415T523 332Q523 323 522 310T519 284L507
214H168Q165 199 165 185Q165 140 191 112T271 84Q312 84 336 104T371 152H492Q472 80 413 34T261 -12ZM185 310H399L401 323Q402 328 402 333T403 343Q403 384 378 409T305 435Q252 435 225 404T186 313L185 310ZM268 650Q268 685 290 711T355 737Q385 737 405
719T426 669Q426 651 420 635T403 607T376 587T339 579Q309 579 289 598T268 650Z" />
<glyph unicode="&#x118;" glyph-name="Eogonek" horiz-adv-x="616" d="M155 700H636L616 584H274L244 413H557L536 297H224L192 116H535L514 0H478Q461 -15 446 -35T430 -83Q430 -107 461 -107Q467 -107 474 -107T488 -104L475 -177Q467 -179 447 -182T406 -186Q358
-186 332 -165T305 -108Q305 -88 313 -71T334 -40T365 -16T401 0H32L155 700Z" />
<glyph unicode="&#x119;" glyph-name="eogonek" horiz-adv-x="561" d="M288 -186Q240 -186 214 -165T187 -106Q187 -76 212 -46T297 4Q274 -2 246 -2Q194 -2 155 14T90 59T51 122T38 197Q38 208 39 219T42 244L54 312Q63 362 83 403T135 472T210 516T307 532Q356
532 396 518T464 478T507 415T523 332Q523 323 522 310T519 284L507 214H168Q165 199 165 185Q165 140 191 112T271 84Q312 84 336 104T371 152H492Q481 115 460 85T410 32Q393 19 376 6T345 -22T321 -51T312 -84Q312 -107 343 -107Q349 -107 356 -107T370 -104L357
-177Q349 -179 329 -182T288 -186ZM185 310H399L401 323Q402 328 402 333T403 343Q403 384 378 409T305 435Q252 435 225 404T186 313L185 310Z" />
<glyph unicode="&#x11a;" glyph-name="Ecaron" horiz-adv-x="616" d="M155 700H636L616 584H274L244 413H557L536 297H224L192 116H535L514 0H32L155 700ZM244 894H366L411 827L476 894H612L469 753H337L244 894Z" />
<glyph unicode="&#x11b;" glyph-name="ecaron" horiz-adv-x="561" d="M261 -12Q205 -12 163 5T94 50T52 117T38 197Q38 208 39 219T42 244L54 312Q63 362 83 403T135 472T210 516T307 532Q356 532 396 518T464 478T507 415T523 332Q523 323 522 310T519 284L507
214H168Q165 199 165 185Q165 140 191 112T271 84Q312 84 336 104T371 152H492Q472 80 413 34T261 -12ZM185 310H399L401 323Q402 328 402 333T403 343Q403 384 378 409T305 435Q252 435 225 404T186 313L185 310ZM407 579H276L192 733H312L352 656L412 733H543L407
579Z" />
<glyph unicode="&#x11c;" glyph-name="Gcircumflex" horiz-adv-x="706" d="M490 66Q468 34 427 10T321 -14Q257 -14 208 4T125 56T74 136T56 236Q56 255 57 279T64 328L81 426Q106 570 186 642T396 714Q453 714 503 699T592 653T653 575T678 462H547Q542 525 502
562T393 599Q318 599 277 556T221 431L202 324Q198 303 197 279T195 232Q195 165 234 132T345 98Q410 98 454 135T509 242L510 248H351L371 362H669L606 0H479L490 66ZM376 894H508L601 753H478L434 820L367 753H233L376 894Z" />
<glyph unicode="&#x11d;" glyph-name="gcircumflex" horiz-adv-x="608" d="M245 -166Q202 -166 163 -156T91 -126T37 -78T7 -11H138Q148 -37 179 -51T250 -65Q299 -65 328 -40T366 34L379 107Q371 92 356 80T321 57T279 42T234 36Q193 36 158 50T98 89T58 150T43
229Q43 249 47 272L57 329Q74 428 130 480T288 532Q317 532 342 525T388 507T423 482T446 454L458 520H588L499 15Q482 -78 414 -122T245 -166ZM284 142Q335 142 366 174T406 260L411 290Q412 295 412 302T413 317Q413 365 385 393T305 422Q208 422 190 317L183
275Q180 257 180 247Q180 190 209 166T284 142ZM333 733H464L548 579H428L389 655L328 579H197L333 733Z" />
<glyph unicode="&#x11e;" glyph-name="Gbreve" horiz-adv-x="706" d="M490 66Q468 34 427 10T321 -14Q257 -14 208 4T125 56T74 136T56 236Q56 255 57 279T64 328L81 426Q106 570 186 642T396 714Q453 714 503 699T592 653T653 575T678 462H547Q542 525 502 562T393
599Q318 599 277 556T221 431L202 324Q198 303 197 279T195 232Q195 165 234 132T345 98Q410 98 454 135T509 242L510 248H351L371 362H669L606 0H479L490 66ZM430 753Q393 753 361 762T306 788T272 832T265 894H370Q366 868 384 850T438 832Q477 832 496 851T520
894H625Q613 822 561 788T430 753Z" />
<glyph unicode="&#x11f;" glyph-name="gbreve" horiz-adv-x="608" d="M245 -166Q202 -166 163 -156T91 -126T37 -78T7 -11H138Q148 -37 179 -51T250 -65Q299 -65 328 -40T366 34L379 107Q371 92 356 80T321 57T279 42T234 36Q193 36 158 50T98 89T58 150T43 229Q43
249 47 272L57 329Q74 428 130 480T288 532Q317 532 342 525T388 507T423 482T446 454L458 520H588L499 15Q482 -78 414 -122T245 -166ZM284 142Q335 142 366 174T406 260L411 290Q412 295 412 302T413 317Q413 365 385 393T305 422Q208 422 190 317L183 275Q180
257 180 247Q180 190 209 166T284 142ZM378 579Q343 579 312 588T259 617T224 665T216 733H314Q311 701 328 680T383 658Q404 658 418 665T442 683T456 707T465 733H564Q553 661 504 620T378 579Z" />
<glyph unicode="&#x120;" glyph-name="Gdotaccent" horiz-adv-x="706" d="M490 66Q468 34 427 10T321 -14Q257 -14 208 4T125 56T74 136T56 236Q56 255 57 279T64 328L81 426Q106 570 186 642T396 714Q453 714 503 699T592 653T653 575T678 462H547Q542 525 502
562T393 599Q318 599 277 556T221 431L202 324Q198 303 197 279T195 232Q195 165 234 132T345 98Q410 98 454 135T509 242L510 248H351L371 362H669L606 0H479L490 66ZM352 824Q352 859 374 885T439 911Q469 911 489 893T510 843Q510 825 504 809T487 781T460 761T423
753Q393 753 373 772T352 824Z" />
<glyph unicode="&#x121;" glyph-name="gdotaccent" horiz-adv-x="608" d="M245 -166Q202 -166 163 -156T91 -126T37 -78T7 -11H138Q148 -37 179 -51T250 -65Q299 -65 328 -40T366 34L379 107Q371 92 356 80T321 57T279 42T234 36Q193 36 158 50T98 89T58 150T43
229Q43 249 47 272L57 329Q74 428 130 480T288 532Q317 532 342 525T388 507T423 482T446 454L458 520H588L499 15Q482 -78 414 -122T245 -166ZM284 142Q335 142 366 174T406 260L411 290Q412 295 412 302T413 317Q413 365 385 393T305 422Q208 422 190 317L183
275Q180 257 180 247Q180 190 209 166T284 142ZM298 650Q298 685 320 711T385 737Q415 737 435 719T456 669Q456 651 450 635T433 607T406 587T369 579Q339 579 319 598T298 650Z" />
<glyph unicode="&#x122;" glyph-name="Gcommaaccent" horiz-adv-x="706" d="M490 66Q468 34 427 10T321 -14Q257 -14 208 4T125 56T74 136T56 236Q56 255 57 279T64 328L81 426Q106 570 186 642T396 714Q453 714 503 699T592 653T653 575T678 462H547Q542 525
502 562T393 599Q318 599 277 556T221 431L202 324Q198 303 197 279T195 232Q195 165 234 132T345 98Q410 98 454 135T509 242L510 248H351L371 362H669L606 0H479L490 66ZM235 -128Q235 -98 254 -80T307 -62Q336 -62 353 -78T370 -118Q370 -138 359 -154T334 -188L282
-248H216L268 -178Q254 -173 245 -160T235 -128Z" />
<glyph unicode="&#x123;" glyph-name="gcommaaccent" horiz-adv-x="608" d="M245 -166Q202 -166 163 -156T91 -126T37 -78T7 -11H138Q148 -37 179 -51T250 -65Q299 -65 328 -40T366 34L379 107Q371 92 356 80T321 57T279 42T234 36Q193 36 158 50T98 89T58 150T43
229Q43 249 47 272L57 329Q74 428 130 480T288 532Q317 532 342 525T388 507T423 482T446 454L458 520H588L499 15Q482 -78 414 -122T245 -166ZM284 142Q335 142 366 174T406 260L411 290Q412 295 412 302T413 317Q413 365 385 393T305 422Q208 422 190 317L183
275Q180 257 180 247Q180 190 209 166T284 142ZM446 639Q446 608 426 590T373 571Q348 571 331 585T314 625Q314 648 323 662T349 696L400 755H465L413 687Q428 682 437 670T446 639Z" />
<glyph unicode="&#x124;" glyph-name="Hcircumflex" horiz-adv-x="716" d="M155 700H295L244 414H527L577 700H717L594 0H454L505 289H223L172 0H32L155 700ZM398 894H530L623 753H500L456 820L389 753H255L398 894Z" />
<glyph unicode="&#x125;" glyph-name="hcircumflex" horiz-adv-x="594" d="M151 730H287L239 459Q259 488 297 510T388 532Q462 532 505 489T549 372Q549 361 548 350T545 327L488 0H352L407 312Q409 322 409 333Q409 370 386 390T327 411Q278 411 249 382T210
297L158 0H22L151 730ZM444 924H576L669 783H546L502 850L435 783H301L444 924Z" />
<glyph unicode="&#x126;" glyph-name="Hbar" horiz-adv-x="780" d="M89 591H168L187 700H327L307 591H590L609 700H749L730 591H809L794 506H715L626 0H486L537 289H255L204 0H64L153 506H74L89 591ZM559 414L575 506H292L276 414H559Z" />
<glyph unicode="&#x127;" glyph-name="hbar" horiz-adv-x="603" d="M86 657H145L158 730H294L281 657H378L362 564H264L246 459Q266 488 304 510T395 532Q469 532 512 489T556 372Q556 361 555 350T552 327L495 0H359L414 312Q416 322 416 333Q416 370 393 390T334
411Q285 411 256 382T217 297L165 0H29L128 564H70L86 657Z" />
<glyph unicode="&#x128;" glyph-name="Itilde" horiz-adv-x="304" d="M160 700H300L177 0H37L160 700ZM283 776Q291 804 301 827T327 866T365 891T419 900Q443 900 467 894T514 880T556 866T588 859Q609 859 618 874T634 906L719 877Q711 849 701 827T675 788T639
764T589 755Q569 755 546 761T500 776T454 790T416 797Q396 797 387 784T369 750L283 776Z" />
<glyph unicode="&#x129;" glyph-name="itilde" horiz-adv-x="280" d="M119 520H255L163 0H27L119 520ZM1 608Q10 636 19 658T42 696T75 719T123 727Q144 727 167 721T211 706T250 691T279 684Q288 684 294 689T306 701T314 715T320 729L405 698Q397 676 388 655T367
617T337 590T295 580Q277 580 256 586T212 601T169 616T132 623Q113 623 106 613T88 579L1 608Z" />
<glyph unicode="&#x12a;" glyph-name="uni012A" horiz-adv-x="304" d="M160 700H300L177 0H37L160 700ZM326 881H702L683 772H307L326 881Z" />
<glyph unicode="&#x12b;" glyph-name="imacron" horiz-adv-x="280" d="M119 520H255L163 0H27L119 520ZM310 706H639L621 599H292L310 706Z" />
<glyph unicode="&#x12c;" glyph-name="Ibreve" horiz-adv-x="304" d="M160 700H300L177 0H37L160 700ZM504 753Q467 753 435 762T380 788T346 832T339 894H444Q440 868 458 850T512 832Q551 832 570 851T594 894H699Q687 822 635 788T504 753Z" />
<glyph unicode="&#x12d;" glyph-name="uni012D" horiz-adv-x="280" d="M119 520H255L163 0H27L119 520ZM465 579Q430 579 399 588T346 617T311 665T303 733H401Q398 701 415 680T470 658Q491 658 505 665T529 683T543 707T552 733H651Q640 661 591 620T465 579Z" />
<glyph unicode="&#x12e;" glyph-name="Iogonek" horiz-adv-x="304" d="M160 700H300L177 0H114Q97 -18 87 -37T76 -83Q76 -107 107 -107Q113 -107 120 -107T134 -104L121 -177Q113 -179 93 -182T52 -186Q4 -186 -22 -166T-49 -110Q-49 -69 -24 -42T37 0L160 700Z" />
<glyph unicode="&#x12f;" glyph-name="iogonek" horiz-adv-x="280" d="M43 -186Q-5 -186 -31 -166T-58 -110Q-58 -69 -33 -42T28 0L119 520Q152 509 192 509Q229 509 256 520L164 0H105Q88 -18 78 -37T67 -83Q67 -107 98 -107Q104 -107 111 -107T125 -104L112
-177Q104 -179 84 -182T43 -186ZM132 648Q132 683 154 709T219 735Q249 735 269 717T290 667Q290 649 284 633T267 605T240 585T203 577Q173 577 153 596T132 648Z" />
<glyph unicode="&#x130;" glyph-name="Idotaccent" horiz-adv-x="304" d="M160 700H300L177 0H37L160 700ZM177 824Q177 859 199 885T264 911Q294 911 314 893T335 843Q335 825 329 809T312 781T285 761T248 753Q218 753 198 772T177 824Z" />
<glyph unicode="&#x131;" glyph-name="dotlessi" horiz-adv-x="280" d="M119 520H255L163 0H27L119 520Z" />
<glyph unicode="&#x132;" glyph-name="IJ" horiz-adv-x="910" d="M160 700H300L177 0H37L160 700ZM559 -14Q512 -14 471 0T400 39T353 101T335 181Q335 200 338 215H467Q460 164 489 133T571 102Q627 102 653 132T688 210L774 700H914L827 202Q809 99 742 43T559 -14Z" />
<glyph unicode="&#x133;" glyph-name="ij" horiz-adv-x="560" d="M132 648Q132 683 154 709T219 735Q249 735 269 717T290 667Q290 649 284 633T267 605T240 585T203 577Q173 577 153 596T132 648ZM119 520Q152 509 192 509Q229 509 256 520L164 0H28L119 520ZM411
648Q411 683 433 709T498 735Q528 735 548 717T569 667Q569 649 563 633T546 605T519 585T482 577Q452 577 432 596T411 648ZM398 520Q431 509 471 509Q508 509 535 520L436 -39Q425 -101 391 -133T292 -166Q272 -166 251 -163T210 -155L228 -56Q236 -59 245 -60T265
-61Q284 -61 292 -52T302 -29L398 520Z" />
<glyph unicode="&#x134;" glyph-name="Jcircumflex" horiz-adv-x="606" d="M255 -14Q208 -14 167 0T96 39T49 101T31 181Q31 200 34 215H163Q156 164 185 133T267 102Q323 102 349 132T384 210L470 700H610L523 202Q505 99 438 43T255 -14ZM499 894H631L724 753H601L557
820L490 753H356L499 894Z" />
<glyph unicode="&#x135;" glyph-name="jcircumflex" horiz-adv-x="280" d="M119 520Q152 509 192 509Q229 509 256 520L157 -39Q146 -101 112 -133T13 -166Q-7 -166 -28 -163T-69 -155L-51 -56Q-43 -59 -34 -60T-14 -61Q5 -61 13 -52T23 -29L119 520ZM154 733H285L369
579H249L210 655L149 579H18L154 733Z" />
<glyph unicode="&#x136;" glyph-name="Kcommaaccent" horiz-adv-x="646" d="M155 700H295L237 369L522 700H694L380 345L580 0H419L232 341L172 0H32L155 700ZM214 -128Q214 -98 233 -80T286 -62Q315 -62 332 -78T349 -118Q349 -138 338 -154T313 -188L261 -248H195L247
-178Q233 -173 224 -160T214 -128Z" />
<glyph unicode="&#x137;" glyph-name="kcommaaccent" horiz-adv-x="540" d="M151 730H287L208 285L404 520H564L337 252L480 0H332L202 250L158 0H22L151 730ZM155 -128Q155 -98 174 -80T227 -62Q256 -62 273 -78T290 -118Q290 -138 279 -154T254 -188L202 -248H136L188
-178Q174 -173 165 -160T155 -128Z" />
<glyph unicode="&#x138;" glyph-name="kgreenlandic" horiz-adv-x="540" d="M250 520L209 288L404 520H564L340 252L480 0H332L202 250L158 0H22L114 520H250Z" />
<glyph unicode="&#x139;" glyph-name="Lacute" horiz-adv-x="578" d="M155 700H295L192 116H515L495 0H32L155 700ZM169 753Q195 786 218 821T262 894H429Q415 874 400 854T368 816T336 781T307 753H169Z" />
<glyph unicode="&#x13a;" glyph-name="lacute" horiz-adv-x="278" d="M156 730H292L163 0H27L156 730ZM421 783Q447 816 470 851T514 924H681Q667 904 652 884T620 846T588 811T559 783H421Z" />
<glyph unicode="&#x13b;" glyph-name="Lcommaaccent" horiz-adv-x="578" d="M155 700H295L192 116H515L495 0H32L155 700ZM179 -128Q179 -98 198 -80T251 -62Q280 -62 297 -78T314 -118Q314 -138 303 -154T278 -188L226 -248H160L212 -178Q198 -173 189 -160T179 -128Z" />
<glyph unicode="&#x13c;" glyph-name="lcommaaccent" horiz-adv-x="278" d="M156 730H292L163 0H27L156 730ZM260 -128Q260 -98 279 -80T332 -62Q361 -62 378 -78T395 -118Q395 -138 384 -154T359 -188L307 -248H241L293 -178Q279 -173 270 -160T260 -128Z" />
<glyph unicode="&#x13d;" glyph-name="Lcaron" horiz-adv-x="578" d="M401 623Q401 655 422 676T480 697Q509 697 526 679T544 634Q544 609 533 592T503 554L438 478H368L438 563Q422 571 412 585T401 623ZM155 700H295L192 116H515L495 0H32L155 700Z" />
<glyph unicode="&#x13e;" glyph-name="lcaron" horiz-adv-x="454" d="M355 653Q355 685 376 706T434 727Q463 727 480 709T498 664Q498 639 487 622T457 584L392 508H322L392 593Q376 601 366 615T355 653ZM156 730H292L163 0H27L156 730Z" />
<glyph unicode="&#x13f;" glyph-name="Ldot" horiz-adv-x="578" d="M155 700H295L192 116H515L495 0H32L155 700ZM321 340Q321 376 343 400T405 424Q435 424 455 404T476 353Q476 318 453 293T391 268Q360 268 341 289T321 340Z" />
<glyph unicode="&#x140;" glyph-name="ldot" horiz-adv-x="454" d="M156 730H292L163 0H27L156 730ZM291 287Q291 323 313 347T375 371Q405 371 425 351T446 300Q446 265 423 240T361 215Q330 215 311 236T291 287Z" />
<glyph unicode="&#x141;" glyph-name="Lslash" horiz-adv-x="598" d="M38 322L116 364L175 700H315L271 448L421 530L398 401L248 319L212 116H535L515 0H52L93 234L15 192L38 322Z" />
<glyph unicode="&#x142;" glyph-name="lslash" horiz-adv-x="296" d="M38 330L97 372L160 730H296L252 483L318 530L294 398L229 351L167 0H31L73 240L15 198L38 330Z" />
<glyph unicode="&#x143;" glyph-name="Nacute" horiz-adv-x="724" d="M155 700H287L505 223L589 700H725L602 0H470L252 476L168 0H32L155 700ZM358 753Q384 786 407 821T451 894H618Q604 874 589 854T557 816T525 781T496 753H358Z" />
<glyph unicode="&#x144;" glyph-name="nacute" horiz-adv-x="594" d="M114 520H244L231 451Q257 491 298 511T390 532Q464 532 506 487T549 369Q549 358 548 347T545 323L488 0H352L407 312Q408 317 408 322T409 333Q409 370 386 390T327 411Q278 411 249 382T210
297L158 0H22L114 520ZM276 579Q302 617 323 654T367 733H544Q532 715 517 695T483 655T446 615T409 579H276Z" />
<glyph unicode="&#x145;" glyph-name="Ncommaaccent" horiz-adv-x="724" d="M155 700H287L505 223L589 700H725L602 0H470L252 476L168 0H32L155 700ZM230 -128Q230 -98 249 -80T302 -62Q331 -62 348 -78T365 -118Q365 -138 354 -154T329 -188L277 -248H211L263
-178Q249 -173 240 -160T230 -128Z" />
<glyph unicode="&#x146;" glyph-name="ncommaaccent" horiz-adv-x="594" d="M114 520H244L231 451Q257 491 298 511T390 532Q464 532 506 487T549 369Q549 358 548 347T545 323L488 0H352L407 312Q408 317 408 322T409 333Q409 370 386 390T327 411Q278 411 249
382T210 297L158 0H22L114 520ZM170 -128Q170 -98 189 -80T242 -62Q271 -62 288 -78T305 -118Q305 -138 294 -154T269 -188L217 -248H151L203 -178Q189 -173 180 -160T170 -128Z" />
<glyph unicode="&#x147;" glyph-name="Ncaron" horiz-adv-x="724" d="M155 700H287L505 223L589 700H725L602 0H470L252 476L168 0H32L155 700ZM281 894H403L448 827L513 894H649L506 753H374L281 894Z" />
<glyph unicode="&#x148;" glyph-name="ncaron" horiz-adv-x="594" d="M114 520H244L231 451Q257 491 298 511T390 532Q464 532 506 487T549 369Q549 358 548 347T545 323L488 0H352L407 312Q408 317 408 322T409 333Q409 370 386 390T327 411Q278 411 249 382T210
297L158 0H22L114 520ZM421 579H290L206 733H326L366 656L426 733H557L421 579Z" />
<glyph unicode="&#x149;" glyph-name="napostrophe" horiz-adv-x="732" d="M340 653Q340 685 361 706T419 727Q448 727 465 709T483 664Q483 639 472 622T442 584L377 508H307L377 593Q361 601 351 615T340 653ZM252 520H382L369 451Q395 491 436 511T528 532Q602
532 644 487T687 369Q687 358 686 347T683 323L626 0H490L545 312Q546 317 546 322T547 333Q547 370 524 390T465 411Q416 411 387 382T348 297L296 0H160L252 520Z" />
<glyph unicode="&#x14a;" glyph-name="Eng" horiz-adv-x="724" d="M155 700H287L505 223L589 700H725L600 -11Q586 -94 536 -134T390 -174H325L344 -69H380Q420 -69 440 -53T465 -5L467 6L252 476L168 0H32L155 700Z" />
<glyph unicode="&#x14b;" glyph-name="eng" horiz-adv-x="594" d="M114 520H244L231 451Q257 491 298 511T390 532Q464 532 506 487T549 369Q549 358 548 347T545 323L485 -17Q471 -99 427 -136T295 -174H227L246 -70H276Q305 -70 324 -58T350 -11L407 312Q408
317 408 322T409 333Q409 370 386 390T327 411Q278 411 249 382T210 297L158 0H22L114 520Z" />
<glyph unicode="&#x14c;" glyph-name="Omacron" horiz-adv-x="723" d="M352 101Q430 101 474 151T533 282L551 387Q553 396 554 409T555 433Q555 469 545 499T514 552T464 586T397 599Q316 599 274 551T216 415L199 317Q197 303 196 290T194 263Q194 190 233 146T352
101ZM347 -14Q279 -14 225 6T134 63T78 151T58 263Q58 298 64 334L80 426Q105 567 184 640T404 714Q468 714 521 694T612 637T672 549T693 438Q693 407 687 374L671 285Q659 219 633 164T567 70T471 8T347 -14ZM269 881H645L626 772H250L269 881Z" />
<glyph unicode="&#x14d;" glyph-name="omacron" d="M274 95Q324 95 352 124T389 203L405 294Q408 310 408 324Q408 372 380 398T302 425Q249 425 223 396T186 312L170 221Q169 217 168 210T167 194Q167 146 196 121T274 95ZM271 -12Q218 -12 175 3T102 47T56 114T39
202Q39 214 40 225T43 250L55 318Q75 429 139 480T304 532Q359 532 402 517T476 474T522 407T538 320Q538 307 537 294T533 267L522 204Q514 156 494 116T443 48T368 4T271 -12ZM201 706H530L512 599H183L201 706Z" />
<glyph unicode="&#x14e;" glyph-name="Obreve" horiz-adv-x="723" d="M352 101Q430 101 474 151T533 282L551 387Q553 396 554 409T555 433Q555 469 545 499T514 552T464 586T397 599Q316 599 274 551T216 415L199 317Q197 303 196 290T194 263Q194 190 233 146T352
101ZM347 -14Q279 -14 225 6T134 63T78 151T58 263Q58 298 64 334L80 426Q105 567 184 640T404 714Q468 714 521 694T612 637T672 549T693 438Q693 407 687 374L671 285Q659 219 633 164T567 70T471 8T347 -14ZM449 753Q412 753 380 762T325 788T291 832T284 894H389Q385
868 403 850T457 832Q496 832 515 851T539 894H644Q632 822 580 788T449 753Z" />
<glyph unicode="&#x14f;" glyph-name="obreve" d="M274 95Q324 95 352 124T389 203L405 294Q408 310 408 324Q408 372 380 398T302 425Q249 425 223 396T186 312L170 221Q169 217 168 210T167 194Q167 146 196 121T274 95ZM271 -12Q218 -12 175 3T102 47T56 114T39
202Q39 214 40 225T43 250L55 318Q75 429 139 480T304 532Q359 532 402 517T476 474T522 407T538 320Q538 307 537 294T533 267L522 204Q514 156 494 116T443 48T368 4T271 -12ZM350 579Q315 579 284 588T231 617T196 665T188 733H286Q283 701 300 680T355 658Q376
658 390 665T414 683T428 707T437 733H536Q525 661 476 620T350 579Z" />
<glyph unicode="&#x150;" glyph-name="Ohungarumlaut" horiz-adv-x="723" d="M352 101Q430 101 474 151T533 282L551 387Q553 396 554 409T555 433Q555 469 545 499T514 552T464 586T397 599Q316 599 274 551T216 415L199 317Q197 303 196 290T194 263Q194 190
233 146T352 101ZM347 -14Q279 -14 225 6T134 63T78 151T58 263Q58 298 64 334L80 426Q105 567 184 640T404 714Q468 714 521 694T612 637T672 549T693 438Q693 407 687 374L671 285Q659 219 633 164T567 70T471 8T347 -14ZM282 753Q301 786 320 825T350 894H493Q475
858 451 820T404 753H282ZM488 753Q507 786 526 825T556 894H699Q681 858 657 820T610 753H488Z" />
<glyph unicode="&#x151;" glyph-name="ohungarumlaut" d="M274 95Q324 95 352 124T389 203L405 294Q408 310 408 324Q408 372 380 398T302 425Q249 425 223 396T186 312L170 221Q169 217 168 210T167 194Q167 146 196 121T274 95ZM271 -12Q218 -12 175 3T102 47T56
114T39 202Q39 214 40 225T43 250L55 318Q75 429 139 480T304 532Q359 532 402 517T476 474T522 407T538 320Q538 307 537 294T533 267L522 204Q514 156 494 116T443 48T368 4T271 -12ZM178 579Q187 595 198 615T220 657T240 698T255 733H398Q389 715 377 694T352
652T325 612T300 579H178ZM384 579Q393 595 404 615T426 657T446 698T461 733H604Q595 715 583 694T558 652T531 612T506 579H384Z" />
<glyph unicode="&#x152;" glyph-name="OE" horiz-adv-x="1046" d="M359 0Q287 0 232 19T138 74T79 160T59 272Q59 291 60 306T65 339L77 407Q91 486 120 541T195 632T302 683T443 700H1066L1046 584H704L674 413H987L966 297H654L622 116H965L944 0H359ZM203 327Q201
313 200 301T198 276Q198 201 241 159T372 116H482L564 584H434Q382 584 345 572T281 537T239 478T215 395L203 327Z" />
<glyph unicode="&#x153;" glyph-name="oe" horiz-adv-x="920" d="M615 -12Q558 -12 514 6T443 57Q418 30 373 9T271 -12Q159 -12 99 45T39 202Q39 214 40 225T43 250L55 318Q75 429 139 480T304 532Q363 532 406 515T483 463Q518 502 561 517T661 532Q710 532
750 518T818 478T861 415T877 332Q877 323 876 310T873 284L861 214H522Q519 199 519 185Q519 140 545 112T625 84Q666 84 690 104T725 152H846Q826 80 767 34T615 -12ZM274 95Q324 95 352 125T389 203L407 306Q408 311 408 315T408 324Q408 372 381 398T302 425Q249
425 223 396T186 312L170 221Q169 217 168 210T167 194Q167 146 194 121T274 95ZM539 310H753L755 323Q756 328 756 333T757 343Q757 384 732 409T659 435Q606 435 579 404T540 313L539 310Z" />
<glyph unicode="&#x154;" glyph-name="Racute" horiz-adv-x="696" d="M366 225H211L172 0H32L155 700H453Q504 700 546 685T618 641T665 573T682 486Q682 397 635 334T505 243L610 0H457L366 225ZM386 335Q457 335 499 372T542 474Q542 523 510 555T420 588H275L231
335H386ZM329 753Q355 786 378 821T422 894H589Q575 874 560 854T528 816T496 781T467 753H329Z" />
<glyph unicode="&#x155;" glyph-name="racute" horiz-adv-x="378" d="M114 520H242L227 429Q247 481 288 502T392 524H406L382 388H358Q298 388 257 355T201 245L158 0H22L114 520ZM192 579Q218 617 239 654T283 733H460Q448 715 433 695T399 655T362 615T325 579H192Z" />
<glyph unicode="&#x156;" glyph-name="Rcommaaccent" horiz-adv-x="696" d="M366 225H211L172 0H32L155 700H453Q504 700 546 685T618 641T665 573T682 486Q682 397 635 334T505 243L610 0H457L366 225ZM386 335Q457 335 499 372T542 474Q542 523 510 555T420
588H275L231 335H386ZM226 -128Q226 -98 245 -80T298 -62Q327 -62 344 -78T361 -118Q361 -138 350 -154T325 -188L273 -248H207L259 -178Q245 -173 236 -160T226 -128Z" />
<glyph unicode="&#x157;" glyph-name="rcommaaccent" horiz-adv-x="378" d="M114 520H242L227 429Q247 481 288 502T392 524H406L382 388H358Q298 388 257 355T201 245L158 0H22L114 520ZM256 -128Q256 -98 275 -80T328 -62Q357 -62 374 -78T391 -118Q391 -138
380 -154T355 -188L303 -248H237L289 -178Q275 -173 266 -160T256 -128Z" />
<glyph unicode="&#x158;" glyph-name="Rcaron" horiz-adv-x="696" d="M366 225H211L172 0H32L155 700H453Q504 700 546 685T618 641T665 573T682 486Q682 397 635 334T505 243L610 0H457L366 225ZM386 335Q457 335 499 372T542 474Q542 523 510 555T420 588H275L231
335H386ZM250 894H372L417 827L482 894H618L475 753H343L250 894Z" />
<glyph unicode="&#x159;" glyph-name="rcaron" horiz-adv-x="378" d="M114 520H242L227 429Q247 481 288 502T392 524H406L382 388H358Q298 388 257 355T201 245L158 0H22L114 520ZM591 579H460L376 733H496L536 656L596 733H727L591 579Z" />
<glyph unicode="&#x15a;" glyph-name="Sacute" horiz-adv-x="651" d="M319 -14Q270 -14 222 -3T136 32T75 92T51 177Q51 193 54 211L56 223H188L186 212Q185 207 185 202T184 191Q184 165 196 147T228 118T274 101T328 95Q385 95 424 124T463 204Q463 262 402
278L247 317Q178 334 142 375T105 479Q105 538 126 582T184 655T272 699T381 714Q427 714 471 702T549 667T604 611T625 533Q625 524 624 513T621 496L620 491H490L491 496Q493 506 493 516Q493 539 483 555T455 583T415 599T368 605Q343 605 321 599T281 580T253
548T243 502Q243 477 257 462T295 440L457 397Q523 380 562 337T602 228Q602 169 579 124T518 49T428 2T319 -14ZM324 753Q350 786 373 821T417 894H584Q570 874 555 854T523 816T491 781T462 753H324Z" />
<glyph unicode="&#x15b;" glyph-name="sacute" horiz-adv-x="518" d="M229 -12Q188 -12 150 -3T84 25T38 71T21 132Q21 137 21 143T23 155L24 161H143L142 156Q138 137 145 123T166 100T199 87T241 83Q282 83 311 100T340 153Q340 169 332 180T301 197L169 227Q116
239 89 270T62 348Q62 394 79 429T126 486T197 520T289 532Q327 532 363 524T427 498T473 454T490 390Q490 384 490 377T488 364L487 358H368L369 364Q375 400 348 418T281 437Q243 437 218 421T192 370Q192 352 202 343T231 328L366 295Q416 282 443 252T470 176Q470
131 451 96T400 37T323 1T229 -12ZM239 579Q265 617 286 654T330 733H507Q495 715 480 695T446 655T409 615T372 579H239Z" />
<glyph unicode="&#x15c;" glyph-name="Scircumflex" horiz-adv-x="651" d="M319 -14Q270 -14 222 -3T136 32T75 92T51 177Q51 193 54 211L56 223H188L186 212Q185 207 185 202T184 191Q184 165 196 147T228 118T274 101T328 95Q385 95 424 124T463 204Q463 262
402 278L247 317Q178 334 142 375T105 479Q105 538 126 582T184 655T272 699T381 714Q427 714 471 702T549 667T604 611T625 533Q625 524 624 513T621 496L620 491H490L491 496Q493 506 493 516Q493 539 483 555T455 583T415 599T368 605Q343 605 321 599T281 580T253
548T243 502Q243 477 257 462T295 440L457 397Q523 380 562 337T602 228Q602 169 579 124T518 49T428 2T319 -14ZM359 894H491L584 753H461L417 820L350 753H216L359 894Z" />
<glyph unicode="&#x15d;" glyph-name="scircumflex" horiz-adv-x="518" d="M229 -12Q188 -12 150 -3T84 25T38 71T21 132Q21 137 21 143T23 155L24 161H143L142 156Q138 137 145 123T166 100T199 87T241 83Q282 83 311 100T340 153Q340 169 332 180T301 197L169
227Q116 239 89 270T62 348Q62 394 79 429T126 486T197 520T289 532Q327 532 363 524T427 498T473 454T490 390Q490 384 490 377T488 364L487 358H368L369 364Q375 400 348 418T281 437Q243 437 218 421T192 370Q192 352 202 343T231 328L366 295Q416 282 443 252T470
176Q470 131 451 96T400 37T323 1T229 -12ZM271 733H402L486 579H366L327 655L266 579H135L271 733Z" />
<glyph unicode="&#x15e;" glyph-name="Scedilla" horiz-adv-x="651" d="M289 -186Q269 -186 250 -185T217 -180L226 -125Q248 -130 270 -130Q290 -130 301 -124T312 -107Q312 -96 303 -92T277 -85L244 -81L269 -11Q226 -6 187 7T117 44T69 101T51 177Q51 193 54
211L56 223H188L186 212Q185 207 185 202T184 191Q184 165 196 147T227 118T273 101T328 95Q385 95 424 124T463 204Q463 262 402 278L247 317Q178 334 142 375T105 479Q105 538 126 582T184 655T272 699T381 714Q427 714 471 702T549 667T604 611T625 533Q625
524 624 513T621 496L620 491H490L491 496Q493 506 493 516Q493 539 483 555T455 583T415 599T368 605Q343 605 321 599T281 580T253 548T243 502Q243 477 257 462T295 440L457 397Q523 380 562 337T602 228Q602 171 581 127T522 52T437 5T333 -14L326 -37L345
-39Q374 -42 392 -58T410 -102Q410 -123 401 -139T375 -165T336 -181T289 -186Z" />
<glyph unicode="&#x15f;" glyph-name="scedilla" horiz-adv-x="518" d="M209 -186Q189 -186 170 -185T137 -180L146 -125Q168 -130 190 -130Q210 -130 221 -124T232 -107Q232 -96 223 -92T197 -85L164 -81L189 -9Q154 -5 124 6T70 35T34 77T21 132Q21 137 21 143T23
155L24 161H143L142 156Q138 137 145 123T166 100T199 87T241 83Q282 83 311 100T340 153Q340 169 332 180T301 197L169 227Q116 239 89 270T62 348Q62 394 79 429T126 486T197 520T289 532Q327 532 363 524T427 498T473 454T490 390Q490 384 490 377T488 364L487
358H368L369 364Q375 400 348 418T281 437Q243 437 218 421T192 370Q192 352 202 343T231 328L366 295Q416 282 443 252T470 176Q470 134 454 101T408 44T339 6T253 -11L246 -37L265 -39Q294 -42 312 -58T330 -102Q330 -123 321 -139T295 -165T256 -181T209 -186Z"
/>
<glyph unicode="&#x160;" glyph-name="Scaron" horiz-adv-x="651" d="M319 -14Q270 -14 222 -3T136 32T75 92T51 177Q51 193 54 211L56 223H188L186 212Q185 207 185 202T184 191Q184 165 196 147T228 118T274 101T328 95Q385 95 424 124T463 204Q463 262 402
278L247 317Q178 334 142 375T105 479Q105 538 126 582T184 655T272 699T381 714Q427 714 471 702T549 667T604 611T625 533Q625 524 624 513T621 496L620 491H490L491 496Q493 506 493 516Q493 539 483 555T455 583T415 599T368 605Q343 605 321 599T281 580T253
548T243 502Q243 477 257 462T295 440L457 397Q523 380 562 337T602 228Q602 169 579 124T518 49T428 2T319 -14ZM239 894H361L406 827L471 894H607L464 753H332L239 894Z" />
<glyph unicode="&#x161;" glyph-name="scaron" horiz-adv-x="518" d="M229 -12Q188 -12 150 -3T84 25T38 71T21 132Q21 137 21 143T23 155L24 161H143L142 156Q138 137 145 123T166 100T199 87T241 83Q282 83 311 100T340 153Q340 169 332 180T301 197L169 227Q116
239 89 270T62 348Q62 394 79 429T126 486T197 520T289 532Q327 532 363 524T427 498T473 454T490 390Q490 384 490 377T488 364L487 358H368L369 364Q375 400 348 418T281 437Q243 437 218 421T192 370Q192 352 202 343T231 328L366 295Q416 282 443 252T470 176Q470
131 451 96T400 37T323 1T229 -12ZM374 579H243L159 733H279L319 656L379 733H510L374 579Z" />
<glyph unicode="&#x162;" glyph-name="Tcommaaccent" horiz-adv-x="584" d="M279 584H83L104 700H636L615 584H420L317 0H177L279 584ZM156 -128Q156 -98 175 -80T228 -62Q257 -62 274 -78T291 -118Q291 -138 280 -154T255 -188L203 -248H137L189 -178Q175 -173
166 -160T156 -128Z" />
<glyph unicode="&#x163;" glyph-name="tcommaaccent" horiz-adv-x="379" d="M124 414H49L68 520H143L168 662H304L279 520H390L372 414H260L215 159Q210 127 217 113T257 99Q274 99 287 101T311 106L293 3Q278 -3 254 -7T204 -12Q141 -12 107 19T73 105Q73 123
76 141L124 414ZM84 -128Q84 -98 103 -80T156 -62Q185 -62 202 -78T219 -118Q219 -138 208 -154T183 -188L131 -248H65L117 -178Q103 -173 94 -160T84 -128Z" />
<glyph unicode="&#x164;" glyph-name="Tcaron" horiz-adv-x="584" d="M279 584H83L104 700H636L615 584H420L317 0H177L279 584ZM216 894H338L383 827L448 894H584L441 753H309L216 894Z" />
<glyph unicode="&#x165;" glyph-name="tcaron" horiz-adv-x="432" d="M387 697Q387 727 406 745T459 763Q488 763 505 747T522 707Q522 687 511 671T486 637L434 577H368L420 647Q406 652 397 665T387 697ZM124 414H49L68 520H143L168 662H304L279 520H390L372
414H260L215 159Q210 127 217 113T257 99Q274 99 287 101T311 106L293 3Q278 -3 254 -7T204 -12Q141 -12 107 19T73 105Q73 123 76 141L124 414Z" />
<glyph unicode="&#x166;" glyph-name="Tbar" horiz-adv-x="584" d="M116 383H244L279 584H83L104 700H636L615 584H420L384 383H513L493 271H365L317 0H177L224 271H96L116 383Z" />
<glyph unicode="&#x167;" glyph-name="tbar" horiz-adv-x="379" d="M224 214L215 159Q210 127 217 113T257 99Q274 99 287 101T311 106L293 3Q278 -3 254 -7T204 -12Q141 -12 107 19T73 105Q73 123 76 141L89 214H16L34 317H107L124 414H49L68 520H143L168 662H304L279
520H390L372 414H260L243 317H335L317 214H224Z" />
<glyph unicode="&#x168;" glyph-name="Utilde" horiz-adv-x="716" d="M330 -14Q280 -14 233 1T150 45T91 117T68 213Q68 224 69 235T72 255L150 700H290L211 250Q208 235 208 220Q208 164 244 133T340 102Q412 102 452 141T504 251L583 700H723L644 251Q633 189
607 140T542 57T449 4T330 -14ZM230 776Q238 804 248 827T274 866T312 891T366 900Q390 900 414 894T461 880T503 866T535 859Q556 859 565 874T581 906L666 877Q658 849 648 827T622 788T586 764T536 755Q516 755 493 761T447 776T401 790T363 797Q343 797 334
784T316 750L230 776Z" />
<glyph unicode="&#x169;" glyph-name="utilde" horiz-adv-x="593" d="M207 -12Q134 -12 91 32T47 150Q47 161 48 172T51 195L109 520H245L189 207Q187 198 187 193T187 182Q187 145 209 126T267 106Q313 106 343 136T381 214L436 520H572L481 0H351L363 64Q344
32 302 10T207 -12ZM170 608Q179 636 188 658T211 696T244 719T292 727Q313 727 336 721T380 706T419 691T448 684Q457 684 463 689T475 701T483 715T489 729L574 698Q566 676 557 655T536 617T506 590T464 580Q446 580 425 586T381 601T338 616T301 623Q282 623
275 613T257 579L170 608Z" />
<glyph unicode="&#x16a;" glyph-name="Umacron" horiz-adv-x="716" d="M330 -14Q280 -14 233 1T150 45T91 117T68 213Q68 224 69 235T72 255L150 700H290L211 250Q208 235 208 220Q208 164 244 133T340 102Q412 102 452 141T504 251L583 700H723L644 251Q633 189
607 140T542 57T449 4T330 -14ZM279 881H655L636 772H260L279 881Z" />
<glyph unicode="&#x16b;" glyph-name="umacron" horiz-adv-x="593" d="M207 -12Q134 -12 91 32T47 150Q47 161 48 172T51 195L109 520H245L189 207Q187 198 187 193T187 182Q187 145 209 126T267 106Q313 106 343 136T381 214L436 520H572L481 0H351L363 64Q344
32 302 10T207 -12ZM213 706H542L524 599H195L213 706Z" />
<glyph unicode="&#x16c;" glyph-name="Ubreve" horiz-adv-x="716" d="M330 -14Q280 -14 233 1T150 45T91 117T68 213Q68 224 69 235T72 255L150 700H290L211 250Q208 235 208 220Q208 164 244 133T340 102Q412 102 452 141T504 251L583 700H723L644 251Q633 189
607 140T542 57T449 4T330 -14ZM450 753Q413 753 381 762T326 788T292 832T285 894H390Q386 868 404 850T458 832Q497 832 516 851T540 894H645Q633 822 581 788T450 753Z" />
<glyph unicode="&#x16d;" glyph-name="ubreve" horiz-adv-x="593" d="M207 -12Q134 -12 91 32T47 150Q47 161 48 172T51 195L109 520H245L189 207Q187 198 187 193T187 182Q187 145 209 126T267 106Q313 106 343 136T381 214L436 520H572L481 0H351L363 64Q344
32 302 10T207 -12ZM371 579Q336 579 305 588T252 617T217 665T209 733H307Q304 701 321 680T376 658Q397 658 411 665T435 683T449 707T458 733H557Q546 661 497 620T371 579Z" />
<glyph unicode="&#x16e;" glyph-name="Uring" horiz-adv-x="716" d="M330 -14Q280 -14 233 1T150 45T91 117T68 213Q68 224 69 235T72 255L150 700H290L211 250Q208 235 208 220Q208 164 244 133T340 102Q412 102 452 141T504 251L583 700H723L644 251Q633 189
607 140T542 57T449 4T330 -14ZM452 801Q476 801 488 816T500 850Q500 867 488 878T456 890Q432 890 420 877T407 841Q407 824 419 813T452 801ZM449 753Q403 753 376 776T349 840Q349 885 379 911T456 938Q499 938 528 916T558 852Q558 808 527 781T449 753Z"
/>
<glyph unicode="&#x16f;" glyph-name="uring" horiz-adv-x="593" d="M207 -12Q134 -12 91 32T47 150Q47 161 48 172T51 195L109 520H245L189 207Q187 198 187 193T187 182Q187 145 209 126T267 106Q313 106 343 136T381 214L436 520H572L481 0H351L363 64Q344
32 302 10T207 -12ZM371 627Q394 627 406 642T419 676Q419 693 407 704T375 716Q351 716 339 703T326 667Q326 650 337 639T371 627ZM368 579Q322 579 295 602T268 666Q268 711 299 737T375 764Q418 764 447 742T477 678Q477 634 446 607T368 579Z" />
<glyph unicode="&#x170;" glyph-name="Uhungarumlaut" horiz-adv-x="716" d="M330 -14Q280 -14 233 1T150 45T91 117T68 213Q68 224 69 235T72 255L150 700H290L211 250Q208 235 208 220Q208 164 244 133T340 102Q412 102 452 141T504 251L583 700H723L644 251Q633
189 607 140T542 57T449 4T330 -14ZM260 753Q279 786 298 825T328 894H471Q453 858 429 820T382 753H260ZM466 753Q485 786 504 825T534 894H677Q659 858 635 820T588 753H466Z" />
<glyph unicode="&#x171;" glyph-name="uhungarumlaut" horiz-adv-x="593" d="M207 -12Q134 -12 91 32T47 150Q47 161 48 172T51 195L109 520H245L189 207Q187 198 187 193T187 182Q187 145 209 126T267 106Q313 106 343 136T381 214L436 520H572L481 0H351L363
64Q344 32 302 10T207 -12ZM184 579Q193 595 204 615T226 657T246 698T261 733H404Q395 715 383 694T358 652T331 612T306 579H184ZM390 579Q399 595 410 615T432 657T452 698T467 733H610Q601 715 589 694T564 652T537 612T512 579H390Z" />
<glyph unicode="&#x172;" glyph-name="Uogonek" horiz-adv-x="716" d="M355 -186Q307 -186 281 -165T254 -108Q254 -74 276 -48T340 -6Q332 -8 321 -9T303 -10Q254 -10 211 5T137 50T87 120T68 213Q68 224 69 235T72 255L150 700H290L211 250Q208 235 208 220Q208
164 244 133T340 102Q412 102 452 141T504 251L583 700H723L644 251Q630 169 590 112T484 19Q438 -5 409 -29T379 -83Q379 -107 410 -107Q416 -107 423 -107T437 -104L424 -177Q416 -179 396 -182T355 -186Z" />
<glyph unicode="&#x173;" glyph-name="uogonek" horiz-adv-x="593" d="M356 -186Q308 -186 282 -165T255 -108Q255 -88 263 -71T284 -40T315 -16T351 0L363 64Q344 32 302 10T207 -12Q134 -12 91 32T47 150Q47 161 48 172T51 195L109 520H245L189 207Q187 198
187 193T187 182Q187 145 209 126T267 106Q313 106 343 136T381 214L436 520H572L481 0H428Q411 -15 396 -35T380 -83Q380 -107 411 -107Q417 -107 424 -107T438 -104L425 -177Q417 -179 397 -182T356 -186Z" />
<glyph unicode="&#x174;" glyph-name="Wcircumflex" horiz-adv-x="947" d="M105 700H243L255 197L484 700H617L675 197L863 700H1003L714 0H583L528 536L281 0H150L105 700ZM518 894H650L743 753H620L576 820L509 753H375L518 894Z" />
<glyph unicode="&#x175;" glyph-name="wcircumflex" horiz-adv-x="777" d="M66 520H197L212 167L375 520H494L538 167L675 520H807L579 0H456L410 363L236 0H113L66 520ZM402 733H533L617 579H497L458 655L397 579H266L402 733Z" />
<glyph unicode="&#x176;" glyph-name="Ycircumflex" horiz-adv-x="624" d="M240 256L80 700H227L331 380L536 700H695L377 240L335 0H195L240 256ZM340 894H472L565 753H442L398 820L331 753H197L340 894Z" />
<glyph unicode="&#x177;" glyph-name="ycircumflex" horiz-adv-x="508" d="M16 -54Q27 -59 43 -61T72 -63Q98 -63 112 -53T137 -23L150 1L53 520H189L236 139L406 520H544L284 1L256 -50Q239 -80 224 -102T189 -138T146 -159T89 -166Q67 -166 42 -162T0 -151L16
-54ZM519 733H650L734 579H614L575 655L514 579H383L519 733Z" />
<glyph unicode="&#x178;" glyph-name="Ydieresis" horiz-adv-x="624" d="M240 256L80 700H227L331 380L536 700H695L377 240L335 0H195L240 256ZM216 819Q216 852 238 875T298 899Q326 899 345 882T364 835Q364 801 342 777T282 753Q254 753 235 771T216 819ZM440
819Q440 852 462 875T522 899Q550 899 569 882T588 835Q588 801 566 777T506 753Q478 753 459 771T440 819Z" />
<glyph unicode="&#x179;" glyph-name="Zacute" horiz-adv-x="614" d="M35 116L450 584H128L148 700H632L611 584L196 116H540L520 0H15L35 116ZM310 753Q336 786 359 821T403 894H570Q556 874 541 854T509 816T477 781T448 753H310Z" />
<glyph unicode="&#x17a;" glyph-name="zacute" horiz-adv-x="515" d="M25 96L334 418H92L109 520H509L492 424L183 102H442L424 0H8L25 96ZM241 579Q267 617 288 654T332 733H509Q497 715 482 695T448 655T411 615T374 579H241Z" />
<glyph unicode="&#x17b;" glyph-name="Zdotaccent" horiz-adv-x="614" d="M35 116L450 584H128L148 700H632L611 584L196 116H540L520 0H15L35 116ZM321 824Q321 859 343 885T408 911Q438 911 458 893T479 843Q479 825 473 809T456 781T429 761T392 753Q362 753
342 772T321 824Z" />
<glyph unicode="&#x17c;" glyph-name="zdotaccent" horiz-adv-x="515" d="M25 96L334 418H92L109 520H509L492 424L183 102H442L424 0H8L25 96ZM251 650Q251 685 273 711T338 737Q368 737 388 719T409 669Q409 651 403 635T386 607T359 587T322 579Q292 579 272
598T251 650Z" />
<glyph unicode="&#x17d;" glyph-name="Zcaron" horiz-adv-x="614" d="M35 116L450 584H128L148 700H632L611 584L196 116H540L520 0H15L35 116ZM245 894H367L412 827L477 894H613L470 753H338L245 894Z" />
<glyph unicode="&#x17e;" glyph-name="zcaron" horiz-adv-x="515" d="M25 96L334 418H92L109 520H509L492 424L183 102H442L424 0H8L25 96ZM395 579H264L180 733H300L340 656L400 733H531L395 579Z" />
<glyph unicode="&#x192;" glyph-name="florin" horiz-adv-x="463" d="M-33 -63H14Q43 -63 58 -50T79 -13L169 326H88L108 437H199L232 562Q252 636 290 668T399 700H503L484 589H423Q396 589 384 579T364 542L336 437H428L408 326H307L209 -39Q191 -105 151 -139T33
-174H-52L-33 -63Z" />
<glyph unicode="&#x1fa;" glyph-name="Aringacute" horiz-adv-x="688" d="M341 684Q324 706 324 735Q324 777 354 803T431 829Q474 829 503 807T533 747Q533 724 523 706T496 675L623 0H487L465 148H196L125 0H-22L341 684ZM251 260H449L404 579L251 260ZM384
855Q393 867 402 881T421 910T438 939T452 965H620Q598 936 575 909T523 855H384ZM427 700Q451 700 463 714T475 745Q475 760 463 770T431 781Q407 781 395 769T382 736Q382 721 394 711T427 700Z" />
<glyph unicode="&#x1fb;" glyph-name="aringacute" horiz-adv-x="584" d="M376 615Q399 615 412 628T426 660Q426 680 413 690T379 700Q355 700 342 687T328 654Q328 637 340 626T376 615ZM373 569Q329 569 301 591T272 652Q272 694 301 720T380 746Q424 746 452
725T481 664Q481 622 450 596T373 569ZM337 777Q346 789 355 803T374 832T391 861T405 887H573Q551 858 528 831T476 777H337ZM347 0L356 57Q335 28 290 8T192 -12Q109 -12 67 28T25 134Q25 182 41 214T87 267T156 295T242 304Q284 304 323 294T388 267L400 336Q407
375 383 400T314 426Q243 426 211 373H86Q115 448 172 490T332 532Q376 532 413 519T478 483T521 428T537 359Q537 342 534 324L477 0H347ZM242 72Q290 72 326 94T369 157L376 198Q359 209 331 217T267 225Q217 225 186 207T154 140Q154 105 177 89T242 72Z" />
<glyph unicode="&#x1fc;" glyph-name="AEacute" horiz-adv-x="1069" d="M604 753Q630 786 653 821T697 894H864Q850 874 835 854T803 816T771 781T742 753H604ZM511 148H235L115 0H-45L547 700H1089L1069 584H727L697 413H1010L989 297H677L645 116H988L967 0H485L511
148ZM530 260L587 582L327 260H530Z" />
<glyph unicode="&#x1fd;" glyph-name="aeacute" horiz-adv-x="912" d="M434 579Q460 617 481 654T525 733H702Q690 715 675 695T641 655T604 615T567 579H434ZM608 -12Q549 -12 502 7T432 63Q415 45 391 32T339 8T281 -7T222 -12Q123 -12 74 27T25 136Q25 184
41 216T87 267T156 295T242 304Q284 304 320 294T388 267L400 335Q407 374 383 400T314 426Q242 426 211 375H86Q116 454 174 493T330 532Q380 532 418 516T482 468Q543 532 654 532Q703 532 743 518T811 478T854 415T870 332Q870 323 869 310T866 284L854 214H515Q512
199 512 185Q512 140 538 112T618 84Q659 84 683 104T718 152H839Q819 80 760 34T608 -12ZM242 72Q290 72 326 94T369 157L376 198Q356 210 326 217T267 225Q217 225 186 208T154 142Q154 107 177 90T242 72ZM532 310H746L748 323Q749 328 749 333T750 343Q750
384 725 409T652 435Q599 435 572 404T533 313L532 310Z" />
<glyph unicode="&#x1fe;" glyph-name="Oslashacute" horiz-adv-x="725" d="M350 753Q376 786 399 821T443 894H610Q596 874 581 854T549 816T517 781T488 753H350ZM347 -14Q291 -14 246 -1T165 37L94 -50H-4L111 90Q81 132 70 172T58 263Q58 298 64 334L80 426Q105
567 184 640T404 714Q456 714 501 701T582 661L655 750H753L637 609Q664 574 678 531T693 438Q693 423 692 406T687 374L671 285Q659 219 633 164T567 70T471 8T347 -14ZM352 101Q430 101 474 151T533 282L551 387Q553 396 554 409T555 433Q555 450 553 467T545
498L245 134Q262 118 290 110T352 101ZM194 263Q194 246 196 231T202 201L501 564Q460 599 397 599Q316 599 274 551T216 415L199 317Q197 303 196 290T194 263Z" />
<glyph unicode="&#x1ff;" glyph-name="oslashacute" d="M257 579Q283 617 304 654T348 733H525Q513 715 498 695T464 655T427 615T390 579H257ZM271 -12Q185 -12 129 26L65 -50H-10L85 64Q60 97 50 128T39 202Q39 214 40 225T43 250L55 318Q75 429 139 480T304
532Q390 532 447 495L511 571H586L491 458Q514 433 526 398T538 320Q538 307 537 294T533 267L522 204Q514 156 494 116T443 48T368 4T271 -12ZM274 95Q324 95 352 124T389 203L405 294Q408 310 408 324Q408 342 404 354L204 115Q232 95 274 95ZM167 194Q167 178
170 165L371 405Q345 425 302 425Q249 425 223 396T186 312L170 221Q169 217 168 210T167 194Z" />
<glyph unicode="&#x218;" glyph-name="Scommaaccent" horiz-adv-x="651" d="M319 -14Q270 -14 222 -3T136 32T75 92T51 177Q51 193 54 211L56 223H188L186 212Q185 207 185 202T184 191Q184 165 196 147T228 118T274 101T328 95Q385 95 424 124T463 204Q463 262
402 278L247 317Q178 334 142 375T105 479Q105 538 126 582T184 655T272 699T381 714Q427 714 471 702T549 667T604 611T625 533Q625 524 624 513T621 496L620 491H490L491 496Q493 506 493 516Q493 539 483 555T455 583T415 599T368 605Q343 605 321 599T281 580T253
548T243 502Q243 477 257 462T295 440L457 397Q523 380 562 337T602 228Q602 169 579 124T518 49T428 2T319 -14ZM224 -128Q224 -98 243 -80T296 -62Q325 -62 342 -78T359 -118Q359 -138 348 -154T323 -188L271 -248H205L257 -178Q243 -173 234 -160T224 -128Z"
/>
<glyph unicode="&#x219;" glyph-name="scommaaccent" horiz-adv-x="518" d="M229 -12Q188 -12 150 -3T84 25T38 71T21 132Q21 137 21 143T23 155L24 161H143L142 156Q138 137 145 123T166 100T199 87T241 83Q282 83 311 100T340 153Q340 169 332 180T301 197L169
227Q116 239 89 270T62 348Q62 394 79 429T126 486T197 520T289 532Q327 532 363 524T427 498T473 454T490 390Q490 384 490 377T488 364L487 358H368L369 364Q375 400 348 418T281 437Q243 437 218 421T192 370Q192 352 202 343T231 328L366 295Q416 282 443 252T470
176Q470 131 451 96T400 37T323 1T229 -12ZM137 -128Q137 -98 156 -80T209 -62Q238 -62 255 -78T272 -118Q272 -138 261 -154T236 -188L184 -248H118L170 -178Q156 -173 147 -160T137 -128Z" />
<glyph unicode="&#x21a;" glyph-name="Tcommaaccent" horiz-adv-x="584" d="M279 584H83L104 700H636L615 584H420L317 0H177L279 584ZM156 -128Q156 -98 175 -80T228 -62Q257 -62 274 -78T291 -118Q291 -138 280 -154T255 -188L203 -248H137L189 -178Q175 -173
166 -160T156 -128Z" />
<glyph unicode="&#x21b;" glyph-name="tcommaaccent" horiz-adv-x="379" d="M124 414H49L68 520H143L168 662H304L279 520H390L372 414H260L215 159Q210 127 217 113T257 99Q274 99 287 101T311 106L293 3Q278 -3 254 -7T204 -12Q141 -12 107 19T73 105Q73 123
76 141L124 414ZM84 -128Q84 -98 103 -80T156 -62Q185 -62 202 -78T219 -118Q219 -138 208 -154T183 -188L131 -248H65L117 -178Q103 -173 94 -160T84 -128Z" />
<glyph unicode="&#x2c6;" glyph-name="circumflex" horiz-adv-x="510" d="M268 733H399L483 579H363L324 655L263 579H132L268 733Z" />
<glyph unicode="&#x2c7;" glyph-name="caron" horiz-adv-x="510" d="M373 579H242L158 733H278L318 656L378 733H509L373 579Z" />
<glyph unicode="&#x2d8;" glyph-name="breve" horiz-adv-x="508" d="M313 579Q278 579 247 588T194 617T159 665T151 733H249Q246 701 263 680T318 658Q339 658 353 665T377 683T391 707T400 733H499Q488 661 439 620T313 579Z" />
<glyph unicode="&#x2d9;" glyph-name="dotaccent" horiz-adv-x="312" d="M133 650Q133 685 155 711T220 737Q250 737 270 719T291 669Q291 651 285 635T268 607T241 587T204 579Q174 579 154 598T133 650Z" />
<glyph unicode="&#x2da;" glyph-name="ring" horiz-adv-x="364" d="M244 627Q267 627 279 642T292 676Q292 693 280 704T248 716Q224 716 212 703T199 667Q199 650 210 639T244 627ZM241 579Q195 579 168 602T141 666Q141 711 172 737T248 764Q291 764 320 742T350
678Q350 634 319 607T241 579Z" />
<glyph unicode="&#x2db;" glyph-name="ogonek" horiz-adv-x="336" d="M109 -186Q61 -186 35 -165T8 -108Q8 -88 16 -71T37 -40T68 -16T104 0H181Q164 -15 149 -35T133 -83Q133 -107 164 -107Q170 -107 177 -107T191 -104L178 -177Q170 -179 150 -182T109 -186Z" />
<glyph unicode="&#x2dc;" glyph-name="tilde" horiz-adv-x="552" d="M143 608Q152 636 161 658T184 696T217 719T265 727Q286 727 309 721T353 706T392 691T421 684Q430 684 436 689T448 701T456 715T462 729L547 698Q539 676 530 655T509 617T479 590T437 580Q419
580 398 586T354 601T311 616T274 623Q255 623 248 613T230 579L143 608Z" />
<glyph unicode="&#x2dd;" glyph-name="hungarumlaut" horiz-adv-x="552" d="M146 579Q155 595 166 615T188 657T208 698T223 733H366Q357 715 345 694T320 652T293 612T268 579H146ZM352 579Q361 595 372 615T394 657T414 698T429 733H572Q563 715 551 694T526
652T499 612T474 579H352Z" />
<glyph unicode="&#x312;" glyph-name="uni0312" horiz-adv-x="363" d="M274 639Q274 608 254 590T201 571Q176 571 159 585T142 625Q142 648 151 662T177 696L228 755H293L241 687Q256 682 265 670T274 639Z" />
<glyph unicode="&#x315;" glyph-name="uni0315" horiz-adv-x="342" d="M164 653Q164 685 185 706T243 727Q272 727 289 709T307 664Q307 639 296 622T266 584L201 508H131L201 593Q185 601 175 615T164 653Z" />
<glyph unicode="&#x326;" glyph-name="uni0326" horiz-adv-x="340" d="M64 -128Q64 -98 83 -80T136 -62Q165 -62 182 -78T199 -118Q199 -138 188 -154T163 -188L111 -248H45L97 -178Q83 -173 74 -160T64 -128Z" />
<glyph unicode="&#x3a9;" glyph-name="Omega" horiz-adv-x="737" d="M37 111H129Q106 156 91 207T75 321Q75 401 96 472T160 597T270 682T427 714Q488 714 539 694T627 638T684 551T705 439Q705 394 695 349T666 261T621 180T564 111H648L628 0H401L420 111Q453
139 480 175T526 253T555 339T565 429Q565 504 529 551T414 598Q357 598 318 572T256 505T223 412T213 308Q213 204 265 111L246 0H18L37 111Z" />
<glyph unicode="&#x3c0;" glyph-name="pi" horiz-adv-x="722" d="M170 413H70L89 520H726L707 413H588L544 164Q539 138 550 124T591 109H648L629 0H537Q475 0 440 32T404 122Q404 140 407 157L452 413H306L233 0H97L170 413Z" />
</font>
</defs>
</svg>
