<?xml version="1.0" standalone="no"?> <!DOCTYPE svg PUBLIC "-//W3C//DTD SVG 1.0//EN" "http://www.w3.org/TR/2001/REC-SVG-20010904/DTD/svg10.dtd" > <svg xmlns="http://www.w3.org/2000/svg" width="100%" height="100%">
<defs >
<font id="LovinSansWebLightItalic" horiz-adv-x="552" ><font-face
    font-family=""
    units-per-em="1000"
    panose-1="2 11 4 5 0 0 0 1 0 3"
    ascent="900"
    descent="-300"
    alphabetic="0" />
<missing-glyph horiz-adv-x="719" d="M118 700H623V0H118V700ZM612 10V690H129V10H612ZM387 350L484 254L467 237L371 334L275 237L258 254L354 350L258 447L274 464L371 366L468 464L484 447L387 350Z" />
<glyph unicode="&#xd;" glyph-name="CR" horiz-adv-x="220" />
<glyph unicode=" " glyph-name="space" horiz-adv-x="220" />
<glyph unicode="!" glyph-name="exclam" horiz-adv-x="244" d="M45 31Q45 49 55 60T86 72Q101 72 111 62T122 36Q122 18 111 6T81 -6Q65 -6 55 4T45 31ZM123 167Q117 169 106 169Q95 169 89 167L171 700H229L123 167Z" />
<glyph unicode="&quot;" glyph-name="quotedbl" horiz-adv-x="427" d="M363 700H403L358 443H318L363 700ZM159 700H199L154 443H114L159 700Z" />
<glyph unicode="#" glyph-name="numbersign" horiz-adv-x="669" d="M429 224H209L144 0H105L170 224H58L64 259H180L236 453H119L126 488H246L308 700H347L285 488H505L567 700H606L544 488H650L644 453H534L478 259H589L583 224H468L403 0H364L429 224ZM219 259H439L495
453H275L219 259Z" />
<glyph unicode="$" glyph-name="dollar" horiz-adv-x="423" d="M201 233Q154 239 120 267T83 352H115Q117 309 142 287T206 260L236 429L199 441Q165 452 146 475T127 531Q127 585 163 614T262 644H273L285 708H303L291 642Q334 635 361 608T392 532H361Q358 566
339 588T287 616L258 455L307 439Q342 427 358 404T375 351Q375 296 334 264T227 232H219L208 168H190L201 233ZM253 423L224 259H230Q252 259 272 264T308 281T333 309T342 348Q342 369 330 386T291 411L253 423ZM161 534Q161 511 173 496T215 470L241 461L269
618H261Q221 618 191 598T161 534Z" />
<glyph unicode="%" glyph-name="percent" horiz-adv-x="832" d="M395 465Q383 399 345 362T242 324Q210 324 185 334T142 362T116 403T107 454Q107 468 110 483L126 573Q139 643 176 675T278 707Q338 707 375 672T413 579Q413 570 412 562T410 550L395 465ZM375
550Q376 555 377 562T378 578Q378 622 352 650T275 678Q225 678 198 650T160 567L145 483Q142 466 142 452Q142 407 168 380T245 353Q292 353 321 382T360 465L375 550ZM659 700H699L212 0H172L659 700ZM751 134Q739 68 701 31T598 -7Q566 -7 541 3T498 31T472
72T463 123Q463 137 466 152L482 242Q495 312 532 344T634 376Q694 376 731 341T769 248Q769 239 768 231T766 219L751 134ZM731 219Q732 224 733 231T734 247Q734 291 708 319T631 347Q581 347 554 319T516 236L501 152Q498 135 498 121Q498 76 524 49T601 22Q648
22 677 51T716 134L731 219Z" />
<glyph unicode="&amp;" glyph-name="ampersand" horiz-adv-x="706" d="M501 533L506 562Q507 567 507 571T508 581Q508 626 475 652T388 678Q359 678 333 670T287 644T256 602T244 543Q244 512 256 485T291 430L522 142Q542 176 551 202T567 261L579 327H621L609
257Q602 217 587 179T549 108L626 13L596 -14L522 76Q485 36 430 11T303 -14Q247 -14 203 2T128 46T81 111T64 191Q64 240 80 277T122 341T181 386T249 416Q227 445 214 474T201 541Q201 583 215 615T255 669T315 702T391 714Q422 714 451 705T502 680T537 639T550
585Q550 579 550 574T548 562L543 533H501ZM305 23Q370 23 419 48T497 108L273 386Q238 373 208 356T156 316T122 262T109 191Q109 154 123 124T164 71T226 36T305 23Z" />
<glyph unicode="&apos;" glyph-name="quotesingle" horiz-adv-x="223" d="M159 700H199L154 443H114L159 700Z" />
<glyph unicode="(" glyph-name="parenleft" horiz-adv-x="295" d="M132 -134Q79 27 79 176Q79 346 136 500T292 782H340Q242 648 185 497T127 174Q127 102 139 29T179 -134H132V-134Z" />
<glyph unicode=")" glyph-name="parenright" horiz-adv-x="295" d="M185 782Q238 621 238 472Q238 302 181 148T25 -134H-23Q75 0 132 151T190 474Q190 546 178 619T138 782H185V782Z" />
<glyph unicode="*" glyph-name="asterisk" horiz-adv-x="312" d="M220 580L204 485H188L205 579L114 534L108 546L201 592L117 645L125 656L209 603L226 700H242L225 604L314 650L320 638L228 592L305 544L297 532L220 580Z" />
<glyph unicode="+" glyph-name="plus" horiz-adv-x="608" d="M297 341H99L106 379H304L341 590H383L346 379H544L538 341H339L302 130H260L297 341Z" />
<glyph unicode="," glyph-name="comma" horiz-adv-x="222" d="M40 32Q40 49 51 60T83 72Q97 72 107 63T118 40Q118 27 113 19T100 1L13 -107H-17L63 -1Q53 4 47 11T40 32Z" />
<glyph unicode="-" glyph-name="hyphen" horiz-adv-x="415" d="M75 329H344L337 288H67L75 329Z" />
<glyph unicode="." glyph-name="period" horiz-adv-x="222" d="M31 31Q31 49 41 60T72 72Q87 72 97 62T108 36Q108 18 97 6T67 -6Q51 -6 41 4T31 31Z" />
<glyph unicode="/" glyph-name="slash" horiz-adv-x="448" d="M432 750H481L48 -105H-1L432 750Z" />
<glyph unicode="0" glyph-name="zero" horiz-adv-x="625" d="M370 714Q417 714 457 698T526 655T572 589T589 506Q589 496 588 485T585 465L539 205Q530 157 510 117T458 48T385 2T292 -14Q245 -14 205 1T134 43T87 109T70 194Q70 205 71 215T74 238L120 499Q138
601 199 657T370 714ZM537 465Q539 473 540 483T541 504Q541 541 529 572T493 626T438 661T368 674Q283 674 233 627T168 499L122 238Q120 226 119 216T118 195Q118 156 130 125T166 72T222 38T294 26Q335 26 368 39T427 77T468 135T492 210L537 465Z" />
<glyph unicode="1" glyph-name="one" horiz-adv-x="338" d="M255 647Q243 639 224 630T181 611T134 592T86 575L93 618Q138 634 182 652T274 700H312L189 0H141L255 647Z" />
<glyph unicode="2" glyph-name="two" horiz-adv-x="594" d="M40 39L405 372Q424 390 443 409T476 450T499 494T508 543Q508 573 496 597T464 638T416 665T358 674Q281 674 239 637T183 527L179 507H133L137 529Q154 620 209 667T363 714Q401 714 436 702T498 668T541
615T557 546Q557 513 547 485T519 431T479 384T432 339L100 40H477L470 0H34L40 39Z" />
<glyph unicode="3" glyph-name="three" horiz-adv-x="604" d="M314 376Q350 376 386 386T451 417T499 469T518 541Q518 570 507 594T475 637T427 665T366 675Q296 675 249 642T184 537H139Q159 628 220 671T370 714Q412 714 448 701T510 666T551 612T566 544Q566
471 519 423T395 355Q423 348 447 334T490 299T518 252T528 195Q528 145 509 107T456 41T379 0T287 -14Q240 -14 200 -3T131 32T84 93T65 184H111Q112 103 158 64T288 25Q326 25 360 35T421 67T464 119T480 194Q480 224 469 249T436 294T384 325T315 336H200L207
376H314Z" />
<glyph unicode="4" glyph-name="four" horiz-adv-x="600" d="M528 700L443 221H544L538 183H437L405 0H359L391 183H41L47 221L465 700H528ZM398 221L475 657L96 221H398Z" />
<glyph unicode="5" glyph-name="five" horiz-adv-x="622" d="M297 -14Q257 -14 220 -2T153 33T102 89T74 165H119Q133 99 182 62T301 25Q348 25 386 43T450 91T491 158T506 235Q506 271 494 302T460 357T408 395T340 409Q286 409 243 385T164 316H115L246 700H570L563
661H278L181 378Q210 410 250 429T351 448Q392 448 429 432T493 388T537 322T554 241Q554 191 536 145T484 63T403 7T297 -14Z" />
<glyph unicode="6" glyph-name="six" horiz-adv-x="591" d="M278 -14Q232 -14 193 3T124 51T78 120T61 202Q61 262 82 312T135 399L395 700H448L179 398L180 397Q214 423 245 435T325 447Q368 447 405 430T471 384T515 317T531 234Q531 185 514 140T463 61T383
7T278 -14ZM282 25Q327 25 364 41T428 85T469 150T484 230Q484 266 472 298T437 355T382 394T310 409Q266 409 229 393T165 350T123 284T108 202Q108 164 121 132T157 76T212 39T282 25Z" />
<glyph unicode="7" glyph-name="seven" horiz-adv-x="554" d="M509 660H145L152 700H568L562 666L136 0H86L509 660Z" />
<glyph unicode="8" glyph-name="eight" horiz-adv-x="629" d="M286 -14Q244 -14 206 -1T138 38T91 96T74 171Q74 216 90 251T133 311T195 350T269 369Q224 388 195 427T165 523Q165 569 181 604T227 664T297 701T385 714Q423 714 457 702T518 668T559 614T575
545Q575 509 563 479T530 425T480 385T418 360Q473 340 508 302T543 203Q543 154 523 114T468 46T387 2T286 -14ZM291 23Q334 23 371 36T437 72T481 128T497 202Q497 234 484 260T449 304T396 333T330 343Q285 343 247 332T181 299T136 246T120 172Q120 139 133
112T169 65T224 34T291 23ZM349 380Q386 380 419 392T476 425T515 476T529 541Q529 572 518 597T486 640T438 667T380 677Q343 677 312 667T258 636T222 587T209 521Q209 493 220 468T250 423T294 392T349 380Z" />
<glyph unicode="9" glyph-name="nine" horiz-adv-x="592" d="M424 298L423 299Q400 276 364 265T292 253Q250 253 213 270T149 316T106 384T90 467Q90 518 106 563T155 641T235 694T343 714Q388 714 427 697T496 650T542 581T559 497Q559 447 540 403T498 330L224
0H173L424 298ZM310 291Q351 291 387 307T452 352T496 418T512 498Q512 534 500 566T464 622T409 661T338 675Q291 675 254 659T191 616T151 550T137 468Q137 430 148 398T182 342T237 305T310 291Z" />
<glyph unicode=":" glyph-name="colon" horiz-adv-x="222" d="M31 31Q31 49 41 60T72 72Q87 72 97 62T108 36Q108 18 97 6T67 -6Q51 -6 41 4T31 31ZM91 374Q91 392 101 403T132 415Q147 415 157 405T168 379Q168 361 157 349T127 337Q111 337 101 347T91 374Z" />
<glyph unicode=";" glyph-name="semicolon" horiz-adv-x="222" d="M101 374Q101 392 111 403T142 415Q157 415 167 405T178 379Q178 361 167 349T137 337Q121 337 111 347T101 374ZM40 32Q40 49 51 60T83 72Q97 72 107 63T118 40Q118 27 113 19T100 1L13 -107H-17L63
-1Q53 4 47 11T40 32Z" />
<glyph unicode="&lt;" glyph-name="less" horiz-adv-x="590" d="M78 345L83 375L538 589L553 556L131 356L484 162L464 127L78 345Z" />
<glyph unicode="=" glyph-name="equal" horiz-adv-x="612" d="M96 260H519L513 223H90L96 260ZM138 497H561L555 460H132L138 497Z" />
<glyph unicode="&gt;" glyph-name="greater" horiz-adv-x="590" d="M545 375L540 345L85 130L70 164L492 364L139 558L158 594L545 375Z" />
<glyph unicode="?" glyph-name="question" horiz-adv-x="496" d="M187 204Q194 243 202 271T223 319T251 355T289 385L349 425Q388 451 415 483T443 560Q443 586 432 607T403 644T359 667T306 675Q235 675 198 641T149 541L146 525H100L103 542Q118 627 168 670T311
714Q348 714 381 703T438 671T477 624T491 563Q491 508 464 471T392 405L324 359Q301 344 286 329T261 296T243 254T230 198L223 159Q218 160 213 160T202 161Q189 161 179 159L187 204ZM144 31Q144 49 154 60T185 72Q200 72 210 62T221 36Q221 18 210 6T180 -6Q164
-6 154 4T144 31Z" />
<glyph unicode="@" glyph-name="at" horiz-adv-x="943" d="M475 -113Q379 -113 305 -82T180 3T103 129T77 282Q77 373 107 452T193 589T325 680T498 714Q585 714 654 687T772 612T847 500T873 363Q873 318 862 273T829 193T772 135T690 113Q666 113 645 121T608
142T583 175T572 216Q554 174 517 150T435 125Q371 125 334 165T296 269Q296 286 299 306L304 335Q316 406 355 447T460 489Q486 489 507 481T545 460T572 429T588 395L602 480H639L603 278Q600 260 600 245Q600 196 626 170T694 144Q728 144 754 162T799 212T826
282T835 362Q835 429 811 487T743 588T637 655T497 680Q412 680 342 650T222 567T143 440T115 281Q115 210 137 145T205 31T319 -49T479 -79Q530 -79 576 -72T665 -51L660 -85Q622 -98 573 -105T475 -113ZM338 301Q335 283 335 267Q335 216 362 187T439 158Q462
158 482 167T519 193T546 231T562 278L568 313Q569 318 569 324T570 335Q570 358 562 380T540 419T506 446T462 456Q412 456 383 423T343 329L338 301Z" />
<glyph unicode="A" glyph-name="A" horiz-adv-x="657" d="M381 700H432L568 0H520L483 200H159L53 0H0L381 700ZM180 240H476L401 655L180 240Z" />
<glyph unicode="B" glyph-name="B" horiz-adv-x="648" d="M175 700H444Q483 700 513 688T563 653T595 603T606 542Q606 473 566 427T461 360Q521 346 554 308T587 212Q587 166 570 127T519 60T439 16T333 0H52L175 700ZM332 38Q429 38 484 85T539 208Q539 265
500 302T389 339H159L106 38H332ZM377 378Q420 378 453 391T510 427T546 479T558 539Q558 563 550 585T527 625T487 652T431 662H216L166 378H377Z" />
<glyph unicode="C" glyph-name="C" horiz-adv-x="695" d="M330 -14Q270 -14 223 6T144 60T94 142T76 246Q76 277 82 312L103 431Q127 567 198 640T397 714Q450 714 495 699T573 653T627 579T653 477H607Q598 570 544 621T395 673Q288 673 230 610T152 431L131
312Q128 295 127 279T125 245Q125 197 138 157T177 88T241 43T331 27Q379 27 418 43T486 86T534 148T564 223H610Q599 175 576 132T516 56T433 5T330 -14Z" />
<glyph unicode="D" glyph-name="D" horiz-adv-x="688" d="M307 41Q418 41 482 97T565 256L594 420Q596 432 597 445T599 469Q599 510 587 544T550 604T489 644T407 659H217L108 41H307ZM175 700H418Q471 700 513 683T586 635T632 563T648 472Q648 460 647 446T643
420L614 256Q604 198 581 151T521 71T431 19T309 0H52L175 700Z" />
<glyph unicode="E" glyph-name="E" horiz-adv-x="603" d="M175 700H618L612 659H217L167 376H532L525 335H160L108 41H504L496 0H52L175 700Z" />
<glyph unicode="F" glyph-name="F" horiz-adv-x="574" d="M175 700H607L599 659H217L166 368H517L510 327H159L101 0H52L175 700Z" />
<glyph unicode="G" glyph-name="G" horiz-adv-x="726" d="M546 106Q532 80 510 58T459 20T399 -5T333 -14Q270 -14 222 6T141 63T93 147T76 252Q76 268 78 286T82 318L102 431Q126 565 196 639T391 714Q445 714 491 699T571 654T625 579T647 474H602Q597 568 543
620T390 673Q338 673 298 656T228 608T180 531T151 431L131 318Q128 301 126 284T124 248Q124 198 138 158T179 88T245 42T336 26Q385 26 424 44T493 92T541 163T568 250L574 285H348L356 326H629L572 0H527L546 106Z" />
<glyph unicode="H" glyph-name="H" horiz-adv-x="699" d="M175 700H224L167 376H574L631 700H680L557 0H508L566 332H160L101 0H52L175 700Z" />
<glyph unicode="I" glyph-name="I" horiz-adv-x="253" d="M180 700H229L106 0H57L180 700Z" />
<glyph unicode="J" glyph-name="J" horiz-adv-x="575" d="M239 -14Q197 -14 159 -1T91 38T46 100T35 183H81Q78 147 88 118T121 69T174 38T244 27Q282 27 312 39T364 72T401 123T421 187L511 700H560L469 181Q461 137 442 102T393 40T324 0T239 -14Z" />
<glyph unicode="K" glyph-name="K" horiz-adv-x="588" d="M175 700H224L165 362L565 700H629L218 350L520 0H461L162 347L101 0H52L175 700Z" />
<glyph unicode="L" glyph-name="L" horiz-adv-x="559" d="M175 700H224L108 41H479L472 0H52L175 700Z" />
<glyph unicode="M" glyph-name="M" horiz-adv-x="772" d="M175 700H223L380 218L703 700H753L630 0H584L691 608L397 171H351L207 619L98 0H52L175 700Z" />
<glyph unicode="N" glyph-name="N" horiz-adv-x="706" d="M175 700H221L528 74L639 700H687L564 0H518L210 624L100 0H52L175 700Z" />
<glyph unicode="O" glyph-name="O" horiz-adv-x="713" d="M103 431Q127 566 200 640T405 714Q466 714 514 694T596 639T648 555T666 450Q666 436 665 419T660 386L640 273Q629 211 605 159T544 68T455 8T339 -14Q278 -14 230 6T147 62T95 147T77 253Q77 269 79
286T83 318L103 431ZM613 392Q615 406 616 419T618 449Q618 497 604 538T561 609T493 656T402 673Q346 673 304 655T230 605T180 527T150 426L131 318Q128 300 127 286T125 255Q125 207 139 166T180 93T247 45T342 27Q394 27 436 45T510 97T562 175T592 273L613
392Z" />
<glyph unicode="P" glyph-name="P" horiz-adv-x="629" d="M175 700H438Q482 700 517 685T577 643T615 583T628 511Q628 460 609 416T556 338T472 285T363 266H148L101 0H52L175 700ZM362 307Q413 307 453 322T521 365T564 429T579 508Q579 537 570 564T541 613T493
646T425 659H217L155 307H362Z" />
<glyph unicode="Q" glyph-name="Q" horiz-adv-x="713" d="M103 431Q127 566 200 640T405 714Q466 714 514 694T596 639T648 555T666 450Q666 436 665 419T660 386L640 273Q629 214 607 163T549 75T467 14T361 -13Q370 -39 384 -68T425 -130H373Q353 -107 336 -74T309
-12Q255 -8 212 14T139 71T93 153T77 253Q77 269 79 286T83 318L103 431ZM613 392Q615 406 616 419T618 449Q618 497 604 538T561 609T493 656T402 673Q346 673 304 655T230 605T180 527T150 426L131 318Q128 300 127 286T125 255Q125 207 139 166T180 93T247 45T342
27Q394 27 436 45T510 97T562 175T592 273L613 392Z" />
<glyph unicode="R" glyph-name="R" horiz-adv-x="664" d="M397 271H149L101 0H52L175 700H451Q496 700 532 685T594 643T632 582T646 509Q646 465 632 427T592 359T529 307T444 277L558 0H507L397 271ZM375 311Q428 311 469 326T538 368T582 430T597 506Q597 536
588 563T559 612T510 647T441 660H217L156 311H375Z" />
<glyph unicode="S" glyph-name="S" horiz-adv-x="638" d="M312 -14Q262 -14 215 0T132 43T80 111T71 202L73 213H118L116 202Q108 158 122 125T164 70T233 36T317 25Q360 25 397 36T463 68T507 120T523 192Q523 237 497 268T423 313L258 363Q200 380 169 418T137
508Q137 559 154 597T201 662T275 701T371 714Q417 714 462 701T542 662T594 597T603 507L602 501H558L559 507Q566 550 552 582T509 634T443 665T366 675Q327 675 294 665T237 634T199 583T185 512Q185 432 274 404L441 353Q501 335 536 293T571 196Q571 147 551
108T496 42T414 1T312 -14Z" />
<glyph unicode="T" glyph-name="T" horiz-adv-x="549" d="M321 658H100L107 700H598L591 658H370L254 0H205L321 658Z" />
<glyph unicode="U" glyph-name="U" horiz-adv-x="698" d="M320 -14Q271 -14 228 1T153 43T102 108T83 193Q83 203 84 214T87 233L169 700H218L136 232Q134 224 133 215T132 194Q132 155 147 124T187 72T248 39T323 27Q417 27 476 79T552 221L636 700H685L601 221Q592
167 569 124T509 50T426 3T320 -14Z" />
<glyph unicode="V" glyph-name="V" horiz-adv-x="605" d="M106 700H155L266 52L603 700H656L287 0H230L106 700Z" />
<glyph unicode="W" glyph-name="W" horiz-adv-x="894" d="M115 700H163L194 66L497 700H549L631 66L884 700H934L647 0H598L516 651L207 0H158L115 700Z" />
<glyph unicode="X" glyph-name="X" horiz-adv-x="606" d="M297 360L124 700H173L327 396L588 700H644L348 355L528 0H479L317 319L44 0H-12L297 360Z" />
<glyph unicode="Y" glyph-name="Y" horiz-adv-x="581" d="M269 272L94 700H142L299 315L585 700H642L317 268L270 0H221L269 272Z" />
<glyph unicode="Z" glyph-name="Z" horiz-adv-x="612" d="M31 40L549 660H157L165 700H611L603 660L86 40H507L500 0H24L31 40Z" />
<glyph unicode="[" glyph-name="bracketleft" horiz-adv-x="352" d="M185 782H401L394 743H226L78 -95H247L240 -134H24L185 782Z" />
<glyph unicode="\" glyph-name="backslash" horiz-adv-x="447" d="M147 750H190L321 -105H278L147 750Z" />
<glyph unicode="]" glyph-name="bracketright" horiz-adv-x="351" d="M191 -134H-25L-18 -95H150L298 743H129L136 782H352L191 -134Z" />
<glyph unicode="^" glyph-name="asciicircum" horiz-adv-x="493" d="M301 700H342L450 426H405L318 661L148 426H98L301 700Z" />
<glyph unicode="_" glyph-name="underscore" horiz-adv-x="486" d="M-41 -88H446L442 -112H-46L-41 -88Z" />
<glyph unicode="`" glyph-name="grave" horiz-adv-x="337" d="M230 583Q211 612 192 649T159 719H213Q222 691 237 656T273 583H230Z" />
<glyph unicode="a" glyph-name="a" horiz-adv-x="553" d="M384 0L397 77Q386 60 368 44T325 16T270 -4T205 -12Q162 -12 130 -2T76 27T43 71T32 126Q32 173 49 205T95 257T165 285T251 294Q307 294 353 279T425 244L442 340Q448 371 441 397T417 442T373 471T311
482Q251 482 210 457T145 387H101Q130 450 181 485T318 520Q357 520 389 509T444 478T480 431T493 371Q493 355 490 339L430 0H384ZM219 19Q250 19 282 28T340 56T385 100T410 158L420 215Q391 235 350 248T257 262Q223 262 191 257T133 236T93 196T78 130Q78 79
112 49T219 19Z" />
<glyph unicode="b" glyph-name="b" horiz-adv-x="583" d="M290 -12Q252 -12 221 -1T167 29T130 71T109 119L87 0H42L171 730H219L164 419Q190 464 232 492T342 520Q384 520 418 505T477 464T516 402T530 324Q530 313 529 301T526 278L510 187Q502 143 484 106T438
43T373 3T290 -12ZM287 26Q359 26 404 70T463 193L478 278Q480 290 481 301T482 323Q482 396 440 439T330 482Q260 482 209 433T142 295L129 221Q126 204 126 190Q126 157 138 127T171 75T222 39T287 26Z" />
<glyph unicode="c" glyph-name="c" horiz-adv-x="561" d="M256 -12Q210 -12 173 2T108 43T67 105T52 184Q52 207 56 227L71 312Q88 412 143 466T297 520Q337 520 373 508T437 473T481 415T500 335H458Q454 401 410 441T295 482Q220 482 177 437T118 307L103 221Q101
212 100 201T99 182Q99 113 141 70T259 26Q293 26 321 37T370 67T406 113T429 168H472Q463 130 445 97T400 40T336 2T256 -12Z" />
<glyph unicode="d" glyph-name="d" horiz-adv-x="583" d="M242 -12Q196 -12 161 3T101 44T65 105T52 182Q52 204 57 232L72 317Q89 417 144 468T291 520Q330 520 360 508T413 477T451 435T472 389L532 730H580L451 0H405L422 99Q414 79 398 59T359 24T307 -2T242
-12ZM252 26Q285 26 316 39T372 75T414 132T439 204L452 278Q455 293 455 310Q455 344 443 375T410 430T358 468T293 482Q149 482 119 312L104 227Q102 214 101 202T99 177Q99 106 139 66T252 26Z" />
<glyph unicode="e" glyph-name="e" horiz-adv-x="551" d="M253 -12Q204 -12 167 3T105 46T66 108T53 185Q53 196 54 208T57 232L70 306Q87 404 142 462T299 520Q343 520 379 506T441 466T481 406T495 330Q495 320 494 309T491 288L481 232H103L102 226Q100 214
99 204T98 182Q98 110 140 67T256 24Q318 24 357 56T417 139H460Q449 106 431 79T387 31T327 0T253 -12ZM109 269H444L448 292Q450 301 450 311T451 331Q451 400 410 441T297 483Q218 483 174 436T116 306L109 269Z" />
<glyph unicode="f" glyph-name="f" horiz-adv-x="346" d="M81 0L164 470H84L91 508H170L187 605Q199 675 233 707T335 740Q358 740 380 735T414 723L407 686Q396 692 375 696T337 701Q288 701 267 679T235 603L218 508H359L352 470H212L129 0H81Z" />
<glyph unicode="g" glyph-name="g" horiz-adv-x="585" d="M236 -164Q204 -164 172 -156T111 -133T59 -96T23 -44H70Q80 -64 97 -79T137 -104T185 -120T238 -126Q312 -126 354 -90T408 16L427 125Q408 87 362 59T254 31Q210 31 175 46T114 87T74 150T60 228Q60
241 61 252T64 272L73 323Q90 420 144 470T292 520Q330 520 361 509T416 481T455 441T477 394L498 508H543L455 11Q441 -71 384 -117T236 -164ZM263 68Q298 68 328 80T383 113T423 165T446 232L456 289Q457 294 458 302T459 319Q459 353 447 383T412 435T359 470T295
483Q222 483 178 440T120 318L112 272Q110 260 109 250T108 229Q108 194 118 165T149 114T197 80T263 68Z" />
<glyph unicode="h" glyph-name="h" horiz-adv-x="580" d="M171 730H219L162 408Q188 458 236 489T351 520Q386 520 415 509T467 478T501 428T513 361Q513 349 512 339T509 318L453 0H405L461 318Q463 326 464 336T465 356Q465 415 430 447T334 479Q299 479 268
466T211 427T167 367T141 289L90 0H42L171 730Z" />
<glyph unicode="i" glyph-name="i" horiz-adv-x="232" d="M137 508Q149 505 162 505Q176 505 185 508L95 0H47L137 508ZM148 656Q148 673 158 684T187 695Q203 695 213 685T224 659Q224 642 213 632T185 621Q168 621 158 631T148 656Z" />
<glyph unicode="j" glyph-name="j" horiz-adv-x="232" d="M148 656Q148 673 158 684T187 695Q203 695 213 685T224 659Q224 642 213 632T185 621Q168 621 158 631T148 656ZM87 -46Q77 -103 50 -133T-29 -164Q-46 -164 -60 -162T-85 -156L-79 -118Q-71 -120 -60
-122T-34 -125Q-1 -125 15 -106T39 -46L137 508Q149 505 162 505Q176 505 185 508L87 -46Z" />
<glyph unicode="k" glyph-name="k" horiz-adv-x="492" d="M171 730H219L138 272L422 508H488L189 260L413 0H356L136 259L90 0H42L171 730Z" />
<glyph unicode="l" glyph-name="l" horiz-adv-x="232" d="M176 730H224L95 0H47L176 730Z" />
<glyph unicode="m" glyph-name="m" horiz-adv-x="931" d="M132 508H177L158 403Q184 457 231 488T346 520Q403 520 445 490T502 404Q535 459 584 489T703 520Q737 520 766 509T817 478T851 428T864 360Q864 349 863 338T860 318L804 0H756L812 318Q814 326 815
337T816 357Q816 415 783 447T689 479Q655 479 624 466T568 428T524 368T498 289L447 0H399L455 318Q457 326 458 337T459 357Q459 415 426 447T332 479Q298 479 267 466T211 428T167 368T141 289L90 0H42L132 508Z" />
<glyph unicode="n" glyph-name="n" horiz-adv-x="580" d="M132 508H177L158 403Q184 457 233 488T351 520Q386 520 415 509T467 478T501 428T513 361Q513 350 512 340T509 318L453 0H405L461 318Q463 326 464 337T465 356Q465 415 430 447T334 479Q301 479 270
466T212 428T168 368T141 289L90 0H42L132 508Z" />
<glyph unicode="o" glyph-name="o" horiz-adv-x="560" d="M70 305Q89 410 147 465T302 520Q348 520 386 505T451 464T492 401T507 322Q507 311 506 300T503 278L489 198Q481 151 462 112T414 46T347 3T261 -12Q213 -12 175 3T109 44T68 107T53 187Q53 209 57 232L70
305ZM457 283Q459 292 460 302T461 322Q461 357 450 386T417 437T367 470T301 482Q221 482 176 434T117 306L103 227Q101 215 100 205T99 185Q99 149 111 120T144 69T195 37T261 26Q337 26 382 73T442 199L457 283Z" />
<glyph unicode="p" glyph-name="p" horiz-adv-x="583" d="M341 520Q387 520 422 505T482 464T518 402T530 325Q530 312 529 299T525 272L510 187Q493 90 437 39T292 -12Q253 -12 223 -1T169 30T132 72T111 119L62 -154H14L132 508H178L161 409Q169 429 185 449T224
484T276 510T341 520ZM331 482Q298 482 267 470T211 434T169 378T144 306L131 232Q128 217 128 200Q128 167 140 136T173 80T225 41T291 26Q361 26 405 70T463 192L478 278Q480 290 481 303T482 327Q482 399 443 440T331 482Z" />
<glyph unicode="q" glyph-name="q" horiz-adv-x="582" d="M292 520Q330 520 360 509T414 480T452 438T473 391L494 508H540L423 -154H375L418 89Q408 70 392 52T353 20T302 -3T240 -12Q198 -12 164 3T105 44T67 106T53 184Q53 197 54 208T57 232L72 317Q80 362
98 399T143 464T208 505T292 520ZM295 482Q223 482 178 437T119 311L104 227Q102 215 101 204T100 181Q100 107 142 67T252 26Q322 26 373 76T440 214L452 283Q454 291 454 299T455 314Q455 347 443 377T410 431T360 468T295 482Z" />
<glyph unicode="r" glyph-name="r" horiz-adv-x="342" d="M357 464Q346 467 329 467Q257 467 206 417T136 261L90 0H42L132 508H177L154 373Q175 440 222 476T339 513Q347 513 354 513T366 510L357 464Z" />
<glyph unicode="s" glyph-name="s" horiz-adv-x="517" d="M238 -12Q193 -12 155 0T91 33T52 82T45 144L46 149H88L87 143Q82 116 92 95T124 58T176 34T242 25Q311 25 354 55T397 142Q397 169 383 188T330 219L198 258Q150 272 125 302T99 373Q99 407 113 434T152
481T210 510T282 520Q317 520 351 511T412 482T453 433T460 363L459 357H417L418 363Q423 394 413 416T382 454T335 476T279 483Q219 483 182 454T145 374Q145 342 162 324T215 296L348 256Q395 242 419 214T443 146Q443 109 428 80T386 30T321 -1T238 -12Z" />
<glyph unicode="t" glyph-name="t" horiz-adv-x="364" d="M167 470H74L81 508H174L200 654H248L222 508H362L355 470H215L156 136Q154 124 153 114T151 94Q151 61 167 45T219 29Q238 29 252 31T277 37L270 -1Q261 -5 244 -7T209 -10Q154 -10 129 17T103 91Q103
100 104 111T107 131L167 470Z" />
<glyph unicode="u" glyph-name="u" horiz-adv-x="576" d="M443 0H398L416 105Q393 55 344 22T225 -12Q191 -12 162 -1T112 31T79 81T67 149Q67 160 68 171T71 193L127 508H175L119 193Q117 179 116 170T115 150Q115 90 148 60T240 29Q273 29 304 42T362 81T407
141T434 221L485 508H533L443 0Z" />
<glyph unicode="v" glyph-name="v" horiz-adv-x="493" d="M78 508H125L212 49L450 508H502L231 0H179L78 508Z" />
<glyph unicode="w" glyph-name="w" horiz-adv-x="739" d="M82 508H128L171 58L387 508H437L501 58L698 508H746L517 0H469L405 455L185 0H136L82 508Z" />
<glyph unicode="x" glyph-name="x" horiz-adv-x="482" d="M218 261L90 508H137L247 295L432 508H486L268 256L402 0H354L238 222L46 0H-9L218 261Z" />
<glyph unicode="y" glyph-name="y" horiz-adv-x="493" d="M-2 -121Q8 -124 19 -126T44 -128Q77 -128 99 -110T143 -55L178 5L76 508H124L207 54L451 508H500L222 2L184 -65Q157 -113 126 -138T43 -164Q30 -164 17 -162T-8 -155L-2 -121Z" />
<glyph unicode="z" glyph-name="z" horiz-adv-x="490" d="M22 36L414 470H111L117 508H476L470 472L78 38H397L391 0H16L22 36Z" />
<glyph unicode="{" glyph-name="braceleft" horiz-adv-x="423" d="M250 -134Q190 -134 158 -104T125 -22Q125 -10 128 7L163 204Q165 214 165 229Q165 264 144 284T78 304H48L56 344H87Q140 344 168 365T204 435L242 652Q255 723 293 752T401 782H473L466 743H400Q348
743 323 719T289 646L251 430Q242 379 212 353T137 321Q173 314 193 290T213 229Q213 222 213 216T211 204L176 6Q174 -2 174 -8T173 -20Q173 -55 194 -75T261 -95H319L312 -134H250V-134Z" />
<glyph unicode="|" glyph-name="bar" horiz-adv-x="296" d="M223 800H265L97 -150H55L223 800Z" />
<glyph unicode="}" glyph-name="braceright" horiz-adv-x="424" d="M203 782Q263 782 295 752T328 670Q328 657 325 641L290 444Q289 439 289 433T288 419Q288 384 309 364T375 344H405L397 304H366Q313 304 285 283T249 213L211 -4Q198 -75 160 -104T52 -134H-20L-13
-95H53Q105 -95 130 -71T164 2L202 218Q211 271 239 296T316 327Q280 334 260 358T240 419Q240 426 240 432T242 444L277 642Q280 658 280 668Q280 703 259 723T192 743H134L141 782H203V782Z" />
<glyph unicode="~" glyph-name="asciitilde" horiz-adv-x="586" d="M541 414Q534 388 526 366T506 327T477 301T433 291Q412 291 382 307T320 341T257 376T206 392Q167 392 151 367T124 296L85 305Q98 367 124 398T205 429Q232 429 264 413T328 379T388 344T436
328Q452 328 462 336T480 358T492 389T502 424L541 414Z" />
<glyph unicode="&#xa0;" glyph-name="uni00A0" horiz-adv-x="220" />
<glyph unicode="&#xa1;" glyph-name="exclamdown" horiz-adv-x="244" d="M226 669Q226 651 216 640T185 628Q170 628 160 638T149 664Q149 682 160 694T190 706Q206 706 216 696T226 669ZM148 533Q154 531 165 531Q176 531 182 533L100 0H42L148 533Z" />
<glyph unicode="&#xa2;" glyph-name="cent" horiz-adv-x="579" d="M253 112Q218 116 189 131T138 171T104 227T92 298Q92 309 93 321T96 341L106 397Q122 487 181 538T335 590H336L356 700H386L366 588Q424 580 468 542T527 429H483Q472 480 440 510T359 547L289
152Q322 153 348 162T395 188T431 226T455 272H499Q490 240 471 211T425 160T361 125T282 111L263 0H233L253 112ZM138 297Q138 238 168 200T260 153L329 549Q262 548 215 512T153 397L143 341Q141 328 140 318T138 297Z" />
<glyph unicode="&#xa3;" glyph-name="sterling" horiz-adv-x="655" d="M38 39H162L211 314H102L108 353H217L247 522Q264 617 316 665T464 714Q500 714 531 703T586 670T623 621T637 558Q637 550 636 541T634 528L632 517H588L590 528Q591 532 592 540T593 555Q593
609 555 642T460 675Q388 675 348 636T294 516L265 353H487L482 314H258L210 39H518L512 0H33L38 39Z" />
<glyph unicode="&#xa4;" glyph-name="currency" horiz-adv-x="582" d="M375 173Q334 151 281 151Q220 151 178 187L101 97H51L152 216Q126 253 126 303Q126 318 129 335L140 398Q152 469 195 507L143 613H190L230 530Q267 548 318 548Q348 548 375 538T424 511L496
597H547L451 483Q463 466 470 445T477 399Q477 384 474 368L463 306Q451 238 408 197L464 86H419L375 173ZM286 186Q343 186 378 217T422 301L434 369Q435 373 436 382T437 396Q437 446 404 479T314 513Q259 513 225 483T180 397L169 335Q166 318 166 305Q166 252
198 219T286 186Z" />
<glyph unicode="&#xa5;" glyph-name="yen" horiz-adv-x="567" d="M108 396H233L140 700H188L296 333L531 700H582L384 396H513L507 360H361L314 288L301 218H481L475 183H295L263 0H215L247 183H70L77 218H253L266 288L244 360H102L108 396Z" />
<glyph unicode="&#xa6;" glyph-name="brokenbar" horiz-adv-x="296" d="M122 228H164L97 -150H55L122 228ZM223 800H265L198 422H156L223 800Z" />
<glyph unicode="&#xa7;" glyph-name="section" horiz-adv-x="602" d="M251 -124Q216 -124 184 -115T125 -89T84 -46T68 14Q68 20 68 27T70 39L71 45H113L112 39Q111 34 111 28T110 17Q110 -11 121 -31T153 -64T199 -83T256 -89Q322 -89 361 -53T400 39Q400 71
384 94T339 129L179 194Q137 211 116 242T94 316Q94 344 103 368T126 411T158 446T197 473Q175 503 175 545Q175 584 189 615T228 668T290 702T370 714Q403 714 435 705T493 679T533 635T549 575Q549 569 549 562T547 550L546 544H505L506 550Q507 555 507 560T508
570Q508 596 496 616T465 651T420 672T367 679Q336 679 309 670T262 645T231 604T219 549Q219 516 234 496T281 462L435 395Q524 356 524 271Q524 242 516 218T493 173T462 138T425 110Q444 80 444 43Q444 5 429 -26T388 -78T326 -112T251 -124ZM353 167Q380 157
402 136Q415 145 429 157T454 186T473 222T481 267Q481 296 465 321T414 361L266 424Q239 435 221 449Q189 429 164 397T138 320Q138 254 201 229L353 167Z" />
<glyph unicode="&#xa8;" glyph-name="dieresis" horiz-adv-x="446" d="M146 644Q146 660 156 671T184 682Q199 682 209 673T220 649Q220 632 209 621T181 610Q166 610 156 620T146 644ZM348 644Q348 660 358 671T386 682Q401 682 411 673T422 649Q422 632 411
621T383 610Q368 610 358 620T348 644Z" />
<glyph unicode="&#xa9;" glyph-name="copyright" horiz-adv-x="872" d="M344 320Q344 266 371 231T455 195Q503 195 528 221T559 284H589Q586 261 576 240T549 203T508 178T455 168Q420 168 394 180T349 212T322 260T313 319V381Q313 412 322 439T349 487T393
520T455 532Q484 532 507 523T548 497T576 460T589 416H559Q553 453 528 479T455 505Q398 505 371 470T344 380V320ZM453 -12Q371 -12 305 17T191 95T118 210T92 350Q92 423 117 489T190 604T304 683T453 712Q535 712 601 683T715 605T788 489T814 350Q814 276
789 211T716 96T602 17T453 -12ZM453 0Q532 0 596 28T705 105T774 216T799 350Q799 420 775 483T705 595T596 671T453 700Q373 700 309 672T200 595T131 484T107 350Q107 280 131 217T200 105T309 29T453 0Z" />
<glyph unicode="&#xaa;" glyph-name="ordfeminine" horiz-adv-x="420" d="M79 301H357L352 273H74L79 301ZM334 381L343 433Q330 411 296 393T217 374Q170 374 142 398T113 461Q113 514 148 540T246 567Q281 567 309 559T360 537L369 590Q370 595 370 599T371
607Q371 640 350 660T291 681Q251 681 228 666T190 625H159Q178 666 210 687T294 708Q342 708 373 680T404 607Q404 602 404 597T402 586L366 381H334ZM225 398Q245 398 265 404T304 423T334 451T351 488L356 516Q312 543 248 543Q228 543 210 539T177 526T155
502T146 463Q146 435 164 417T225 398Z" />
<glyph unicode="&#xab;" glyph-name="guillemotleft" horiz-adv-x="584" d="M44 271L253 480H311L98 265L237 60H183L44 271ZM294 271L503 480H561L348 265L487 60H433L294 271Z" />
<glyph unicode="&#xac;" glyph-name="logicalnot" horiz-adv-x="587" d="M475 341H79L85 379H524L480 130H438L475 341Z" />
<glyph unicode="&#xae;" glyph-name="registered" horiz-adv-x="385" d="M236 442Q206 442 181 452T138 481T111 523T101 576Q101 604 110 628T138 671T181 699T236 710Q267 710 292 700T335 671T362 629T372 576Q372 548 363 524T335 481T292 453T236 442ZM236
450Q265 450 288 460T328 488T353 528T362 576Q362 601 354 624T329 664T289 692T236 702Q207 702 184 692T145 665T119 624T110 576Q110 551 119 528T144 488T184 461T236 450ZM242 565H213V521H200V637H245Q264 637 274 627T284 601Q284 572 255 566L282 521H267L242
565ZM240 575Q257 575 264 582T271 601Q271 612 264 619T240 627H213V575H240Z" />
<glyph unicode="&#xaf;" glyph-name="macron" horiz-adv-x="485" d="M164 665H455L449 627H158L164 665Z" />
<glyph unicode="&#xb0;" glyph-name="degree" horiz-adv-x="441" d="M258 447Q287 447 309 457T347 485T371 526T379 575Q379 596 372 616T352 651T319 675T274 684Q216 684 185 648T153 556Q153 511 181 479T258 447ZM256 421Q227 421 203 432T161 461T133 504T123
556Q123 589 133 617T162 666T210 698T276 710Q304 710 328 700T371 671T399 629T409 577Q409 547 399 519T370 469T322 434T256 421Z" />
<glyph unicode="&#xb1;" glyph-name="plusminus" horiz-adv-x="618" d="M304 347H106L112 385H310L347 590H389L353 385H551L545 347H347L310 142H268L304 347ZM51 37H490L484 0H45L51 37Z" />
<glyph unicode="&#xb2;" glyph-name="twosuperior" horiz-adv-x="417" d="M117 495L322 666Q342 683 357 701T373 746Q373 775 351 794T291 813Q253 813 230 795T199 738L198 732H164L165 738Q174 790 207 817T294 844Q345 844 377 817T410 749Q410 713 390 688T345
642L167 497H365L361 467H113L117 495Z" />
<glyph unicode="&#xb3;" glyph-name="threesuperior" horiz-adv-x="418" d="M207 641L211 671H266Q284 671 301 676T331 692T353 717T361 751Q361 780 342 797T284 814Q255 814 232 800T198 751H163Q175 799 208 821T289 843Q339 843 368 818T398 753Q398 716
374 691T312 655Q344 649 361 628T379 577Q379 550 368 529T338 492T294 469T242 461Q189 461 154 487T121 566H154Q155 528 177 509T242 490Q283 490 313 511T343 577Q343 604 324 622T267 641H207Z" />
<glyph unicode="&#xb4;" glyph-name="acute" horiz-adv-x="337" d="M164 583Q199 621 223 654T268 719H329Q297 676 270 645T211 583H164Z" />
<glyph unicode="&#xb5;" glyph-name="mu" horiz-adv-x="580" d="M448 0H403L421 105Q398 55 349 22T230 -12Q188 -12 151 7T100 64L59 -174H11L132 508H180L124 193Q122 179 121 170T120 150Q120 90 153 60T245 29Q278 29 309 42T367 81T412 141T439 221L490 508H538L448
0Z" />
<glyph unicode="&#xb6;" glyph-name="paragraph" horiz-adv-x="564" d="M498 668H383L301 207Q251 207 212 223T146 267T104 335T89 419Q89 556 167 628T388 700H540L386 -174H350L498 668Z" />
<glyph unicode="&#xb7;" glyph-name="periodcentered" horiz-adv-x="222" d="M75 292Q75 310 85 321T116 333Q131 333 141 323T152 297Q152 279 141 267T111 255Q95 255 85 265T75 292Z" />
<glyph unicode="&#xb8;" glyph-name="cedilla" horiz-adv-x="354" d="M113 -186Q74 -186 49 -180L52 -148Q79 -154 109 -154Q136 -154 153 -145T171 -118Q171 -101 158 -94T121 -85L76 -80L100 0H132L118 -53L145 -56Q167 -58 187 -72T208 -114Q208 -149 182 -167T113
-186Z" />
<glyph unicode="&#xb9;" glyph-name="onesuperior" horiz-adv-x="303" d="M232 799Q214 789 184 779T132 762L137 793Q159 800 186 810T243 837H275L210 467H173L232 799Z" />
<glyph unicode="&#xba;" glyph-name="ordmasculine" horiz-adv-x="443" d="M95 301H361L356 273H90L95 301ZM405 504Q394 445 357 409T256 373Q228 373 204 383T163 411T136 453T126 505Q126 522 129 539L135 573Q146 639 184 674T288 709Q317 709 340 699T380
671T406 629T415 578Q415 568 415 562T413 549L405 504ZM380 549Q381 554 381 560T382 575Q382 596 376 615T358 648T328 672T285 681Q235 681 206 651T168 573L161 533Q160 528 160 522T159 508Q159 487 165 468T183 433T215 410T259 401Q307 401 335 429T372
504L380 549Z" />
<glyph unicode="&#xbb;" glyph-name="guillemotright" horiz-adv-x="584" d="M548 269L339 60H281L494 275L355 480H409L548 269ZM298 269L89 60H31L244 275L105 480H159L298 269Z" />
<glyph unicode="&#xbc;" glyph-name="onequarter" horiz-adv-x="780" d="M610 700H650L163 0H123L610 700ZM403 116L629 370H673L629 118H678L674 90H624L608 0H574L590 90H398L403 116ZM595 118L634 340L440 118H595ZM232 662Q214 652 184 642T132 625L137 656Q159
663 186 673T243 700H275L210 330H173L232 662Z" />
<glyph unicode="&#xbd;" glyph-name="onehalf" horiz-adv-x="801" d="M430 28L635 199Q655 216 670 234T686 279Q686 308 664 327T604 346Q566 346 543 328T512 271L511 265H477L478 271Q487 323 520 350T607 377Q658 377 690 350T723 282Q723 246 703 221T658
175L480 30H678L674 0H426L430 28ZM608 700H648L161 0H121L608 700ZM232 662Q214 652 184 642T132 625L137 656Q159 663 186 673T243 700H275L210 330H173L232 662Z" />
<glyph unicode="&#xbe;" glyph-name="threequarters" horiz-adv-x="853" d="M679 700H719L232 0H192L679 700ZM472 116L698 370H742L698 118H747L743 90H693L677 0H643L659 90H467L472 116ZM664 118L703 340L509 118H664ZM200 504L204 534H259Q277 534 294 539T324
555T346 580T354 614Q354 643 335 660T277 677Q248 677 225 663T191 614H156Q168 662 201 684T282 706Q332 706 361 681T391 616Q391 579 367 554T305 518Q337 512 354 491T372 440Q372 413 361 392T331 355T287 332T235 324Q182 324 147 350T114 429H147Q148 391
170 372T235 353Q276 353 306 374T336 440Q336 467 317 485T260 504H200Z" />
<glyph unicode="&#xbf;" glyph-name="questiondown" horiz-adv-x="496" d="M340 496Q333 457 325 429T304 381T276 345T238 315L178 275Q139 249 112 217T84 140Q84 114 95 93T124 56T168 33T221 25Q292 25 329 59T378 159L381 175H427L424 158Q409 73 359 30T216
-14Q179 -14 146 -3T89 29T50 76T36 137Q36 192 63 229T135 295L203 341Q226 356 241 371T266 404T284 446T297 502L304 541Q309 540 314 540T325 539Q338 539 348 541L340 496ZM383 669Q383 651 373 640T342 628Q327 628 317 638T306 664Q306 682 317 694T347
706Q363 706 373 696T383 669Z" />
<glyph unicode="&#xc0;" glyph-name="Agrave" horiz-adv-x="657" d="M381 700H432L568 0H520L483 200H159L53 0H0L381 700ZM180 240H476L401 655L180 240ZM380 763Q363 789 346 822T317 882H370Q378 859 392 828T423 763H380Z" />
<glyph unicode="&#xc1;" glyph-name="Aacute" horiz-adv-x="657" d="M381 700H432L568 0H520L483 200H159L53 0H0L381 700ZM180 240H476L401 655L180 240ZM398 763Q424 791 448 822T490 882H548Q520 845 496 817T445 763H398Z" />
<glyph unicode="&#xc2;" glyph-name="Acircumflex" horiz-adv-x="657" d="M381 700H432L568 0H520L483 200H159L53 0H0L381 700ZM180 240H476L401 655L180 240ZM406 882H453L545 763H498L428 853L325 763H274L406 882Z" />
<glyph unicode="&#xc3;" glyph-name="Atilde" horiz-adv-x="657" d="M381 700H432L568 0H520L483 200H159L53 0H0L381 700ZM180 240H476L401 655L180 240ZM244 777Q262 825 283 849T347 874Q369 874 392 863T437 840T477 816T510 805Q523 805 532 812T547 830T558
854T568 878L603 866Q597 849 590 832T571 800T545 778T509 769Q489 769 468 780T427 803T386 827T348 838Q319 838 305 818T278 765L244 777Z" />
<glyph unicode="&#xc4;" glyph-name="Adieresis" horiz-adv-x="657" d="M381 700H432L568 0H520L483 200H159L53 0H0L381 700ZM180 240H476L401 655L180 240ZM269 815Q269 831 279 842T307 853Q322 853 332 844T343 820Q343 803 332 792T304 781Q289 781 279 791T269
815ZM496 815Q496 831 506 842T534 853Q549 853 559 844T570 820Q570 803 559 792T531 781Q516 781 506 791T496 815Z" />
<glyph unicode="&#xc5;" glyph-name="Aring" horiz-adv-x="657" d="M371 681Q352 691 342 708T331 748Q331 786 354 809T419 832Q453 832 476 812T499 757Q499 729 483 706T437 675L568 0H520L483 200H159L53 0H0L371 681ZM180 240H476L401 655L180 240ZM414 700Q440
700 453 716T467 757Q467 776 456 790T418 805Q392 805 377 790T362 748Q362 727 375 714T414 700Z" />
<glyph unicode="&#xc6;" glyph-name="AE" horiz-adv-x="1024" d="M508 199H197L27 0H-32L571 700H1039L1033 659H638L588 376H953L946 335H581L529 41H925L917 0H473L508 199ZM515 241L588 656L233 241H515Z" />
<glyph unicode="&#xc7;" glyph-name="Ccedilla" horiz-adv-x="695" d="M300 -186Q261 -186 236 -180L239 -148Q266 -154 296 -154Q323 -154 340 -145T358 -118Q358 -101 345 -94T308 -85L263 -80L284 -10Q235 -3 197 19T131 75T90 152T76 246Q76 277 82 312L103
431Q127 567 198 640T397 714Q450 714 495 699T573 653T627 579T653 477H607Q598 570 544 621T395 673Q288 673 230 610T152 431L131 312Q128 295 127 279T125 245Q125 197 137 157T175 88T240 43T331 27Q379 27 418 43T486 86T534 148T564 223H610Q599 175 576
132T516 56T433 5T330 -14H315L305 -53L332 -56Q354 -58 374 -72T395 -114Q395 -149 369 -167T300 -186Z" />
<glyph unicode="&#xc8;" glyph-name="Egrave" horiz-adv-x="603" d="M175 700H618L612 659H217L167 376H532L525 335H160L108 41H504L496 0H52L175 700ZM370 763Q353 789 336 822T307 882H360Q368 859 382 828T413 763H370Z" />
<glyph unicode="&#xc9;" glyph-name="Eacute" horiz-adv-x="603" d="M175 700H618L612 659H217L167 376H532L525 335H160L108 41H504L496 0H52L175 700ZM366 763Q392 791 416 822T458 882H516Q488 845 464 817T413 763H366Z" />
<glyph unicode="&#xca;" glyph-name="Ecircumflex" horiz-adv-x="603" d="M175 700H618L612 659H217L167 376H532L525 335H160L108 41H504L496 0H52L175 700ZM404 882H451L543 763H496L426 853L323 763H272L404 882Z" />
<glyph unicode="&#xcb;" glyph-name="Edieresis" horiz-adv-x="603" d="M175 700H618L612 659H217L167 376H532L525 335H160L108 41H504L496 0H52L175 700ZM262 815Q262 831 272 842T300 853Q315 853 325 844T336 820Q336 803 325 792T297 781Q282 781 272 791T262
815ZM489 815Q489 831 499 842T527 853Q542 853 552 844T563 820Q563 803 552 792T524 781Q509 781 499 791T489 815Z" />
<glyph unicode="&#xcc;" glyph-name="Igrave" horiz-adv-x="253" d="M180 700H229L106 0H57L180 700ZM442 763Q425 789 408 822T379 882H432Q440 859 454 828T485 763H442Z" />
<glyph unicode="&#xcd;" glyph-name="Iacute" horiz-adv-x="253" d="M180 700H229L106 0H57L180 700ZM193 763Q219 791 243 822T285 882H343Q315 845 291 817T240 763H193Z" />
<glyph unicode="&#xce;" glyph-name="Icircumflex" horiz-adv-x="253" d="M180 700H229L106 0H57L180 700ZM464 882H511L603 763H556L486 853L383 763H332L464 882Z" />
<glyph unicode="&#xcf;" glyph-name="Idieresis" horiz-adv-x="253" d="M180 700H229L106 0H57L180 700ZM327 815Q327 831 337 842T365 853Q380 853 390 844T401 820Q401 803 390 792T362 781Q347 781 337 791T327 815ZM554 815Q554 831 564 842T592 853Q607 853
617 844T628 820Q628 803 617 792T589 781Q574 781 564 791T554 815Z" />
<glyph unicode="&#xd0;" glyph-name="Eth" horiz-adv-x="721" d="M59 370H150L208 700H451Q504 700 546 683T619 635T665 563T681 472Q681 460 680 446T676 420L647 256Q637 198 614 151T554 71T464 19T342 0H85L143 330H52L59 370ZM340 41Q451 41 515 97T598
256L627 420Q629 432 630 445T632 469Q632 510 620 544T583 604T522 644T440 659H250L199 370H393L386 330H192L141 41H340Z" />
<glyph unicode="&#xd1;" glyph-name="Ntilde" horiz-adv-x="706" d="M175 700H221L528 74L639 700H687L564 0H518L210 624L100 0H52L175 700ZM266 777Q284 825 305 849T369 874Q391 874 414 863T459 840T499 816T532 805Q545 805 554 812T569 830T580 854T590
878L625 866Q619 849 612 832T593 800T567 778T531 769Q511 769 490 780T449 803T408 827T370 838Q341 838 327 818T300 765L266 777Z" />
<glyph unicode="&#xd2;" glyph-name="Ograve" horiz-adv-x="713" d="M103 431Q127 566 200 640T405 714Q466 714 514 694T596 639T648 555T666 450Q666 436 665 419T660 386L640 273Q629 211 605 159T544 68T455 8T339 -14Q278 -14 230 6T147 62T95 147T77 253Q77
269 79 286T83 318L103 431ZM613 392Q615 406 616 419T618 449Q618 497 604 538T561 609T493 656T402 673Q346 673 304 655T230 605T180 527T150 426L131 318Q128 300 127 286T125 255Q125 207 139 166T180 93T247 45T342 27Q394 27 436 45T510 97T562 175T592
273L613 392ZM407 763Q390 789 373 822T344 882H397Q405 859 419 828T450 763H407Z" />
<glyph unicode="&#xd3;" glyph-name="Oacute" horiz-adv-x="713" d="M103 431Q127 566 200 640T405 714Q466 714 514 694T596 639T648 555T666 450Q666 436 665 419T660 386L640 273Q629 211 605 159T544 68T455 8T339 -14Q278 -14 230 6T147 62T95 147T77 253Q77
269 79 286T83 318L103 431ZM613 392Q615 406 616 419T618 449Q618 497 604 538T561 609T493 656T402 673Q346 673 304 655T230 605T180 527T150 426L131 318Q128 300 127 286T125 255Q125 207 139 166T180 93T247 45T342 27Q394 27 436 45T510 97T562 175T592
273L613 392ZM410 763Q436 791 460 822T502 882H560Q532 845 508 817T457 763H410Z" />
<glyph unicode="&#xd4;" glyph-name="Ocircumflex" horiz-adv-x="713" d="M103 431Q127 566 200 640T405 714Q466 714 514 694T596 639T648 555T666 450Q666 436 665 419T660 386L640 273Q629 211 605 159T544 68T455 8T339 -14Q278 -14 230 6T147 62T95 147T77
253Q77 269 79 286T83 318L103 431ZM613 392Q615 406 616 419T618 449Q618 497 604 538T561 609T493 656T402 673Q346 673 304 655T230 605T180 527T150 426L131 318Q128 300 127 286T125 255Q125 207 139 166T180 93T247 45T342 27Q394 27 436 45T510 97T562 175T592
273L613 392ZM434 882H481L573 763H526L456 853L353 763H302L434 882Z" />
<glyph unicode="&#xd5;" glyph-name="Otilde" horiz-adv-x="713" d="M103 431Q127 566 200 640T405 714Q466 714 514 694T596 639T648 555T666 450Q666 436 665 419T660 386L640 273Q629 211 605 159T544 68T455 8T339 -14Q278 -14 230 6T147 62T95 147T77 253Q77
269 79 286T83 318L103 431ZM613 392Q615 406 616 419T618 449Q618 497 604 538T561 609T493 656T402 673Q346 673 304 655T230 605T180 527T150 426L131 318Q128 300 127 286T125 255Q125 207 139 166T180 93T247 45T342 27Q394 27 436 45T510 97T562 175T592
273L613 392ZM268 777Q286 825 307 849T371 874Q393 874 416 863T461 840T501 816T534 805Q547 805 556 812T571 830T582 854T592 878L627 866Q621 849 614 832T595 800T569 778T533 769Q513 769 492 780T451 803T410 827T372 838Q343 838 329 818T302 765L268
777Z" />
<glyph unicode="&#xd6;" glyph-name="Odieresis" horiz-adv-x="713" d="M103 431Q127 566 200 640T405 714Q466 714 514 694T596 639T648 555T666 450Q666 436 665 419T660 386L640 273Q629 211 605 159T544 68T455 8T339 -14Q278 -14 230 6T147 62T95 147T77
253Q77 269 79 286T83 318L103 431ZM613 392Q615 406 616 419T618 449Q618 497 604 538T561 609T493 656T402 673Q346 673 304 655T230 605T180 527T150 426L131 318Q128 300 127 286T125 255Q125 207 139 166T180 93T247 45T342 27Q394 27 436 45T510 97T562 175T592
273L613 392ZM296 815Q296 831 306 842T334 853Q349 853 359 844T370 820Q370 803 359 792T331 781Q316 781 306 791T296 815ZM523 815Q523 831 533 842T561 853Q576 853 586 844T597 820Q597 803 586 792T558 781Q543 781 533 791T523 815Z" />
<glyph unicode="&#xd7;" glyph-name="multiply" horiz-adv-x="560" d="M276 363L137 532L168 560L307 389L504 557L530 525L334 358L476 182L445 155L303 333L109 167L83 199L276 363Z" />
<glyph unicode="&#xd8;" glyph-name="Oslash" horiz-adv-x="713" d="M103 431Q127 566 200 640T405 714Q464 714 510 695T591 643L680 750H724L614 617Q639 583 652 541T666 450Q666 436 665 419T660 386L640 273Q629 211 605 159T544 68T455 8T339 -14Q279 -14
232 5T151 58L62 -50H18L129 84Q77 153 77 253Q77 269 79 286T83 318L103 431ZM125 255Q125 176 159 120L562 607Q534 638 494 655T402 673Q346 673 304 655T230 605T180 527T150 426L131 318Q128 300 127 286T125 255ZM613 392Q615 406 616 419T618 449Q618 486
610 519T583 579L180 92Q207 61 247 44T342 27Q394 27 436 45T510 97T562 175T592 273L613 392Z" />
<glyph unicode="&#xd9;" glyph-name="Ugrave" horiz-adv-x="698" d="M320 -14Q271 -14 228 1T153 43T102 108T83 193Q83 203 84 214T87 233L169 700H218L136 232Q134 224 133 215T132 194Q132 155 147 124T187 72T248 39T323 27Q417 27 476 79T552 221L636 700H685L601
221Q592 167 569 124T509 50T426 3T320 -14ZM412 763Q395 789 378 822T349 882H402Q410 859 424 828T455 763H412Z" />
<glyph unicode="&#xda;" glyph-name="Uacute" horiz-adv-x="698" d="M320 -14Q271 -14 228 1T153 43T102 108T83 193Q83 203 84 214T87 233L169 700H218L136 232Q134 224 133 215T132 194Q132 155 147 124T187 72T248 39T323 27Q417 27 476 79T552 221L636 700H685L601
221Q592 167 569 124T509 50T426 3T320 -14ZM392 763Q418 791 442 822T484 882H542Q514 845 490 817T439 763H392Z" />
<glyph unicode="&#xdb;" glyph-name="Ucircumflex" horiz-adv-x="698" d="M320 -14Q271 -14 228 1T153 43T102 108T83 193Q83 203 84 214T87 233L169 700H218L136 232Q134 224 133 215T132 194Q132 155 147 124T187 72T248 39T323 27Q417 27 476 79T552 221L636
700H685L601 221Q592 167 569 124T509 50T426 3T320 -14ZM429 882H476L568 763H521L451 853L348 763H297L429 882Z" />
<glyph unicode="&#xdc;" glyph-name="Udieresis" horiz-adv-x="698" d="M320 -14Q271 -14 228 1T153 43T102 108T83 193Q83 203 84 214T87 233L169 700H218L136 232Q134 224 133 215T132 194Q132 155 147 124T187 72T248 39T323 27Q417 27 476 79T552 221L636
700H685L601 221Q592 167 569 124T509 50T426 3T320 -14ZM290 815Q290 831 300 842T328 853Q343 853 353 844T364 820Q364 803 353 792T325 781Q310 781 300 791T290 815ZM517 815Q517 831 527 842T555 853Q570 853 580 844T591 820Q591 803 580 792T552 781Q537
781 527 791T517 815Z" />
<glyph unicode="&#xdd;" glyph-name="Yacute" horiz-adv-x="581" d="M269 272L94 700H142L299 315L585 700H642L317 268L270 0H221L269 272ZM329 763Q355 791 379 822T421 882H479Q451 845 427 817T376 763H329Z" />
<glyph unicode="&#xde;" glyph-name="Thorn" horiz-adv-x="624" d="M175 700H224L203 578H416Q460 578 495 563T555 521T593 461T606 389Q606 338 587 294T534 216T450 163T341 144H126L101 0H52L175 700ZM340 185Q391 185 431 200T499 243T542 307T557 386Q557
415 548 442T519 491T471 524T403 537H195L133 185H340Z" />
<glyph unicode="&#xdf;" glyph-name="germandbls" horiz-adv-x="584" d="M139 550Q156 647 212 690T356 734Q397 734 432 721T493 685T533 631T548 561Q548 487 503 440T383 369Q412 364 438 350T483 315T514 265T525 204Q525 160 508 123T460 58T385 16T286 0H245L251
38H286Q331 38 366 50T427 85T465 137T478 202Q478 233 467 260T434 306T384 337T320 348H306L313 387Q351 390 385 403T444 439T485 490T500 556Q500 586 489 611T458 655T411 684T350 695Q287 695 244 661T187 549L90 0H42L139 550Z" />
<glyph unicode="&#xe0;" glyph-name="agrave" horiz-adv-x="553" d="M384 0L397 77Q386 60 368 44T325 16T270 -4T205 -12Q162 -12 130 -2T76 27T43 71T32 126Q32 173 49 205T95 257T165 285T251 294Q307 294 353 279T425 244L442 340Q448 371 441 397T417 442T373
471T311 482Q251 482 210 457T145 387H101Q130 450 181 485T318 520Q357 520 389 509T444 478T480 431T493 371Q493 355 490 339L430 0H384ZM219 19Q250 19 282 28T340 56T385 100T410 158L420 215Q391 235 350 248T257 262Q223 262 191 257T133 236T93 196T78
130Q78 79 112 49T219 19ZM305 583Q286 612 267 649T234 719H288Q297 691 312 656T348 583H305Z" />
<glyph unicode="&#xe1;" glyph-name="aacute" horiz-adv-x="553" d="M384 0L397 77Q386 60 368 44T325 16T270 -4T205 -12Q162 -12 130 -2T76 27T43 71T32 126Q32 173 49 205T95 257T165 285T251 294Q307 294 353 279T425 244L442 340Q448 371 441 397T417 442T373
471T311 482Q251 482 210 457T145 387H101Q130 450 181 485T318 520Q357 520 389 509T444 478T480 431T493 371Q493 355 490 339L430 0H384ZM219 19Q250 19 282 28T340 56T385 100T410 158L420 215Q391 235 350 248T257 262Q223 262 191 257T133 236T93 196T78
130Q78 79 112 49T219 19ZM307 583Q342 621 366 654T411 719H472Q440 676 413 645T354 583H307Z" />
<glyph unicode="&#xe2;" glyph-name="acircumflex" horiz-adv-x="553" d="M384 0L397 77Q386 60 368 44T325 16T270 -4T205 -12Q162 -12 130 -2T76 27T43 71T32 126Q32 173 49 205T95 257T165 285T251 294Q307 294 353 279T425 244L442 340Q448 371 441 397T417
442T373 471T311 482Q251 482 210 457T145 387H101Q130 450 181 485T318 520Q357 520 389 509T444 478T480 431T493 371Q493 355 490 339L430 0H384ZM219 19Q250 19 282 28T340 56T385 100T410 158L420 215Q391 235 350 248T257 262Q223 262 191 257T133 236T93
196T78 130Q78 79 112 49T219 19ZM342 719H387L472 583H428L363 688L262 583H212L342 719Z" />
<glyph unicode="&#xe3;" glyph-name="atilde" horiz-adv-x="553" d="M384 0L397 77Q386 60 368 44T325 16T270 -4T205 -12Q162 -12 130 -2T76 27T43 71T32 126Q32 173 49 205T95 257T165 285T251 294Q307 294 353 279T425 244L442 340Q448 371 441 397T417 442T373
471T311 482Q251 482 210 457T145 387H101Q130 450 181 485T318 520Q357 520 389 509T444 478T480 431T493 371Q493 355 490 339L430 0H384ZM219 19Q250 19 282 28T340 56T385 100T410 158L420 215Q391 235 350 248T257 262Q223 262 191 257T133 236T93 196T78
130Q78 79 112 49T219 19ZM172 602Q186 645 209 672T275 700Q297 700 317 689T356 666T391 642T422 631Q435 631 444 637T460 654T472 678T483 704L515 693Q510 677 503 660T484 629T458 605T421 595Q402 595 384 606T348 629T312 653T276 664Q247 664 232 643T205
591L172 602Z" />
<glyph unicode="&#xe4;" glyph-name="adieresis" horiz-adv-x="553" d="M384 0L397 77Q386 60 368 44T325 16T270 -4T205 -12Q162 -12 130 -2T76 27T43 71T32 126Q32 173 49 205T95 257T165 285T251 294Q307 294 353 279T425 244L442 340Q448 371 441 397T417
442T373 471T311 482Q251 482 210 457T145 387H101Q130 450 181 485T318 520Q357 520 389 509T444 478T480 431T493 371Q493 355 490 339L430 0H384ZM219 19Q250 19 282 28T340 56T385 100T410 158L420 215Q391 235 350 248T257 262Q223 262 191 257T133 236T93
196T78 130Q78 79 112 49T219 19ZM210 644Q210 660 220 671T248 682Q263 682 273 673T284 649Q284 632 273 621T245 610Q230 610 220 620T210 644ZM412 644Q412 660 422 671T450 682Q465 682 475 673T486 649Q486 632 475 621T447 610Q432 610 422 620T412 644Z"
/>
<glyph unicode="&#xe5;" glyph-name="aring" horiz-adv-x="553" d="M384 0L397 77Q386 60 368 44T325 16T270 -4T205 -12Q162 -12 130 -2T76 27T43 71T32 126Q32 173 49 205T95 257T165 285T251 294Q307 294 353 279T425 244L442 340Q448 371 441 397T417 442T373
471T311 482Q251 482 210 457T145 387H101Q130 450 181 485T318 520Q357 520 389 509T444 478T480 431T493 371Q493 355 490 339L430 0H384ZM219 19Q250 19 282 28T340 56T385 100T410 158L420 215Q391 235 350 248T257 262Q223 262 191 257T133 236T93 196T78
130Q78 79 112 49T219 19ZM348 611Q374 611 387 627T401 668Q401 687 390 701T352 716Q326 716 311 701T296 659Q296 638 309 625T348 611ZM347 583Q311 583 288 604T265 659Q265 697 288 720T353 743Q387 743 410 723T433 668Q433 635 411 609T347 583Z" />
<glyph unicode="&#xe6;" glyph-name="ae" horiz-adv-x="919" d="M621 -12Q549 -12 502 22T435 107Q426 86 408 65T364 27T302 -1T224 -12Q180 -12 145 -1T85 30T46 79T32 143Q32 184 48 215T91 266T156 297T238 308Q268 308 296 302T349 286T392 264T425 239L441
334Q443 343 443 350T443 362Q443 416 408 449T312 482Q202 482 156 387H111Q139 452 189 486T316 520Q372 520 416 493T479 418Q507 468 553 494T667 520Q711 520 747 506T809 466T849 406T863 330Q863 322 862 311T859 288L849 232H471L470 226Q466 203 466 182Q466
110 508 67T624 24Q686 24 725 56T785 139H828Q817 106 799 79T755 31T695 0T621 -12ZM76 144Q76 85 117 54T230 23Q264 23 294 33T349 61T389 100T409 147L418 198Q404 213 383 227T337 251T286 267T236 273Q202 273 173 266T122 242T88 202T76 144ZM477 269H812L816
292Q819 311 819 331Q819 400 778 441T665 483Q586 483 544 438T484 306L477 269Z" />
<glyph unicode="&#xe7;" glyph-name="ccedilla" horiz-adv-x="561" d="M219 -186Q180 -186 155 -180L158 -148Q185 -154 215 -154Q242 -154 259 -145T277 -118Q277 -101 264 -94T227 -85L182 -80L204 -7Q133 7 93 58T52 184Q52 207 56 227L71 312Q88 412 143 466T297
520Q337 520 373 508T437 473T481 415T500 335H458Q454 401 410 441T295 482Q220 482 177 437T118 307L103 221Q101 212 100 201T99 182Q99 113 141 70T259 26Q293 26 321 37T370 67T406 113T429 168H472Q463 130 445 97T400 40T336 2T256 -12Q251 -12 246 -12T235
-11L224 -53L251 -56Q273 -58 293 -72T314 -114Q314 -149 288 -167T219 -186Z" />
<glyph unicode="&#xe8;" glyph-name="egrave" horiz-adv-x="551" d="M253 -12Q204 -12 167 3T105 46T66 108T53 185Q53 196 54 208T57 232L70 306Q87 404 142 462T299 520Q343 520 379 506T441 466T481 406T495 330Q495 320 494 309T491 288L481 232H103L102 226Q100
214 99 204T98 182Q98 110 140 67T256 24Q318 24 357 56T417 139H460Q449 106 431 79T387 31T327 0T253 -12ZM109 269H444L448 292Q450 301 450 311T451 331Q451 400 410 441T297 483Q218 483 174 436T116 306L109 269ZM290 583Q271 612 252 649T219 719H273Q282
691 297 656T333 583H290Z" />
<glyph unicode="&#xe9;" glyph-name="eacute" horiz-adv-x="551" d="M253 -12Q204 -12 167 3T105 46T66 108T53 185Q53 196 54 208T57 232L70 306Q87 404 142 462T299 520Q343 520 379 506T441 466T481 406T495 330Q495 320 494 309T491 288L481 232H103L102 226Q100
214 99 204T98 182Q98 110 140 67T256 24Q318 24 357 56T417 139H460Q449 106 431 79T387 31T327 0T253 -12ZM109 269H444L448 292Q450 301 450 311T451 331Q451 400 410 441T297 483Q218 483 174 436T116 306L109 269ZM308 583Q343 621 367 654T412 719H473Q441
676 414 645T355 583H308Z" />
<glyph unicode="&#xea;" glyph-name="ecircumflex" horiz-adv-x="551" d="M253 -12Q204 -12 167 3T105 46T66 108T53 185Q53 196 54 208T57 232L70 306Q87 404 142 462T299 520Q343 520 379 506T441 466T481 406T495 330Q495 320 494 309T491 288L481 232H103L102
226Q100 214 99 204T98 182Q98 110 140 67T256 24Q318 24 357 56T417 139H460Q449 106 431 79T387 31T327 0T253 -12ZM109 269H444L448 292Q450 301 450 311T451 331Q451 400 410 441T297 483Q218 483 174 436T116 306L109 269ZM328 719H373L458 583H414L349 688L248
583H198L328 719Z" />
<glyph unicode="&#xeb;" glyph-name="edieresis" horiz-adv-x="551" d="M253 -12Q204 -12 167 3T105 46T66 108T53 185Q53 196 54 208T57 232L70 306Q87 404 142 462T299 520Q343 520 379 506T441 466T481 406T495 330Q495 320 494 309T491 288L481 232H103L102
226Q100 214 99 204T98 182Q98 110 140 67T256 24Q318 24 357 56T417 139H460Q449 106 431 79T387 31T327 0T253 -12ZM109 269H444L448 292Q450 301 450 311T451 331Q451 400 410 441T297 483Q218 483 174 436T116 306L109 269ZM202 644Q202 660 212 671T240 682Q255
682 265 673T276 649Q276 632 265 621T237 610Q222 610 212 620T202 644ZM404 644Q404 660 414 671T442 682Q457 682 467 673T478 649Q478 632 467 621T439 610Q424 610 414 620T404 644Z" />
<glyph unicode="&#xec;" glyph-name="igrave" horiz-adv-x="232" d="M137 508H185L95 0H47L137 508ZM397 583Q378 612 359 649T326 719H380Q389 691 404 656T440 583H397Z" />
<glyph unicode="&#xed;" glyph-name="iacute" horiz-adv-x="232" d="M137 508H185L95 0H47L137 508ZM406 583Q441 621 465 654T510 719H571Q539 676 512 645T453 583H406Z" />
<glyph unicode="&#xee;" glyph-name="icircumflex" horiz-adv-x="232" d="M137 508H185L95 0H47L137 508ZM428 719H473L558 583H514L449 688L348 583H298L428 719Z" />
<glyph unicode="&#xef;" glyph-name="idieresis" horiz-adv-x="232" d="M137 508H185L95 0H47L137 508ZM298 644Q298 660 308 671T336 682Q351 682 361 673T372 649Q372 632 361 621T333 610Q318 610 308 620T298 644ZM500 644Q500 660 510 671T538 682Q553 682
563 673T574 649Q574 632 563 621T535 610Q520 610 510 620T500 644Z" />
<glyph unicode="&#xf0;" glyph-name="eth" horiz-adv-x="562" d="M201 602L337 641Q314 665 288 687T233 730H292Q339 695 378 653L505 689L515 656L403 623Q452 562 480 490T509 337Q509 318 508 300T502 261L489 188Q481 145 462 108T414 44T345 2T260 -14Q213
-14 175 1T110 42T68 106T53 187Q53 209 57 232L69 301Q85 393 140 446T287 499Q350 499 398 467T467 384Q456 453 430 508T363 612L210 568L201 602ZM263 24Q335 24 382 71T443 193L454 255Q457 271 457 288Q457 322 446 353T412 409T360 447T292 461Q220 461
176 422T115 293L103 226Q99 203 99 185Q99 113 143 69T263 24Z" />
<glyph unicode="&#xf1;" glyph-name="ntilde" horiz-adv-x="580" d="M132 508H177L158 403Q184 457 233 488T351 520Q386 520 415 509T467 478T501 428T513 361Q513 350 512 340T509 318L453 0H405L461 318Q463 326 464 337T465 356Q465 415 430 447T334 479Q301
479 270 466T212 428T168 368T141 289L90 0H42L132 508ZM184 602Q198 645 221 672T287 700Q309 700 329 689T368 666T403 642T434 631Q447 631 456 637T472 654T484 678T495 704L527 693Q522 677 515 660T496 629T470 605T433 595Q414 595 396 606T360 629T324
653T288 664Q259 664 244 643T217 591L184 602Z" />
<glyph unicode="&#xf2;" glyph-name="ograve" horiz-adv-x="560" d="M70 305Q89 410 147 465T302 520Q348 520 386 505T451 464T492 401T507 322Q507 311 506 300T503 278L489 198Q481 151 462 112T414 46T347 3T261 -12Q213 -12 175 3T109 44T68 107T53 187Q53
209 57 232L70 305ZM457 283Q459 292 460 302T461 322Q461 357 450 386T417 437T367 470T301 482Q221 482 176 434T117 306L103 227Q101 215 100 205T99 185Q99 149 111 120T144 69T195 37T261 26Q337 26 382 73T442 199L457 283ZM295 583Q276 612 257 649T224
719H278Q287 691 302 656T338 583H295Z" />
<glyph unicode="&#xf3;" glyph-name="oacute" horiz-adv-x="560" d="M70 305Q89 410 147 465T302 520Q348 520 386 505T451 464T492 401T507 322Q507 311 506 300T503 278L489 198Q481 151 462 112T414 46T347 3T261 -12Q213 -12 175 3T109 44T68 107T53 187Q53
209 57 232L70 305ZM457 283Q459 292 460 302T461 322Q461 357 450 386T417 437T367 470T301 482Q221 482 176 434T117 306L103 227Q101 215 100 205T99 185Q99 149 111 120T144 69T195 37T261 26Q337 26 382 73T442 199L457 283ZM310 583Q345 621 369 654T414
719H475Q443 676 416 645T357 583H310Z" />
<glyph unicode="&#xf4;" glyph-name="ocircumflex" horiz-adv-x="560" d="M70 305Q89 410 147 465T302 520Q348 520 386 505T451 464T492 401T507 322Q507 311 506 300T503 278L489 198Q481 151 462 112T414 46T347 3T261 -12Q213 -12 175 3T109 44T68 107T53
187Q53 209 57 232L70 305ZM457 283Q459 292 460 302T461 322Q461 357 450 386T417 437T367 470T301 482Q221 482 176 434T117 306L103 227Q101 215 100 205T99 185Q99 149 111 120T144 69T195 37T261 26Q337 26 382 73T442 199L457 283ZM337 719H382L467 583H423L358
688L257 583H207L337 719Z" />
<glyph unicode="&#xf5;" glyph-name="otilde" horiz-adv-x="560" d="M70 305Q89 410 147 465T302 520Q348 520 386 505T451 464T492 401T507 322Q507 311 506 300T503 278L489 198Q481 151 462 112T414 46T347 3T261 -12Q213 -12 175 3T109 44T68 107T53 187Q53
209 57 232L70 305ZM457 283Q459 292 460 302T461 322Q461 357 450 386T417 437T367 470T301 482Q221 482 176 434T117 306L103 227Q101 215 100 205T99 185Q99 149 111 120T144 69T195 37T261 26Q337 26 382 73T442 199L457 283ZM175 602Q189 645 212 672T278
700Q300 700 320 689T359 666T394 642T425 631Q438 631 447 637T463 654T475 678T486 704L518 693Q513 677 506 660T487 629T461 605T424 595Q405 595 387 606T351 629T315 653T279 664Q250 664 235 643T208 591L175 602Z" />
<glyph unicode="&#xf6;" glyph-name="odieresis" horiz-adv-x="560" d="M70 305Q89 410 147 465T302 520Q348 520 386 505T451 464T492 401T507 322Q507 311 506 300T503 278L489 198Q481 151 462 112T414 46T347 3T261 -12Q213 -12 175 3T109 44T68 107T53 187Q53
209 57 232L70 305ZM457 283Q459 292 460 302T461 322Q461 357 450 386T417 437T367 470T301 482Q221 482 176 434T117 306L103 227Q101 215 100 205T99 185Q99 149 111 120T144 69T195 37T261 26Q337 26 382 73T442 199L457 283ZM205 644Q205 660 215 671T243
682Q258 682 268 673T279 649Q279 632 268 621T240 610Q225 610 215 620T205 644ZM407 644Q407 660 417 671T445 682Q460 682 470 673T481 649Q481 632 470 621T442 610Q427 610 417 620T407 644Z" />
<glyph unicode="&#xf7;" glyph-name="divide" horiz-adv-x="592" d="M105 380H529L521 340H97L105 380ZM243 168Q243 185 254 197T284 209Q298 209 308 200T318 176Q318 159 306 147T277 135Q263 135 253 144T243 168ZM309 544Q309 561 320 573T350 585Q364 585
374 576T384 552Q384 535 372 523T343 511Q329 511 319 520T309 544Z" />
<glyph unicode="&#xf8;" glyph-name="oslash" horiz-adv-x="561" d="M70 305Q89 410 147 465T302 520Q344 520 378 508T439 474L510 559H553L463 450Q484 424 495 392T507 322Q507 311 506 300T503 278L489 198Q481 151 462 112T414 46T347 3T261 -12Q217 -12
182 0T120 35L50 -50H7L96 58Q53 110 53 187Q53 209 57 232L70 305ZM457 283Q459 292 460 302T461 322Q461 352 454 374T434 415L146 67Q190 26 261 26Q337 26 382 73T442 199L457 283ZM99 185Q99 158 105 136T124 92L412 441Q392 461 364 471T301 482Q221 482
176 434T117 306L103 227Q101 215 100 205T99 185Z" />
<glyph unicode="&#xf9;" glyph-name="ugrave" horiz-adv-x="576" d="M443 0H398L416 105Q393 55 344 22T225 -12Q191 -12 162 -1T112 31T79 81T67 149Q67 160 68 171T71 193L127 508H175L119 193Q117 179 116 170T115 150Q115 90 148 60T240 29Q273 29 304 42T362
81T407 141T434 221L485 508H533L443 0ZM322 583Q303 612 284 649T251 719H305Q314 691 329 656T365 583H322Z" />
<glyph unicode="&#xfa;" glyph-name="uacute" horiz-adv-x="576" d="M443 0H398L416 105Q393 55 344 22T225 -12Q191 -12 162 -1T112 31T79 81T67 149Q67 160 68 171T71 193L127 508H175L119 193Q117 179 116 170T115 150Q115 90 148 60T240 29Q273 29 304 42T362
81T407 141T434 221L485 508H533L443 0ZM300 583Q335 621 359 654T404 719H465Q433 676 406 645T347 583H300Z" />
<glyph unicode="&#xfb;" glyph-name="ucircumflex" horiz-adv-x="576" d="M443 0H398L416 105Q393 55 344 22T225 -12Q191 -12 162 -1T112 31T79 81T67 149Q67 160 68 171T71 193L127 508H175L119 193Q117 179 116 170T115 150Q115 90 148 60T240 29Q273 29 304
42T362 81T407 141T434 221L485 508H533L443 0ZM347 719H392L477 583H433L368 688L267 583H217L347 719Z" />
<glyph unicode="&#xfc;" glyph-name="udieresis" horiz-adv-x="576" d="M443 0H398L416 105Q393 55 344 22T225 -12Q191 -12 162 -1T112 31T79 81T67 149Q67 160 68 171T71 193L127 508H175L119 193Q117 179 116 170T115 150Q115 90 148 60T240 29Q273 29 304
42T362 81T407 141T434 221L485 508H533L443 0ZM216 644Q216 660 226 671T254 682Q269 682 279 673T290 649Q290 632 279 621T251 610Q236 610 226 620T216 644ZM418 644Q418 660 428 671T456 682Q471 682 481 673T492 649Q492 632 481 621T453 610Q438 610 428
620T418 644Z" />
<glyph unicode="&#xfd;" glyph-name="yacute" horiz-adv-x="488" d="M-2 -121Q8 -124 19 -126T44 -128Q77 -128 99 -110T143 -55L178 5L76 508H124L207 54L451 508H500L222 2L184 -65Q157 -113 126 -138T43 -164Q30 -164 17 -162T-8 -155L-2 -121ZM252 583Q287
621 311 654T356 719H417Q385 676 358 645T299 583H252Z" />
<glyph unicode="&#xfe;" glyph-name="thorn" horiz-adv-x="583" d="M341 520Q387 520 422 505T482 464T518 402T530 325Q530 312 529 297T525 272L510 187Q493 90 437 39T292 -12Q253 -12 223 -1T169 30T132 72T111 119L59 -174H11L171 730H219L162 413Q171 432
187 451T226 486T277 510T341 520ZM331 482Q298 482 267 470T211 434T169 378T144 306L131 232Q129 222 129 215T128 200Q128 167 140 136T173 80T225 41T291 26Q361 26 405 70T463 192L478 278Q480 286 481 299T482 327Q482 399 443 440T331 482Z" />
<glyph unicode="&#xff;" glyph-name="ydieresis" horiz-adv-x="488" d="M-2 -121Q8 -124 19 -126T44 -128Q77 -128 99 -110T143 -55L178 5L76 508H124L207 54L451 508H500L222 2L184 -65Q157 -113 126 -138T43 -164Q30 -164 17 -162T-8 -155L-2 -121ZM162 644Q162
660 172 671T200 682Q215 682 225 673T236 649Q236 632 225 621T197 610Q182 610 172 620T162 644ZM364 644Q364 660 374 671T402 682Q417 682 427 673T438 649Q438 632 427 621T399 610Q384 610 374 620T364 644Z" />
<glyph unicode="&#x100;" glyph-name="Amacron" horiz-adv-x="657" d="M381 700H432L568 0H520L483 200H159L53 0H0L381 700ZM180 240H476L401 655L180 240ZM269 843H583L576 805H262L269 843Z" />
<glyph unicode="&#x101;" glyph-name="amacron" horiz-adv-x="553" d="M384 0L397 77Q386 60 368 44T325 16T270 -4T205 -12Q162 -12 130 -2T76 27T43 71T32 126Q32 173 49 205T95 257T165 285T251 294Q307 294 353 279T425 244L442 340Q448 371 441 397T417 442T373
471T311 482Q251 482 210 457T145 387H101Q130 450 181 485T318 520Q357 520 389 509T444 478T480 431T493 371Q493 355 490 339L430 0H384ZM219 19Q250 19 282 28T340 56T385 100T410 158L420 215Q391 235 350 248T257 262Q223 262 191 257T133 236T93 196T78
130Q78 79 112 49T219 19ZM204 665H495L489 627H198L204 665Z" />
<glyph unicode="&#x102;" glyph-name="Abreve" horiz-adv-x="657" d="M381 700H432L568 0H520L483 200H159L53 0H0L381 700ZM180 240H476L401 655L180 240ZM422 763Q390 763 363 771T317 794T289 832T281 882H320Q317 840 345 818T425 795Q475 795 505 820T545
882H584Q573 829 532 796T422 763Z" />
<glyph unicode="&#x103;" glyph-name="abreve" horiz-adv-x="553" d="M384 0L397 77Q386 60 368 44T325 16T270 -4T205 -12Q162 -12 130 -2T76 27T43 71T32 126Q32 173 49 205T95 257T165 285T251 294Q307 294 353 279T425 244L442 340Q448 371 441 397T417 442T373
471T311 482Q251 482 210 457T145 387H101Q130 450 181 485T318 520Q357 520 389 509T444 478T480 431T493 371Q493 355 490 339L430 0H384ZM219 19Q250 19 282 28T340 56T385 100T410 158L420 215Q391 235 350 248T257 262Q223 262 191 257T133 236T93 196T78
130Q78 79 112 49T219 19ZM359 583Q328 583 302 591T257 617T229 660T222 719H260Q255 670 281 642T362 614Q410 614 438 644T475 719H513Q504 662 466 623T359 583Z" />
<glyph unicode="&#x104;" glyph-name="Aogonek" horiz-adv-x="657" d="M490 -186Q453 -186 432 -166T411 -115Q411 -94 421 -76T448 -42T484 -17T520 0L483 200H159L53 0H0L381 700H432L568 0H555Q512 -21 483 -49T454 -114Q454 -134 468 -143T502 -152Q521 -152
535 -149L533 -181Q516 -186 490 -186ZM180 240H476L401 655L180 240Z" />
<glyph unicode="&#x105;" glyph-name="aogonek" horiz-adv-x="553" d="M354 -186Q317 -186 296 -166T275 -115Q275 -94 285 -76T312 -42T348 -17T384 0L397 77Q386 60 368 44T325 16T270 -4T205 -12Q162 -12 130 -2T76 27T43 71T32 126Q32 173 49 205T95 257T165
285T251 294Q307 294 353 279T425 244L442 340Q448 371 441 397T417 442T373 471T311 482Q251 482 210 457T145 387H101Q130 450 181 485T318 520Q357 520 389 509T444 478T480 431T493 371Q493 355 490 339L430 0H419Q376 -21 347 -49T318 -114Q318 -134 332 -143T366
-152Q385 -152 399 -149L397 -181Q380 -186 354 -186ZM219 19Q250 19 282 28T340 56T385 100T410 158L420 215Q391 235 350 248T257 262Q223 262 191 257T133 236T93 196T78 130Q78 79 112 49T219 19Z" />
<glyph unicode="&#x106;" glyph-name="Cacute" horiz-adv-x="695" d="M330 -14Q270 -14 223 6T144 60T94 142T76 246Q76 277 82 312L103 431Q127 567 198 640T397 714Q450 714 495 699T573 653T627 579T653 477H607Q598 570 544 621T395 673Q288 673 230 610T152
431L131 312Q128 295 127 279T125 245Q125 197 138 157T177 88T241 43T331 27Q379 27 418 43T486 86T534 148T564 223H610Q599 175 576 132T516 56T433 5T330 -14ZM398 763Q424 791 448 822T490 882H548Q520 845 496 817T445 763H398Z" />
<glyph unicode="&#x107;" glyph-name="cacute" horiz-adv-x="561" d="M256 -12Q210 -12 173 2T108 43T67 105T52 184Q52 207 56 227L71 312Q88 412 143 466T297 520Q337 520 373 508T437 473T481 415T500 335H458Q454 401 410 441T295 482Q220 482 177 437T118
307L103 221Q101 212 100 201T99 182Q99 113 141 70T259 26Q293 26 321 37T370 67T406 113T429 168H472Q463 130 445 97T400 40T336 2T256 -12ZM305 583Q340 621 364 654T409 719H470Q438 676 411 645T352 583H305Z" />
<glyph unicode="&#x108;" glyph-name="Ccircumflex" horiz-adv-x="695" d="M330 -14Q270 -14 223 6T144 60T94 142T76 246Q76 277 82 312L103 431Q127 567 198 640T397 714Q450 714 495 699T573 653T627 579T653 477H607Q598 570 544 621T395 673Q288 673 230
610T152 431L131 312Q128 295 127 279T125 245Q125 197 138 157T177 88T241 43T331 27Q379 27 418 43T486 86T534 148T564 223H610Q599 175 576 132T516 56T433 5T330 -14ZM427 882H474L566 763H519L449 853L346 763H295L427 882Z" />
<glyph unicode="&#x109;" glyph-name="ccircumflex" horiz-adv-x="561" d="M256 -12Q210 -12 173 2T108 43T67 105T52 184Q52 207 56 227L71 312Q88 412 143 466T297 520Q337 520 373 508T437 473T481 415T500 335H458Q454 401 410 441T295 482Q220 482 177 437T118
307L103 221Q101 212 100 201T99 182Q99 113 141 70T259 26Q293 26 321 37T370 67T406 113T429 168H472Q463 130 445 97T400 40T336 2T256 -12ZM332 719H377L462 583H418L353 688L252 583H202L332 719Z" />
<glyph unicode="&#x10a;" glyph-name="Cdotaccent" horiz-adv-x="695" d="M330 -14Q270 -14 223 6T144 60T94 142T76 246Q76 277 82 312L103 431Q127 567 198 640T397 714Q450 714 495 699T573 653T627 579T653 477H607Q598 570 544 621T395 673Q288 673 230 610T152
431L131 312Q128 295 127 279T125 245Q125 197 138 157T177 88T241 43T331 27Q379 27 418 43T486 86T534 148T564 223H610Q599 175 576 132T516 56T433 5T330 -14ZM400 816Q400 833 410 844T439 855Q455 855 465 845T476 819Q476 802 465 792T437 781Q420 781 410
791T400 816Z" />
<glyph unicode="&#x10b;" glyph-name="cdotaccent" horiz-adv-x="561" d="M256 -12Q210 -12 173 2T108 43T67 105T52 184Q52 207 56 227L71 312Q88 412 143 466T297 520Q337 520 373 508T437 473T481 415T500 335H458Q454 401 410 441T295 482Q220 482 177 437T118
307L103 221Q101 212 100 201T99 182Q99 113 141 70T259 26Q293 26 321 37T370 67T406 113T429 168H472Q463 130 445 97T400 40T336 2T256 -12ZM307 656Q307 673 317 684T346 695Q362 695 372 685T383 659Q383 642 372 632T344 621Q327 621 317 631T307 656Z" />
<glyph unicode="&#x10c;" glyph-name="Ccaron" horiz-adv-x="695" d="M330 -14Q270 -14 223 6T144 60T94 142T76 246Q76 277 82 312L103 431Q127 567 198 640T397 714Q450 714 495 699T573 653T627 579T653 477H607Q598 570 544 621T395 673Q288 673 230 610T152
431L131 312Q128 295 127 279T125 245Q125 197 138 157T177 88T241 43T331 27Q379 27 418 43T486 86T534 148T564 223H610Q599 175 576 132T516 56T433 5T330 -14ZM448 763H401L309 882H356L426 792L529 882H580L448 763Z" />
<glyph unicode="&#x10d;" glyph-name="ccaron" horiz-adv-x="561" d="M256 -12Q210 -12 173 2T108 43T67 105T52 184Q52 207 56 227L71 312Q88 412 143 466T297 520Q337 520 373 508T437 473T481 415T500 335H458Q454 401 410 441T295 482Q220 482 177 437T118
307L103 221Q101 212 100 201T99 182Q99 113 141 70T259 26Q293 26 321 37T370 67T406 113T429 168H472Q463 130 445 97T400 40T336 2T256 -12ZM353 583H308L223 719H267L333 614L433 719H483L353 583Z" />
<glyph unicode="&#x10e;" glyph-name="Dcaron" horiz-adv-x="688" d="M307 41Q418 41 482 97T565 256L594 420Q596 432 597 445T599 469Q599 510 587 544T550 604T489 644T407 659H217L108 41H307ZM175 700H418Q471 700 513 683T586 635T632 563T648 472Q648 460
647 446T643 420L614 256Q604 198 581 151T521 71T431 19T309 0H52L175 700ZM438 763H391L299 882H346L416 792L519 882H570L438 763Z" />
<glyph unicode="&#x10f;" glyph-name="dcaron" horiz-adv-x="718" d="M697 679Q697 695 707 705T735 715Q749 715 758 706T767 685Q767 673 764 666T753 648L685 553H656L719 648Q697 656 697 679ZM242 -12Q196 -12 161 3T101 44T65 105T52 182Q52 204 57 232L72
317Q89 417 144 468T291 520Q330 520 360 508T413 477T451 435T472 389L532 730H580L451 0H405L422 99Q414 79 398 59T359 24T307 -2T242 -12ZM252 26Q285 26 316 39T372 75T414 132T439 204L452 278Q455 293 455 310Q455 344 443 375T410 430T358 468T293 482Q149
482 119 312L104 227Q102 214 101 202T99 177Q99 106 139 66T252 26Z" />
<glyph unicode="&#x110;" glyph-name="Dcroat" horiz-adv-x="721" d="M59 370H150L208 700H451Q504 700 546 683T619 635T665 563T681 472Q681 460 680 446T676 420L647 256Q637 198 614 151T554 71T464 19T342 0H85L143 330H52L59 370ZM340 41Q451 41 515 97T598
256L627 420Q629 432 630 445T632 469Q632 510 620 544T583 604T522 644T440 659H250L199 370H393L386 330H192L141 41H340Z" />
<glyph unicode="&#x111;" glyph-name="dcroat" horiz-adv-x="604" d="M381 635H515L532 730H580L563 635H648L642 599H557L451 0H405L422 99Q414 79 398 59T359 24T307 -2T242 -12Q196 -12 161 3T101 44T65 105T52 182Q52 204 57 232L72 317Q89 417 144 468T291
520Q330 520 360 508T413 477T451 435T472 389L509 599H375L381 635ZM252 26Q285 26 316 39T372 75T414 132T439 204L452 278Q455 293 455 310Q455 344 443 375T410 430T358 468T293 482Q149 482 119 312L104 227Q102 214 101 202T99 177Q99 106 139 66T252 26Z"
/>
<glyph unicode="&#x112;" glyph-name="Emacron" horiz-adv-x="603" d="M175 700H618L612 659H217L167 376H532L525 335H160L108 41H504L496 0H52L175 700ZM261 843H575L568 805H254L261 843Z" />
<glyph unicode="&#x113;" glyph-name="emacron" horiz-adv-x="551" d="M253 -12Q204 -12 167 3T105 46T66 108T53 185Q53 196 54 208T57 232L70 306Q87 404 142 462T299 520Q343 520 379 506T441 466T481 406T495 330Q495 320 494 309T491 288L481 232H103L102
226Q100 214 99 204T98 182Q98 110 140 67T256 24Q318 24 357 56T417 139H460Q449 106 431 79T387 31T327 0T253 -12ZM109 269H444L448 292Q450 301 450 311T451 331Q451 400 410 441T297 483Q218 483 174 436T116 306L109 269ZM195 665H486L480 627H189L195 665Z"
/>
<glyph unicode="&#x114;" glyph-name="Ebreve" horiz-adv-x="603" d="M175 700H618L612 659H217L167 376H532L525 335H160L108 41H504L496 0H52L175 700ZM417 763Q385 763 358 771T312 794T284 832T276 882H315Q312 840 340 818T420 795Q470 795 500 820T540 882H579Q568
829 527 796T417 763Z" />
<glyph unicode="&#x115;" glyph-name="ebreve" horiz-adv-x="551" d="M253 -12Q204 -12 167 3T105 46T66 108T53 185Q53 196 54 208T57 232L70 306Q87 404 142 462T299 520Q343 520 379 506T441 466T481 406T495 330Q495 320 494 309T491 288L481 232H103L102
226Q100 214 99 204T98 182Q98 110 140 67T256 24Q318 24 357 56T417 139H460Q449 106 431 79T387 31T327 0T253 -12ZM109 269H444L448 292Q450 301 450 311T451 331Q451 400 410 441T297 483Q218 483 174 436T116 306L109 269ZM342 583Q311 583 285 591T240 617T212
660T205 719H243Q238 670 264 642T345 614Q393 614 421 644T458 719H496Q487 662 449 623T342 583Z" />
<glyph unicode="&#x116;" glyph-name="Edotaccent" horiz-adv-x="603" d="M175 700H618L612 659H217L167 376H532L525 335H160L108 41H504L496 0H52L175 700ZM368 816Q368 833 378 844T407 855Q423 855 433 845T444 819Q444 802 433 792T405 781Q388 781 378 791T368
816Z" />
<glyph unicode="&#x117;" glyph-name="edotaccent" horiz-adv-x="551" d="M253 -12Q204 -12 167 3T105 46T66 108T53 185Q53 196 54 208T57 232L70 306Q87 404 142 462T299 520Q343 520 379 506T441 466T481 406T495 330Q495 320 494 309T491 288L481 232H103L102
226Q100 214 99 204T98 182Q98 110 140 67T256 24Q318 24 357 56T417 139H460Q449 106 431 79T387 31T327 0T253 -12ZM109 269H444L448 292Q450 301 450 311T451 331Q451 400 410 441T297 483Q218 483 174 436T116 306L109 269ZM303 656Q303 673 313 684T342 695Q358
695 368 685T379 659Q379 642 368 632T340 621Q323 621 313 631T303 656Z" />
<glyph unicode="&#x118;" glyph-name="Eogonek" horiz-adv-x="603" d="M175 700H618L612 659H217L167 376H532L525 335H160L108 41H504L496 0H449Q406 -21 377 -49T348 -114Q348 -134 362 -143T396 -152Q415 -152 429 -149L427 -181Q410 -186 384 -186Q347 -186
326 -166T305 -115Q305 -94 315 -76T342 -42T378 -17T414 0H52L175 700Z" />
<glyph unicode="&#x119;" glyph-name="eogonek" horiz-adv-x="551" d="M253 -12Q204 -12 167 3T105 46T66 108T53 185Q53 196 54 208T57 232L70 306Q87 404 142 462T299 520Q343 520 379 506T441 466T481 406T495 330Q495 320 494 309T491 288L481 232H103L102
226Q100 214 99 204T98 182Q98 110 140 67T256 24Q318 24 357 56T417 139H460Q434 58 363 15Q345 4 325 -9T288 -39T259 -74T248 -115Q248 -135 262 -143T299 -152Q315 -152 329 -149L327 -181Q310 -186 284 -186Q247 -186 226 -167T205 -117Q205 -96 214 -78T236
-46T265 -21T294 -4Q285 -7 275 -9T253 -12ZM109 269H444L448 292Q450 301 450 311T451 331Q451 400 410 441T297 483Q218 483 174 436T116 306L109 269Z" />
<glyph unicode="&#x11a;" glyph-name="Ecaron" horiz-adv-x="603" d="M175 700H618L612 659H217L167 376H532L525 335H160L108 41H504L496 0H52L175 700ZM430 763H383L291 882H338L408 792L511 882H562L430 763Z" />
<glyph unicode="&#x11b;" glyph-name="ecaron" horiz-adv-x="551" d="M253 -12Q204 -12 167 3T105 46T66 108T53 185Q53 196 54 208T57 232L70 306Q87 404 142 462T299 520Q343 520 379 506T441 466T481 406T495 330Q495 320 494 309T491 288L481 232H103L102
226Q100 214 99 204T98 182Q98 110 140 67T256 24Q318 24 357 56T417 139H460Q449 106 431 79T387 31T327 0T253 -12ZM109 269H444L448 292Q450 301 450 311T451 331Q451 400 410 441T297 483Q218 483 174 436T116 306L109 269ZM355 583H310L225 719H269L335 614L435
719H485L355 583Z" />
<glyph unicode="&#x11c;" glyph-name="Gcircumflex" horiz-adv-x="694" d="M546 106Q532 80 510 58T459 20T399 -5T333 -14Q270 -14 222 6T141 63T93 147T76 252Q76 268 78 286T82 318L102 431Q126 565 196 639T391 714Q445 714 491 699T571 654T625 579T647 474H602Q597
568 543 620T390 673Q338 673 298 656T228 608T180 531T151 431L131 318Q128 301 126 284T124 248Q124 198 138 158T179 88T245 42T336 26Q385 26 424 44T493 92T541 163T568 250L574 285H348L356 326H629L572 0H527L546 106ZM416 882H463L555 763H508L438 853L335
763H284L416 882Z" />
<glyph unicode="&#x11d;" glyph-name="gcircumflex" horiz-adv-x="585" d="M236 -164Q204 -164 172 -156T111 -133T59 -96T23 -44H70Q80 -64 97 -79T137 -104T185 -120T238 -126Q312 -126 354 -90T408 16L427 125Q408 87 362 59T254 31Q210 31 175 46T114 87T74
150T60 228Q60 241 61 252T64 272L73 323Q90 420 144 470T292 520Q330 520 361 509T416 481T455 441T477 394L498 508H543L455 11Q441 -71 384 -117T236 -164ZM263 68Q298 68 328 80T383 113T423 165T446 232L456 289Q457 294 458 302T459 319Q459 353 447 383T412
435T359 470T295 483Q222 483 178 440T120 318L112 272Q110 260 109 250T108 229Q108 194 118 165T149 114T197 80T263 68ZM350 719H395L480 583H436L371 688L270 583H220L350 719Z" />
<glyph unicode="&#x11e;" glyph-name="Gbreve" horiz-adv-x="694" d="M546 106Q532 80 510 58T459 20T399 -5T333 -14Q270 -14 222 6T141 63T93 147T76 252Q76 268 78 286T82 318L102 431Q126 565 196 639T391 714Q445 714 491 699T571 654T625 579T647 474H602Q597
568 543 620T390 673Q338 673 298 656T228 608T180 531T151 431L131 318Q128 301 126 284T124 248Q124 198 138 158T179 88T245 42T336 26Q385 26 424 44T493 92T541 163T568 250L574 285H348L356 326H629L572 0H527L546 106ZM431 763Q399 763 372 771T326 794T298
832T290 882H329Q326 840 354 818T434 795Q484 795 514 820T554 882H593Q582 829 541 796T431 763Z" />
<glyph unicode="&#x11f;" glyph-name="gbreve" horiz-adv-x="585" d="M236 -164Q204 -164 172 -156T111 -133T59 -96T23 -44H70Q80 -64 97 -79T137 -104T185 -120T238 -126Q312 -126 354 -90T408 16L427 125Q408 87 362 59T254 31Q210 31 175 46T114 87T74 150T60
228Q60 241 61 252T64 272L73 323Q90 420 144 470T292 520Q330 520 361 509T416 481T455 441T477 394L498 508H543L455 11Q441 -71 384 -117T236 -164ZM263 68Q298 68 328 80T383 113T423 165T446 232L456 289Q457 294 458 302T459 319Q459 353 447 383T412 435T359
470T295 483Q222 483 178 440T120 318L112 272Q110 260 109 250T108 229Q108 194 118 165T149 114T197 80T263 68ZM355 583Q324 583 298 591T253 617T225 660T218 719H256Q251 670 277 642T358 614Q406 614 434 644T471 719H509Q500 662 462 623T355 583Z" />
<glyph unicode="&#x120;" glyph-name="Gdotaccent" horiz-adv-x="694" d="M546 106Q532 80 510 58T459 20T399 -5T333 -14Q270 -14 222 6T141 63T93 147T76 252Q76 268 78 286T82 318L102 431Q126 565 196 639T391 714Q445 714 491 699T571 654T625 579T647 474H602Q597
568 543 620T390 673Q338 673 298 656T228 608T180 531T151 431L131 318Q128 301 126 284T124 248Q124 198 138 158T179 88T245 42T336 26Q385 26 424 44T493 92T541 163T568 250L574 285H348L356 326H629L572 0H527L546 106ZM393 816Q393 833 403 844T432 855Q448
855 458 845T469 819Q469 802 458 792T430 781Q413 781 403 791T393 816Z" />
<glyph unicode="&#x121;" glyph-name="gdotaccent" horiz-adv-x="585" d="M236 -164Q204 -164 172 -156T111 -133T59 -96T23 -44H70Q80 -64 97 -79T137 -104T185 -120T238 -126Q312 -126 354 -90T408 16L427 125Q408 87 362 59T254 31Q210 31 175 46T114 87T74
150T60 228Q60 241 61 252T64 272L73 323Q90 420 144 470T292 520Q330 520 361 509T416 481T455 441T477 394L498 508H543L455 11Q441 -71 384 -117T236 -164ZM263 68Q298 68 328 80T383 113T423 165T446 232L456 289Q457 294 458 302T459 319Q459 353 447 383T412
435T359 470T295 483Q222 483 178 440T120 318L112 272Q110 260 109 250T108 229Q108 194 118 165T149 114T197 80T263 68ZM318 656Q318 673 328 684T357 695Q373 695 383 685T394 659Q394 642 383 632T355 621Q338 621 328 631T318 656Z" />
<glyph unicode="&#x122;" glyph-name="Gcommaaccent" horiz-adv-x="694" d="M546 106Q532 80 510 58T459 20T399 -5T333 -14Q270 -14 222 6T141 63T93 147T76 252Q76 268 78 286T82 318L102 431Q126 565 196 639T391 714Q445 714 491 699T571 654T625 579T647
474H602Q597 568 543 620T390 673Q338 673 298 656T228 608T180 531T151 431L131 318Q128 301 126 284T124 248Q124 198 138 158T179 88T245 42T336 26Q385 26 424 44T493 92T541 163T568 250L574 285H348L356 326H629L572 0H527L546 106ZM265 -123Q265 -109 275
-99T302 -89Q316 -89 324 -97T333 -117Q333 -128 329 -135T320 -151L255 -242H228L286 -151Q277 -148 271 -141T265 -123Z" />
<glyph unicode="&#x123;" glyph-name="gcommaaccent" horiz-adv-x="585" d="M236 -164Q204 -164 172 -156T111 -133T59 -96T23 -44H70Q80 -64 97 -79T137 -104T185 -120T238 -126Q312 -126 354 -90T408 16L427 125Q408 87 362 59T254 31Q210 31 175 46T114 87T74
150T60 228Q60 241 61 252T64 272L73 323Q90 420 144 470T292 520Q330 520 361 509T416 481T455 441T477 394L498 508H543L455 11Q441 -71 384 -117T236 -164ZM263 68Q298 68 328 80T383 113T423 165T446 232L456 289Q457 294 458 302T459 319Q459 353 447 383T412
435T359 470T295 483Q222 483 178 440T120 318L112 272Q110 260 109 250T108 229Q108 194 118 165T149 114T197 80T263 68ZM370 609Q370 595 360 585T333 575Q320 575 312 582T303 603Q303 613 306 620T316 636L376 721H403L349 636Q359 633 364 626T370 609Z"
/>
<glyph unicode="&#x124;" glyph-name="Hcircumflex" horiz-adv-x="699" d="M175 700H224L167 376H574L631 700H680L557 0H508L566 332H160L101 0H52L175 700ZM428 882H475L567 763H520L450 853L347 763H296L428 882Z" />
<glyph unicode="&#x125;" glyph-name="hcircumflex" horiz-adv-x="580" d="M171 730H219L162 408Q188 458 236 489T351 520Q386 520 415 509T467 478T501 428T513 361Q513 349 512 339T509 318L453 0H405L461 318Q463 326 464 336T465 356Q465 415 430 447T334
479Q299 479 268 466T211 427T167 367T141 289L90 0H42L171 730ZM452 912H499L591 793H544L474 883L371 793H320L452 912Z" />
<glyph unicode="&#x126;" glyph-name="Hbar" horiz-adv-x="761" d="M93 562H181L205 700H254L229 562H636L661 700H710L686 562H773L767 528H680L587 0H538L596 332H190L131 0H82L175 528H87L93 562ZM604 376L630 528H223L197 376H604Z" />
<glyph unicode="&#x127;" glyph-name="hbar" horiz-adv-x="601" d="M98 635H175L192 730H240L223 635H366L359 599H217L183 408Q209 458 257 489T372 520Q407 520 436 509T488 478T522 428T534 361Q534 349 533 339T530 318L474 0H426L482 318Q484 326 485 336T486
356Q486 415 451 447T355 479Q320 479 289 466T232 427T188 367T162 289L111 0H63L169 599H92L98 635Z" />
<glyph unicode="&#x128;" glyph-name="Itilde" horiz-adv-x="253" d="M180 700H229L106 0H57L180 700ZM297 777Q315 825 336 849T400 874Q422 874 445 863T490 840T530 816T563 805Q576 805 585 812T600 830T611 854T621 878L656 866Q650 849 643 832T624 800T598
778T562 769Q542 769 521 780T480 803T439 827T401 838Q372 838 358 818T331 765L297 777Z" />
<glyph unicode="&#x129;" glyph-name="itilde" horiz-adv-x="232" d="M137 508H185L95 0H47L137 508ZM8 602Q22 645 45 672T111 700Q133 700 153 689T192 666T227 642T258 631Q271 631 280 637T296 654T308 678T319 704L351 693Q346 677 339 660T320 629T294 605T257
595Q238 595 220 606T184 629T148 653T112 664Q83 664 68 643T41 591L8 602Z" />
<glyph unicode="&#x12a;" glyph-name="uni012A" horiz-adv-x="253" d="M180 700H229L106 0H57L180 700ZM324 843H638L631 805H317L324 843Z" />
<glyph unicode="&#x12b;" glyph-name="imacron" horiz-adv-x="232" d="M137 508H185L95 0H47L137 508ZM293 665H584L578 627H287L293 665Z" />
<glyph unicode="&#x12c;" glyph-name="Ibreve" horiz-adv-x="253" d="M180 700H229L106 0H57L180 700ZM481 763Q449 763 422 771T376 794T348 832T340 882H379Q376 840 404 818T484 795Q534 795 564 820T604 882H643Q632 829 591 796T481 763Z" />
<glyph unicode="&#x12d;" glyph-name="uni012D" horiz-adv-x="232" d="M137 508H185L95 0H47L137 508ZM439 583Q408 583 382 591T337 617T309 660T302 719H340Q335 670 361 642T442 614Q490 614 518 644T555 719H593Q584 662 546 623T439 583Z" />
<glyph unicode="&#x12e;" glyph-name="Iogonek" horiz-adv-x="253" d="M180 700H229L106 0H92Q53 -23 30 -49T6 -120Q6 -134 15 -143T44 -152Q60 -152 72 -149L70 -181Q57 -186 37 -186Q2 -186 -17 -169T-37 -122Q-37 -100 -29 -82T-8 -48T22 -21T57 0L180 700Z" />
<glyph unicode="&#x12f;" glyph-name="iogonek" horiz-adv-x="232" d="M27 -186Q-8 -186 -27 -169T-47 -122Q-47 -100 -39 -82T-18 -48T12 -21T47 0L137 508Q149 505 162 505Q176 505 185 508L95 0H82Q63 -13 47 -25T20 -51T3 -81T-4 -120Q-4 -134 5 -143T34 -152Q50
-152 62 -149L60 -181Q47 -186 27 -186ZM148 656Q148 673 158 684T187 695Q203 695 213 685T224 659Q224 642 213 632T185 621Q168 621 158 631T148 656Z" />
<glyph unicode="&#x130;" glyph-name="Idotaccent" horiz-adv-x="253" d="M180 700H229L106 0H57L180 700ZM183 816Q183 833 193 844T222 855Q238 855 248 845T259 819Q259 802 248 792T220 781Q203 781 193 791T183 816Z" />
<glyph unicode="&#x131;" glyph-name="dotlessi" horiz-adv-x="232" d="M137 508H185L95 0H47L137 508Z" />
<glyph unicode="&#x132;" glyph-name="IJ" horiz-adv-x="828" d="M180 700H229L106 0H57L180 700ZM492 -14Q450 -14 412 -1T344 38T299 100T288 183H334Q331 147 341 118T374 69T427 38T497 27Q535 27 565 39T617 72T654 123T674 187L764 700H813L722 181Q714
137 695 102T646 40T577 0T492 -14Z" />
<glyph unicode="&#x133;" glyph-name="ij" horiz-adv-x="464" d="M137 508Q149 505 162 505Q176 505 185 508L95 0H47L137 508ZM148 656Q148 673 158 684T187 695Q203 695 213 685T224 659Q224 642 213 632T185 621Q168 621 158 631T148 656ZM380 656Q380 673
390 684T419 695Q435 695 445 685T456 659Q456 642 445 632T417 621Q400 621 390 631T380 656ZM319 -46Q309 -103 282 -133T203 -164Q186 -164 172 -162T147 -156L153 -118Q161 -120 172 -122T198 -125Q231 -125 247 -106T271 -46L369 508Q381 505 394 505Q408
505 417 508L319 -46Z" />
<glyph unicode="&#x134;" glyph-name="Jcircumflex" horiz-adv-x="575" d="M239 -14Q197 -14 159 -1T91 38T46 100T35 183H81Q78 147 88 118T121 69T174 38T244 27Q282 27 312 39T364 72T401 123T421 187L511 700H560L469 181Q461 137 442 102T393 40T324 0T239
-14ZM530 882H577L669 763H622L552 853L449 763H398L530 882Z" />
<glyph unicode="&#x135;" glyph-name="jcircumflex" horiz-adv-x="232" d="M87 -46Q77 -103 50 -133T-29 -164Q-46 -164 -60 -162T-85 -156L-79 -118Q-71 -120 -60 -122T-34 -125Q-1 -125 15 -106T39 -46L137 508Q149 505 162 505Q176 505 185 508L87 -46ZM170
719H215L300 583H256L191 688L90 583H40L170 719Z" />
<glyph unicode="&#x136;" glyph-name="Kcommaaccent" horiz-adv-x="588" d="M175 700H224L165 362L565 700H629L218 350L520 0H461L162 347L101 0H52L175 700ZM231 -123Q231 -109 241 -99T268 -89Q282 -89 290 -97T299 -117Q299 -128 295 -135T286 -151L221 -242H194L252
-151Q243 -148 237 -141T231 -123Z" />
<glyph unicode="&#x137;" glyph-name="kcommaaccent" horiz-adv-x="492" d="M171 730H219L138 272L422 508H488L189 260L413 0H356L136 259L90 0H42L171 730ZM172 -123Q172 -109 182 -99T209 -89Q223 -89 231 -97T240 -117Q240 -128 236 -135T227 -151L162 -242H135L193
-151Q184 -148 178 -141T172 -123Z" />
<glyph unicode="&#x138;" glyph-name="kgreenlandic" horiz-adv-x="492" d="M132 508H180L138 273L422 508H488L189 260L413 0H356L136 260L90 0H42L132 508Z" />
<glyph unicode="&#x139;" glyph-name="Lacute" horiz-adv-x="559" d="M175 700H224L108 41H479L472 0H52L175 700ZM190 763Q216 791 240 822T282 882H340Q312 845 288 817T237 763H190Z" />
<glyph unicode="&#x13a;" glyph-name="lacute" horiz-adv-x="232" d="M176 730H224L95 0H47L176 730ZM186 793Q212 821 236 852T278 912H336Q308 875 284 847T233 793H186Z" />
<glyph unicode="&#x13b;" glyph-name="Lcommaaccent" horiz-adv-x="559" d="M175 700H224L108 41H479L472 0H52L175 700ZM221 -123Q221 -109 231 -99T258 -89Q272 -89 280 -97T289 -117Q289 -128 285 -135T276 -151L211 -242H184L242 -151Q233 -148 227 -141T221 -123Z" />
<glyph unicode="&#x13c;" glyph-name="lcommaaccent" horiz-adv-x="232" d="M176 730H224L95 0H47L176 730ZM267 -123Q267 -109 277 -99T304 -89Q318 -89 326 -97T335 -117Q335 -128 331 -135T322 -151L257 -242H230L288 -151Q279 -148 273 -141T267 -123Z" />
<glyph unicode="&#x13d;" glyph-name="Lcaron" horiz-adv-x="559" d="M402 649Q402 665 412 675T440 685Q454 685 463 676T472 655Q472 643 469 636T458 618L390 523H361L424 618Q402 626 402 649ZM175 700H224L108 41H479L472 0H52L175 700Z" />
<glyph unicode="&#x13e;" glyph-name="lcaron" horiz-adv-x="352" d="M341 679Q341 695 351 705T379 715Q393 715 402 706T411 685Q411 673 408 666T397 648L329 553H300L363 648Q341 656 341 679ZM176 730H224L95 0H47L176 730Z" />
<glyph unicode="&#x13f;" glyph-name="Ldot" horiz-adv-x="559" d="M175 700H224L108 41H479L472 0H52L175 700ZM323 345Q323 363 333 374T364 386Q379 386 389 376T400 350Q400 332 389 320T359 308Q343 308 333 318T323 345Z" />
<glyph unicode="&#x140;" glyph-name="ldot" horiz-adv-x="341" d="M176 730H224L95 0H47L176 730ZM250 303Q250 321 260 332T291 344Q306 344 316 334T327 308Q327 290 316 278T286 266Q270 266 260 276T250 303Z" />
<glyph unicode="&#x141;" glyph-name="Lslash" horiz-adv-x="580" d="M33 320L135 376L192 700H241L189 405L392 517L383 471L181 359L125 41H496L489 0H69L127 330L25 274L33 320Z" />
<glyph unicode="&#x142;" glyph-name="lslash" horiz-adv-x="244" d="M44 351L123 412L180 730H228L179 454L261 517L252 468L171 406L99 0H51L115 363L36 302L44 351Z" />
<glyph unicode="&#x143;" glyph-name="Nacute" horiz-adv-x="706" d="M175 700H221L528 74L639 700H687L564 0H518L210 624L100 0H52L175 700ZM398 763Q424 791 448 822T490 882H548Q520 845 496 817T445 763H398Z" />
<glyph unicode="&#x144;" glyph-name="nacute" horiz-adv-x="580" d="M132 508H177L158 403Q184 457 233 488T351 520Q386 520 415 509T467 478T501 428T513 361Q513 350 512 340T509 318L453 0H405L461 318Q463 326 464 337T465 356Q465 415 430 447T334 479Q301
479 270 466T212 428T168 368T141 289L90 0H42L132 508ZM308 583Q343 621 367 654T412 719H473Q441 676 414 645T355 583H308Z" />
<glyph unicode="&#x145;" glyph-name="Ncommaaccent" horiz-adv-x="706" d="M175 700H221L528 74L639 700H687L564 0H518L210 624L100 0H52L175 700ZM249 -123Q249 -109 259 -99T286 -89Q300 -89 308 -97T317 -117Q317 -128 313 -135T304 -151L239 -242H212L270
-151Q261 -148 255 -141T249 -123Z" />
<glyph unicode="&#x146;" glyph-name="ncommaaccent" horiz-adv-x="580" d="M132 508H177L158 403Q184 457 233 488T351 520Q386 520 415 509T467 478T501 428T513 361Q513 350 512 340T509 318L453 0H405L461 318Q463 326 464 337T465 356Q465 415 430 447T334
479Q301 479 270 466T212 428T168 368T141 289L90 0H42L132 508ZM204 -123Q204 -109 214 -99T241 -89Q255 -89 263 -97T272 -117Q272 -128 268 -135T259 -151L194 -242H167L225 -151Q216 -148 210 -141T204 -123Z" />
<glyph unicode="&#x147;" glyph-name="Ncaron" horiz-adv-x="706" d="M175 700H221L528 74L639 700H687L564 0H518L210 624L100 0H52L175 700ZM461 763H414L322 882H369L439 792L542 882H593L461 763Z" />
<glyph unicode="&#x148;" glyph-name="ncaron" horiz-adv-x="580" d="M132 508H177L158 403Q184 457 233 488T351 520Q386 520 415 509T467 478T501 428T513 361Q513 350 512 340T509 318L453 0H405L461 318Q463 326 464 337T465 356Q465 415 430 447T334 479Q301
479 270 466T212 428T168 368T141 289L90 0H42L132 508ZM370 583H325L240 719H284L350 614L450 719H500L370 583Z" />
<glyph unicode="&#x149;" glyph-name="napostrophe" horiz-adv-x="680" d="M367 679Q367 695 377 705T405 715Q419 715 428 706T437 685Q437 673 434 666T423 648L355 553H326L389 648Q367 656 367 679ZM232 508H277L258 403Q284 457 333 488T451 520Q486 520
515 509T567 478T601 428T613 361Q613 350 612 340T609 318L553 0H505L561 318Q563 326 564 337T565 356Q565 415 530 447T434 479Q401 479 370 466T312 428T268 368T241 289L190 0H142L232 508Z" />
<glyph unicode="&#x14a;" glyph-name="Eng" horiz-adv-x="706" d="M175 700H221L528 74L639 700H687L563 -6Q549 -87 499 -130T366 -174H330L337 -134H362Q428 -134 466 -101T515 -5L516 3L210 624L100 0H52L175 700Z" />
<glyph unicode="&#x14b;" glyph-name="eng" horiz-adv-x="581" d="M132 508H177L158 403Q184 457 233 488T351 520Q386 520 415 509T467 478T501 428T513 361Q513 350 512 340T509 318L449 -23Q435 -100 391 -137T264 -174H241L248 -135H264Q326 -135 358 -106T402
-17L461 318Q463 326 464 337T465 356Q465 415 430 447T334 479Q301 479 270 466T212 428T168 368T141 289L90 0H42L132 508Z" />
<glyph unicode="&#x14c;" glyph-name="Omacron" horiz-adv-x="713" d="M103 431Q127 566 200 640T405 714Q466 714 514 694T596 639T648 555T666 450Q666 436 665 419T660 386L640 273Q629 211 605 159T544 68T455 8T339 -14Q278 -14 230 6T147 62T95 147T77 253Q77
269 79 286T83 318L103 431ZM613 392Q615 406 616 419T618 449Q618 497 604 538T561 609T493 656T402 673Q346 673 304 655T230 605T180 527T150 426L131 318Q128 300 127 286T125 255Q125 207 139 166T180 93T247 45T342 27Q394 27 436 45T510 97T562 175T592
273L613 392ZM294 843H608L601 805H287L294 843Z" />
<glyph unicode="&#x14d;" glyph-name="omacron" horiz-adv-x="560" d="M70 305Q89 410 147 465T302 520Q348 520 386 505T451 464T492 401T507 322Q507 311 506 300T503 278L489 198Q481 151 462 112T414 46T347 3T261 -12Q213 -12 175 3T109 44T68 107T53 187Q53
209 57 232L70 305ZM457 283Q459 292 460 302T461 322Q461 357 450 386T417 437T367 470T301 482Q221 482 176 434T117 306L103 227Q101 215 100 205T99 185Q99 149 111 120T144 69T195 37T261 26Q337 26 382 73T442 199L457 283ZM206 665H497L491 627H200L206
665Z" />
<glyph unicode="&#x14e;" glyph-name="Obreve" horiz-adv-x="713" d="M103 431Q127 566 200 640T405 714Q466 714 514 694T596 639T648 555T666 450Q666 436 665 419T660 386L640 273Q629 211 605 159T544 68T455 8T339 -14Q278 -14 230 6T147 62T95 147T77 253Q77
269 79 286T83 318L103 431ZM613 392Q615 406 616 419T618 449Q618 497 604 538T561 609T493 656T402 673Q346 673 304 655T230 605T180 527T150 426L131 318Q128 300 127 286T125 255Q125 207 139 166T180 93T247 45T342 27Q394 27 436 45T510 97T562 175T592
273L613 392ZM454 763Q422 763 395 771T349 794T321 832T313 882H352Q349 840 377 818T457 795Q507 795 537 820T577 882H616Q605 829 564 796T454 763Z" />
<glyph unicode="&#x14f;" glyph-name="obreve" horiz-adv-x="560" d="M70 305Q89 410 147 465T302 520Q348 520 386 505T451 464T492 401T507 322Q507 311 506 300T503 278L489 198Q481 151 462 112T414 46T347 3T261 -12Q213 -12 175 3T109 44T68 107T53 187Q53
209 57 232L70 305ZM457 283Q459 292 460 302T461 322Q461 357 450 386T417 437T367 470T301 482Q221 482 176 434T117 306L103 227Q101 215 100 205T99 185Q99 149 111 120T144 69T195 37T261 26Q337 26 382 73T442 199L457 283ZM354 583Q323 583 297 591T252
617T224 660T217 719H255Q250 670 276 642T357 614Q405 614 433 644T470 719H508Q499 662 461 623T354 583Z" />
<glyph unicode="&#x150;" glyph-name="Ohungarumlaut" horiz-adv-x="713" d="M103 431Q127 566 200 640T405 714Q466 714 514 694T596 639T648 555T666 450Q666 436 665 419T660 386L640 273Q629 211 605 159T544 68T455 8T339 -14Q278 -14 230 6T147 62T95 147T77
253Q77 269 79 286T83 318L103 431ZM613 392Q615 406 616 419T618 449Q618 497 604 538T561 609T493 656T402 673Q346 673 304 655T230 605T180 527T150 426L131 318Q128 300 127 286T125 255Q125 207 139 166T180 93T247 45T342 27Q394 27 436 45T510 97T562 175T592
273L613 392ZM315 763Q338 794 358 823T394 882H446Q404 815 359 763H315ZM523 763Q546 794 566 823T602 882H654Q612 815 567 763H523Z" />
<glyph unicode="&#x151;" glyph-name="ohungarumlaut" horiz-adv-x="560" d="M70 305Q89 410 147 465T302 520Q348 520 386 505T451 464T492 401T507 322Q507 311 506 300T503 278L489 198Q481 151 462 112T414 46T347 3T261 -12Q213 -12 175 3T109 44T68 107T53
187Q53 209 57 232L70 305ZM457 283Q459 292 460 302T461 322Q461 357 450 386T417 437T367 470T301 482Q221 482 176 434T117 306L103 227Q101 215 100 205T99 185Q99 149 111 120T144 69T195 37T261 26Q337 26 382 73T442 199L457 283ZM227 583Q283 655 317 719H369Q346
682 322 648T270 583H227ZM409 583Q465 655 499 719H551Q528 682 504 648T452 583H409Z" />
<glyph unicode="&#x152;" glyph-name="OE" horiz-adv-x="1048" d="M359 0Q288 0 236 20T148 75T95 160T77 266Q77 297 83 329L101 431Q113 500 139 551T206 635T307 684T444 700H1063L1057 659H662L612 376H977L970 335H605L553 41H949L941 0H359ZM125 264Q125
217 139 177T182 106T257 59T365 41H504L613 659H441Q373 659 323 645T238 602T181 529T149 425L131 323Q129 309 127 295T125 264Z" />
<glyph unicode="&#x153;" glyph-name="oe" horiz-adv-x="942" d="M70 305Q89 410 147 465T302 520Q371 520 421 488T491 403Q515 455 566 487T690 520Q734 520 770 506T832 466T872 406T886 330Q886 320 885 309T882 288L872 232H494L493 226Q491 214 490 204T489
182Q489 110 531 67T647 24Q709 24 748 56T808 139H851Q840 106 822 79T778 31T718 0T644 -12Q608 -12 577 -2T521 25T480 66T458 117Q450 94 432 71T387 30T329 0T261 -12Q211 -12 173 3T108 44T67 107T53 187Q53 209 57 232L70 305ZM457 283Q459 292 460 302T461
322Q461 357 450 386T417 437T367 470T301 482Q221 482 176 434T117 306L103 227Q101 215 100 205T99 185Q99 149 111 120T144 69T195 37T261 26Q337 26 382 74T442 199L457 283ZM500 269H835L839 292Q841 301 841 311T842 331Q842 400 801 441T688 483Q609 483
565 436T507 306L500 269Z" />
<glyph unicode="&#x154;" glyph-name="Racute" horiz-adv-x="664" d="M397 271H149L101 0H52L175 700H451Q496 700 532 685T594 643T632 582T646 509Q646 465 632 427T592 359T529 307T444 277L558 0H507L397 271ZM375 311Q428 311 469 326T538 368T582 430T597
506Q597 536 588 563T559 612T510 647T441 660H217L156 311H375ZM372 763Q398 791 422 822T464 882H522Q494 845 470 817T419 763H372Z" />
<glyph unicode="&#x155;" glyph-name="racute" horiz-adv-x="340" d="M357 464Q346 467 329 467Q257 467 206 417T136 261L90 0H42L132 508H177L154 373Q175 440 222 476T339 513Q347 513 354 513T366 510L357 464ZM209 583Q244 621 268 654T313 719H374Q342 676
315 645T256 583H209Z" />
<glyph unicode="&#x156;" glyph-name="Rcommaaccent" horiz-adv-x="664" d="M397 271H149L101 0H52L175 700H451Q496 700 532 685T594 643T632 582T646 509Q646 465 632 427T592 359T529 307T444 277L558 0H507L397 271ZM375 311Q428 311 469 326T538 368T582
430T597 506Q597 536 588 563T559 612T510 647T441 660H217L156 311H375ZM246 -123Q246 -109 256 -99T283 -89Q297 -89 305 -97T314 -117Q314 -128 310 -135T301 -151L236 -242H209L267 -151Q258 -148 252 -141T246 -123Z" />
<glyph unicode="&#x157;" glyph-name="rcommaaccent" horiz-adv-x="340" d="M357 464Q346 467 329 467Q257 467 206 417T136 261L90 0H42L132 508H177L154 373Q175 440 222 476T339 513Q347 513 354 513T366 510L357 464ZM264 -123Q264 -109 274 -99T301 -89Q315
-89 323 -97T332 -117Q332 -128 328 -135T319 -151L254 -242H227L285 -151Q276 -148 270 -141T264 -123Z" />
<glyph unicode="&#x158;" glyph-name="Rcaron" horiz-adv-x="664" d="M397 271H149L101 0H52L175 700H451Q496 700 532 685T594 643T632 582T646 509Q646 465 632 427T592 359T529 307T444 277L558 0H507L397 271ZM375 311Q428 311 469 326T538 368T582 430T597
506Q597 536 588 563T559 612T510 647T441 660H217L156 311H375ZM421 763H374L282 882H329L399 792L502 882H553L421 763Z" />
<glyph unicode="&#x159;" glyph-name="rcaron" horiz-adv-x="340" d="M357 464Q346 467 329 467Q257 467 206 417T136 261L90 0H42L132 508H177L154 373Q175 440 222 476T339 513Q347 513 354 513T366 510L357 464ZM529 583H484L399 719H443L509 614L609 719H659L529
583Z" />
<glyph unicode="&#x15a;" glyph-name="Sacute" horiz-adv-x="638" d="M312 -14Q262 -14 215 0T132 43T80 111T71 202L73 213H118L116 202Q108 158 122 125T164 70T233 36T317 25Q360 25 397 36T463 68T507 120T523 192Q523 237 497 268T423 313L258 363Q200 380
169 418T137 508Q137 559 154 597T201 662T275 701T371 714Q417 714 462 701T542 662T594 597T603 507L602 501H558L559 507Q566 550 552 582T509 634T443 665T366 675Q327 675 294 665T237 634T199 583T185 512Q185 432 274 404L441 353Q501 335 536 293T571 196Q571
147 551 108T496 42T414 1T312 -14ZM371 763Q397 791 421 822T463 882H521Q493 845 469 817T418 763H371Z" />
<glyph unicode="&#x15b;" glyph-name="sacute" horiz-adv-x="517" d="M238 -12Q193 -12 155 0T91 33T52 82T45 144L46 149H88L87 143Q82 116 92 95T124 58T176 34T242 25Q311 25 354 55T397 142Q397 169 383 188T330 219L198 258Q150 272 125 302T99 373Q99 407
113 434T152 481T210 510T282 520Q317 520 351 511T412 482T453 433T460 363L459 357H417L418 363Q423 394 413 416T382 454T335 476T279 483Q219 483 182 454T145 374Q145 342 162 324T215 296L348 256Q395 242 419 214T443 146Q443 109 428 80T386 30T321 -1T238
-12ZM282 583Q317 621 341 654T386 719H447Q415 676 388 645T329 583H282Z" />
<glyph unicode="&#x15c;" glyph-name="Scircumflex" horiz-adv-x="638" d="M312 -14Q262 -14 215 0T132 43T80 111T71 202L73 213H118L116 202Q108 158 122 125T164 70T233 36T317 25Q360 25 397 36T463 68T507 120T523 192Q523 237 497 268T423 313L258 363Q200
380 169 418T137 508Q137 559 154 597T201 662T275 701T371 714Q417 714 462 701T542 662T594 597T603 507L602 501H558L559 507Q566 550 552 582T509 634T443 665T366 675Q327 675 294 665T237 634T199 583T185 512Q185 432 274 404L441 353Q501 335 536 293T571
196Q571 147 551 108T496 42T414 1T312 -14ZM399 882H446L538 763H491L421 853L318 763H267L399 882Z" />
<glyph unicode="&#x15d;" glyph-name="scircumflex" horiz-adv-x="517" d="M238 -12Q193 -12 155 0T91 33T52 82T45 144L46 149H88L87 143Q82 116 92 95T124 58T176 34T242 25Q311 25 354 55T397 142Q397 169 383 188T330 219L198 258Q150 272 125 302T99 373Q99
407 113 434T152 481T210 510T282 520Q317 520 351 511T412 482T453 433T460 363L459 357H417L418 363Q423 394 413 416T382 454T335 476T279 483Q219 483 182 454T145 374Q145 342 162 324T215 296L348 256Q395 242 419 214T443 146Q443 109 428 80T386 30T321
-1T238 -12ZM309 719H354L439 583H395L330 688L229 583H179L309 719Z" />
<glyph unicode="&#x15e;" glyph-name="Scedilla" horiz-adv-x="638" d="M290 -186Q251 -186 226 -180L229 -148Q256 -154 286 -154Q313 -154 330 -145T348 -118Q348 -101 335 -94T298 -85L253 -80L273 -11Q228 -6 188 10T119 54T76 118T71 202L73 213H118L116
202Q108 158 122 125T164 70T233 36T317 25Q360 25 397 36T463 68T507 120T523 192Q523 237 497 268T423 313L258 363Q200 380 169 418T137 508Q137 559 154 597T201 662T275 701T371 714Q417 714 462 701T542 662T594 597T603 507L602 501H558L559 507Q566 550
552 582T509 634T443 665T366 675Q327 675 294 665T237 634T199 583T185 512Q185 432 274 404L441 353Q501 335 536 293T571 196Q571 147 551 108T496 42T414 1T312 -14H305L295 -53L322 -56Q344 -58 364 -72T385 -114Q385 -149 359 -167T290 -186Z" />
<glyph unicode="&#x15f;" glyph-name="scedilla" horiz-adv-x="517" d="M214 -186Q175 -186 150 -180L153 -148Q180 -154 210 -154Q237 -154 254 -145T272 -118Q272 -101 259 -94T222 -85L177 -80L198 -9Q161 -5 131 8T79 42T49 88T45 144L46 149H88L87 143Q82
116 92 95T124 58T176 34T242 25Q311 25 354 55T397 142Q397 169 383 188T330 219L198 258Q150 272 125 302T99 373Q99 407 113 434T152 481T210 510T282 520Q317 520 351 511T412 482T453 433T460 363L459 357H417L418 363Q423 394 413 416T382 454T335 476T279
483Q219 483 182 454T145 374Q145 342 162 324T215 296L348 256Q395 242 419 214T443 146Q443 109 428 80T386 30T321 -1T238 -12H230L219 -53L246 -56Q268 -58 288 -72T309 -114Q309 -149 283 -167T214 -186Z" />
<glyph unicode="&#x160;" glyph-name="Scaron" horiz-adv-x="638" d="M312 -14Q262 -14 215 0T132 43T80 111T71 202L73 213H118L116 202Q108 158 122 125T164 70T233 36T317 25Q360 25 397 36T463 68T507 120T523 192Q523 237 497 268T423 313L258 363Q200 380
169 418T137 508Q137 559 154 597T201 662T275 701T371 714Q417 714 462 701T542 662T594 597T603 507L602 501H558L559 507Q566 550 552 582T509 634T443 665T366 675Q327 675 294 665T237 634T199 583T185 512Q185 432 274 404L441 353Q501 335 536 293T571 196Q571
147 551 108T496 42T414 1T312 -14ZM420 763H373L281 882H328L398 792L501 882H552L420 763Z" />
<glyph unicode="&#x161;" glyph-name="scaron" horiz-adv-x="517" d="M238 -12Q193 -12 155 0T91 33T52 82T45 144L46 149H88L87 143Q82 116 92 95T124 58T176 34T242 25Q311 25 354 55T397 142Q397 169 383 188T330 219L198 258Q150 272 125 302T99 373Q99 407
113 434T152 481T210 510T282 520Q317 520 351 511T412 482T453 433T460 363L459 357H417L418 363Q423 394 413 416T382 454T335 476T279 483Q219 483 182 454T145 374Q145 342 162 324T215 296L348 256Q395 242 419 214T443 146Q443 109 428 80T386 30T321 -1T238
-12ZM327 583H282L197 719H241L307 614L407 719H457L327 583Z" />
<glyph unicode="&#x162;" glyph-name="Tcommaaccent" horiz-adv-x="549" d="M321 658H100L107 700H598L591 658H370L254 0H205L321 658ZM170 -123Q170 -109 180 -99T207 -89Q221 -89 229 -97T238 -117Q238 -128 234 -135T225 -151L160 -242H133L191 -151Q182 -148
176 -141T170 -123Z" />
<glyph unicode="&#x163;" glyph-name="tcommaaccent" horiz-adv-x="364" d="M167 470H74L81 508H174L200 654H248L222 508H362L355 470H215L156 136Q154 124 153 114T151 94Q151 61 167 45T219 29Q238 29 252 31T277 37L270 -1Q261 -5 244 -7T209 -10Q154 -10
129 17T103 91Q103 100 104 111T107 131L167 470ZM113 -123Q113 -109 123 -99T150 -89Q164 -89 172 -97T181 -117Q181 -128 177 -135T168 -151L103 -242H76L134 -151Q125 -148 119 -141T113 -123Z" />
<glyph unicode="&#x164;" glyph-name="Tcaron" horiz-adv-x="549" d="M321 658H100L107 700H598L591 658H370L254 0H205L321 658ZM384 763H337L245 882H292L362 792L465 882H516L384 763Z" />
<glyph unicode="&#x165;" glyph-name="tcaron" horiz-adv-x="370" d="M367 703Q367 717 377 727T404 737Q418 737 426 729T435 709Q435 698 431 691T422 675L357 584H330L388 675Q379 678 373 685T367 703ZM167 470H74L81 508H174L200 654H248L222 508H362L355
470H215L156 136Q154 124 153 114T151 94Q151 61 167 45T219 29Q238 29 252 31T277 37L270 -1Q261 -5 244 -7T209 -10Q154 -10 129 17T103 91Q103 100 104 111T107 131L167 470Z" />
<glyph unicode="&#x166;" glyph-name="Tbar" horiz-adv-x="550" d="M111 358H268L321 658H100L107 700H598L591 658H370L317 358H474L467 319H310L254 0H205L261 319H104L111 358Z" />
<glyph unicode="&#x167;" glyph-name="tbar" horiz-adv-x="366" d="M298 249H177L157 136Q155 124 154 114T152 94Q152 61 168 45T220 29Q239 29 253 31T278 37L271 -1Q262 -5 245 -7T210 -10Q155 -10 130 17T104 91Q104 100 105 111T108 131L129 249H37L44 285H135L168
470H75L82 508H175L201 654H249L223 508H363L356 470H216L183 285H305L298 249Z" />
<glyph unicode="&#x168;" glyph-name="Utilde" horiz-adv-x="698" d="M320 -14Q271 -14 228 1T153 43T102 108T83 193Q83 203 84 214T87 233L169 700H218L136 232Q134 224 133 215T132 194Q132 155 147 124T187 72T248 39T323 27Q417 27 476 79T552 221L636 700H685L601
221Q592 167 569 124T509 50T426 3T320 -14ZM264 777Q282 825 303 849T367 874Q389 874 412 863T457 840T497 816T530 805Q543 805 552 812T567 830T578 854T588 878L623 866Q617 849 610 832T591 800T565 778T529 769Q509 769 488 780T447 803T406 827T368 838Q339
838 325 818T298 765L264 777Z" />
<glyph unicode="&#x169;" glyph-name="utilde" horiz-adv-x="576" d="M443 0H398L416 105Q393 55 344 22T225 -12Q191 -12 162 -1T112 31T79 81T67 149Q67 160 68 171T71 193L127 508H175L119 193Q117 179 116 170T115 150Q115 90 148 60T240 29Q273 29 304 42T362
81T407 141T434 221L485 508H533L443 0ZM182 602Q196 645 219 672T285 700Q307 700 327 689T366 666T401 642T432 631Q445 631 454 637T470 654T482 678T493 704L525 693Q520 677 513 660T494 629T468 605T431 595Q412 595 394 606T358 629T322 653T286 664Q257
664 242 643T215 591L182 602Z" />
<glyph unicode="&#x16a;" glyph-name="Umacron" horiz-adv-x="698" d="M320 -14Q271 -14 228 1T153 43T102 108T83 193Q83 203 84 214T87 233L169 700H218L136 232Q134 224 133 215T132 194Q132 155 147 124T187 72T248 39T323 27Q417 27 476 79T552 221L636 700H685L601
221Q592 167 569 124T509 50T426 3T320 -14ZM290 843H604L597 805H283L290 843Z" />
<glyph unicode="&#x16b;" glyph-name="umacron" horiz-adv-x="576" d="M443 0H398L416 105Q393 55 344 22T225 -12Q191 -12 162 -1T112 31T79 81T67 149Q67 160 68 171T71 193L127 508H175L119 193Q117 179 116 170T115 150Q115 90 148 60T240 29Q273 29 304 42T362
81T407 141T434 221L485 508H533L443 0ZM216 665H507L501 627H210L216 665Z" />
<glyph unicode="&#x16c;" glyph-name="Ubreve" horiz-adv-x="698" d="M320 -14Q271 -14 228 1T153 43T102 108T83 193Q83 203 84 214T87 233L169 700H218L136 232Q134 224 133 215T132 194Q132 155 147 124T187 72T248 39T323 27Q417 27 476 79T552 221L636 700H685L601
221Q592 167 569 124T509 50T426 3T320 -14ZM445 763Q413 763 386 771T340 794T312 832T304 882H343Q340 840 368 818T448 795Q498 795 528 820T568 882H607Q596 829 555 796T445 763Z" />
<glyph unicode="&#x16d;" glyph-name="ubreve" horiz-adv-x="576" d="M443 0H398L416 105Q393 55 344 22T225 -12Q191 -12 162 -1T112 31T79 81T67 149Q67 160 68 171T71 193L127 508H175L119 193Q117 179 116 170T115 150Q115 90 148 60T240 29Q273 29 304 42T362
81T407 141T434 221L485 508H533L443 0ZM360 583Q329 583 303 591T258 617T230 660T223 719H261Q256 670 282 642T363 614Q411 614 439 644T476 719H514Q505 662 467 623T360 583Z" />
<glyph unicode="&#x16e;" glyph-name="Uring" horiz-adv-x="698" d="M320 -14Q271 -14 228 1T153 43T102 108T83 193Q83 203 84 214T87 233L169 700H218L136 232Q134 224 133 215T132 194Q132 155 147 124T187 72T248 39T323 27Q417 27 476 79T552 221L636 700H685L601
221Q592 167 569 124T509 50T426 3T320 -14ZM439 791Q465 791 478 807T492 848Q492 867 481 881T443 896Q417 896 402 881T387 839Q387 818 400 805T439 791ZM438 763Q402 763 379 784T356 839Q356 877 379 900T444 923Q478 923 501 903T524 848Q524 815 502 789T438
763Z" />
<glyph unicode="&#x16f;" glyph-name="uring" horiz-adv-x="576" d="M443 0H398L416 105Q393 55 344 22T225 -12Q191 -12 162 -1T112 31T79 81T67 149Q67 160 68 171T71 193L127 508H175L119 193Q117 179 116 170T115 150Q115 90 148 60T240 29Q273 29 304 42T362
81T407 141T434 221L485 508H533L443 0ZM353 611Q379 611 392 627T406 668Q406 687 395 701T357 716Q331 716 316 701T301 659Q301 638 314 625T353 611ZM352 583Q316 583 293 604T270 659Q270 697 293 720T358 743Q392 743 415 723T438 668Q438 635 416 609T352
583Z" />
<glyph unicode="&#x170;" glyph-name="Uhungarumlaut" horiz-adv-x="698" d="M320 -14Q271 -14 228 1T153 43T102 108T83 193Q83 203 84 214T87 233L169 700H218L136 232Q134 224 133 215T132 194Q132 155 147 124T187 72T248 39T323 27Q417 27 476 79T552 221L636
700H685L601 221Q592 167 569 124T509 50T426 3T320 -14ZM305 763Q328 794 348 823T384 882H436Q394 815 349 763H305ZM513 763Q536 794 556 823T592 882H644Q602 815 557 763H513Z" />
<glyph unicode="&#x171;" glyph-name="uhungarumlaut" horiz-adv-x="576" d="M443 0H398L416 105Q393 55 344 22T225 -12Q191 -12 162 -1T112 31T79 81T67 149Q67 160 68 171T71 193L127 508H175L119 193Q117 179 116 170T115 150Q115 90 148 60T240 29Q273 29
304 42T362 81T407 141T434 221L485 508H533L443 0ZM225 583Q281 655 315 719H367Q344 682 320 648T268 583H225ZM407 583Q463 655 497 719H549Q526 682 502 648T450 583H407Z" />
<glyph unicode="&#x172;" glyph-name="Uogonek" horiz-adv-x="698" d="M320 -14Q271 -14 228 1T153 43T102 108T83 193Q83 203 84 214T87 233L169 700H218L136 232Q134 224 133 215T132 194Q132 155 147 124T187 72T248 39T323 27Q417 27 476 79T552 221L636 700H685L601
221Q587 142 546 92T435 6Q411 -6 389 -19T351 -46T325 -77T315 -114Q315 -134 327 -143T362 -152Q378 -152 392 -149L390 -181Q373 -186 347 -186Q311 -186 292 -167T272 -116Q272 -97 280 -81T301 -52T332 -28T367 -8Q356 -11 344 -12T320 -14Z" />
<glyph unicode="&#x173;" glyph-name="uogonek" horiz-adv-x="576" d="M368 -186Q331 -186 310 -166T289 -115Q289 -94 299 -76T326 -42T362 -17T398 0L416 105Q393 55 344 22T225 -12Q191 -12 162 -1T112 31T79 81T67 149Q67 160 68 171T71 193L127 508H175L119
193Q117 179 116 170T115 150Q115 90 148 60T240 29Q273 29 304 42T362 81T407 141T434 221L485 508H533L443 0H433Q390 -21 361 -49T332 -114Q332 -134 346 -143T380 -152Q399 -152 413 -149L411 -181Q394 -186 368 -186Z" />
<glyph unicode="&#x174;" glyph-name="Wcircumflex" horiz-adv-x="894" d="M115 700H163L194 66L497 700H549L631 66L884 700H934L647 0H598L516 651L207 0H158L115 700ZM528 882H575L667 763H620L550 853L447 763H396L528 882Z" />
<glyph unicode="&#x175;" glyph-name="wcircumflex" horiz-adv-x="739" d="M82 508H128L171 58L387 508H437L501 58L698 508H746L517 0H469L405 455L185 0H136L82 508ZM421 719H466L551 583H507L442 688L341 583H291L421 719Z" />
<glyph unicode="&#x176;" glyph-name="Ycircumflex" horiz-adv-x="581" d="M269 272L94 700H142L299 315L585 700H642L317 268L270 0H221L269 272ZM365 882H412L504 763H457L387 853L284 763H233L365 882Z" />
<glyph unicode="&#x177;" glyph-name="ycircumflex" horiz-adv-x="488" d="M-2 -121Q8 -124 19 -126T44 -128Q77 -128 99 -110T143 -55L178 5L76 508H124L207 54L451 508H500L222 2L184 -65Q157 -113 126 -138T43 -164Q30 -164 17 -162T-8 -155L-2 -121ZM295 719H340L425
583H381L316 688L215 583H165L295 719Z" />
<glyph unicode="&#x178;" glyph-name="Ydieresis" horiz-adv-x="581" d="M269 272L94 700H142L299 315L585 700H642L317 268L270 0H221L269 272ZM225 815Q225 831 235 842T263 853Q278 853 288 844T299 820Q299 803 288 792T260 781Q245 781 235 791T225 815ZM452
815Q452 831 462 842T490 853Q505 853 515 844T526 820Q526 803 515 792T487 781Q472 781 462 791T452 815Z" />
<glyph unicode="&#x179;" glyph-name="Zacute" horiz-adv-x="612" d="M31 40L549 660H157L165 700H611L603 660L86 40H507L500 0H24L31 40ZM349 763Q375 791 399 822T441 882H499Q471 845 447 817T396 763H349Z" />
<glyph unicode="&#x17a;" glyph-name="zacute" horiz-adv-x="490" d="M22 36L414 470H111L117 508H476L470 472L78 38H397L391 0H16L22 36ZM272 583Q307 621 331 654T376 719H437Q405 676 378 645T319 583H272Z" />
<glyph unicode="&#x17b;" glyph-name="Zdotaccent" horiz-adv-x="612" d="M31 40L549 660H157L165 700H611L603 660L86 40H507L500 0H24L31 40ZM353 816Q353 833 363 844T392 855Q408 855 418 845T429 819Q429 802 418 792T390 781Q373 781 363 791T353 816Z" />
<glyph unicode="&#x17c;" glyph-name="zdotaccent" horiz-adv-x="490" d="M22 36L414 470H111L117 508H476L470 472L78 38H397L391 0H16L22 36ZM273 656Q273 673 283 684T312 695Q328 695 338 685T349 659Q349 642 338 632T310 621Q293 621 283 631T273 656Z" />
<glyph unicode="&#x17d;" glyph-name="Zcaron" horiz-adv-x="612" d="M31 40L549 660H157L165 700H611L603 660L86 40H507L500 0H24L31 40ZM419 763H372L280 882H327L397 792L500 882H551L419 763Z" />
<glyph unicode="&#x17e;" glyph-name="zcaron" horiz-adv-x="490" d="M22 36L414 470H111L117 508H476L470 472L78 38H397L391 0H16L22 36ZM328 583H283L198 719H242L308 614L408 719H458L328 583Z" />
<glyph unicode="&#x192;" glyph-name="florin" horiz-adv-x="505" d="M-25 -135H26Q71 -135 95 -112T132 -45L241 363H134L141 402H252L298 575Q315 640 349 670T445 700H513L506 661H452Q402 661 380 638T344 567L300 402H425L419 363H289L178 -52Q163 -109 127
-141T30 -174H-31L-25 -135Z" />
<glyph unicode="&#x1fa;" glyph-name="Aringacute" horiz-adv-x="657" d="M370 680Q350 688 339 705T328 746Q328 784 352 805T417 827Q452 827 475 808T498 755Q498 727 482 705T437 675L568 0H520L483 200H159L53 0H0L370 680ZM180 240H476L401 655L180 240ZM412
700Q438 700 452 715T466 755Q466 773 454 786T416 800Q390 800 375 786T359 746Q359 725 373 713T412 700ZM414 862Q441 891 459 914T492 960H548Q525 930 506 908T460 862H414Z" />
<glyph unicode="&#x1fb;" glyph-name="aringacute" horiz-adv-x="553" d="M359 592Q385 592 399 607T413 647Q413 665 401 678T363 692Q337 692 322 678T306 638Q306 617 320 605T359 592ZM358 564Q322 564 299 584T275 638Q275 676 299 697T364 719Q399 719 422
700T445 647Q445 614 422 589T358 564ZM364 754Q391 783 409 806T442 852H498Q475 822 456 800T410 754H364ZM384 0L397 77Q386 60 368 44T325 16T270 -4T205 -12Q162 -12 130 -2T76 27T43 71T32 126Q32 173 49 205T95 257T165 285T251 294Q307 294 353 279T425
244L442 340Q448 371 441 397T417 442T373 471T311 482Q251 482 210 457T145 387H101Q130 450 181 485T318 520Q357 520 389 509T444 478T480 431T493 371Q493 355 490 339L430 0H384ZM219 19Q250 19 282 28T340 56T385 100T410 158L420 215Q391 235 350 248T257
262Q223 262 191 257T133 236T93 196T78 130Q78 79 112 49T219 19Z" />
<glyph unicode="&#x1fc;" glyph-name="AEacute" horiz-adv-x="1024" d="M614 763Q640 791 664 822T706 882H764Q736 845 712 817T661 763H614ZM508 199H197L27 0H-32L571 700H1039L1033 659H638L588 376H953L946 335H581L529 41H925L917 0H473L508 199ZM515 241L588
656L233 241H515Z" />
<glyph unicode="&#x1fd;" glyph-name="aeacute" horiz-adv-x="919" d="M469 583Q504 621 528 654T573 719H634Q602 676 575 645T516 583H469ZM621 -12Q549 -12 502 22T435 107Q426 86 408 65T364 27T302 -1T224 -12Q180 -12 145 -1T85 30T46 79T32 143Q32 184
48 215T91 266T156 297T238 308Q268 308 296 302T349 286T392 264T425 239L441 334Q443 343 443 350T443 362Q443 416 408 449T312 482Q202 482 156 387H111Q139 452 189 486T316 520Q372 520 416 493T479 418Q507 468 553 494T667 520Q711 520 747 506T809 466T849
406T863 330Q863 322 862 311T859 288L849 232H471L470 226Q466 203 466 182Q466 110 508 67T624 24Q686 24 725 56T785 139H828Q817 106 799 79T755 31T695 0T621 -12ZM76 144Q76 85 117 54T230 23Q264 23 294 33T349 61T389 100T409 147L418 198Q404 213 383
227T337 251T286 267T236 273Q202 273 173 266T122 242T88 202T76 144ZM477 269H812L816 292Q819 311 819 331Q819 400 778 441T665 483Q586 483 544 438T484 306L477 269Z" />
<glyph unicode="&#x1fe;" glyph-name="Oslashacute" horiz-adv-x="713" d="M397 763Q423 791 447 822T489 882H547Q519 845 495 817T444 763H397ZM103 431Q127 566 200 640T405 714Q464 714 510 695T591 643L680 750H724L614 617Q639 583 652 541T666 450Q666
436 665 419T660 386L640 273Q629 211 605 159T544 68T455 8T339 -14Q279 -14 232 5T151 58L62 -50H18L129 84Q77 153 77 253Q77 269 79 286T83 318L103 431ZM125 255Q125 176 159 120L562 607Q534 638 494 655T402 673Q346 673 304 655T230 605T180 527T150 426L131
318Q128 300 127 286T125 255ZM613 392Q615 406 616 419T618 449Q618 486 610 519T583 579L180 92Q207 61 247 44T342 27Q394 27 436 45T510 97T562 175T592 273L613 392Z" />
<glyph unicode="&#x1ff;" glyph-name="oslashacute" horiz-adv-x="561" d="M300 583Q335 621 359 654T404 719H465Q433 676 406 645T347 583H300ZM70 305Q89 410 147 465T302 520Q344 520 378 508T439 474L510 559H553L463 450Q484 424 495 392T507 322Q507 311
506 300T503 278L489 198Q481 151 462 112T414 46T347 3T261 -12Q217 -12 182 0T120 35L50 -50H7L96 58Q53 110 53 187Q53 209 57 232L70 305ZM457 283Q459 292 460 302T461 322Q461 352 454 374T434 415L146 67Q190 26 261 26Q337 26 382 73T442 199L457 283ZM99
185Q99 158 105 136T124 92L412 441Q392 461 364 471T301 482Q221 482 176 434T117 306L103 227Q101 215 100 205T99 185Z" />
<glyph unicode="&#x218;" glyph-name="Scommaaccent" horiz-adv-x="638" d="M312 -14Q262 -14 215 0T132 43T80 111T71 202L73 213H118L116 202Q108 158 122 125T164 70T233 36T317 25Q360 25 397 36T463 68T507 120T523 192Q523 237 497 268T423 313L258 363Q200
380 169 418T137 508Q137 559 154 597T201 662T275 701T371 714Q417 714 462 701T542 662T594 597T603 507L602 501H558L559 507Q566 550 552 582T509 634T443 665T366 675Q327 675 294 665T237 634T199 583T185 512Q185 432 274 404L441 353Q501 335 536 293T571
196Q571 147 551 108T496 42T414 1T312 -14ZM253 -123Q253 -109 263 -99T290 -89Q304 -89 312 -97T321 -117Q321 -128 317 -135T308 -151L243 -242H216L274 -151Q265 -148 259 -141T253 -123Z" />
<glyph unicode="&#x219;" glyph-name="scommaaccent" horiz-adv-x="517" d="M238 -12Q193 -12 155 0T91 33T52 82T45 144L46 149H88L87 143Q82 116 92 95T124 58T176 34T242 25Q311 25 354 55T397 142Q397 169 383 188T330 219L198 258Q150 272 125 302T99 373Q99
407 113 434T152 481T210 510T282 520Q317 520 351 511T412 482T453 433T460 363L459 357H417L418 363Q423 394 413 416T382 454T335 476T279 483Q219 483 182 454T145 374Q145 342 162 324T215 296L348 256Q395 242 419 214T443 146Q443 109 428 80T386 30T321
-1T238 -12ZM177 -123Q177 -109 187 -99T214 -89Q228 -89 236 -97T245 -117Q245 -128 241 -135T232 -151L167 -242H140L198 -151Q189 -148 183 -141T177 -123Z" />
<glyph unicode="&#x21a;" glyph-name="Tcommaaccent" horiz-adv-x="549" d="M321 658H100L107 700H598L591 658H370L254 0H205L321 658ZM170 -123Q170 -109 180 -99T207 -89Q221 -89 229 -97T238 -117Q238 -128 234 -135T225 -151L160 -242H133L191 -151Q182 -148
176 -141T170 -123Z" />
<glyph unicode="&#x21b;" glyph-name="tcommaaccent" horiz-adv-x="364" d="M167 470H74L81 508H174L200 654H248L222 508H362L355 470H215L156 136Q154 124 153 114T151 94Q151 61 167 45T219 29Q238 29 252 31T277 37L270 -1Q261 -5 244 -7T209 -10Q154 -10
129 17T103 91Q103 100 104 111T107 131L167 470ZM113 -123Q113 -109 123 -99T150 -89Q164 -89 172 -97T181 -117Q181 -128 177 -135T168 -151L103 -242H76L134 -151Q125 -148 119 -141T113 -123Z" />
<glyph unicode="&#x2c6;" glyph-name="circumflex" horiz-adv-x="460" d="M275 719H320L405 583H361L296 688L195 583H145L275 719Z" />
<glyph unicode="&#x2c7;" glyph-name="caron" horiz-adv-x="460" d="M298 583H253L168 719H212L278 614L378 719H428L298 583Z" />
<glyph unicode="&#x2d8;" glyph-name="breve" horiz-adv-x="490" d="M298 583Q267 583 241 591T196 617T168 660T161 719H199Q194 670 220 642T301 614Q349 614 377 644T414 719H452Q443 662 405 623T298 583Z" />
<glyph unicode="&#x2d9;" glyph-name="dotaccent" horiz-adv-x="242" d="M142 656Q142 673 152 684T181 695Q197 695 207 685T218 659Q218 642 207 632T179 621Q162 621 152 631T142 656Z" />
<glyph unicode="&#x2da;" glyph-name="ring" horiz-adv-x="365" d="M238 611Q264 611 277 627T291 668Q291 687 280 701T242 716Q216 716 201 701T186 659Q186 638 199 625T238 611ZM237 583Q201 583 178 604T155 659Q155 697 178 720T243 743Q277 743 300 723T323
668Q323 635 301 609T237 583Z" />
<glyph unicode="&#x2db;" glyph-name="ogonek" horiz-adv-x="328" d="M113 -186Q76 -186 55 -166T34 -115Q34 -94 44 -76T71 -42T107 -17T143 0H178Q135 -21 106 -49T77 -114Q77 -134 91 -143T125 -152Q144 -152 158 -149L156 -181Q139 -186 113 -186Z" />
<glyph unicode="&#x2dc;" glyph-name="tilde" horiz-adv-x="520" d="M156 602Q170 645 193 672T259 700Q281 700 301 689T340 666T375 642T406 631Q419 631 428 637T444 654T456 678T467 704L499 693Q494 677 487 660T468 629T442 605T405 595Q386 595 368 606T332
629T296 653T260 664Q231 664 216 643T189 591L156 602Z" />
<glyph unicode="&#x2dd;" glyph-name="hungarumlaut" horiz-adv-x="497" d="M158 583Q214 655 248 719H300Q277 682 253 648T201 583H158ZM340 583Q396 655 430 719H482Q459 682 435 648T383 583H340Z" />
<glyph unicode="&#x312;" glyph-name="uni0312" horiz-adv-x="284" d="M214 609Q214 595 204 585T177 575Q164 575 156 582T147 603Q147 613 150 620T160 636L220 721H247L193 636Q203 633 208 626T214 609Z" />
<glyph unicode="&#x315;" glyph-name="uni0315" horiz-adv-x="286" d="M179 679Q179 695 189 705T217 715Q231 715 240 706T249 685Q249 673 246 666T235 648L167 553H138L201 648Q179 656 179 679Z" />
<glyph unicode="&#x326;" glyph-name="uni0326" horiz-adv-x="289" d="M64 -123Q64 -109 74 -99T101 -89Q115 -89 123 -97T132 -117Q132 -128 128 -135T119 -151L54 -242H27L85 -151Q76 -148 70 -141T64 -123Z" />
<glyph unicode="&#x3a9;" glyph-name="Omega" horiz-adv-x="715" d="M42 40H161Q130 98 110 163T89 311Q89 381 105 453T159 583T257 677T407 714Q467 714 514 692T592 632T640 543T657 434Q657 377 644 322T608 217T550 121T474 40H587L580 0H414L420 40Q510
116 559 218T609 430Q609 479 597 523T559 601T494 654T402 674Q327 674 277 640T196 553T152 434T138 307Q138 227 157 164T209 40L202 0H35L42 40Z" />
<glyph unicode="&#x3c0;" glyph-name="pi" horiz-adv-x="722" d="M219 470H105L111 508H699L693 470H555L495 130Q493 122 493 116T492 101Q492 39 563 39H615L609 0H550Q497 0 471 25T444 97Q444 112 447 130L507 470H267L184 0H136L219 470Z" />
</font>
</defs>
</svg>
